<?xml version="1.0" encoding="UTF-8" standalone="no"?>
<!DOCTYPE svg PUBLIC "-//W3C//DTD SVG 1.1//EN" "http://www.w3.org/Graphics/SVG/1.1/DTD/svg11.dtd">
<svg width="100%" height="100%" viewBox="0 0 118 43" version="1.1" xmlns="http://www.w3.org/2000/svg" xmlns:xlink="http://www.w3.org/1999/xlink" xml:space="preserve" xmlns:serif="http://www.serif.com/" style="fill-rule:evenodd;clip-rule:evenodd;stroke-linejoin:round;stroke-miterlimit:2;">
    <g transform="matrix(1,0,0,1,-39,-29)">
        <g transform="matrix(0.626157,0,0,0.817083,-1960.35,0)">
            <g transform="matrix(0.830771,0,0,0.636646,3021.52,-872.402)">
                <g transform="matrix(1.06809,0,0,1.06809,-576.56,891.038)">
                    <path d="M944.773,502.551L869.799,502.551L869.799,577.524L944.773,577.524L944.773,502.551ZM940.394,506.93L940.394,573.145C940.394,573.145 874.179,573.145 874.179,573.145C874.179,573.145 874.179,506.93 874.179,506.93L940.394,506.93Z" style="fill:white;"/>
                </g>
                <g transform="matrix(1.28996,0,0,1.28996,-519.064,856.136)">
                    <g transform="matrix(31.8576,0,0,31.8576,686.899,485.249)">
                        <path d="M0.317,-0.439C0.368,-0.439 0.413,-0.43 0.453,-0.412C0.492,-0.394 0.522,-0.369 0.543,-0.337C0.564,-0.305 0.574,-0.269 0.574,-0.229C0.574,-0.182 0.563,-0.141 0.542,-0.106C0.52,-0.071 0.489,-0.043 0.449,-0.024C0.409,-0.005 0.363,0.005 0.31,0.005C0.269,0.005 0.225,-0.002 0.18,-0.017C0.134,-0.031 0.093,-0.05 0.057,-0.074L0.096,-0.151C0.126,-0.128 0.159,-0.111 0.195,-0.099C0.231,-0.087 0.266,-0.081 0.301,-0.081C0.354,-0.081 0.395,-0.094 0.426,-0.119C0.457,-0.144 0.472,-0.179 0.472,-0.222C0.472,-0.263 0.457,-0.295 0.426,-0.318C0.395,-0.341 0.352,-0.352 0.295,-0.352C0.274,-0.352 0.244,-0.351 0.205,-0.348C0.166,-0.345 0.134,-0.342 0.11,-0.338L0.11,-0.7L0.545,-0.7L0.545,-0.613L0.2,-0.613L0.2,-0.435C0.231,-0.438 0.27,-0.439 0.317,-0.439Z" style="fill:white;fill-rule:nonzero;"/>
                    </g>
                    <g transform="matrix(31.8576,0,0,31.8576,707.765,485.249)">
                        <path d="M0.561,-0.266L0.561,-0.18L0.453,-0.18L0.453,-0L0.363,-0L0.363,-0.18L0.016,-0.18L0.016,-0.254L0.266,-0.7L0.36,-0.7L0.12,-0.266L0.363,-0.266L0.363,-0.445L0.453,-0.445L0.453,-0.266L0.561,-0.266Z" style="fill:white;fill-rule:nonzero;"/>
                    </g>
                </g>
                <g transform="matrix(1.28996,0,0,1.28996,-638.388,856.136)">
                    <g transform="matrix(31.8576,0,0,31.8576,652.078,485.249)">
                        <path d="M0.399,-0.7C0.47,-0.7 0.527,-0.685 0.568,-0.654C0.609,-0.623 0.629,-0.58 0.629,-0.525C0.629,-0.485 0.618,-0.451 0.595,-0.424C0.572,-0.396 0.541,-0.377 0.502,-0.368C0.551,-0.361 0.589,-0.341 0.617,-0.31C0.644,-0.278 0.658,-0.238 0.658,-0.191C0.658,-0.131 0.635,-0.084 0.591,-0.051C0.546,-0.017 0.483,-0 0.404,-0L0.1,-0L0.1,-0.7L0.399,-0.7ZM0.394,-0.403C0.437,-0.403 0.471,-0.412 0.495,-0.431C0.518,-0.449 0.53,-0.475 0.53,-0.509C0.53,-0.542 0.518,-0.568 0.495,-0.586C0.471,-0.604 0.437,-0.613 0.394,-0.612L0.196,-0.612L0.196,-0.403L0.394,-0.403ZM0.394,-0.088C0.446,-0.087 0.487,-0.097 0.516,-0.117C0.545,-0.138 0.56,-0.166 0.56,-0.203C0.56,-0.238 0.545,-0.266 0.516,-0.286C0.487,-0.306 0.446,-0.316 0.394,-0.316L0.196,-0.316L0.196,-0.088L0.394,-0.088Z" style="fill:white;fill-rule:nonzero;"/>
                    </g>
                    <g transform="matrix(31.8576,0,0,31.8576,674.761,485.249)">
                        <path d="M0.1,-0.7L0.196,-0.7L0.196,-0.087L0.502,-0.087L0.502,-0L0.1,-0L0.1,-0.7Z" style="fill:white;fill-rule:nonzero;"/>
                    </g>
                    <g transform="matrix(31.8576,0,0,31.8576,691.454,485.249)">
                        <path d="M0.406,-0.706C0.473,-0.706 0.535,-0.69 0.592,-0.659C0.648,-0.628 0.692,-0.585 0.725,-0.531C0.758,-0.476 0.774,-0.416 0.774,-0.351C0.774,-0.286 0.758,-0.226 0.725,-0.171C0.692,-0.116 0.648,-0.072 0.592,-0.041C0.535,-0.009 0.473,0.007 0.406,0.007C0.339,0.007 0.277,-0.009 0.221,-0.041C0.164,-0.072 0.12,-0.116 0.087,-0.171C0.054,-0.226 0.038,-0.286 0.038,-0.351C0.038,-0.416 0.054,-0.476 0.087,-0.531C0.12,-0.585 0.164,-0.628 0.22,-0.659C0.276,-0.69 0.338,-0.706 0.406,-0.706ZM0.407,-0.62C0.358,-0.62 0.313,-0.608 0.272,-0.584C0.23,-0.56 0.197,-0.528 0.172,-0.487C0.147,-0.446 0.135,-0.4 0.135,-0.351C0.135,-0.302 0.147,-0.256 0.172,-0.215C0.197,-0.174 0.23,-0.141 0.272,-0.117C0.313,-0.092 0.358,-0.08 0.407,-0.08C0.456,-0.08 0.5,-0.092 0.542,-0.117C0.583,-0.141 0.615,-0.174 0.64,-0.215C0.664,-0.256 0.676,-0.302 0.676,-0.351C0.676,-0.4 0.664,-0.446 0.64,-0.487C0.615,-0.528 0.583,-0.56 0.542,-0.584C0.5,-0.608 0.456,-0.62 0.407,-0.62Z" style="fill:white;fill-rule:nonzero;"/>
                    </g>
                    <g transform="matrix(31.8576,0,0,31.8576,716.622,485.249)">
                        <path d="M0.607,-0.532C0.58,-0.56 0.549,-0.582 0.514,-0.598C0.479,-0.613 0.442,-0.621 0.405,-0.621C0.356,-0.621 0.31,-0.609 0.269,-0.585C0.228,-0.561 0.195,-0.529 0.171,-0.488C0.147,-0.447 0.135,-0.401 0.135,-0.352C0.135,-0.303 0.147,-0.258 0.171,-0.217C0.195,-0.176 0.228,-0.143 0.269,-0.119C0.31,-0.095 0.356,-0.083 0.405,-0.083C0.442,-0.083 0.478,-0.091 0.513,-0.106C0.548,-0.121 0.58,-0.141 0.607,-0.167L0.665,-0.104C0.63,-0.069 0.589,-0.042 0.542,-0.023C0.495,-0.003 0.448,0.007 0.4,0.007C0.333,0.007 0.272,-0.009 0.217,-0.041C0.162,-0.072 0.118,-0.115 0.086,-0.17C0.054,-0.225 0.038,-0.285 0.038,-0.351C0.038,-0.416 0.054,-0.476 0.086,-0.531C0.119,-0.585 0.163,-0.628 0.219,-0.659C0.275,-0.69 0.337,-0.706 0.404,-0.706C0.453,-0.706 0.5,-0.697 0.546,-0.679C0.591,-0.66 0.631,-0.634 0.664,-0.601L0.607,-0.532Z" style="fill:white;fill-rule:nonzero;"/>
                    </g>
                    <g transform="matrix(31.8576,0,0,31.8576,738.89,485.249)">
                        <path d="M0.687,-0L0.571,-0L0.325,-0.323L0.196,-0.183L0.196,-0L0.1,-0L0.1,-0.7L0.196,-0.7L0.196,-0.307L0.554,-0.7L0.669,-0.7L0.392,-0.398L0.687,-0Z" style="fill:white;fill-rule:nonzero;"/>
                    </g>
                </g>
            </g>
        </g>
    </g>
</svg>
