<svg width="332" height="331" viewBox="0 0 332 331" fill="none" xmlns="http://www.w3.org/2000/svg">
<path d="M273.554 216.839C272.777 211.016 265.466 207.619 261.907 206.648L250.747 214.898C249.938 224.118 248.32 242.751 248.32 243.528C276.95 250.807 274.524 224.118 273.554 216.839Z" fill="#3A3A3C"/>
<path fill-rule="evenodd" clip-rule="evenodd" d="M261.76 205.854L262.1 205.947C263.947 206.451 266.747 207.576 269.199 209.333C271.642 211.084 273.85 213.545 274.276 216.744C274.761 220.38 275.645 229.055 272.708 235.93C271.226 239.398 268.756 242.443 264.761 244.124C260.783 245.798 255.392 246.078 248.142 244.234L247.594 244.095V243.529C247.594 243.296 247.7 241.937 247.862 239.965C248.026 237.964 248.253 235.272 248.506 232.318C249.012 226.41 249.618 219.446 250.023 214.835L250.051 214.509L261.76 205.854ZM262.054 207.448L251.444 215.289C251.04 219.897 250.45 226.673 249.957 232.442C249.704 235.396 249.477 238.085 249.312 240.084C249.23 241.084 249.164 241.91 249.119 242.509C249.105 242.682 249.094 242.835 249.084 242.968C255.845 244.601 260.708 244.25 264.197 242.782C267.769 241.279 270 238.561 271.369 235.358C274.134 228.888 273.319 220.579 272.833 216.936C272.484 214.312 270.648 212.163 268.351 210.517C266.209 208.982 263.762 207.955 262.054 207.448Z" fill="black"/>
<path d="M273.066 217.326C271.125 211.018 265.948 209.077 262.875 207.621V210.047C266.757 210.436 270.994 214.971 271.499 219.338C272.955 231.924 267.404 239.324 262.875 242.074C258.346 243.207 253.359 245.581 261.905 243.53C274.036 240.618 275.007 223.635 273.066 217.326Z" fill="#C5C6C8"/>
<path d="M229.885 243.529L243.957 209.561L248.325 181.416L250.266 168.314L254.148 174.623L258.515 186.754L262.397 206.65L259.485 223.148L254.148 234.794L248.325 243.529L239.59 254.205L226.003 265.851L213.386 274.1L197.858 281.864L185.727 285.746C191.55 280.57 203.487 269.83 204.652 268.277C205.816 266.724 221.959 251.131 229.885 243.529Z" fill="#9C9C9E"/>
<path d="M85.7565 126.583C60.0378 123.671 81.3893 174.785 87.6977 180.931C89.6387 174.332 143.987 148.904 141.561 130.465C128.362 135.123 95.4616 127.553 85.7565 126.583Z" fill="black"/>
<path d="M91.0955 182.387L98.8596 179.475L101.771 178.99L103.227 182.872L87.6987 220.722C87.3752 221.369 86.2429 221.984 84.3019 219.266C82.3609 216.549 82.5226 196.783 82.8461 187.24L91.0955 182.387Z" fill="white"/>
<path d="M110.994 138.715C112.935 139.103 125.39 138.553 131.375 138.229L117.302 154.728C114.391 151.17 108.47 143.858 108.082 143.082C107.597 142.112 108.568 138.229 110.994 138.715Z" fill="#616266"/>
<path d="M156.607 164.918L174.076 145.022L167.282 139.685L147.387 148.419L138.652 165.403L132.344 181.902L145.446 165.403L156.607 164.918Z" fill="#010101"/>
<path d="M91.0995 184.813C92.2641 184.037 97.0844 180.607 99.3489 178.99C98.0549 176.887 94.6904 172.196 91.5848 170.255C88.4791 168.314 84.7912 171.711 83.3354 173.652C83.1737 178.181 82.9472 187.433 83.3354 188.21C83.8207 189.18 89.6438 185.784 91.0995 184.813Z" fill="#616266"/>
<path d="M156.61 164.918C146.905 178.667 125.845 210.92 119.245 229.942C117.304 229.942 113.325 229.651 112.937 228.487C112.452 227.031 123.613 191.607 136.715 176.079C142.481 169.245 144.987 166.112 145.832 164.918H145.449C146.104 164.263 146.523 163.942 145.832 164.918H156.61Z" fill="#98999B"/>
<path d="M193.961 165.888L193.974 165.888C193.97 165.888 193.966 165.888 193.961 165.888L156.609 164.918L173.593 145.022L187.18 153.272C188.953 157.462 192.782 165.827 193.961 165.888Z" fill="#616266"/>
<path d="M197.85 172.196L193.483 165.403C204.32 164.918 226.286 164.238 227.451 165.403C228.615 166.567 243.141 167.829 250.258 168.314L240.067 191.121C234.568 192.577 223.278 195.78 222.113 196.944C220.657 198.4 205.129 185.298 194.939 182.387C186.786 180.058 162.427 191.121 151.266 196.944C155.924 176.758 184.263 172.035 197.85 172.196Z" fill="#C7C7C9"/>
<path d="M112.45 228.972C123.32 233.242 136.39 225.252 141.566 220.723L155.638 232.369L141.566 246.441L174.563 267.792L170.196 282.35L199.311 276.527L193.488 284.776L174.563 293.511L186.209 307.583C182.165 309.524 172.719 314.474 167.284 318.744C160.491 324.082 150.3 322.141 145.448 320.685C140.595 319.23 112.45 284.291 108.568 276.527C105.463 270.316 109.862 242.236 112.45 228.972Z" fill="#616266"/>
<path fill-rule="evenodd" clip-rule="evenodd" d="M124.234 110.327H174.806L175.001 110.476C192.64 123.907 231.182 152.975 244.36 161.889C251.168 166.495 255.599 175.144 258.391 183.939C261.191 192.76 262.389 201.875 262.634 207.59L262.635 207.626L262.633 207.662C261.454 228.69 249.747 245.799 235.683 258.613C221.969 271.11 205.95 279.585 195.043 283.699C205.587 301.509 207.104 312.688 204.917 319.748C202.686 326.951 196.689 329.608 193.2 330.605C191.58 331.068 189.745 330.596 187.941 329.696C186.118 328.786 184.203 327.378 182.356 325.771C178.877 322.744 175.547 318.932 173.397 316.162C166.536 320.007 161.566 321.784 156.993 322.243C152.302 322.713 148.1 321.784 142.836 320.42C140.023 319.69 136.911 317.426 133.761 314.367C130.589 311.288 127.297 307.32 124.128 303.056C117.824 294.571 111.964 284.846 108.468 278.434C93.1982 264.083 86.0729 241.148 83.3255 218.432C80.5701 195.651 82.2006 172.942 84.5557 158.974L84.5878 158.784L124.234 110.327ZM174.676 315.434C176.787 318.137 179.99 321.783 183.312 324.673C185.113 326.24 186.922 327.561 188.591 328.394C190.279 329.236 191.703 329.519 192.8 329.206C196.105 328.261 201.512 325.823 203.526 319.318C205.538 312.823 204.256 302.024 193.618 284.15C160.62 291.753 128.866 283.685 117.016 278.653L117.585 277.313C129.283 282.281 160.965 290.326 193.762 282.622C204.525 278.68 220.817 270.19 234.703 257.537C248.599 244.875 260.016 228.109 261.178 207.616C260.934 202.006 259.753 193.041 257.003 184.379C254.239 175.672 249.935 167.418 243.544 163.095C230.373 154.185 192.026 125.268 174.315 111.783H124.924L85.9592 159.407C83.6407 173.276 82.0472 195.739 84.7708 218.258C87.5097 240.903 94.597 263.459 109.548 277.452L109.634 277.532L109.69 277.635C113.156 284.003 119.01 293.726 125.297 302.188C128.441 306.42 131.681 310.319 134.775 313.323C137.889 316.347 140.774 318.381 143.202 319.01C148.464 320.375 152.44 321.236 156.848 320.794C161.254 320.352 166.163 318.6 173.23 314.584C176.687 312.621 180.65 310.121 185.315 306.98L186.128 308.187C181.766 311.125 178 313.514 174.676 315.434Z" fill="black"/>
<path d="M142.535 231.398C154.828 230.751 179.609 229.457 180.385 229.457C185.399 230.913 195.913 233.922 197.854 234.31C200.281 234.795 200.281 224.605 200.281 223.149C200.281 221.693 223.088 195.975 216.294 190.152C210.859 185.493 200.119 182.388 195.428 181.417C192.678 181.417 184.267 182.193 172.621 185.299C158.063 189.181 149.814 204.224 145.447 209.562C141.953 213.832 142.05 225.899 142.535 231.398Z" fill="#616266"/>
<path d="M1.32275 132.404C-2.1711 121.147 10.5426 101.51 17.3362 93.0988C21.0565 92.6135 30.4381 92.3224 38.2021 95.0398C45.9662 97.7572 48.8778 109.112 49.363 114.45L55.6714 122.214C58.777 123.767 74.7581 123.832 82.3604 123.67L87.6982 128.037C70.229 158.317 72.3318 186.915 75.5668 197.429C71.0306 198.941 66.1263 195.361 64.0798 193.23C65.0051 194.271 65.8872 196.327 62.9502 197.429C59.8446 198.593 54.2156 193.385 51.7893 190.635C52.5657 192.576 51.4658 194.032 50.8188 194.517C30.4381 190.15 5.69005 146.477 1.32275 132.404Z" fill="#616266"/>
<path fill-rule="evenodd" clip-rule="evenodd" d="M17.2434 92.3763C21.0229 91.8833 30.5312 91.5827 38.4439 94.3521C42.6009 95.8071 45.3832 99.5406 47.1754 103.459C48.9268 107.288 49.7937 111.422 50.068 114.161L56.1311 121.623C56.4395 121.754 56.9081 121.888 57.5423 122.015C58.2621 122.159 59.1474 122.285 60.1622 122.395C62.191 122.614 64.6978 122.762 67.3569 122.857C72.673 123.046 78.5544 123.022 82.3463 122.942L82.6148 122.936L88.639 127.865L88.33 128.4C70.9673 158.496 73.085 186.883 76.2639 197.214L76.473 197.894L75.7983 198.119C73.2831 198.957 70.7181 198.368 68.5789 197.352C67.5091 196.845 66.5229 196.22 65.6702 195.584C65.606 196.052 65.4096 196.513 65.0469 196.931C64.629 197.412 64.0176 197.806 63.2071 198.11C62.1961 198.489 61.0641 198.323 59.9881 197.928C58.9005 197.529 57.77 196.861 56.693 196.091C55.2525 195.062 53.8575 193.813 52.721 192.68C52.4987 193.856 51.7711 194.713 51.2569 195.099L50.9917 195.298L50.6676 195.228C45.3797 194.095 39.8936 190.44 34.6044 185.479C29.3015 180.505 24.1287 174.154 19.4713 167.518C10.1663 154.26 2.843 139.754 0.628894 132.62C-0.297203 129.635 -0.134494 126.155 0.687018 122.535C1.51023 118.907 3.00844 115.079 4.8187 111.365C8.43878 103.937 13.3483 96.8788 16.7713 92.6408L16.9544 92.414L17.2434 92.3763ZM64.6152 192.735C64.556 192.669 64.4963 192.606 64.4367 192.546L63.3871 193.554C63.4077 193.577 63.4286 193.599 63.4498 193.622C63.4812 193.655 63.5132 193.689 63.5458 193.723C63.9524 194.184 64.2573 194.774 64.2374 195.277C64.2283 195.507 64.1524 195.741 63.9475 195.977C63.7336 196.223 63.3539 196.5 62.6959 196.747C62.1541 196.95 61.4179 196.902 60.4892 196.561C59.5721 196.225 58.5614 195.637 57.5396 194.907C55.4983 193.448 53.5249 191.5 52.3364 190.153L51.1148 190.905C51.6375 192.212 51.0893 193.228 50.6163 193.724C45.8162 192.587 40.6937 189.194 35.6003 184.417C30.3945 179.534 25.286 173.269 20.6628 166.681C11.4068 153.493 4.17244 139.126 2.01925 132.188C1.19842 129.543 1.31474 126.347 2.1067 122.857C2.89696 119.374 4.34668 115.656 6.12732 112.002C9.62475 104.826 14.3588 97.9801 17.7199 93.7841C21.5595 93.33 30.5401 93.1281 37.963 95.7261C41.5701 96.9886 44.1257 100.291 45.8516 104.064C47.5702 107.822 48.4028 111.912 48.6395 114.515L48.6595 114.736L55.2067 122.794L55.3472 122.864C55.8246 123.103 56.4915 123.289 57.2563 123.442C58.0346 123.598 58.9668 123.73 60.0058 123.842C62.0844 124.067 64.6303 124.216 67.305 124.312C72.5322 124.498 78.2926 124.479 82.1085 124.402L86.7614 128.209C69.8938 157.815 71.5189 185.764 74.6604 196.921C72.8409 197.307 70.9443 196.864 69.2031 196.037C67.2547 195.113 65.5911 193.749 64.6152 192.735Z" fill="black"/>
<path d="M47.4221 112.509L43.5401 104.26C43.5401 108.142 40.6286 112.671 39.1728 114.45C42.6666 119.885 36.423 128.037 32.8645 131.434C32.8645 143.08 13.7777 138.875 4.23438 135.316L10.5427 149.874L12.969 145.992L19.7626 144.536L26.5561 146.962C27.5267 148.095 30.5352 149.486 34.8055 145.992C39.0757 142.498 44.9959 122.214 47.4221 112.509Z" fill="black"/>
<path d="M18.7933 96.9803C19.5697 95.0393 32.057 95.2011 38.2036 95.5246C35.4861 93.5835 22.8371 93.7453 16.8523 94.0688C4.04156 112.314 1.80938 126.581 2.29464 131.433C2.29464 124.446 13.2938 105.553 18.7933 96.9803Z" fill="white"/>
<path d="M61.4961 124.154C62.6607 124.543 76.2155 124.64 82.8473 124.64L83.3326 126.095C72.4629 127.648 64.2459 125.448 61.4961 124.154Z" fill="white"/>
<path d="M35.7747 156.667C42.3741 168.702 63.1107 179.798 72.6541 183.842L74.1099 195.003L63.9195 193.062C64.243 193.709 64.6959 195.197 63.9195 195.973C63.1431 196.749 56.8024 192.576 52.7586 190.15C53.9232 192.091 51.3028 193.385 50.8176 194.032C44.2181 192.867 28.9811 175.107 22.1875 166.372L27.0401 148.903H28.9811C38.298 152.009 46.1268 126.905 48.8766 113.965C55.6701 114.935 57.1259 118.817 54.2144 131.919C51.8852 142.401 40.9507 152.785 35.7747 156.667Z" fill="black"/>
<path fill-rule="evenodd" clip-rule="evenodd" d="M43.1165 115.58C45.155 117.821 47.077 120.434 48.2285 122.161L46.6135 123.238C45.5005 121.568 43.6375 119.037 41.6807 116.886C40.7014 115.81 39.7182 114.85 38.8095 114.144C37.8715 113.415 37.131 113.05 36.625 112.987L36.8658 111.061C37.9126 111.191 38.9998 111.833 40.0008 112.612C41.0312 113.412 42.0981 114.461 43.1165 115.58Z" fill="black"/>
<path fill-rule="evenodd" clip-rule="evenodd" d="M37.2962 133.049C39.3347 135.29 41.2567 137.902 42.4082 139.63L40.7932 140.706C39.6802 139.037 37.8172 136.506 35.8604 134.355C34.8811 133.279 33.8979 132.319 32.9892 131.613C32.0512 130.884 31.3107 130.519 30.8047 130.455L31.0454 128.529C32.0923 128.66 33.1795 129.302 34.1805 130.08C35.2108 130.881 36.2778 131.929 37.2962 133.049Z" fill="black"/>
<path d="M40.6317 202.766L85.2752 220.235L90.1278 222.176L86.731 238.675L34.8086 218.779L40.6317 202.766Z" fill="#AA8767"/>
<path fill-rule="evenodd" clip-rule="evenodd" d="M40.1974 201.816L85.5405 219.559L90.9585 221.727L87.266 239.661L33.875 219.203L40.1974 201.816ZM41.0559 203.716L35.7322 218.356L86.1859 237.688L89.287 222.626L85.0049 220.913L84.9999 220.911L41.0559 203.716Z" fill="black"/>
<path d="M49.3646 91.1582L44.9973 102.319C43.8651 100.863 41.3094 97.5636 40.1448 96.0108C38.9801 94.458 33.8364 93.4228 31.4102 93.0993L34.3217 85.3352C43.2504 82.2295 48.0706 87.9232 49.3646 91.1582Z" fill="#AA8767"/>
<path fill-rule="evenodd" clip-rule="evenodd" d="M45.07 85.2386C47.7148 86.772 49.3414 89.1428 50.0392 90.8872L50.1461 91.1546L45.2074 103.776L44.4215 102.765C43.29 101.311 40.7303 98.0057 39.5612 96.4469C39.381 96.2066 38.9771 95.9128 38.3197 95.6047C37.6845 95.3071 36.8974 95.0344 36.0502 94.7935C34.3572 94.312 32.5004 93.9785 31.3127 93.8201L30.4062 93.6992L33.7588 84.7592L34.0813 84.647C38.7355 83.0281 42.3945 83.6873 45.07 85.2386ZM34.8806 85.9136C38.9954 84.5676 42.1072 85.2035 44.3398 86.498C46.5287 87.7672 47.9256 89.7015 48.5777 91.1679L44.7851 100.86C43.513 99.2193 41.6642 96.8246 40.7258 95.5734C40.3237 95.0372 39.6478 94.6194 38.9374 94.2865C38.2048 93.9432 37.336 93.6457 36.4484 93.3932C35.0599 92.9984 33.5787 92.7009 32.4066 92.5109L34.8806 85.9136Z" fill="black"/>
<path d="M35.2935 93.0981L37.7197 85.334L35.2935 85.8192L32.8672 92.6128L35.2935 93.0981Z" fill="white"/>
<path d="M41.1172 96.0109L44.514 86.791C45.6786 86.791 46.9403 88.5703 47.4255 89.2173L43.5435 99.4077L41.1172 96.0109Z" fill="#382E22"/>
<path d="M12.4828 146.129L4.71875 162.975L20.2469 171.224L27.5258 149.041C22.4791 143.606 15.3944 144.835 12.4828 146.129Z" fill="#AA8767"/>
<path fill-rule="evenodd" clip-rule="evenodd" d="M13.0262 146.689L5.66752 162.655L19.8247 170.176L26.6976 149.23C22.1149 144.615 15.8751 145.526 13.0262 146.689ZM12.187 145.464C15.2334 144.111 22.7075 142.783 28.0589 148.546L28.3509 148.86L20.6688 172.273L3.76953 163.295L11.9364 145.576L12.187 145.464Z" fill="black"/>
<path d="M20.9919 171.623C20.092 173.627 15.6505 173.586 11.0715 171.53C6.49244 169.474 2.85113 165.465 3.751 163.461C4.65086 161.456 9.75114 162.216 14.3302 164.271C18.9092 166.327 21.8918 169.618 20.9919 171.623Z" fill="#3B2F23"/>
<path fill-rule="evenodd" clip-rule="evenodd" d="M19.1654 171.391C19.5395 171.242 19.636 171.089 19.6638 171.027C19.6916 170.965 19.742 170.791 19.6052 170.412C19.4651 170.023 19.1591 169.52 18.6369 168.944C17.5955 167.795 15.8845 166.565 13.7339 165.599C11.5474 164.618 9.28154 163.969 7.51585 163.792C6.62568 163.703 5.95365 163.743 5.51135 163.86C5.29691 163.917 5.17801 163.981 5.1207 164.021C5.0938 164.041 5.08258 164.053 5.0798 164.056C5.07936 164.057 5.07902 164.057 5.07877 164.058L5.07864 164.058L5.07745 164.062C5.07643 164.065 5.07482 164.072 5.07328 164.081C5.0702 164.101 5.06722 164.137 5.07125 164.192C5.07961 164.306 5.11665 164.481 5.21578 164.72C5.41729 165.205 5.81841 165.819 6.43466 166.498C7.6623 167.85 9.55026 169.251 11.6677 170.202C13.8183 171.167 15.8742 171.629 17.425 171.643C18.2028 171.651 18.7821 171.545 19.1654 171.391ZM11.0715 171.53C15.6505 173.586 20.092 173.627 20.9919 171.623C21.8918 169.618 18.9092 166.327 14.3302 164.271C9.75114 162.216 4.65086 161.456 3.751 163.461C2.85113 165.465 6.49244 169.474 11.0715 171.53Z" fill="black"/>
<path d="M5.69141 162.491L12.9702 146.963L7.63243 162.006L5.69141 162.491Z" fill="white"/>
<path d="M10.0564 152.785C17.8205 152.009 22.3496 155.373 24.1289 157.153L23.6436 158.608C18.597 153.95 11.8357 154.079 9.08594 154.726L10.0564 152.785Z" fill="#333333"/>
<path d="M8.60332 155.697C16.3674 154.921 21.3817 158.4 23.161 160.179L22.6757 162.006C20.214 157.638 10.3826 156.991 7.63281 157.638L8.60332 155.697Z" fill="#333333"/>
<path d="M15.3945 163.946L22.6734 146.477C24.2623 147.294 25.1279 147.794 26.5554 148.903L19.2766 166.372L15.3945 163.946Z" fill="#3B2F23" fill-opacity="0.8"/>
<path d="M38.6901 217.324L68.776 230.426L37.2344 219.265L38.6901 217.324Z" fill="#FFFFFD"/>
<path d="M49.8465 207.134C50.2347 210.628 46.1262 218.295 44.0234 221.691L44.9939 222.177C49.2642 218.295 50.9788 210.854 51.3023 207.619L49.8465 207.134Z" fill="#313133"/>
<path d="M53.7293 209.074C54.1175 212.568 50.009 219.75 47.9062 223.147L48.8768 223.632C53.147 219.75 54.8616 212.795 55.1851 209.559L53.7293 209.074Z" fill="#313133"/>
<path d="M87.2138 231.882L42.5703 206.164V204.223L89.1549 223.633L87.2138 231.882Z" fill="#3A2E22" fill-opacity="0.9"/>
<path d="M34.7524 219.602C32.6821 218.866 32.4167 214.295 34.1596 209.391C35.9025 204.487 38.9937 201.109 41.0639 201.844C43.1342 202.58 43.3996 207.152 41.6567 212.056C39.9138 216.959 36.8227 220.338 34.7524 219.602Z" fill="#AB8868"/>
<path fill-rule="evenodd" clip-rule="evenodd" d="M34.8565 217.762C35.0357 218.139 35.1936 218.214 35.2399 218.231C35.2862 218.247 35.4559 218.289 35.8331 218.109C36.2175 217.926 36.7066 217.559 37.2533 216.961C38.3424 215.771 39.4626 213.882 40.285 211.568C41.1075 209.254 41.4305 207.082 41.337 205.471C41.29 204.663 41.1423 204.07 40.9598 203.685C40.7807 203.307 40.6227 203.233 40.5764 203.216C40.5301 203.2 40.3605 203.158 39.9833 203.338C39.5988 203.521 39.1098 203.888 38.5631 204.486C37.474 205.676 36.3538 207.565 35.5313 209.879C34.7089 212.193 34.3859 214.364 34.4794 215.975C34.5263 216.784 34.674 217.377 34.8565 217.762ZM34.1596 209.391C32.4167 214.295 32.6821 218.866 34.7524 219.602C36.8227 220.338 39.9138 216.959 41.6567 212.056C43.3996 207.152 43.1342 202.58 41.0639 201.844C38.9937 201.109 35.9025 204.487 34.1596 209.391Z" fill="black"/>
<path d="M37.2336 216.839C35.2926 216.839 35.7778 211.016 36.2631 208.104C32.8663 213.928 34.8074 218.295 35.2926 218.295C35.7779 218.295 37.2336 217.324 37.2336 216.839Z" fill="#FFFFFD"/>
<path fill-rule="evenodd" clip-rule="evenodd" d="M9.64831 164.432C11.5893 164.432 10.4571 168.961 9.64831 171.225C11.2011 175.107 13.8539 170.255 14.9861 167.343C15.9567 166.696 17.8977 166.373 17.8977 170.255C17.8977 174.137 15.3096 176.401 14.0156 177.048V178.019C19.5224 178.019 20.6895 184.094 21.2104 186.806C21.2403 186.962 21.2681 187.107 21.2945 187.239C21.6827 189.18 20.1622 191.606 19.3534 192.576L20.324 194.517C22.265 194.032 25.1765 195.488 27.1175 197.429C28.6704 198.982 29.0586 202.929 29.0586 204.708L30.5143 205.193C36.8226 201.673 39.2489 206.164 39.2489 207.134C39.2489 207.911 37.9549 208.428 37.3079 208.59C36.4991 207.781 34.5905 206.746 33.4259 209.075C32.6465 210.634 33.8143 211.08 34.9933 211.53C36.0165 211.921 37.0481 212.315 36.8226 213.442C36.3374 215.869 33.9111 215.383 31.4848 214.413C29.5438 213.637 28.7351 210.531 28.5733 209.075L25.6618 208.105C23.7207 209.075 22.7502 209.56 16.9272 206.164C12.2687 203.446 14.3391 198.238 15.9567 195.973L14.9861 194.032C9.16307 194.517 7.22205 188.694 6.73679 185.298C6.34859 182.58 8.51605 180.283 9.64831 179.475V178.019C7.22203 177.048 5.28101 174.622 5.76626 170.255C6.25152 165.887 7.22203 164.432 9.64831 164.432ZM26.0721 202.282L23.1606 198.885C22.548 200.723 21.1621 200.82 20.2231 200.887C19.6746 200.925 19.2786 200.953 19.2786 201.311C19.2786 202.282 23.1606 205.193 23.1606 204.223C23.1606 203.446 25.1016 202.605 26.0721 202.282ZM16.0961 183.979L17.2355 188.987C16.0765 188.796 13.6547 188.612 13.2392 189.401C12.7197 190.386 10.3348 185.351 10.8542 184.365C11.0458 184.002 11.463 184.185 12.0409 184.44C13.0301 184.875 14.4902 185.517 16.0961 183.979Z" fill="black"/>
<path d="M196.884 16.4282C201.154 24.1923 192.193 32.6034 187.178 35.8384L177.473 34.3826L158.063 16.4282C155.152 4.29677 166.312 -0.55579 174.077 1.38523C181.841 3.32626 191.546 6.72305 196.884 16.4282Z" fill="#616266"/>
<path fill-rule="evenodd" clip-rule="evenodd" d="M161.495 2.84609C165.144 0.174085 170.177 -0.590845 174.313 0.443313C182.117 2.39413 192.187 5.87298 197.735 15.9601C200.124 20.3025 198.745 24.7571 196.32 28.372C193.892 31.9908 190.287 34.9883 187.706 36.6535L187.398 36.8521L177.035 35.2977L157.189 16.9404L157.121 16.6543C155.577 10.223 157.77 5.57301 161.495 2.84609ZM158.943 15.918L177.914 33.4668L186.957 34.8233C189.362 33.2203 192.561 30.4904 194.708 27.2906C196.949 23.9501 197.917 20.3172 196.035 16.8955C190.907 7.57234 181.567 4.25761 173.843 2.32638C170.215 1.41952 165.785 2.11035 162.641 4.41223C159.623 6.62174 157.705 10.3736 158.943 15.918Z" fill="black"/>
<path d="M179.902 4.78125C204.358 16.0392 194.297 29.2058 186.21 34.3818L176.02 23.7062C183.395 18.2714 181.681 8.82505 179.902 4.78125Z" fill="black"/>
<path d="M163.404 3.81065C167.674 1.09322 173.594 1.86961 178.932 3.81065C174.079 3.81065 169.391 2.51548 164.86 4.78116C160.978 6.72218 159.36 12.707 159.036 15.942C158.066 13.5158 158.066 7.20744 163.404 3.81065Z" fill="white"/>
<path d="M84.3001 21.7663C92.8407 20.6017 96.2698 26.4571 96.9168 29.5304L98.3725 30.9861C98.049 34.2212 97.305 40.8854 96.9168 41.6618C96.5286 42.4382 87.6969 53.6314 83.3296 59.131L77.0213 57.19C66.8309 55.7342 63.4342 48.4554 64.4047 40.6913C65.3752 32.9272 73.6245 23.2221 84.3001 21.7663Z" fill="#616266"/>
<path fill-rule="evenodd" clip-rule="evenodd" d="M97.8016 29.0418C97.3806 27.3479 96.2694 25.0779 94.1982 23.3199C91.9731 21.4313 88.7017 20.1875 84.1706 20.8054C78.5808 21.5676 73.6611 24.4822 70.0225 28.1835C66.3937 31.8748 63.961 36.4294 63.4433 40.5716C62.9374 44.6186 63.558 48.6324 65.7243 51.8491C67.8946 55.0717 71.533 57.3697 76.8095 58.1404L83.6791 60.2542L84.0912 59.7352C86.2758 56.9844 89.5771 52.8091 92.3814 49.2238C93.7833 47.4315 95.0628 45.7843 96.017 44.5354C96.4937 43.9115 96.892 43.3834 97.1846 42.9848C97.3305 42.786 97.4536 42.6149 97.5482 42.478C97.6291 42.361 97.7265 42.2164 97.7865 42.0965C97.8963 41.8768 97.9713 41.5738 98.0268 41.3231C98.0903 41.0358 98.1557 40.6798 98.2217 40.2797C98.354 39.4777 98.4953 38.457 98.6333 37.3688C98.9097 35.1901 99.1775 32.7063 99.3398 31.0834L99.3856 30.6258L97.8016 29.0418ZM92.9421 24.7997C91.1558 23.2835 88.4424 22.1819 84.4329 22.7286C79.3471 23.4221 74.8043 26.088 71.4067 29.5442C67.9993 33.0104 65.822 37.1905 65.3693 40.8123C64.9047 44.5295 65.4972 48.0371 67.3342 50.7648C69.1568 53.4711 72.2875 55.5338 77.1602 56.2299L77.2356 56.2407L82.9831 58.0092C85.1549 55.2723 88.2232 51.3896 90.8526 48.028C92.253 46.2375 93.5272 44.5971 94.4746 43.357C94.9487 42.7365 95.3382 42.2198 95.62 41.8361C95.7612 41.6438 95.8719 41.4894 95.9515 41.3744C96.0065 41.2947 96.035 41.2503 96.0468 41.232C96.0474 41.231 96.048 41.2301 96.0485 41.2293C96.0492 41.2268 96.0503 41.2231 96.0518 41.2181C96.062 41.1841 96.0905 41.0896 96.1315 40.904C96.1842 40.6656 96.2432 40.3482 96.3066 39.9638C96.4331 39.1969 96.5708 38.2038 96.7077 37.1245C96.9566 35.1631 97.1991 32.9456 97.3622 31.3474L96.0282 30.0133L95.9687 29.731C95.6833 28.3754 94.762 26.3444 92.9421 24.7997Z" fill="black"/>
<path d="M86.2407 39.7211L95.9458 29.0455C93.5195 18.3699 82.6821 22.2519 78.4766 24.1929C88.9581 24.9693 88.0199 34.8686 86.2407 39.7211Z" fill="black"/>
<path d="M67.3167 46.0303C65.3757 40.2073 71.684 30.6639 75.0808 26.6201C66.8315 30.9874 63.4347 42.1483 65.861 48.4566C67.802 53.5033 74.1103 55.7355 77.0219 56.2207V54.7649C74.5956 54.2797 69.2577 51.8534 67.3167 46.0303Z" fill="white"/>
<path d="M104.196 15.4583C107.302 13.9055 115.843 15.4583 119.725 16.4288C158.545 7.20893 170.676 23.2224 188.146 36.3243C202.121 46.8058 203.35 68.8364 202.218 78.5415C202.38 89.3789 191.348 114.547 145.928 128.523C89.1535 145.992 78.9632 118.818 76.0516 114.45C73.1401 110.083 76.0516 105.716 74.5959 92.1287C73.4313 81.259 75.0811 66.8954 76.0516 61.0723C91.5798 23.2224 102.741 28.5602 100.8 27.1044C99.2469 25.9398 98.2117 21.7666 97.8882 19.8256C99.441 18.661 104.358 20.3108 106.623 21.2813C103.905 19.3403 103.873 16.5905 104.196 15.4583Z" fill="white"/>
<path fill-rule="evenodd" clip-rule="evenodd" d="M182.393 30.5742C184.472 32.2483 186.561 33.922 188.73 35.5486C195.969 40.9781 199.853 49.3526 201.793 57.4999C203.727 65.6198 203.761 73.6354 203.191 78.5919C203.318 90.0448 191.795 115.427 146.215 129.451C117.688 138.229 100.663 135.852 90.3484 130.539C81.5261 125.994 77.738 119.326 75.9736 116.22C75.6794 115.702 75.4414 115.283 75.2458 114.99C73.591 112.507 73.6294 110.013 73.8104 106.695C73.8262 106.406 73.8432 106.109 73.8608 105.804C74.0465 102.574 74.2889 98.359 73.6325 92.2328C72.4539 81.232 74.1206 66.7659 75.096 60.9135L75.1139 60.8057L75.1554 60.7047C82.9484 41.7092 89.7 33.4084 94.3732 29.6824C96.4824 28.0008 98.1594 27.2583 99.2967 26.8863C99.1473 26.6706 99.0106 26.4441 98.8855 26.2155C98.5299 25.566 98.2243 24.8196 97.967 24.0731C97.4526 22.5803 97.1011 20.9978 96.9325 19.9858L96.8355 19.4039L97.3075 19.0499C97.9565 18.5631 98.8231 18.4489 99.5994 18.4555C100.411 18.4624 101.318 18.6053 102.205 18.8072C102.685 18.9163 103.17 19.0453 103.646 19.1853C102.948 17.6109 103.014 16.0703 103.265 15.1924L103.382 14.7819L103.764 14.5909C104.725 14.1102 106.007 13.9089 107.346 13.8495C108.709 13.789 110.241 13.8722 111.772 14.0328C114.719 14.3417 117.747 14.9461 119.731 15.431C139.174 10.8505 152.076 12.5451 162.339 17.1202C167.47 19.4078 171.905 22.3993 176.134 25.6204C178.099 27.1174 180.027 28.6698 181.958 30.2241C182.103 30.3408 182.248 30.4575 182.393 30.5742ZM161.548 18.893C151.714 14.5088 139.2 12.8019 119.95 17.3738L119.72 17.4284L119.491 17.371C117.583 16.8942 114.523 16.2729 111.57 15.9632C110.093 15.8084 108.664 15.7339 107.432 15.7886C106.438 15.8327 105.635 15.9588 105.05 16.1559C104.936 17.1843 105.201 19.0726 107.188 20.4923L106.242 22.1741C105.147 21.7048 103.409 21.0715 101.775 20.6998C100.956 20.5135 100.2 20.4017 99.583 20.3964C99.3443 20.3944 99.1487 20.4087 98.9904 20.4322C99.17 21.307 99.4447 22.4037 99.8021 23.4406C100.038 24.1256 100.303 24.7622 100.588 25.2834C100.882 25.8197 101.157 26.159 101.384 26.3287C101.455 26.3823 101.539 26.4481 101.616 26.5214C101.676 26.5796 101.818 26.7205 101.908 26.9342C102.029 27.2219 102.036 27.6049 101.802 27.9365C101.633 28.1755 101.407 28.2806 101.33 28.3154C101.168 28.388 100.963 28.4391 100.83 28.472C100.821 28.4743 100.812 28.4765 100.804 28.4786C100.79 28.4821 100.775 28.4857 100.761 28.4893C100.601 28.5291 100.422 28.5738 100.208 28.636C99.3043 28.899 97.7213 29.4954 95.5833 31.2001C91.287 34.6255 84.71 42.5584 76.9927 61.3401C76.025 67.201 74.419 81.3532 75.5625 92.026C76.2362 98.3143 75.9857 102.665 75.7989 105.911C75.7813 106.217 75.7642 106.513 75.7485 106.801C75.5656 110.155 75.604 112.028 76.8608 113.913C77.0945 114.263 77.3643 114.735 77.6876 115.3C79.4979 118.464 82.9874 124.563 91.2374 128.813C100.94 133.812 117.397 136.288 145.645 127.596C190.82 113.696 201.402 88.8095 201.249 78.5567L201.248 78.493L201.256 78.4298C201.81 73.676 201.788 65.8573 199.905 57.9496C198.02 50.0349 194.301 42.1534 187.565 37.1014C185.367 35.4525 183.254 33.7597 181.176 32.0863C181.032 31.9705 180.888 31.8548 180.744 31.7392C178.81 30.1814 176.901 28.6448 174.958 27.1644C170.785 23.9862 166.486 21.094 161.548 18.893Z" fill="black"/>
<path d="M161.942 80.482C151.072 76.9882 137.356 76.1147 131.856 76.1147V74.6589C127.198 70.7769 126.357 60.4248 126.518 55.734C129.236 34.7709 141.885 31.4712 147.87 32.4417C154.663 33.4122 168.833 39.4294 171.162 55.734C173.491 72.0386 165.986 78.3792 161.942 79.5115V80.482Z" fill="#616266"/>
<path d="M149.323 73.2032C156.699 69.3212 153.69 55.4105 151.264 48.9404L139.133 63.9834C139.456 68.6742 141.947 77.0853 149.323 73.2032Z" fill="black"/>
<path fill-rule="evenodd" clip-rule="evenodd" d="M151.731 46.041L152.627 48.4288C153.877 51.7621 155.285 57.0209 155.424 62.0011C155.56 66.8682 154.485 72.1306 150.001 74.491C147.935 75.5779 146.028 75.8969 144.314 75.4726C142.608 75.0501 141.33 73.9488 140.401 72.6577C138.586 70.1342 137.85 66.5422 137.68 64.083L137.641 63.5134L151.731 46.041ZM140.633 64.4415C140.852 66.5892 141.52 69.2268 142.765 70.9576C143.421 71.8703 144.169 72.4371 145.014 72.6464C145.852 72.854 147.022 72.7686 148.645 71.9145C151.536 70.3928 152.644 66.7588 152.514 62.0825C152.416 58.5869 151.625 54.8749 150.731 51.9194L140.633 64.4415Z" fill="black"/>
<path d="M134.766 67.8651C134.378 64.3712 147.868 48.2931 154.662 40.6907C159.32 39.9143 157.897 43.6023 156.602 45.5433C151.75 51.8516 141.365 65.1476 138.648 67.8651C135.931 70.5825 134.928 68.9973 134.766 67.8651Z" fill="black"/>
<path d="M145.281 66.2389C145.823 67.7528 145.648 69.1998 144.891 69.4706C144.134 69.7415 143.081 68.7338 142.54 67.2198C141.998 65.7058 142.172 64.2589 142.929 63.988C143.686 63.7172 144.739 64.7249 145.281 66.2389Z" fill="white"/>
<path d="M107.595 82.909C107.206 79.8034 115.844 77.7329 120.211 77.0859C124.482 78.2506 118.432 83.7178 114.874 86.3058C112.609 86.4676 107.983 86.0146 107.595 82.909Z" fill="black"/>
<path d="M77.0209 84.8495C76.2445 80.5792 77.3445 71.4241 77.9915 67.3803C89.1524 51.8521 98.8574 59.1309 103.225 67.3803C107.592 75.6296 107.107 89.702 98.8574 99.4071C92.258 107.171 81.55 101.995 77.0209 98.4366C77.3445 95.6868 77.7974 89.1197 77.0209 84.8495Z" fill="#616266"/>
<path d="M102.25 76.1142C102.639 74.5614 100.795 71.5852 99.8241 70.2912C99.4754 69.8059 97.9857 70.1254 98.8538 70.7764C100.795 72.2322 101.28 75.1437 101.462 76.1142C101.607 76.8907 102.048 76.4378 102.25 76.1142Z" fill="black"/>
<path d="M99.8298 83.88L84.7868 77.0864C77.9932 74.6601 82.3606 71.8142 83.3311 72.2339C89.3159 74.8219 101.48 80.3862 102.256 81.939C103.032 83.4918 100.962 83.88 99.8298 83.88Z" fill="black"/>
<path d="M94.0098 93.1001C96.7272 91.9355 97.4066 85.1742 97.4066 81.9392L84.3047 75.6309C84.3047 78.0571 84.4988 83.8802 85.2752 87.7623C86.2457 92.6148 90.613 94.5558 94.0098 93.1001Z" fill="black"/>
<path d="M90.4466 84.8308C90.6344 86.4278 90.1394 87.7985 89.3409 87.8924C88.5424 87.9864 87.7428 86.7679 87.555 85.1709C87.3671 83.5739 87.8622 82.2032 88.6606 82.1092C89.4591 82.0153 90.2587 83.2338 90.4466 84.8308Z" fill="white"/>
<path d="M121.175 89.7011C115.352 95.5242 107.426 97.6269 104.191 97.9504C109.044 118.331 116.323 118.816 122.146 118.816C127.969 118.816 132.821 112.993 143.012 109.111C151.164 106.006 160.643 99.0827 164.363 96.0094C161.937 87.7601 151.261 80.9665 143.012 78.5402C134.763 76.1139 128.454 82.4222 121.175 89.7011Z" fill="black"/>
<path fill-rule="evenodd" clip-rule="evenodd" d="M132.244 81.307C128.84 83.4194 125.527 86.7254 121.864 90.3885C116.417 95.8354 109.225 98.1272 105.392 98.7674C107.754 108.191 110.618 112.904 113.434 115.286C116.304 117.715 119.266 117.847 122.148 117.847C124.75 117.847 127.196 116.549 130.442 114.59C130.778 114.387 131.122 114.177 131.474 113.963C134.459 112.145 138.023 109.975 142.668 108.206C150.326 105.288 159.246 98.8973 163.239 95.6772C161.975 92.063 159.004 88.6814 155.287 85.8659C151.378 82.9046 146.753 80.6527 142.74 79.4724C138.954 78.3589 135.601 79.2229 132.244 81.307ZM131.22 79.6578C134.898 77.3745 138.824 76.2975 143.288 77.6103C147.524 78.8563 152.361 81.2143 156.459 84.3187C160.542 87.4118 164 91.3296 165.296 95.7367L165.477 96.351L164.983 96.7588C161.238 99.8527 151.662 106.857 143.359 110.019C138.889 111.722 135.472 113.802 132.484 115.621C132.132 115.835 131.786 116.046 131.445 116.252C128.261 118.174 125.369 119.788 122.148 119.788C119.207 119.788 115.618 119.677 112.18 116.768C108.789 113.899 105.692 108.437 103.249 98.1764L102.992 97.0964L104.097 96.9859C107.18 96.6776 114.871 94.6366 120.491 89.016L120.549 88.9581C124.144 85.3631 127.606 81.9007 131.22 79.6578ZM152.435 114.166L151.95 114.651L150.577 113.279L151.062 112.794L152.435 114.166Z" fill="black"/>
<path d="M130.396 114.935C124.573 97.0779 136.491 83.8789 143.123 79.0264C156.115 83.8789 161.129 90.996 163.393 96.0103L155.629 100.863L149.806 105.23L141.072 109.112L130.396 114.935Z" fill="#B25D62"/>
<path d="M131.367 94.0694C151.942 89.0227 155.792 96.1722 155.63 100.863L163.394 96.4957C161.065 87.9552 151.748 81.938 144.469 79.5117L133.308 89.2168L131.367 94.0694Z" fill="#721D22"/>
<path d="M145.924 88.7319C147.089 89.1201 150.615 84.6881 152.232 82.4236C135.734 71.2627 127.484 83.8793 122.632 88.7319C118.75 92.6139 111.309 96.1725 108.074 97.4665C109.853 98.9222 113.994 102.028 116.324 102.804C118.653 103.581 119.882 99.5693 120.206 97.4665C122.923 95.1373 136.543 89.7024 143.013 87.2761C143.498 87.5996 144.76 88.3437 145.924 88.7319Z" fill="white"/>
<path fill-rule="evenodd" clip-rule="evenodd" d="M125.081 87.5445C124.46 88.2221 123.869 88.8676 123.319 89.418C121.283 91.4537 118.36 93.3656 115.585 94.9167C113.54 96.0594 111.539 97.0262 109.964 97.7215C110.722 98.3018 111.619 98.9606 112.54 99.588C114.089 100.644 115.608 101.542 116.631 101.883C116.904 101.974 117.107 101.935 117.328 101.787C117.592 101.61 117.882 101.268 118.166 100.749C118.73 99.7169 119.095 98.3103 119.247 97.3187L119.302 96.9634L119.575 96.7294C120.358 96.0578 121.824 95.2336 123.574 94.3636C125.358 93.4772 127.535 92.4956 129.82 91.5156C134.391 89.555 139.428 87.5841 142.673 86.3672L143.138 86.1927L143.552 86.4684C143.983 86.7559 145.085 87.4039 146.099 87.7654C146.204 87.7198 146.366 87.6245 146.586 87.4566C147.037 87.1121 147.593 86.5731 148.193 85.9169C149.121 84.904 150.089 83.6881 150.847 82.6739C147.181 80.3364 143.999 79.2551 141.235 78.984C138.271 78.6933 135.724 79.3285 133.5 80.4406C131.263 81.5589 129.345 83.1639 127.666 84.8202C126.828 85.6473 126.057 86.4793 125.336 87.2656C125.251 87.359 125.165 87.4521 125.081 87.5445ZM146.03 87.7903C146.03 87.7901 146.033 87.7892 146.039 87.7882C146.033 87.79 146.03 87.7905 146.03 87.7903ZM141.425 77.0523C144.791 77.3824 148.552 78.7613 152.777 81.6195L153.602 82.1774L153.023 82.9875C152.201 84.1388 150.89 85.8466 149.625 87.2277C148.997 87.9141 148.351 88.5518 147.763 89C147.471 89.2225 147.157 89.4267 146.839 89.56C146.542 89.6847 146.092 89.8103 145.618 89.6524C144.607 89.3155 143.557 88.7484 142.904 88.354C139.675 89.5721 134.915 91.4421 130.585 93.2994C128.316 94.2726 126.176 95.2381 124.439 96.1017C122.902 96.8655 121.753 97.5152 121.101 97.9958C120.901 99.0812 120.505 100.518 119.869 101.68C119.514 102.33 119.04 102.977 118.408 103.4C117.733 103.852 116.909 104.022 116.017 103.725C114.711 103.29 112.995 102.247 111.447 101.192C109.871 100.118 108.368 98.9604 107.46 98.2174L106.188 97.176L107.714 96.5652C109.295 95.9329 111.926 94.7376 114.638 93.2223C117.362 91.7002 120.1 89.8917 121.946 88.0455C122.464 87.5276 123.024 86.9168 123.649 86.2339C123.733 86.1418 123.819 86.0484 123.906 85.9537C124.629 85.1648 125.428 84.3022 126.303 83.4385C128.052 81.7132 130.137 79.9518 132.632 78.7045C135.139 77.4509 138.05 76.7213 141.425 77.0523Z" fill="black"/>
<path d="M142.045 15.9435C146.315 15.5553 155.147 17.3993 159.029 18.3698L186.203 36.3243C204.06 56.1227 199.79 81.1295 195.423 91.1582L169.704 113.48L143.015 128.523C139.91 129.299 130.399 130.464 126.031 130.949C146.218 122.02 159.676 108.789 163.881 103.29C196.879 47.7763 163.072 21.9283 142.045 15.9435Z" fill="#9C9DA1"/>
<path d="M78.48 148.904C67.2221 186.948 76.7008 203.9 82.8473 207.62C81.6828 188.21 83.9796 167.829 85.2736 160.065L78.48 148.904Z" fill="#98272D"/>
<path fill-rule="evenodd" clip-rule="evenodd" d="M78.3263 147.717L85.7828 159.967L85.7531 160.145C84.4632 167.885 82.1708 188.227 83.3326 207.591L83.388 208.514L82.597 208.035C79.3626 206.078 75.4058 200.758 73.6606 191.221C71.9125 181.668 72.3715 167.84 78.0156 148.767L78.3263 147.717ZM78.6381 150.096C73.3172 168.52 72.9337 181.857 74.6152 191.046C76.1799 199.597 79.5226 204.522 82.3076 206.661C81.282 187.652 83.4855 167.946 84.7663 160.164L78.6381 150.096Z" fill="black"/>
<path d="M79.4519 148.419C79.4519 146.478 84.3045 136.288 86.7307 131.436L81.8782 148.905C82.6546 153.951 95.3036 171.874 101.774 180.446C97.5034 178.505 85.1132 158.286 79.4519 148.419L78.9667 150.846L79.9372 152.787C78.0474 162.37 74.9863 181.1 75.3783 190.873C75.5977 192.691 75.835 194.263 76.0551 195.489C75.6696 194.397 75.456 192.811 75.3783 190.873C74.4691 183.338 73.866 171.561 76.0551 162.492C78.7726 151.234 79.1284 150.037 78.9667 150.846L79.4519 148.419Z" fill="white"/>
<path d="M238.616 173.167C260.744 167.732 257.865 149.875 253.659 141.625C253.659 145.119 210.633 137.258 189.12 132.891L170.195 142.11L193.973 165.403C199.634 170.255 216.489 178.602 238.616 173.167Z" fill="#98272D"/>
<path fill-rule="evenodd" clip-rule="evenodd" d="M189.02 132.129L189.262 132.178C200.012 134.36 216.135 137.415 229.565 139.487C236.283 140.524 242.31 141.312 246.649 141.623C248.825 141.78 250.542 141.813 251.699 141.708C252.286 141.655 252.671 141.57 252.888 141.48C252.95 141.454 252.984 141.435 252.999 141.424C252.977 141.445 252.928 141.508 252.928 141.626L254.304 141.295C256.456 145.516 258.292 152.226 256.716 158.626C255.121 165.105 250.069 171.103 238.787 173.874C216.408 179.371 199.317 170.945 193.496 165.956L193.477 165.94L168.945 141.909L189.02 132.129ZM253.01 141.416C253.01 141.416 253.007 141.419 252.999 141.424C253.005 141.419 253.009 141.416 253.01 141.416ZM189.214 133.654L171.439 142.313L194.461 164.866C199.982 169.585 216.587 177.828 238.439 172.461C249.284 169.797 253.857 164.149 255.303 158.278C256.666 152.742 255.283 146.866 253.43 142.831C253.009 143.003 252.454 143.101 251.831 143.158C250.552 143.274 248.739 143.233 246.545 143.075C242.144 142.759 236.07 141.964 229.343 140.926C215.982 138.865 199.976 135.835 189.214 133.654Z" fill="black"/>
<path d="M200.278 158.609C195.619 156.668 186.691 142.919 182.809 136.288L190.087 133.376L211.924 153.757L230.849 157.154L251.576 143.021C247.023 135.468 250.028 139.493 252.2 142.596L251.576 143.021C251.77 143.343 251.978 143.687 252.2 144.052C257.635 152.98 251.23 162.33 247.348 165.888C215.695 187.31 188.521 160.621 190.947 161.106C192.888 161.494 197.69 159.58 200.278 158.609Z" fill="#5A181A"/>
<path d="M171.164 142.11L174.076 140.654L184.266 154.727L171.164 142.11Z" fill="white"/>
<path d="M279.375 37.782L306.064 47.0019L300.241 63.5006L206.586 33.9C204.257 29.2415 210.145 20.6363 213.38 16.916L279.375 37.782Z" fill="#AA8767"/>
<path fill-rule="evenodd" clip-rule="evenodd" d="M213.145 16.0781L279.604 37.091L306.995 46.5532L300.694 64.4069L206.074 34.5012L205.936 34.2256C205.258 32.8691 205.204 31.2815 205.495 29.6746C205.787 28.0636 206.436 26.3673 207.245 24.7331C208.865 21.4646 211.185 18.3318 212.832 16.4385L213.145 16.0781ZM213.621 17.7553C212.06 19.6051 210.002 22.449 208.55 25.3795C207.775 26.9439 207.186 28.5049 206.928 29.9338C206.692 31.237 206.74 32.3765 207.116 33.3038L299.79 62.5944L305.135 47.4507L279.147 38.4732L213.621 17.7553Z" fill="black"/>
<path d="M209.503 32.444C208.338 28.9502 211.929 21.6066 213.87 18.3716C213.094 17.9834 212.576 18.2098 212.414 18.3716C208.921 20.3126 206.106 29.5325 207.077 32.444L222.605 37.7818C218.399 36.0025 209.891 32.444 209.503 32.444Z" fill="white"/>
<path d="M271.125 101.35C271.902 131.63 243.951 150.846 229.879 156.669C184.265 151.332 185.72 124.157 190.088 106.688C193.582 92.7128 215.483 71.4262 225.997 62.5299C224.681 59.4604 225.835 55.898 227.452 53.7952C218.524 43.7019 226.32 28.8855 231.334 22.7389C240.069 11.578 261.42 21.2831 274.037 26.1357C284.13 30.0177 282.448 48.4574 280.345 57.192C285.198 87.7631 277.434 102.806 275.493 105.232C273.94 107.173 271.934 103.453 271.125 101.35Z" fill="#616266"/>
<path fill-rule="evenodd" clip-rule="evenodd" d="M271.165 23.9707C272.293 24.415 273.371 24.8397 274.387 25.2306C279.992 27.3865 282.149 33.5057 282.733 39.7546C283.316 45.9903 282.385 52.7903 281.336 57.231C286.154 87.8534 278.41 103.142 276.252 105.839C275.981 106.179 275.649 106.457 275.247 106.614C274.833 106.775 274.414 106.781 274.027 106.681C273.307 106.494 272.722 105.95 272.288 105.432C272.206 105.335 272.126 105.233 272.047 105.128C271.325 118.87 264.819 130.187 256.783 138.842C248.026 148.275 237.399 154.609 230.252 157.567L230.018 157.663L229.768 157.634C206.779 154.944 195.365 146.709 190.373 136.661C185.419 126.689 186.953 115.234 189.148 106.453C190.06 102.805 192.152 98.7477 194.886 94.6093C197.628 90.4597 201.052 86.1739 204.684 82.0626C211.712 74.1059 219.561 66.752 224.851 62.2321C223.881 59.2299 224.827 56.0127 226.229 53.8508C221.958 48.589 221.775 42.2495 223.226 36.5483C224.728 30.65 228.006 25.2886 230.578 22.1337C235.319 16.0846 243.375 15.8354 251.426 17.4821C258.217 18.8712 265.352 21.6814 271.165 23.9707ZM227.585 55.3521C226.489 57.2784 225.932 59.9112 226.89 62.1483C226.966 62.3248 227.271 62.7041 227.966 63.2306C228.622 63.7272 229.513 64.272 230.577 64.8112C232.705 65.8897 235.443 66.905 238.201 67.4623C240.977 68.0232 243.666 68.0983 245.756 67.4082C247.469 66.8431 248.802 65.7642 249.49 63.8961C241.869 63.2607 233.249 61.0327 227.585 55.3521ZM251.491 64.0289C250.66 66.8092 248.761 68.4604 246.365 69.2514C243.815 70.093 240.742 69.956 237.816 69.3648C234.872 68.77 231.969 67.693 229.699 66.5426C228.565 65.9674 227.568 65.3636 226.794 64.778C226.449 64.5165 226.119 64.2371 225.836 63.9445C220.608 68.4337 212.976 75.6075 206.139 83.3476C202.544 87.4169 199.181 91.6292 196.505 95.6793C193.822 99.7407 191.866 103.585 191.031 106.924C188.859 115.613 187.482 126.479 192.111 135.797C196.685 145.003 207.289 152.999 229.742 155.677C236.665 152.77 246.914 146.621 255.361 137.522C263.896 128.329 270.537 116.189 270.157 101.376L272.033 101.003C272.423 102.016 273.08 103.356 273.776 104.185C274.138 104.617 274.396 104.771 274.514 104.802C274.529 104.805 274.537 104.806 274.54 104.806C274.54 104.806 274.541 104.806 274.542 104.806C274.549 104.803 274.62 104.773 274.737 104.627C276.457 102.477 284.213 87.7377 279.389 57.3449L279.358 57.1538L279.403 56.9656C280.439 52.6662 281.366 45.9844 280.8 39.9352C280.228 33.81 278.178 28.7684 273.69 27.0422C272.647 26.6408 271.548 26.2085 270.407 25.7591C264.589 23.4688 257.645 20.7354 251.037 19.3838C243.078 17.7558 236.095 18.2336 232.1 23.3377L232.094 23.3455L232.088 23.3531C229.647 26.3458 226.524 31.4621 225.107 37.0272C223.693 42.5801 224.005 48.4326 228.181 53.1529C233.563 59.2363 242.662 61.5332 250.807 62.0464C255.509 62.3426 259.801 62.0384 262.706 61.5752C264.662 61.1819 267.329 60.299 269.103 58.9747C269.989 58.3138 270.564 57.6083 270.791 56.8851C271.005 56.2054 270.956 55.3692 270.301 54.3046L271.954 53.2873C272.851 54.746 273.053 56.1623 272.643 57.4671C272.246 58.7284 271.324 59.7394 270.264 60.5303C268.154 62.1053 265.154 63.065 263.068 63.4822L263.05 63.4859L263.031 63.4889C260.154 63.9492 256.03 64.2541 251.491 64.0289Z" fill="black"/>
<path d="M252.686 31.4748L246.863 20.7992C257.539 19.3434 268.215 27.1075 274.038 30.019C278.696 32.3483 278.89 35.8421 278.405 37.2979C274.523 37.7831 271.893 40.004 270.156 46.5177C268.215 53.7966 269.994 54.9288 271.611 56.2228L268.215 59.6196C263.168 62.3371 254.466 61.7224 250.745 61.0754C245.699 53.6995 249.937 38.2684 252.686 31.4748Z" fill="#1B1B1B"/>
<path d="M240.555 66.4115L242.496 63.5L248.319 64.4705L247.348 65.9263L240.555 66.4115Z" fill="#1B1B1B"/>
<path d="M231.818 64.9567C227.159 62.6274 227.016 57.5868 227.825 55.3223C226.854 55.9693 225.606 57.7749 225.995 60.1041C226.383 62.4333 230.038 64.3096 231.818 64.9567Z" fill="white"/>
<path d="M226.48 44.575C224.539 36.4227 231.221 25.3972 234.618 20.8682C224.913 28.6323 222.113 43.6045 226.48 50.8833C229.974 56.7064 240.229 60.7502 244.92 62.0442C239.582 59.6179 228.421 52.7273 226.48 44.575Z" fill="white"/>
<path d="M248.317 67.3823C249.482 66.9941 250.096 65.603 250.258 64.956C265.01 65.7324 271.286 60.1034 272.58 57.1919V54.7656L280.344 58.1624C280.344 70.7791 276.462 96.4976 275.977 99.8944C275.589 102.612 274.197 103.291 273.55 103.291L270.639 99.4092L270.154 105.232C263.554 134.348 239.583 151.332 228.422 156.184C219.493 157.349 207.556 150.846 202.703 147.449C230.654 133.862 246.053 89.3805 250.258 68.838L248.317 67.3823Z" fill="#1B1B1B"/>
<path d="M278.064 37.2969L305.238 46.5167L299.415 63.5007C289.872 60.5892 270.688 54.7661 270.3 54.7661C267.582 43.8964 274.343 38.5909 278.064 37.2969Z" fill="#AA8767"/>
<path fill-rule="evenodd" clip-rule="evenodd" d="M278.058 36.5273L306.161 46.0622L299.873 64.4023L299.2 64.197C294.429 62.7414 287.248 60.558 281.211 58.7386C278.193 57.8288 275.462 57.0104 273.462 56.4196C272.461 56.1241 271.646 55.8861 271.069 55.7222C270.78 55.6402 270.555 55.5777 270.397 55.536C270.323 55.5166 270.269 55.5028 270.232 55.4941H269.729L269.591 54.9427C268.186 49.3254 269.222 45.0745 271.151 42.0493C273.064 39.0494 275.825 37.3041 277.822 36.6095L278.058 36.5273ZM278.07 38.0686C276.361 38.722 274.021 40.2561 272.378 42.8321C270.723 45.428 269.744 49.1293 270.901 54.1639C271.054 54.2056 271.244 54.2587 271.467 54.3219C272.051 54.4879 272.872 54.7276 273.874 55.0235C275.878 55.6155 278.612 56.4348 281.631 57.3447C287.392 59.0811 294.195 61.1487 298.952 62.5994L304.31 46.9715L278.07 38.0686Z" fill="black"/>
<path d="M291.021 59.6189C290.244 51.8548 293.932 45.87 295.873 44.0907L294.417 43.6055C289.371 47.8757 289.079 55.8986 289.565 59.1337L291.021 59.6189Z" fill="#312F32"/>
<path d="M288.112 58.6482C287.335 50.8841 291.023 44.8993 292.964 43.12L291.508 42.6348C286.462 46.905 285.685 54.9279 286.171 58.163L288.112 58.6482Z" fill="#312F32"/>
<path d="M299.272 55.2517C299.66 52.9225 301.86 48.9434 303.154 47.4876L275.494 39.2383C271.612 42.1498 269.186 48.4581 270.642 52.8254L278.406 55.737C277.629 54.1842 279.376 50.8844 280.347 49.4287L299.272 55.2517Z" fill="#3B2F23" fill-opacity="0.9"/>
<path fill-rule="evenodd" clip-rule="evenodd" d="M234.537 45.4641C234.402 50.4685 235.048 55.6851 235.684 58.9483L233.779 59.3201C233.122 55.9515 232.457 50.5895 232.597 45.4117C232.667 42.8223 232.939 40.2474 233.529 37.9771C234.115 35.7185 235.039 33.6773 236.472 32.2441L237.844 33.6167C236.754 34.7068 235.951 36.3738 235.407 38.4653C234.867 40.5451 234.605 42.9623 234.537 45.4641Z" fill="black"/>
<path fill-rule="evenodd" clip-rule="evenodd" d="M255.131 48.8586C254.996 53.863 255.641 59.0796 256.278 62.3429L254.373 62.7146C253.716 59.346 253.051 53.984 253.191 48.8062C253.261 46.2169 253.532 43.6419 254.122 41.3717C254.709 39.113 255.632 37.0719 257.065 35.6387L258.438 37.0112C257.348 38.1013 256.544 39.7683 256.001 41.8598C255.461 43.9396 255.199 46.3568 255.131 48.8586Z" fill="black"/>
<path d="M299.72 63.7995C297.938 63.1702 297.852 58.28 299.44 53.7834C301.027 49.2869 303.97 45.7621 305.752 46.3914C307.534 47.0207 307.481 51.5656 305.894 56.0622C304.306 60.5588 301.502 64.4287 299.72 63.7995Z" fill="#3B2F23"/>
<path fill-rule="evenodd" clip-rule="evenodd" d="M300.266 62.4571C300.266 62.4571 300.265 62.4566 300.264 62.4556C300.265 62.4565 300.266 62.457 300.266 62.4571ZM300.206 62.3828C300.257 62.3617 300.33 62.3251 300.428 62.2622C300.771 62.0427 301.22 61.6196 301.728 60.9624C302.735 59.6607 303.766 57.7149 304.521 55.5775C305.272 53.4509 305.641 51.3593 305.631 49.7856C305.626 48.9921 305.525 48.4137 305.388 48.0499C305.334 47.9092 305.288 47.8282 305.256 47.7839C305.2 47.7976 305.102 47.8317 304.955 47.9154C304.605 48.1132 304.149 48.4989 303.634 49.1066C302.611 50.3129 301.558 52.1554 300.812 54.2681C300.07 56.3709 299.731 58.5412 299.771 60.206C299.792 61.0445 299.907 61.6767 300.062 62.0856C300.119 62.2346 300.169 62.3272 300.206 62.3828ZM305.317 47.7752C305.317 47.7753 305.315 47.7754 305.311 47.775C305.315 47.7749 305.317 47.7751 305.317 47.7752ZM305.222 47.7423C305.217 47.7392 305.215 47.7372 305.215 47.7369C305.215 47.7367 305.217 47.7383 305.222 47.7423ZM300.121 62.4097C300.114 62.4109 300.111 62.4109 300.111 62.4106C300.111 62.4103 300.115 62.4097 300.121 62.4097ZM299.44 53.7834C297.852 58.28 297.938 63.1702 299.72 63.7995C301.502 64.4287 304.306 60.5588 305.894 56.0622C307.481 51.5656 307.534 47.0207 305.752 46.3914C303.97 45.7621 301.027 49.2869 299.44 53.7834Z" fill="black"/>
<path d="M284.716 189.181L326.933 120.76L305.582 108.629L269.188 178.506C270.352 188.987 280.025 189.99 284.716 189.181Z" fill="#AA8767"/>
<path fill-rule="evenodd" clip-rule="evenodd" d="M305.283 107.623L327.947 120.5L285.161 189.843L284.837 189.899C282.39 190.321 278.641 190.276 275.321 188.738C271.951 187.176 269.074 184.091 268.462 178.586L268.438 178.366L305.283 107.623ZM305.876 109.635L269.934 178.643C270.537 183.479 273.047 186.079 275.933 187.417C278.775 188.734 282.028 188.843 284.269 188.515L325.915 121.02L305.876 109.635Z" fill="black"/>
<path d="M306.55 112.026L305.58 110.57L278.891 162.007L306.55 112.026Z" fill="#F7F7F7"/>
<path d="M321.106 128.524C312.566 129.689 304.931 121.245 302.181 116.878L301.211 118.819C307.81 129.3 316.577 130.465 320.136 129.98L321.106 128.524Z" fill="#313133"/>
<path d="M319.164 131.437C310.624 132.602 303.474 124.158 300.724 119.791L299.754 121.732C306.353 132.214 314.635 133.863 318.194 133.378L319.164 131.437Z" fill="#313133"/>
<path d="M328.388 120.761C327.301 122.672 320.54 121.114 314.527 117.694C308.514 114.275 304.009 109.57 305.095 107.659C306.182 105.748 312.45 107.354 318.463 110.774C324.475 114.193 329.474 118.85 328.388 120.761Z" fill="#3B2F23"/>
<path fill-rule="evenodd" clip-rule="evenodd" d="M327.056 120.019C327.03 119.925 326.975 119.779 326.86 119.567C326.549 118.991 325.953 118.241 325.068 117.372C323.313 115.65 320.668 113.703 317.743 112.039C314.825 110.38 311.883 109.184 309.591 108.633C308.436 108.355 307.529 108.262 306.909 108.31C306.638 108.331 306.481 108.372 306.396 108.404C306.411 108.497 306.454 108.663 306.579 108.926C306.851 109.497 307.388 110.245 308.207 111.111C309.831 112.829 312.339 114.775 315.247 116.429C318.147 118.078 321.206 119.264 323.623 119.806C324.841 120.079 325.817 120.171 326.495 120.118C326.781 120.095 326.955 120.053 327.056 120.019ZM306.309 108.447C306.309 108.447 306.31 108.446 306.311 108.445L306.309 108.447ZM327.08 120.153C327.08 120.154 327.08 120.155 327.079 120.155C327.079 120.155 327.079 120.154 327.08 120.153ZM314.527 117.694C320.54 121.114 327.301 122.672 328.388 120.761C329.474 118.85 324.475 114.193 318.463 110.774C312.45 107.354 306.182 105.748 305.095 107.659C304.009 109.57 308.514 114.275 314.527 117.694Z" fill="black"/>
<path d="M277.922 185.785L315.772 119.305C316.936 120.469 321.757 121.407 324.021 121.731L282.289 187.726C280.348 188.114 278.569 186.593 277.922 185.785Z" fill="#3B2F23" fill-opacity="0.9"/>
<path fill-rule="evenodd" clip-rule="evenodd" d="M307.561 50.1585C306.591 49.835 304.553 49.5762 304.164 51.129C303.776 52.6818 305.62 54.364 306.591 55.0111C306.914 55.8198 307.076 57.4373 305.135 57.4373C304.379 57.4373 303.717 57.296 303.15 57.1748C301.896 56.907 301.102 56.7375 300.768 58.4078C300.282 60.8341 304.164 63.2604 309.017 59.8636L310.473 60.3489C309.987 61.6429 309.308 64.5221 310.473 65.6867C311.637 66.8513 313.869 68.76 314.84 69.5687C315.972 70.054 318.528 70.7333 319.693 69.5687L320.178 71.0245C319.046 71.6715 317.072 74.0331 318.237 78.3033C319.693 83.6411 321.148 85.0969 323.575 85.0969V88.0084C322.119 88.1702 319.11 89.5613 318.722 93.8315C318.334 98.1018 318.56 100.463 318.722 101.11L320.178 103.051L319.693 104.507C317.752 104.669 313.675 105.478 312.899 107.419C311.928 109.845 311.928 112.271 312.899 112.271C313.117 112.271 313.311 112.32 313.502 112.369L313.503 112.369C314.162 112.536 314.792 112.696 316.296 110.815C318.237 108.389 319.693 109.36 320.178 110.815C320.34 111.301 320.34 112.002 320.34 112.739C320.34 114.212 320.34 115.83 321.634 116.153C323.186 116.541 324.222 114.698 324.545 113.727C324.869 111.948 325.127 108.001 323.575 106.448L324.545 104.507C325.839 104.345 328.718 103.148 329.883 99.6546C331.339 95.2873 331.339 90.92 328.427 88.4937V85.0969C329.559 84.2882 331.727 81.7972 331.339 78.3033C330.853 73.936 328.912 69.5687 325.03 70.054L323.575 67.1424C323.898 65.5249 324.06 61.7076 322.119 59.3784C319.693 56.4668 315.325 54.5258 312.899 56.4668H311.443C311.281 54.6875 310.279 50.9349 307.561 50.1585ZM325.475 75.6316C324.666 75.9551 322.951 76.5051 322.563 76.1169C322.175 75.7287 323.048 79.1902 323.534 80.9695C324.181 80.6459 325.669 80.096 326.445 80.4842L325.475 75.6316ZM323.566 93.1082C323.826 93.5916 325.627 93.5581 326.494 93.4809L326.028 98.4075C325.396 97.8124 323.813 97.9111 323.1 98.0348C323.147 96.1912 323.306 92.6247 323.566 93.1082ZM315.991 60.0789C315.433 60.7476 314.185 62.0456 313.659 61.8882C313.133 61.7308 315.545 64.3628 316.816 65.6984C317.232 65.1065 318.281 63.916 319.149 63.8891L315.991 60.0789Z" fill="black"/>
<path d="M190.575 131.92C182.035 99.8933 209.015 79.9978 225.999 63.9844L226.484 64.9549C190.77 94.4584 187.664 114.451 190.575 131.92Z" fill="white"/>
<path d="M197.863 266.784C194.151 276.328 176.016 279.438 159.073 271.592C141.363 264.703 130.015 251.382 133.727 241.838C137.439 232.295 150.461 228.506 168.171 235.394C185.882 242.283 191.464 255.775 197.863 266.784Z" fill="#616266"/>
<path d="M136.709 242.559C138.165 235.765 150.296 232.369 156.605 232.369C137.195 228.001 126.67 243.22 138.165 256.631C146.9 266.822 160.325 271.513 165.825 272.645C138.65 260.028 134.564 252.568 136.709 242.559Z" fill="#FEFEFE"/>
<path d="M171.504 265.535C169.313 268.886 163.243 268.795 157.947 265.332C152.651 261.869 150.134 256.345 152.325 252.994C154.517 249.643 160.586 249.733 165.883 253.196C171.179 256.659 173.696 262.183 171.504 265.535Z" fill="#97989A"/>
<path d="M150.037 250.752C149.143 251.77 147.112 251.45 145.503 250.036C143.893 248.622 143.313 246.65 144.208 245.631C145.103 244.613 147.133 244.933 148.743 246.347C150.353 247.761 150.932 249.733 150.037 250.752Z" fill="#97989A"/>
<path d="M159.686 247.098C158.791 248.116 156.761 247.796 155.151 246.382C153.541 244.968 152.962 242.996 153.857 241.977C154.751 240.959 156.782 241.279 158.391 242.693C160.001 244.107 160.581 246.079 159.686 247.098Z" fill="#97989A"/>
<path d="M148.326 259.276C147.533 260.376 145.482 260.252 143.743 259C142.005 257.748 141.238 255.841 142.03 254.741C142.822 253.641 144.874 253.764 146.613 255.016C148.351 256.269 149.118 258.176 148.326 259.276Z" fill="#97989A"/>
<path fill-rule="evenodd" clip-rule="evenodd" d="M151.43 243.21C145.553 240.271 145.508 234.288 146.199 231.695L147.606 232.07C147.003 234.33 147.087 239.411 152.081 241.907L151.43 243.21Z" fill="black"/>
<path fill-rule="evenodd" clip-rule="evenodd" d="M134.58 250.55C133.419 248.853 132.807 246.892 132.594 245.587L134.03 245.353C134.217 246.492 134.764 248.241 135.781 249.728C136.793 251.207 138.215 252.358 140.162 252.508L140.05 253.96C137.52 253.765 135.746 252.256 134.58 250.55Z" fill="black"/>
<path d="M203.193 319.714C205.91 314.667 203.354 304.995 201.737 300.789C204.163 317.773 201.467 322.626 194.458 326.993C188.851 330.487 179.505 320.361 175.533 314.861L174.562 315.832C176.665 319.229 182.327 326.508 188.15 328.449C195.428 330.875 199.796 326.022 203.193 319.714Z" fill="#9FA0A2"/>
<path fill-rule="evenodd" clip-rule="evenodd" d="M198.674 321.558C197.454 320.223 196.252 318.627 195.516 317.564L196.314 317.012C197.033 318.051 198.208 319.61 199.391 320.903C199.983 321.551 200.565 322.12 201.084 322.523C201.344 322.724 201.578 322.876 201.78 322.976C201.987 323.078 202.132 323.111 202.223 323.111V324.082C201.925 324.082 201.628 323.983 201.351 323.847C201.071 323.708 200.78 323.515 200.489 323.29C199.908 322.838 199.283 322.224 198.674 321.558Z" fill="black"/>
<path fill-rule="evenodd" clip-rule="evenodd" d="M187.994 327.867C186.775 326.532 185.572 324.936 184.836 323.873L185.634 323.32C186.353 324.36 187.529 325.918 188.711 327.212C189.303 327.86 189.885 328.428 190.405 328.831C190.664 329.033 190.898 329.185 191.101 329.285C191.308 329.387 191.453 329.42 191.543 329.42V330.39C191.246 330.39 190.948 330.291 190.672 330.155C190.391 330.017 190.101 329.824 189.81 329.598C189.228 329.147 188.603 328.533 187.994 327.867Z" fill="black"/>
<path d="M109.047 277.496C124.09 304.185 135.736 315.831 143.5 318.743C140.103 315.184 134.668 310.008 132.339 308.067C130.01 306.126 115.193 286.069 109.047 277.496Z" fill="#FEFEFE"/>
<path d="M142.051 221.692C144.639 207.458 160.199 180.834 197.855 182.386C181.357 179.151 146.321 181.319 142.051 221.692Z" fill="white"/>
<path fill-rule="evenodd" clip-rule="evenodd" d="M178.566 181.652C182.166 181.337 188.099 181.246 194.233 181.995C200.42 182.751 206.706 184.35 211.023 187.353L211.854 186.158C207.242 182.95 200.669 181.314 194.409 180.55C188.13 179.783 182.061 179.88 178.376 180.208L178.316 180.213L178.257 180.228C160.2 184.939 150.238 194.793 145.165 205.245C140.253 215.363 139.946 225.989 141.216 232.947C139.72 233.525 138.248 234.254 136.81 235.148L136.715 235.207L136.643 235.291C134.013 238.345 131.682 243.747 133.199 250.057C134.717 256.376 140.049 263.432 152.385 269.894C165.934 276.991 176.818 278.171 184.722 276.7C192.438 275.263 197.355 271.279 198.989 267.802L206.984 262.58L206.188 261.361L199.58 265.677C199.601 265.364 199.589 265.058 199.54 264.762L198.104 265.001C198.191 265.527 198.096 266.213 197.746 267.018C196.463 269.964 192.012 273.861 184.456 275.268C176.937 276.669 166.384 275.584 153.06 268.604C140.939 262.255 135.999 255.482 134.614 249.717C133.241 244.003 135.318 239.11 137.674 236.325C139.181 235.397 140.724 234.662 142.293 234.099C150.337 231.21 159.113 232.814 166.967 236.169C174.812 239.52 181.637 244.577 185.705 248.427L186.705 247.369C182.534 243.422 175.568 238.26 167.538 234.83C159.768 231.511 150.908 229.776 142.607 232.454C141.432 225.75 141.772 215.568 146.474 205.88C151.351 195.835 160.945 186.265 178.566 181.652Z" fill="black"/>
<path d="M177.997 274.088C195.395 268.632 174.874 246.271 162.429 235.766C173.687 238.871 186.53 250.97 191.544 256.632L185.236 247.412C170.872 230.331 151.106 229.943 143.019 231.884V228.002C153.888 213.25 170.84 220.237 177.957 225.575C176.793 218.976 182.324 207.944 185.236 203.254C189.927 196.298 202.802 183.649 216.778 188.696C230.753 193.743 244.326 177.444 249.664 168.871L252.687 175.594L255.002 182.944C265.095 207.4 252.848 235.442 245.408 244.5C213.866 277.983 194.618 283.159 185.236 283.806C163.399 285.312 136.387 281.865 124.094 277.983C129.917 279.536 152.724 276.365 163.399 274.586C186.692 280.894 195.912 272.645 199.308 267.307L206.587 262.455V261.484L199.794 265.366L197.853 266.337C190.637 278.362 179.607 273.657 177.997 274.088C177.984 274.093 177.971 274.097 177.957 274.101C177.97 274.096 177.983 274.092 177.997 274.088Z" fill="#292A2C"/>
<path d="M149.812 319.715C166.505 312.339 163.561 294.967 160.003 287.203C169.708 288.367 186.53 285.262 193.485 283.806C195.426 284.951 199.955 296.091 202.22 301.275C204.646 320.685 199.308 324.567 193.485 327.479C187.662 330.391 176.016 315.348 175.531 314.862C175.143 314.474 181.839 309.848 185.236 307.584C181.03 309.039 170.969 313.018 164.37 317.289C156.121 322.626 150.783 319.264 149.812 319.715Z" fill="#292A2C"/>
<path d="M109.055 278.468C109.055 273.033 115.202 243.853 118.76 229.942C115.654 229.942 113.261 228.648 111.967 228.001C109.055 249.352 107.437 269.733 109.055 278.468Z" fill="#010101"/>
<path d="M108.567 278.467C103.52 182.969 160.813 141.625 190.09 132.891C186.596 123.962 191.546 106.202 194.457 98.4375L142.535 129.494C124.677 141.916 107.92 169.285 101.773 181.416C99.1851 185.945 93.0386 199.08 89.1566 215.384C85.2745 231.689 84.951 244.823 85.2745 249.352C88.0243 254.852 94.5914 267.209 98.8617 272.644C103.132 278.079 107.111 278.791 108.567 278.467Z" fill="#98272D"/>
<path fill-rule="evenodd" clip-rule="evenodd" d="M195.87 96.7441L195.14 98.6925C193.697 102.541 191.745 108.879 190.589 115.355C189.426 121.872 189.102 128.365 190.769 132.625L191.057 133.361L190.299 133.588C161.314 142.235 104.268 183.296 109.295 278.428L109.327 279.044L108.726 279.177C106.892 279.585 102.655 278.649 98.2906 273.094C93.9672 267.591 87.3692 255.166 84.6247 249.677L84.5601 249.548L84.5498 249.403C84.2204 244.793 84.5523 231.584 88.4497 215.215C92.3439 198.859 98.5071 185.672 101.133 181.071C104.225 174.971 109.967 165.072 117.174 155.136C124.381 145.202 133.092 135.176 142.12 128.896L142.141 128.882L195.87 96.7441ZM142.931 130.105C134.109 136.248 125.52 146.111 118.353 155.991C111.187 165.87 105.481 175.711 102.424 181.745L102.415 181.761L102.406 181.777C99.8515 186.248 93.7313 199.318 89.8659 215.552C86.04 231.621 85.6912 244.576 85.992 249.156C88.7838 254.728 95.2511 266.869 99.4353 272.194C103.024 276.761 106.278 277.763 107.805 277.803C103.096 183.223 159.446 141.679 189.148 132.417C187.63 127.781 188.05 121.299 189.156 115.099C190.154 109.509 191.733 104.029 193.086 100.106L142.931 130.105Z" fill="black"/>
<path d="M87.7017 247.897C86.5371 231.204 95.304 200.18 99.8331 186.754C96.9216 191.122 93.0395 204.709 89.1574 218.296C86.0518 229.166 85.9224 243.853 86.2459 249.838L95.4657 266.336L87.7017 247.897Z" fill="white"/>
<path d="M146.903 129.494L121.67 151.816C122.834 148.71 135.742 136.288 142.05 130.465L146.903 129.494Z" fill="white"/>
<path d="M105.171 277.012L107.597 277.983C107.274 277.012 106.627 272.063 106.627 260.028C106.627 244.985 110.994 229.942 112.45 224.119C113.615 219.461 118.111 206.003 120.214 199.857L114.876 195.974C115.2 196.298 116.138 197.527 117.303 199.857C118.758 202.768 116.817 208.106 109.539 226.546C103.715 241.297 104.201 266.337 105.171 277.012Z" fill="#4B1316"/>
<path d="M189.98 110.64C188.466 108.184 187.655 108.336 186.209 108.628C187.374 110.181 186.047 124.157 185.238 130.95C164.372 133.862 135.742 168.8 134.772 171.226C133.995 173.167 122.802 162.654 117.303 157.154L116.332 158.61C120.214 162.492 130.243 170.903 134.772 174.623C158.924 142.182 179.79 136.359 189.01 132.477C188.413 127.695 188.848 117.272 189.98 110.64Z" fill="#4B1316"/>
<path d="M121.183 201.797C108.372 194.809 87.3768 163.3 78.4805 148.419C79.2569 145.313 84.627 133.861 87.2151 128.523L94.4939 132.405C103.811 149.098 125.55 168.153 135.255 175.593L121.183 201.797Z" fill="#98272D"/>
<path fill-rule="evenodd" clip-rule="evenodd" d="M86.8919 127.526L95.027 131.865L95.1313 132.052C99.7402 140.309 107.447 149.19 115.244 156.954C123.034 164.711 130.871 171.315 135.7 175.017L136.191 175.393L121.479 202.788L120.836 202.437C117.529 200.633 113.75 197.284 109.828 193.1C105.895 188.905 101.774 183.824 97.7834 178.506C89.8027 167.871 82.3158 156.251 77.8575 148.794L77.7031 148.535L77.7761 148.244C78.1837 146.613 79.7543 142.905 81.5064 139.011C83.2731 135.084 85.2657 130.88 86.5619 128.207L86.8919 127.526ZM87.5425 129.523C86.2576 132.188 84.4501 136.016 82.834 139.608C81.1652 143.317 79.7366 146.696 79.2659 148.312C83.7218 155.744 91.098 167.171 98.9478 177.632C102.92 182.926 107.006 187.962 110.89 192.105C114.522 195.978 117.94 199.031 120.897 200.796L134.324 175.794C129.42 171.996 121.796 165.533 114.217 157.986C106.447 150.248 98.6837 141.329 93.965 132.949L87.5425 129.523Z" fill="black"/>
<path d="M130.89 177.05C106.348 161.947 95.577 139.5 94.5586 133.37C102.614 147.224 120.535 165.173 134.287 176.079C132.346 178.991 124.582 193.71 121.185 200.827L118.758 199.371L130.89 177.05Z" fill="#4B1316"/>
</svg>
