<?xml version="1.0" encoding="utf-8"?>
<!-- Generator: Adobe Illustrator 25.2.3, SVG Export Plug-In . SVG Version: 6.00 Build 0)  -->
<svg version="1.1" id="图层_1" xmlns="http://www.w3.org/2000/svg" xmlns:xlink="http://www.w3.org/1999/xlink" x="0px" y="0px"
	 viewBox="0 0 820.89 200" style="enable-background:new 0 0 820.89 200;" xml:space="preserve">
<style type="text/css">
	.st0{fill:#FFFFFF;}
	.st1{fill:#FFFFFF;}
	.st2{fill:none;stroke:#FFFFFF;stroke-width:0.2981;stroke-miterlimit:10;}
	.st3{fill:none;stroke:#FFFFFF;stroke-width:1.8842;stroke-miterlimit:10;}
	.st4{fill:#3E8445;}
</style>
<g>
	<g>
		<g>
			<path class="st0" d="M346.69,184.09v-70.55h-56.24v62.54c0,4.42-3.59,8.01-8.01,8.01h-24.43V23.87c0-4.42,3.59-8.01,8.01-8.01
				h24.43v68.98h56.24V23.87c0-4.42,3.59-8.01,8.01-8.01h24.42v160.22c0,4.42-3.59,8.01-8.01,8.01H346.69z"/>
		</g>
		<g>
			<path class="st0" d="M417.87,184.09V23.87c0-4.42,3.59-8.01,8.01-8.01h101.43v20.93c0,4.42-3.59,8.01-8.01,8.01h-69v40.04h65.57
				v20.93c0,4.42-3.59,8.01-8.01,8.01h-57.56v41.38h77.01v20.93c0,4.42-3.59,8.01-8.01,8.01H417.87z"/>
		</g>
		<g>
			<path class="st0" d="M614.59,184.48c-18.2,0-33.14-6.54-44.8-18.2c-16.8-16.8-16.33-37.57-16.33-66.27s-0.47-49.47,16.33-66.27
				c11.67-11.67,26.6-18.2,44.8-18.2c31.04,0,55.31,17.74,61.14,52.51h-27.03c-3.31,0-6.29-2.04-7.46-5.14
				c-4.06-10.72-12.26-18.43-26.42-18.43c-8.87,0-16.1,3.27-20.77,8.63c-6.3,7-8.17,14.93-8.17,46.9s1.87,39.9,8.17,46.9
				c4.67,5.37,11.9,8.63,20.77,8.63c16.34,0,24.74-10.26,28-23.57h22.81c5.32,0,9.26,5.13,7.71,10.22
				C664.78,170.22,642.22,184.48,614.59,184.48z"/>
		</g>
		<g>
			<path class="st0" d="M804.32,166.28c-11.67,11.67-25.9,18.2-44.8,18.2c-18.9,0-33.37-6.54-45.04-18.2
				c-16.8-16.8-16.33-37.57-16.33-66.27s-0.47-49.47,16.33-66.27c11.67-11.67,26.14-18.2,45.04-18.2c18.9,0,33.14,6.54,44.8,18.2
				c16.8,16.8,16.57,37.57,16.57,66.27S821.12,149.48,804.32,166.28z M780.28,53.34c-4.67-5.37-11.9-8.87-20.77-8.87
				c-8.87,0-16.34,3.5-21,8.87c-6.3,7-7.94,14.7-7.94,46.67s1.63,39.67,7.94,46.67c4.67,5.37,12.13,8.87,21,8.87
				c8.87,0,16.1-3.5,20.77-8.87c6.3-7,8.17-14.7,8.17-46.67S786.58,60.34,780.28,53.34z"/>
		</g>
	</g>
	<g>
		<g>
			<path class="st4" d="M50.19,9.77v26.29C29,44,11.31,59.12,0.06,78.45V0h40.38C45.82,0,50.19,4.37,50.19,9.77z"/>
			<path class="st4" d="M119.87,43.05v25.19c0,13.89-11.26,25.15-25.15,25.15h-8.2c-20,0-36.23,16.19-36.27,36.21V200H9.82
				c-5.4,0-9.76-4.37-9.76-9.76v-59.63C0.02,129.57,0,128.53,0,127.48c0-46.66,37.83-84.5,84.5-84.5c1.05,0,2.09,0.02,3.14,0.06
				H119.87z"/>
		</g>
		<g>
			<path class="st4" d="M132.9,190.23v-26.29c21.2-7.95,38.89-23.07,50.13-42.4V200h-40.38C137.28,200,132.9,195.63,132.9,190.23z"
				/>
			<path class="st4" d="M63.23,156.95v-25.19c0-13.89,11.26-25.15,25.15-25.15h8.2c20,0,36.23-16.19,36.27-36.21V0l40.43,0
				c5.4,0,9.76,4.37,9.76,9.76v59.63c0.05,1.04,0.06,2.08,0.06,3.14c0,46.66-37.83,84.5-84.5,84.5c-1.05,0-2.09-0.02-3.14-0.06
				H63.23z"/>
		</g>
	</g>
</g>
</svg>
