<?xml version="1.0" encoding="UTF-8"?>
<svg xmlns="http://www.w3.org/2000/svg" xmlns:xlink="http://www.w3.org/1999/xlink" width="2000px" height="15px" viewBox="0 0 2000 15" version="1.1">
<g id="surface1">
<path style=" stroke:none;fill-rule:nonzero;fill:rgb(82.352941%,33.333333%,35.686275%);fill-opacity:1;" d="M 1490.375 0.726562 C 1492.125 0.726562 1492.554688 1.5625 1492.554688 1.980469 L 1491.472656 6.523438 C 1490.5 7.464844 1488.472656 9.4375 1488.179688 9.8125 C 1487.890625 10.191406 1486.359375 11.957031 1485.640625 12.789062 C 1485.277344 13.15625 1484.109375 13.855469 1482.359375 13.730469 C 1480.167969 13.574219 1395.625 13.734375 1388.699219 14.046875 C 1383.160156 14.296875 1380.316406 13.941406 1379.585938 13.734375 C 1377.402344 10.601562 1382.503906 6.371094 1383.230469 4.804688 C 1383.8125 3.550781 1381.042969 1.671875 1379.585938 0.886719 L 1387.96875 0.886719 C 1389.722656 0.886719 1413.472656 1.199219 1425.140625 1.355469 C 1442.027344 1.304688 1477.109375 1.105469 1482.359375 0.726562 C 1488.917969 0.257812 1488.179688 0.726562 1490.375 0.726562 Z M 1490.375 0.726562 "/>
<path style=" stroke:none;fill-rule:nonzero;fill:rgb(82.352941%,33.333333%,35.686275%);fill-opacity:1;" d="M 1498.390625 0.882812 C 1493.140625 0.757812 1492.320312 1.25 1492.554688 1.511719 L 1492.554688 4.644531 L 1490 7.777344 C 1488.542969 9.394531 1485.554688 12.789062 1485.265625 13.417969 C 1484.902344 14.199219 1488.542969 14.042969 1490 13.886719 C 1491.457031 13.730469 1502.402344 13.417969 1512.234375 13.417969 C 1522.070312 13.417969 1576.015625 13.101562 1578.554688 13.414062 C 1580.597656 13.664062 1584.265625 13.9375 1585.847656 14.042969 C 1585.484375 11.535156 1584.609375 6.304688 1584.027344 5.425781 C 1583.445312 4.546875 1582.320312 3.390625 1581.832031 2.917969 L 1582.929688 0.726562 C 1581.957031 0.726562 1579.222656 0.820312 1576.015625 1.195312 C 1572 1.667969 1567.625 1.507812 1564.707031 1.507812 C 1561.792969 1.507812 1504.945312 1.039062 1498.390625 0.882812 Z M 1498.390625 0.882812 "/>
<path style=" stroke:none;fill-rule:nonzero;fill:rgb(82.352941%,33.333333%,35.686275%);fill-opacity:1;" d="M 1586.582031 0.882812 C 1582.792969 0.632812 1582.082031 0.988281 1582.207031 1.195312 L 1584.027344 8.558594 C 1584.390625 10.125 1583.734375 12.632812 1584.027344 13.257812 C 1584.390625 14.042969 1590.582031 14.042969 1591.679688 14.042969 C 1592.777344 14.042969 1606.265625 13.257812 1608.804688 13.257812 L 1661.652344 13.257812 C 1663.695312 13.257812 1667.359375 13.777344 1668.945312 14.039062 L 1667.847656 9.96875 L 1669.667969 6.832031 L 1670.765625 3.542969 L 1668.945312 0.882812 C 1667.109375 0.566406 1663.109375 1.195312 1660.554688 1.195312 L 1623.390625 1.195312 C 1619.375 1.195312 1591.320312 1.195312 1586.582031 0.882812 Z M 1586.582031 0.882812 "/>
<path style=" stroke:none;fill-rule:nonzero;fill:rgb(82.352941%,33.333333%,35.686275%);fill-opacity:1;" d="M 1668.207031 0.722656 C 1668.695312 0.566406 1670.984375 0.347656 1676.222656 0.722656 C 1681.472656 1.101562 1711.695312 1.296875 1726.152344 1.347656 C 1743.042969 1.140625 1777.179688 0.722656 1778.640625 0.722656 L 1782.695312 0.722656 C 1783.152344 0.636719 1783.722656 0.667969 1784.097656 0.722656 L 1782.695312 0.722656 C 1782.25 0.800781 1781.917969 0.984375 1781.917969 1.347656 C 1781.917969 2.289062 1780.820312 5.265625 1780.457031 5.578125 C 1780.167969 5.828125 1779.125 8.1875 1778.640625 9.335938 C 1778.75 10.90625 1778.707031 14.039062 1777.542969 14.039062 C 1776.082031 14.039062 1763.332031 13.410156 1759.679688 13.410156 C 1756.042969 13.410156 1678.417969 13.101562 1676.234375 13.414062 C 1674.042969 13.726562 1669.304688 14.351562 1668.207031 13.882812 C 1667.332031 13.507812 1667.847656 12.054688 1668.207031 11.375 L 1669.304688 7.773438 L 1671.125 4.484375 L 1669.304688 2.605469 Z M 1668.207031 0.722656 "/>
<path style=" stroke:none;fill-rule:nonzero;fill:rgb(0%,0%,0%);fill-opacity:1;" d="M 1772.429688 11.53125 C 1773.890625 11.78125 1769.875 12.574219 1767.695312 12.941406 C 1765.875 12.472656 1683.152344 13.101562 1679.859375 13.101562 C 1676.582031 13.101562 1674.402344 11.535156 1674.042969 10.90625 C 1673.667969 10.28125 1711.570312 9.339844 1725.792969 9.652344 C 1740 9.964844 1770.609375 11.21875 1772.429688 11.53125 Z M 1772.429688 11.53125 "/>
<path style=" stroke:none;fill-rule:nonzero;fill:rgb(32.941176%,13.333333%,14.509804%);fill-opacity:1;" d="M 1680.597656 7.148438 L 1671.125 7.148438 C 1667.472656 7.773438 1668.207031 12.628906 1668.207031 13.414062 C 1668.207031 14.195312 1671.125 13.726562 1672.945312 13.726562 C 1674.402344 13.726562 1678.292969 12.941406 1680.597656 12.941406 C 1677.554688 12.316406 1672.945312 10.90625 1674.402344 10.28125 C 1678.417969 8.558594 1681.695312 7.148438 1680.597656 7.148438 Z M 1680.597656 7.148438 "/>
<path style=" stroke:none;fill-rule:nonzero;fill:rgb(82.352941%,33.333333%,35.686275%);fill-opacity:1;" d="M 1872.277344 4.585938 C 1870.832031 3.207031 1870.945312 1.398438 1871.195312 0.667969 C 1869.375 0.355469 1867.179688 1.453125 1865.359375 1.609375 C 1863.542969 1.765625 1795.027344 1.453125 1789.929688 0.984375 C 1785.847656 0.609375 1783.125 0.828125 1782.277344 0.984375 L 1782.277344 4.273438 L 1780.820312 6.625 L 1777.902344 10.695312 C 1776.804688 11.792969 1774.917969 13.988281 1776.082031 13.988281 C 1777.542969 13.988281 1781.542969 13.671875 1784.097656 13.515625 C 1786.640625 13.359375 1866.457031 13.359375 1870.097656 13.828125 C 1873.015625 14.203125 1874.707031 13.984375 1875.195312 13.828125 C 1874.832031 11.320312 1873.734375 5.964844 1872.277344 4.585938 Z M 1872.277344 4.585938 "/>
<path style=" stroke:none;fill-rule:nonzero;fill:rgb(32.941176%,13.333333%,14.509804%);fill-opacity:1;" d="M 1791.390625 7.457031 C 1791.097656 6.957031 1785.195312 7.25 1782.277344 7.457031 C 1779.359375 7.632812 1776.445312 12.472656 1776.082031 13.566406 C 1775.792969 14.445312 1777.902344 14.351562 1779 14.195312 C 1780.457031 10.433594 1791.75 8.085938 1791.390625 7.457031 Z M 1791.390625 7.457031 "/>
<path style=" stroke:none;fill-rule:nonzero;fill:rgb(0%,0%,0%);fill-opacity:1;" d="M 1853.707031 9.648438 C 1864.195312 9.398438 1869.015625 11.113281 1870.097656 12 C 1871.554688 12.699219 1869.5 12.917969 1868.277344 12.9375 C 1854.917969 12.78125 1826.015625 12.46875 1817.265625 12.46875 C 1808.515625 12.46875 1788.597656 13.203125 1779.722656 13.566406 C 1780.207031 13.304688 1781.695312 12.566406 1783.734375 11.6875 C 1786.292969 10.589844 1840.582031 9.964844 1853.707031 9.648438 Z M 1853.707031 9.648438 "/>
<path style=" stroke:none;fill-rule:nonzero;fill:rgb(32.941176%,13.333333%,14.509804%);fill-opacity:1;" d="M 1789.554688 6.046875 C 1796.554688 5.421875 1849.082031 6.308594 1874.472656 6.828125 L 1871.554688 3.226562 C 1856.609375 5.578125 1787.015625 2.132812 1789.554688 3.226562 C 1791.597656 4.105469 1790.402344 5.472656 1789.554688 6.046875 Z M 1789.554688 6.046875 "/>
<path style=" stroke:none;fill-rule:nonzero;fill:rgb(32.941176%,13.333333%,14.509804%);fill-opacity:1;" d="M 1726.875 3.699219 C 1739.707031 3.574219 1767.457031 3.125 1779.722656 2.914062 C 1780.890625 2.894531 1780.207031 1.078125 1779.722656 0.410156 L 1783.359375 0.410156 C 1784.457031 2.445312 1782.277344 6.363281 1780.445312 7.769531 C 1778.984375 8.898438 1777.902344 12.835938 1777.167969 14.351562 L 1774.25 13.882812 C 1774.859375 12.523438 1776.515625 9.402344 1778.265625 7.769531 C 1780.015625 6.140625 1778.265625 5.945312 1777.167969 6.046875 C 1771.625 5.296875 1709.265625 5.003906 1678.777344 4.953125 L 1681.695312 3.699219 C 1691.402344 3.753906 1714.054688 3.824219 1726.875 3.699219 Z M 1726.875 3.699219 "/>
<path style=" stroke:none;fill-rule:nonzero;fill:rgb(32.941176%,13.333333%,14.509804%);fill-opacity:1;" d="M 1593.140625 13.570312 C 1593.722656 13.949219 1588.765625 14.042969 1586.222656 14.042969 L 1584.765625 7.304688 L 1588.402344 7.304688 C 1589.984375 7.722656 1593.359375 8.621094 1594.234375 8.871094 C 1595.332031 9.183594 1592.042969 10.28125 1590.222656 11.691406 C 1588.402344 13.101562 1592.417969 13.101562 1593.140625 13.570312 Z M 1593.140625 13.570312 "/>
<path style=" stroke:none;fill-rule:nonzero;fill:rgb(0%,0%,0%);fill-opacity:1;" d="M 1663.109375 11.222656 C 1663.984375 11.722656 1659.832031 12.265625 1657.640625 12.472656 C 1655.097656 11.691406 1597.875 13.101562 1594.234375 12.476562 C 1591.320312 11.972656 1595.445312 10.804688 1597.875 10.28125 C 1608.195312 10.175781 1631.265625 9.9375 1640.875 9.8125 C 1652.902344 9.65625 1662.015625 10.59375 1663.109375 11.222656 Z M 1663.109375 11.222656 "/>
<path style=" stroke:none;fill-rule:nonzero;fill:rgb(32.941176%,13.333333%,14.509804%);fill-opacity:1;" d="M 1638.320312 4.015625 L 1593.859375 4.015625 C 1593.859375 4.957031 1595.320312 5.425781 1596.417969 5.425781 L 1668.929688 5.425781 C 1668.929688 6.363281 1668.722656 8.433594 1667.847656 9.183594 C 1666.972656 9.9375 1666.015625 12.628906 1665.652344 13.882812 L 1669.667969 14.351562 C 1674.042969 14.980469 1669.375 9.089844 1671.125 6.835938 C 1672.875 4.578125 1670.75 1.140625 1669.667969 0.0976562 L 1666.75 0.882812 C 1668.207031 1.132812 1668.820312 2.449219 1668.929688 3.074219 C 1662.5 3.386719 1647.359375 4.015625 1638.320312 4.015625 Z M 1638.320312 4.015625 "/>
<path style=" stroke:none;fill-rule:nonzero;fill:rgb(32.941176%,13.333333%,14.509804%);fill-opacity:1;" d="M 1489.640625 13.574219 C 1488.472656 14.324219 1486.972656 13.886719 1486.359375 13.574219 C 1484.179688 12.476562 1490.734375 7.621094 1492.917969 7.308594 C 1495.109375 6.992188 1504.945312 8.089844 1500.945312 8.71875 C 1496.929688 9.34375 1491.097656 12.632812 1489.640625 13.574219 Z M 1489.640625 13.574219 "/>
<path style=" stroke:none;fill-rule:nonzero;fill:rgb(0%,0%,0%);fill-opacity:1;" d="M 1580.015625 12.003906 L 1575.652344 12.789062 C 1571.277344 12.164062 1495.472656 13.105469 1493.292969 12.789062 C 1491.097656 12.476562 1501.667969 9.972656 1503.125 9.8125 C 1504.582031 9.65625 1574.554688 10.125 1575.652344 10.28125 C 1576.527344 10.40625 1578.929688 11.484375 1580.015625 12.003906 Z M 1580.015625 12.003906 "/>
<path style=" stroke:none;fill-rule:nonzero;fill:rgb(32.941176%,13.333333%,14.509804%);fill-opacity:1;" d="M 1490.734375 3.234375 C 1491.609375 2.859375 1489.640625 1.144531 1489.277344 0.570312 L 1494.734375 1.039062 C 1494.859375 3.078125 1493.652344 7.558594 1490.734375 9.1875 C 1487.820312 10.816406 1487.082031 13 1487.082031 13.886719 C 1484.902344 13.992188 1480.890625 14.136719 1482.347656 13.886719 C 1484.179688 13.574219 1485.625 9.65625 1487.082031 9.1875 C 1488.542969 8.71875 1491.457031 6.367188 1490.734375 5.742188 C 1490 5.113281 1390.875 4.960938 1389.054688 4.960938 C 1387.601562 4.960938 1388.449219 3.8125 1389.054688 3.234375 C 1409.582031 3.445312 1451.082031 3.863281 1452.832031 3.863281 C 1455.015625 3.863281 1489.640625 3.703125 1490.734375 3.234375 Z M 1490.734375 3.234375 "/>
<path style=" stroke:none;fill-rule:nonzero;fill:rgb(32.941176%,13.333333%,14.509804%);fill-opacity:1;" d="M 1546.125 4.328125 C 1540.292969 4.328125 1514.304688 3.914062 1502.027344 3.703125 C 1501.445312 5.332031 1502.277344 5.742188 1502.765625 5.742188 C 1509.320312 6.054688 1579.652344 4.800781 1581.847656 6.523438 C 1583.597656 7.902344 1583.542969 12.109375 1583.304688 14.042969 C 1584.152344 14.199219 1586 14.417969 1586.582031 14.042969 C 1587.304688 13.570312 1585.847656 7.933594 1585.847656 7.304688 C 1585.847656 6.804688 1584.152344 2.710938 1583.304688 0.726562 L 1579.652344 0.726562 C 1580.015625 0.882812 1580.75 1.382812 1580.75 2.136719 L 1580.75 4.328125 Z M 1546.125 4.328125 "/>
<path style=" stroke:none;fill-rule:nonzero;fill:rgb(0%,0%,0%);fill-opacity:1;" d="M 1483.445312 11.851562 C 1483.734375 12.101562 1479.445312 12.789062 1477.25 13.105469 C 1472.515625 12.476562 1386.144531 13.261719 1383.957031 12.949219 C 1381.773438 12.636719 1383.59375 9.816406 1385.414062 9.816406 C 1387.238281 9.816406 1466.679688 9.972656 1469.234375 9.972656 C 1471.777344 9.972656 1483.082031 11.539062 1483.445312 11.851562 Z M 1483.445312 11.851562 "/>
<path style=" stroke:none;fill-rule:nonzero;fill:rgb(32.941176%,13.333333%,14.509804%);fill-opacity:1;" d="M 1390.152344 6.839844 C 1391.609375 6.339844 1385.660156 6.632812 1382.5 6.839844 C 1380.679688 6.949219 1376.671875 13.734375 1379.222656 13.890625 C 1381.773438 14.046875 1384.6875 13.578125 1384.324219 12.007812 C 1383.957031 10.441406 1388.332031 7.464844 1390.152344 6.839844 Z M 1390.152344 6.839844 "/>
<path style=" stroke:none;fill-rule:nonzero;fill:rgb(82.352941%,33.333333%,35.686275%);fill-opacity:1;" d="M 1618.25 0.726562 C 1620 0.726562 1620.429688 1.558594 1620.429688 1.976562 L 1619.347656 6.519531 C 1618.375 7.460938 1616.347656 9.433594 1616.054688 9.8125 C 1615.765625 10.1875 1614.234375 11.953125 1613.515625 12.789062 C 1613.152344 13.152344 1611.984375 13.851562 1610.234375 13.726562 C 1608.042969 13.570312 1523.5 13.730469 1516.570312 14.042969 C 1511.042969 14.292969 1508.195312 13.9375 1507.457031 13.730469 C 1505.277344 10.597656 1510.375 6.367188 1511.109375 4.800781 C 1511.695312 3.546875 1508.917969 1.667969 1507.457031 0.882812 L 1515.847656 0.882812 C 1517.597656 0.882812 1541.347656 1.195312 1553.015625 1.351562 C 1569.902344 1.300781 1604.984375 1.101562 1610.234375 0.726562 C 1616.792969 0.253906 1616.054688 0.726562 1618.25 0.726562 Z M 1618.25 0.726562 "/>
<path style=" stroke:none;fill-rule:nonzero;fill:rgb(82.352941%,33.333333%,35.686275%);fill-opacity:1;" d="M 1626.265625 0.882812 C 1621.015625 0.757812 1620.195312 1.246094 1620.429688 1.507812 L 1620.429688 4.640625 L 1617.875 7.773438 C 1616.417969 9.394531 1613.429688 12.789062 1613.140625 13.414062 C 1612.777344 14.195312 1616.429688 14.039062 1617.875 13.882812 C 1619.332031 13.726562 1630.277344 13.414062 1640.109375 13.414062 C 1649.945312 13.414062 1703.890625 13.097656 1706.429688 13.410156 C 1708.472656 13.664062 1712.152344 13.933594 1713.722656 14.039062 C 1713.359375 11.53125 1712.484375 6.300781 1711.902344 5.421875 C 1711.320312 4.546875 1710.207031 3.386719 1709.722656 2.914062 L 1710.804688 0.722656 C 1709.832031 0.722656 1707.097656 0.816406 1703.890625 1.191406 C 1699.875 1.664062 1695.5 1.507812 1692.582031 1.507812 C 1689.667969 1.507812 1632.820312 1.039062 1626.265625 0.882812 Z M 1626.265625 0.882812 "/>
<path style=" stroke:none;fill-rule:nonzero;fill:rgb(82.352941%,33.333333%,35.686275%);fill-opacity:1;" d="M 1714.457031 0.878906 C 1710.667969 0.628906 1709.957031 0.984375 1710.082031 1.191406 L 1711.902344 8.554688 C 1712.265625 10.121094 1711.609375 12.628906 1711.902344 13.253906 C 1712.265625 14.039062 1718.457031 14.039062 1719.554688 14.039062 C 1720.652344 14.039062 1734.140625 13.253906 1736.679688 13.253906 L 1789.527344 13.253906 C 1791.570312 13.253906 1795.234375 13.777344 1796.820312 14.035156 L 1795.722656 9.964844 L 1797.542969 6.832031 L 1798.640625 3.539062 L 1796.820312 0.878906 C 1794.984375 0.5625 1790.984375 1.191406 1788.429688 1.191406 L 1751.265625 1.191406 C 1747.25 1.191406 1719.195312 1.191406 1714.457031 0.878906 Z M 1714.457031 0.878906 "/>
<path style=" stroke:none;fill-rule:nonzero;fill:rgb(82.352941%,33.333333%,35.686275%);fill-opacity:1;" d="M 1796.082031 0.722656 C 1796.570312 0.5625 1798.859375 0.34375 1804.109375 0.71875 C 1809.347656 1.097656 1839.570312 1.292969 1854.027344 1.347656 C 1870.917969 1.136719 1905.054688 0.71875 1906.515625 0.71875 L 1910.570312 0.71875 C 1911.027344 0.632812 1911.597656 0.664062 1911.972656 0.71875 L 1910.570312 0.71875 C 1910.125 0.796875 1909.792969 0.980469 1909.792969 1.34375 C 1909.792969 2.285156 1908.695312 5.261719 1908.332031 5.574219 C 1908.042969 5.824219 1907 8.1875 1906.515625 9.335938 C 1906.625 10.902344 1906.582031 14.035156 1905.417969 14.035156 C 1903.957031 14.035156 1891.207031 13.40625 1887.554688 13.40625 C 1883.917969 13.40625 1806.292969 13.097656 1804.109375 13.410156 C 1801.917969 13.722656 1797.179688 14.351562 1796.082031 13.878906 C 1795.207031 13.503906 1795.722656 12.050781 1796.082031 11.375 L 1797.179688 7.769531 L 1799 4.480469 L 1797.179688 2.601562 Z M 1796.082031 0.722656 "/>
<path style=" stroke:none;fill-rule:nonzero;fill:rgb(0%,0%,0%);fill-opacity:1;" d="M 1900.304688 11.527344 C 1901.765625 11.777344 1897.765625 12.574219 1895.570312 12.9375 C 1893.75 12.46875 1811.027344 13.097656 1807.75 13.097656 C 1804.472656 13.097656 1802.277344 11.53125 1801.917969 10.902344 C 1801.554688 10.277344 1839.457031 9.335938 1853.667969 9.648438 C 1867.875 9.960938 1898.484375 11.214844 1900.304688 11.527344 Z M 1900.304688 11.527344 "/>
<path style=" stroke:none;fill-rule:nonzero;fill:rgb(32.941176%,13.333333%,14.509804%);fill-opacity:1;" d="M 1808.472656 7.144531 L 1799 7.144531 C 1795.347656 7.769531 1796.082031 12.625 1796.082031 13.410156 C 1796.082031 14.191406 1799 13.722656 1800.820312 13.722656 C 1802.277344 13.722656 1806.167969 12.941406 1808.472656 12.941406 C 1805.429688 12.3125 1800.820312 10.902344 1802.277344 10.277344 C 1806.292969 8.554688 1809.570312 7.144531 1808.472656 7.144531 Z M 1808.472656 7.144531 "/>
<path style=" stroke:none;fill-rule:nonzero;fill:rgb(82.352941%,33.333333%,35.686275%);fill-opacity:1;" d="M 2000.167969 4.582031 C 1998.707031 3.203125 1998.820312 1.398438 1999.070312 0.664062 C 1997.25 0.351562 1995.054688 1.449219 1993.234375 1.605469 C 1991.417969 1.761719 1922.902344 1.449219 1917.804688 0.980469 C 1913.722656 0.605469 1911 0.824219 1910.152344 0.980469 L 1910.152344 4.269531 L 1908.695312 6.621094 L 1905.777344 10.695312 C 1904.679688 11.789062 1902.792969 13.984375 1903.957031 13.984375 C 1905.417969 13.984375 1909.417969 13.671875 1911.972656 13.511719 C 1914.515625 13.355469 1994.332031 13.355469 1997.972656 13.824219 C 2000.890625 14.199219 2002.582031 13.980469 2003.070312 13.824219 C 2002.707031 11.320312 2001.609375 5.960938 2000.167969 4.582031 Z M 2000.167969 4.582031 "/>
<path style=" stroke:none;fill-rule:nonzero;fill:rgb(32.941176%,13.333333%,14.509804%);fill-opacity:1;" d="M 1919.265625 7.453125 C 1918.972656 6.953125 1913.070312 7.246094 1910.152344 7.457031 C 1907.234375 7.628906 1904.320312 12.46875 1903.957031 13.566406 C 1903.667969 14.441406 1905.777344 14.347656 1906.875 14.191406 C 1908.332031 10.433594 1919.625 8.082031 1919.265625 7.453125 Z M 1919.265625 7.453125 "/>
<path style=" stroke:none;fill-rule:nonzero;fill:rgb(0%,0%,0%);fill-opacity:1;" d="M 1981.582031 9.648438 C 1992.070312 9.394531 1996.890625 11.109375 1997.972656 11.996094 C 1999.429688 12.695312 1997.375 12.914062 1996.152344 12.9375 C 1982.792969 12.78125 1953.890625 12.46875 1945.140625 12.46875 C 1936.390625 12.46875 1916.472656 13.199219 1907.597656 13.5625 C 1908.082031 13.304688 1909.570312 12.5625 1911.609375 11.683594 C 1914.167969 10.585938 1968.457031 9.960938 1981.582031 9.648438 Z M 1981.582031 9.648438 "/>
<path style=" stroke:none;fill-rule:nonzero;fill:rgb(32.941176%,13.333333%,14.509804%);fill-opacity:1;" d="M 1917.429688 6.042969 C 1924.429688 5.417969 1976.957031 6.304688 2002.347656 6.828125 L 1999.429688 3.222656 C 1984.484375 5.574219 1914.890625 2.128906 1917.429688 3.226562 C 1919.472656 4.101562 1918.292969 5.46875 1917.429688 6.042969 Z M 1917.429688 6.042969 "/>
<path style=" stroke:none;fill-rule:nonzero;fill:rgb(32.941176%,13.333333%,14.509804%);fill-opacity:1;" d="M 1854.75 3.695312 C 1867.582031 3.570312 1895.332031 3.121094 1907.597656 2.910156 C 1908.765625 2.890625 1908.082031 1.074219 1907.597656 0.40625 L 1911.234375 0.40625 C 1912.332031 2.441406 1910.152344 6.359375 1908.320312 7.769531 C 1906.859375 8.894531 1905.777344 12.832031 1905.042969 14.347656 L 1902.125 13.878906 C 1902.734375 12.519531 1904.390625 9.398438 1906.140625 7.769531 C 1907.890625 6.140625 1906.140625 5.941406 1905.042969 6.046875 C 1899.5 5.292969 1837.140625 5.003906 1806.652344 4.949219 L 1809.570312 3.695312 C 1819.277344 3.75 1841.929688 3.820312 1854.75 3.695312 Z M 1854.75 3.695312 "/>
<path style=" stroke:none;fill-rule:nonzero;fill:rgb(32.941176%,13.333333%,14.509804%);fill-opacity:1;" d="M 1721.015625 13.570312 C 1721.597656 13.945312 1716.640625 14.039062 1714.097656 14.039062 L 1712.640625 7.300781 L 1716.277344 7.300781 C 1717.859375 7.71875 1721.234375 8.617188 1722.109375 8.867188 C 1723.207031 9.183594 1719.929688 10.277344 1718.097656 11.6875 C 1716.277344 13.097656 1720.292969 13.097656 1721.015625 13.570312 Z M 1721.015625 13.570312 "/>
<path style=" stroke:none;fill-rule:nonzero;fill:rgb(0%,0%,0%);fill-opacity:1;" d="M 1790.984375 11.21875 C 1791.859375 11.71875 1787.707031 12.261719 1785.515625 12.472656 C 1782.972656 11.6875 1725.75 13.097656 1722.109375 12.472656 C 1719.195312 11.972656 1723.320312 10.800781 1725.75 10.277344 C 1736.082031 10.175781 1759.140625 9.933594 1768.75 9.808594 C 1780.777344 9.652344 1789.890625 10.589844 1790.984375 11.21875 Z M 1790.984375 11.21875 "/>
<path style=" stroke:none;fill-rule:nonzero;fill:rgb(32.941176%,13.333333%,14.509804%);fill-opacity:1;" d="M 1766.195312 4.011719 L 1721.734375 4.011719 C 1721.734375 4.953125 1723.195312 5.421875 1724.292969 5.421875 L 1796.804688 5.421875 C 1796.804688 6.359375 1796.597656 8.429688 1795.722656 9.179688 C 1794.847656 9.933594 1793.890625 12.628906 1793.527344 13.878906 L 1797.542969 14.351562 C 1801.917969 14.976562 1797.25 9.085938 1799 6.832031 C 1800.75 4.574219 1798.625 1.140625 1797.542969 0.09375 L 1794.625 0.878906 C 1796.082031 1.128906 1796.695312 2.445312 1796.804688 3.070312 C 1790.375 3.382812 1775.234375 4.011719 1766.195312 4.011719 Z M 1766.195312 4.011719 "/>
<path style=" stroke:none;fill-rule:nonzero;fill:rgb(32.941176%,13.333333%,14.509804%);fill-opacity:1;" d="M 1617.515625 13.570312 C 1616.347656 14.320312 1614.847656 13.882812 1614.234375 13.570312 C 1612.054688 12.472656 1618.609375 7.617188 1620.792969 7.304688 C 1622.984375 6.992188 1632.820312 8.085938 1628.820312 8.714844 C 1624.804688 9.339844 1618.972656 12.628906 1617.515625 13.570312 Z M 1617.515625 13.570312 "/>
<path style=" stroke:none;fill-rule:nonzero;fill:rgb(0%,0%,0%);fill-opacity:1;" d="M 1707.890625 12.003906 L 1703.527344 12.785156 C 1699.152344 12.160156 1623.347656 13.101562 1621.167969 12.789062 C 1618.972656 12.472656 1629.542969 9.96875 1631 9.8125 C 1632.457031 9.652344 1702.429688 10.121094 1703.527344 10.28125 C 1704.402344 10.40625 1706.804688 11.480469 1707.890625 12.003906 Z M 1707.890625 12.003906 "/>
<path style=" stroke:none;fill-rule:nonzero;fill:rgb(32.941176%,13.333333%,14.509804%);fill-opacity:1;" d="M 1618.609375 3.230469 C 1619.484375 2.855469 1617.515625 1.140625 1617.152344 0.566406 L 1622.609375 1.039062 C 1622.734375 3.074219 1621.527344 7.554688 1618.609375 9.183594 C 1615.695312 10.8125 1614.957031 12.996094 1614.957031 13.882812 C 1612.777344 13.988281 1608.765625 14.132812 1610.222656 13.882812 C 1612.054688 13.570312 1613.5 9.652344 1614.957031 9.183594 C 1616.417969 8.714844 1619.332031 6.363281 1618.609375 5.738281 C 1617.875 5.109375 1518.75 4.957031 1516.929688 4.957031 C 1515.472656 4.957031 1516.320312 3.808594 1516.929688 3.234375 C 1537.457031 3.441406 1578.957031 3.859375 1580.707031 3.859375 C 1582.890625 3.859375 1617.515625 3.699219 1618.609375 3.230469 Z M 1618.609375 3.230469 "/>
<path style=" stroke:none;fill-rule:nonzero;fill:rgb(32.941176%,13.333333%,14.509804%);fill-opacity:1;" d="M 1674 4.328125 C 1668.167969 4.328125 1642.179688 3.910156 1629.902344 3.699219 C 1629.320312 5.328125 1630.152344 5.738281 1630.640625 5.738281 C 1637.195312 6.050781 1707.527344 4.796875 1709.722656 6.519531 C 1711.472656 7.898438 1711.417969 12.105469 1711.179688 14.039062 C 1712.027344 14.195312 1713.875 14.414062 1714.457031 14.039062 C 1715.179688 13.566406 1713.722656 7.929688 1713.722656 7.300781 C 1713.722656 6.800781 1712.027344 2.707031 1711.179688 0.722656 L 1707.527344 0.722656 C 1707.890625 0.878906 1708.625 1.378906 1708.625 2.132812 L 1708.625 4.324219 Z M 1674 4.328125 "/>
<path style=" stroke:none;fill-rule:nonzero;fill:rgb(0%,0%,0%);fill-opacity:1;" d="M 1611.320312 11.847656 C 1611.609375 12.097656 1607.320312 12.789062 1605.125 13.101562 C 1600.390625 12.472656 1514.015625 13.257812 1511.832031 12.945312 C 1509.652344 12.632812 1511.472656 9.8125 1513.292969 9.8125 C 1515.109375 9.8125 1594.554688 9.96875 1597.109375 9.96875 C 1599.667969 9.96875 1610.957031 11.535156 1611.320312 11.847656 Z M 1611.320312 11.847656 "/>
<path style=" stroke:none;fill-rule:nonzero;fill:rgb(32.941176%,13.333333%,14.509804%);fill-opacity:1;" d="M 1518.027344 6.835938 C 1519.484375 6.335938 1513.527344 6.628906 1510.375 6.835938 C 1508.554688 6.949219 1504.542969 13.730469 1507.097656 13.886719 C 1509.652344 14.042969 1512.570312 13.574219 1512.195312 12.007812 C 1511.832031 10.441406 1516.207031 7.464844 1518.027344 6.835938 Z M 1518.027344 6.835938 "/>
<path style=" stroke:none;fill-rule:nonzero;fill:rgb(82.352941%,33.333333%,35.686275%);fill-opacity:1;" d="M 996.675781 0.738281 C 998.425781 0.738281 998.863281 1.574219 998.863281 1.992188 L 997.769531 6.535156 C 996.796875 7.472656 994.78125 9.449219 994.492188 9.824219 C 994.199219 10.199219 992.667969 11.964844 991.941406 12.800781 C 991.574219 13.164062 990.410156 13.867188 988.660156 13.742188 C 986.472656 13.582031 901.925781 13.742188 895.003906 14.054688 C 889.464844 14.304688 886.621094 13.953125 885.890625 13.742188 C 883.707031 10.609375 888.808594 6.378906 889.535156 4.8125 C 890.117188 3.558594 887.347656 1.679688 885.890625 0.898438 L 894.273438 0.894531 C 896.023438 0.894531 919.78125 1.210938 931.445312 1.367188 C 948.328125 1.3125 983.410156 1.113281 988.660156 0.738281 C 995.21875 0.269531 994.492188 0.738281 996.675781 0.738281 Z M 996.675781 0.738281 "/>
<path style=" stroke:none;fill-rule:nonzero;fill:rgb(82.352941%,33.333333%,35.686275%);fill-opacity:1;" d="M 1004.691406 0.894531 C 999.441406 0.769531 998.617188 1.257812 998.859375 1.519531 L 998.859375 4.652344 L 996.308594 7.785156 C 994.851562 9.40625 991.863281 12.800781 991.570312 13.425781 C 991.207031 14.210938 994.851562 14.054688 996.308594 13.898438 C 997.769531 13.738281 1008.699219 13.425781 1018.539062 13.425781 C 1028.378906 13.425781 1082.3125 13.113281 1084.867188 13.425781 C 1086.90625 13.675781 1090.574219 13.945312 1092.152344 14.050781 C 1091.789062 11.542969 1090.914062 6.3125 1090.332031 5.433594 C 1089.75 4.558594 1088.628906 3.398438 1088.144531 2.929688 L 1089.238281 0.734375 C 1088.265625 0.734375 1085.519531 0.828125 1082.3125 1.207031 C 1078.304688 1.675781 1073.933594 1.519531 1071.015625 1.519531 C 1068.101562 1.519531 1011.25 1.050781 1004.691406 0.894531 Z M 1004.691406 0.894531 "/>
<path style=" stroke:none;fill-rule:nonzero;fill:rgb(82.352941%,33.333333%,35.686275%);fill-opacity:1;" d="M 1092.882812 0.890625 C 1089.09375 0.640625 1088.386719 0.996094 1088.507812 1.207031 L 1090.332031 8.570312 C 1090.695312 10.136719 1090.042969 12.640625 1090.332031 13.269531 C 1090.695312 14.050781 1096.894531 14.050781 1097.984375 14.050781 C 1099.078125 14.050781 1112.5625 13.269531 1115.113281 13.269531 L 1167.957031 13.265625 C 1169.996094 13.265625 1173.664062 13.789062 1175.246094 14.050781 L 1174.148438 9.976562 L 1175.972656 6.84375 L 1177.066406 3.554688 L 1175.242188 0.890625 C 1173.421875 0.578125 1169.414062 1.203125 1166.859375 1.203125 L 1129.691406 1.203125 C 1125.679688 1.203125 1097.621094 1.207031 1092.882812 0.890625 Z M 1092.882812 0.890625 "/>
<path style=" stroke:none;fill-rule:nonzero;fill:rgb(82.352941%,33.333333%,35.686275%);fill-opacity:1;" d="M 1174.515625 0.734375 C 1175 0.578125 1177.285156 0.359375 1182.535156 0.734375 C 1187.78125 1.109375 1218.003906 1.308594 1232.460938 1.359375 C 1249.34375 1.148438 1283.480469 0.730469 1284.9375 0.730469 L 1288.992188 0.730469 C 1289.457031 0.644531 1290.027344 0.675781 1290.402344 0.730469 L 1288.992188 0.730469 C 1288.558594 0.8125 1288.214844 0.996094 1288.214844 1.359375 C 1288.214844 2.296875 1287.125 5.273438 1286.757812 5.585938 C 1286.46875 5.839844 1285.421875 8.199219 1284.9375 9.347656 C 1285.058594 10.914062 1285.011719 14.046875 1283.84375 14.046875 C 1282.386719 14.046875 1269.632812 13.421875 1265.988281 13.421875 C 1262.34375 13.421875 1184.722656 13.109375 1182.535156 13.421875 C 1180.347656 13.734375 1175.609375 14.363281 1174.515625 13.894531 C 1173.644531 13.515625 1174.152344 12.066406 1174.515625 11.386719 L 1175.609375 7.78125 L 1177.433594 4.492188 L 1175.609375 2.613281 Z M 1174.515625 0.734375 "/>
<path style=" stroke:none;fill-rule:nonzero;fill:rgb(0%,0%,0%);fill-opacity:1;" d="M 1278.742188 11.539062 C 1280.199219 11.792969 1276.191406 12.585938 1274.003906 12.949219 C 1272.183594 12.480469 1189.457031 13.109375 1186.179688 13.109375 C 1182.898438 13.109375 1180.710938 11.542969 1180.347656 10.917969 C 1179.980469 10.289062 1217.882812 9.347656 1232.09375 9.660156 C 1246.308594 9.976562 1276.917969 11.226562 1278.742188 11.539062 Z M 1278.742188 11.539062 "/>
<path style=" stroke:none;fill-rule:nonzero;fill:rgb(32.941176%,13.333333%,14.509804%);fill-opacity:1;" d="M 1186.902344 7.15625 L 1177.425781 7.15625 C 1173.78125 7.78125 1174.511719 12.640625 1174.511719 13.421875 C 1174.511719 14.207031 1177.425781 13.734375 1179.25 13.734375 C 1180.707031 13.734375 1184.59375 12.953125 1186.902344 12.953125 C 1183.867188 12.328125 1179.25 10.917969 1180.707031 10.289062 C 1184.714844 8.566406 1187.996094 7.15625 1186.902344 7.15625 Z M 1186.902344 7.15625 "/>
<path style=" stroke:none;fill-rule:nonzero;fill:rgb(82.352941%,33.333333%,35.686275%);fill-opacity:1;" d="M 1378.589844 4.59375 C 1377.128906 3.214844 1377.253906 1.410156 1377.496094 0.679688 C 1375.671875 0.363281 1373.484375 1.460938 1371.664062 1.617188 C 1369.839844 1.777344 1301.332031 1.464844 1296.226562 0.992188 C 1292.148438 0.617188 1289.425781 0.835938 1288.574219 0.992188 L 1288.574219 4.285156 L 1287.117188 6.632812 L 1284.203125 10.707031 C 1283.109375 11.804688 1281.214844 13.996094 1282.382812 13.996094 C 1283.839844 13.996094 1287.847656 13.683594 1290.398438 13.527344 C 1292.949219 13.371094 1372.757812 13.367188 1376.402344 13.835938 C 1379.316406 14.214844 1381.019531 13.996094 1381.503906 13.835938 C 1381.140625 11.332031 1380.046875 5.972656 1378.589844 4.59375 Z M 1378.589844 4.59375 "/>
<path style=" stroke:none;fill-rule:nonzero;fill:rgb(32.941176%,13.333333%,14.509804%);fill-opacity:1;" d="M 1297.695312 7.46875 C 1297.402344 6.964844 1291.5 7.257812 1288.585938 7.46875 C 1285.667969 7.640625 1282.753906 12.480469 1282.390625 13.578125 C 1282.097656 14.453125 1284.210938 14.359375 1285.304688 14.203125 C 1286.761719 10.445312 1298.058594 8.09375 1297.695312 7.46875 Z M 1297.695312 7.46875 "/>
<path style=" stroke:none;fill-rule:nonzero;fill:rgb(0%,0%,0%);fill-opacity:1;" d="M 1360.007812 9.660156 C 1370.503906 9.410156 1375.3125 11.121094 1376.40625 12.007812 C 1377.867188 12.707031 1375.800781 12.925781 1374.585938 12.949219 C 1361.222656 12.792969 1332.3125 12.480469 1323.566406 12.480469 C 1314.820312 12.480469 1294.898438 13.210938 1286.027344 13.578125 C 1286.515625 13.316406 1287.996094 12.574219 1290.039062 11.699219 C 1292.589844 10.601562 1346.890625 9.972656 1360.007812 9.660156 Z M 1360.007812 9.660156 "/>
<path style=" stroke:none;fill-rule:nonzero;fill:rgb(32.941176%,13.333333%,14.509804%);fill-opacity:1;" d="M 1295.863281 6.058594 C 1302.859375 5.429688 1355.386719 6.316406 1380.773438 6.839844 L 1377.859375 3.234375 C 1362.917969 5.585938 1293.3125 2.140625 1295.863281 3.238281 C 1297.902344 4.113281 1296.714844 5.484375 1295.863281 6.058594 Z M 1295.863281 6.058594 "/>
<path style=" stroke:none;fill-rule:nonzero;fill:rgb(32.941176%,13.333333%,14.509804%);fill-opacity:1;" d="M 1233.183594 3.707031 C 1246.011719 3.582031 1273.753906 3.132812 1286.023438 2.925781 C 1287.191406 2.90625 1286.511719 1.089844 1286.023438 0.417969 L 1289.667969 0.417969 C 1290.761719 2.453125 1288.578125 6.371094 1286.753906 7.78125 C 1285.296875 8.910156 1284.203125 12.847656 1283.476562 14.359375 L 1280.558594 13.890625 C 1281.167969 12.53125 1282.816406 9.410156 1284.566406 7.78125 C 1286.316406 6.152344 1284.566406 5.953125 1283.472656 6.058594 C 1277.933594 5.304688 1215.570312 5.015625 1185.078125 4.964844 L 1187.996094 3.710938 C 1197.710938 3.761719 1220.355469 3.835938 1233.183594 3.707031 Z M 1233.183594 3.707031 "/>
<path style=" stroke:none;fill-rule:nonzero;fill:rgb(32.941176%,13.333333%,14.509804%);fill-opacity:1;" d="M 1099.445312 13.582031 C 1100.027344 13.957031 1095.074219 14.050781 1092.523438 14.050781 L 1091.0625 7.316406 L 1094.707031 7.316406 C 1096.289062 7.734375 1099.664062 8.632812 1100.539062 8.882812 C 1101.632812 9.195312 1098.351562 10.292969 1096.53125 11.703125 C 1094.707031 13.113281 1098.714844 13.113281 1099.445312 13.582031 Z M 1099.445312 13.582031 "/>
<path style=" stroke:none;fill-rule:nonzero;fill:rgb(0%,0%,0%);fill-opacity:1;" d="M 1169.414062 11.230469 C 1170.289062 11.730469 1166.132812 12.273438 1163.945312 12.484375 C 1161.394531 11.699219 1104.179688 13.113281 1100.535156 12.484375 C 1097.621094 11.984375 1101.75 10.8125 1104.179688 10.292969 C 1114.503906 10.1875 1137.5625 9.945312 1147.183594 9.820312 C 1159.207031 9.664062 1168.320312 10.605469 1169.414062 11.230469 Z M 1169.414062 11.230469 "/>
<path style=" stroke:none;fill-rule:nonzero;fill:rgb(32.941176%,13.333333%,14.509804%);fill-opacity:1;" d="M 1144.625 4.023438 L 1100.167969 4.023438 C 1100.167969 4.964844 1101.625 5.433594 1102.71875 5.433594 L 1175.238281 5.433594 C 1175.238281 6.375 1175.019531 8.441406 1174.144531 9.195312 C 1173.269531 9.945312 1172.324219 12.640625 1171.960938 13.894531 L 1175.96875 14.363281 C 1180.339844 14.988281 1175.675781 9.097656 1177.425781 6.84375 C 1179.175781 4.585938 1177.0625 1.152344 1175.964844 0.105469 L 1173.050781 0.890625 C 1174.507812 1.140625 1175.117188 2.457031 1175.238281 3.082031 C 1168.800781 3.398438 1153.664062 4.023438 1144.625 4.023438 Z M 1144.625 4.023438 "/>
<path style=" stroke:none;fill-rule:nonzero;fill:rgb(32.941176%,13.333333%,14.509804%);fill-opacity:1;" d="M 995.945312 13.582031 C 994.777344 14.335938 993.273438 13.894531 992.664062 13.582031 C 990.480469 12.484375 997.039062 7.628906 999.226562 7.316406 C 1001.410156 7.003906 1011.25 8.101562 1007.242188 8.726562 C 1003.234375 9.351562 997.402344 12.644531 995.945312 13.582031 Z M 995.945312 13.582031 "/>
<path style=" stroke:none;fill-rule:nonzero;fill:rgb(0%,0%,0%);fill-opacity:1;" d="M 1086.324219 12.015625 L 1081.953125 12.796875 C 1077.578125 12.171875 1001.777344 13.113281 999.589844 12.800781 C 997.402344 12.488281 1007.972656 9.980469 1009.429688 9.824219 C 1010.890625 9.667969 1080.859375 10.136719 1081.953125 10.292969 C 1082.828125 10.417969 1085.230469 11.492188 1086.324219 12.015625 Z M 1086.324219 12.015625 "/>
<path style=" stroke:none;fill-rule:nonzero;fill:rgb(32.941176%,13.333333%,14.509804%);fill-opacity:1;" d="M 997.035156 3.242188 C 997.910156 2.867188 995.941406 1.15625 995.578125 0.582031 L 1001.046875 1.050781 C 1001.167969 3.085938 999.953125 7.566406 997.039062 9.195312 C 994.121094 10.824219 993.394531 13.007812 993.394531 13.898438 C 991.207031 14 987.199219 14.148438 988.65625 13.898438 C 990.476562 13.582031 991.9375 9.667969 993.394531 9.195312 C 994.851562 8.726562 997.765625 6.375 997.039062 5.75 C 996.308594 5.125 897.183594 4.96875 895.363281 4.96875 C 893.902344 4.96875 894.753906 3.820312 895.363281 3.246094 C 915.890625 3.453125 957.386719 3.871094 959.136719 3.871094 C 961.324219 3.871094 995.941406 3.714844 997.035156 3.242188 Z M 997.035156 3.242188 "/>
<path style=" stroke:none;fill-rule:nonzero;fill:rgb(32.941176%,13.333333%,14.509804%);fill-opacity:1;" d="M 1052.433594 4.339844 C 1046.601562 4.339844 1020.605469 3.921875 1008.335938 3.714844 C 1007.753906 5.34375 1008.582031 5.75 1009.066406 5.75 C 1015.625 6.0625 1085.960938 4.808594 1088.148438 6.53125 C 1089.894531 7.910156 1089.847656 12.117188 1089.605469 14.050781 C 1090.457031 14.207031 1092.304688 14.425781 1092.882812 14.050781 C 1093.613281 13.582031 1092.15625 7.941406 1092.15625 7.316406 C 1092.15625 6.8125 1090.453125 2.71875 1089.605469 0.734375 L 1085.960938 0.734375 C 1086.324219 0.890625 1087.054688 1.394531 1087.054688 2.144531 L 1087.054688 4.339844 Z M 1052.433594 4.339844 "/>
<path style=" stroke:none;fill-rule:nonzero;fill:rgb(0%,0%,0%);fill-opacity:1;" d="M 989.75 11.859375 C 990.042969 12.109375 985.742188 12.800781 983.554688 13.113281 C 978.816406 12.488281 892.449219 13.273438 890.261719 12.957031 C 888.078125 12.644531 889.898438 9.824219 891.71875 9.824219 C 893.542969 9.824219 972.984375 9.980469 975.539062 9.980469 C 978.089844 9.980469 989.386719 11.546875 989.75 11.859375 Z M 989.75 11.859375 "/>
<path style=" stroke:none;fill-rule:nonzero;fill:rgb(32.941176%,13.333333%,14.509804%);fill-opacity:1;" d="M 896.457031 6.847656 C 897.914062 6.347656 891.964844 6.640625 888.804688 6.851562 C 886.984375 6.960938 882.976562 13.742188 885.527344 13.898438 C 888.078125 14.054688 890.992188 13.585938 890.628906 12.019531 C 890.265625 10.453125 894.636719 7.476562 896.457031 6.847656 Z M 896.457031 6.847656 "/>
<path style=" stroke:none;fill-rule:nonzero;fill:rgb(82.352941%,33.333333%,35.686275%);fill-opacity:1;" d="M 498.121094 0.75 C 499.867188 0.75 500.304688 1.582031 500.304688 2 L 499.214844 6.542969 C 498.242188 7.484375 496.226562 9.457031 495.933594 9.835938 C 495.640625 10.210938 494.113281 11.976562 493.382812 12.8125 C 493.019531 13.175781 491.851562 13.875 490.101562 13.75 C 487.917969 13.59375 403.371094 13.753906 396.445312 14.066406 C 390.90625 14.316406 388.0625 13.960938 387.335938 13.753906 C 385.148438 10.621094 390.25 6.390625 390.980469 4.824219 C 391.5625 3.570312 388.792969 1.691406 387.335938 0.90625 L 395.714844 0.90625 C 397.464844 0.90625 421.226562 1.21875 432.886719 1.375 C 449.773438 1.324219 484.855469 1.125 490.101562 0.75 C 496.660156 0.277344 495.933594 0.75 498.121094 0.75 Z M 498.121094 0.75 "/>
<path style=" stroke:none;fill-rule:nonzero;fill:rgb(82.352941%,33.333333%,35.686275%);fill-opacity:1;" d="M 506.132812 0.90625 C 500.886719 0.777344 500.058594 1.269531 500.304688 1.53125 L 500.304688 4.664062 L 497.753906 7.796875 C 496.296875 9.417969 493.308594 12.8125 493.015625 13.4375 C 492.652344 14.21875 496.296875 14.0625 497.753906 13.90625 C 499.210938 13.75 510.144531 13.4375 519.984375 13.4375 C 529.820312 13.4375 583.757812 13.121094 586.308594 13.433594 C 588.351562 13.6875 592.019531 13.957031 593.597656 14.0625 C 593.230469 11.554688 592.355469 6.324219 591.773438 5.445312 C 591.191406 4.570312 590.074219 3.410156 589.585938 2.9375 L 590.679688 0.746094 C 589.707031 0.746094 586.964844 0.839844 583.757812 1.214844 C 579.746094 1.6875 575.375 1.53125 572.460938 1.53125 C 569.542969 1.53125 512.691406 1.0625 506.132812 0.90625 Z M 506.132812 0.90625 "/>
<path style=" stroke:none;fill-rule:nonzero;fill:rgb(82.352941%,33.333333%,35.686275%);fill-opacity:1;" d="M 594.328125 0.902344 C 590.535156 0.652344 589.832031 1.007812 589.953125 1.214844 L 591.773438 8.578125 C 592.140625 10.144531 591.484375 12.652344 591.777344 13.277344 C 592.140625 14.0625 598.335938 14.0625 599.429688 14.0625 C 600.523438 14.0625 614.003906 13.277344 616.558594 13.277344 L 669.398438 13.277344 C 671.4375 13.277344 675.109375 13.800781 676.6875 14.058594 L 675.59375 9.988281 L 677.414062 6.855469 L 678.507812 3.5625 L 676.6875 0.902344 C 674.863281 0.585938 670.855469 1.214844 668.304688 1.214844 L 631.132812 1.214844 C 627.125 1.214844 599.0625 1.214844 594.328125 0.902344 Z M 594.328125 0.902344 "/>
<path style=" stroke:none;fill-rule:nonzero;fill:rgb(82.352941%,33.333333%,35.686275%);fill-opacity:1;" d="M 675.957031 0.742188 C 676.445312 0.585938 678.730469 0.367188 683.976562 0.742188 C 689.222656 1.121094 719.445312 1.316406 733.902344 1.371094 C 750.789062 1.160156 784.921875 0.742188 786.378906 0.742188 L 790.433594 0.742188 C 790.898438 0.65625 791.46875 0.6875 791.847656 0.742188 L 790.433594 0.742188 C 790 0.820312 789.660156 1.003906 789.660156 1.367188 C 789.660156 2.308594 788.566406 5.285156 788.203125 5.597656 C 787.910156 5.847656 786.867188 8.210938 786.378906 9.359375 C 786.503906 10.925781 786.453125 14.058594 785.289062 14.058594 C 783.832031 14.058594 771.074219 13.429688 767.429688 13.429688 C 763.785156 13.429688 686.164062 13.121094 683.976562 13.433594 C 681.792969 13.746094 677.054688 14.375 675.960938 13.902344 C 675.085938 13.527344 675.597656 12.074219 675.960938 11.398438 L 677.054688 7.792969 L 678.875 4.503906 L 677.054688 2.625 Z M 675.957031 0.742188 "/>
<path style=" stroke:none;fill-rule:nonzero;fill:rgb(0%,0%,0%);fill-opacity:1;" d="M 780.183594 11.550781 C 781.640625 11.800781 777.632812 12.597656 775.445312 12.960938 C 773.625 12.492188 690.898438 13.121094 687.621094 13.121094 C 684.339844 13.121094 682.152344 11.554688 681.789062 10.925781 C 681.425781 10.300781 719.324219 9.359375 733.539062 9.671875 C 747.75 9.984375 778.363281 11.238281 780.183594 11.550781 Z M 780.183594 11.550781 "/>
<path style=" stroke:none;fill-rule:nonzero;fill:rgb(32.941176%,13.333333%,14.509804%);fill-opacity:1;" d="M 688.34375 7.167969 L 678.871094 7.167969 C 675.226562 7.792969 675.953125 12.648438 675.953125 13.433594 C 675.953125 14.214844 678.871094 13.746094 680.691406 13.746094 C 682.148438 13.746094 686.039062 12.964844 688.34375 12.964844 C 685.308594 12.335938 680.691406 10.925781 682.148438 10.300781 C 686.160156 8.578125 689.4375 7.167969 688.34375 7.167969 Z M 688.34375 7.167969 "/>
<path style=" stroke:none;fill-rule:nonzero;fill:rgb(82.352941%,33.333333%,35.686275%);fill-opacity:1;" d="M 880.03125 4.605469 C 878.574219 3.226562 878.695312 1.421875 878.9375 0.6875 C 877.117188 0.375 874.929688 1.472656 873.105469 1.628906 C 871.285156 1.785156 802.773438 1.472656 797.671875 1.003906 C 793.589844 0.628906 790.867188 0.847656 790.019531 1.003906 L 790.019531 4.292969 L 788.5625 6.644531 L 785.644531 10.71875 C 784.554688 11.8125 782.660156 14.007812 783.824219 14.007812 C 785.28125 14.007812 789.289062 13.695312 791.839844 13.535156 C 794.394531 13.378906 874.203125 13.378906 877.847656 13.847656 C 880.761719 14.222656 882.460938 14.003906 882.949219 13.847656 C 882.582031 11.339844 881.492188 5.984375 880.03125 4.605469 Z M 880.03125 4.605469 "/>
<path style=" stroke:none;fill-rule:nonzero;fill:rgb(32.941176%,13.333333%,14.509804%);fill-opacity:1;" d="M 799.136719 7.476562 C 798.847656 6.976562 792.941406 7.269531 790.027344 7.476562 C 787.109375 7.652344 784.195312 12.492188 783.832031 13.589844 C 783.542969 14.464844 785.652344 14.371094 786.75 14.214844 C 788.207031 10.453125 799.503906 8.105469 799.136719 7.476562 Z M 799.136719 7.476562 "/>
<path style=" stroke:none;fill-rule:nonzero;fill:rgb(0%,0%,0%);fill-opacity:1;" d="M 861.453125 9.667969 C 871.945312 9.417969 876.757812 11.132812 877.851562 12.019531 C 879.308594 12.71875 877.242188 12.9375 876.027344 12.960938 C 862.664062 12.804688 833.753906 12.492188 825.007812 12.492188 C 816.261719 12.492188 796.339844 13.222656 787.472656 13.585938 C 787.957031 13.328125 789.441406 12.585938 791.480469 11.707031 C 794.03125 10.609375 848.332031 9.984375 861.453125 9.667969 Z M 861.453125 9.667969 "/>
<path style=" stroke:none;fill-rule:nonzero;fill:rgb(32.941176%,13.333333%,14.509804%);fill-opacity:1;" d="M 797.308594 6.066406 C 804.304688 5.441406 856.828125 6.328125 882.21875 6.851562 L 879.304688 3.246094 C 864.359375 5.597656 794.753906 2.152344 797.308594 3.25 C 799.347656 4.125 798.15625 5.492188 797.308594 6.066406 Z M 797.308594 6.066406 "/>
<path style=" stroke:none;fill-rule:nonzero;fill:rgb(32.941176%,13.333333%,14.509804%);fill-opacity:1;" d="M 734.625 3.71875 C 747.453125 3.59375 775.199219 3.144531 787.46875 2.933594 C 788.632812 2.914062 787.953125 1.097656 787.46875 0.429688 L 791.113281 0.429688 C 792.207031 2.464844 790.019531 6.382812 788.195312 7.792969 C 786.742188 8.917969 785.648438 12.855469 784.917969 14.371094 L 782.003906 13.902344 C 782.609375 12.542969 784.261719 9.421875 786.011719 7.792969 C 787.757812 6.164062 786.011719 5.964844 784.917969 6.066406 C 779.378906 5.316406 717.011719 5.023438 686.523438 4.972656 L 689.4375 3.71875 C 699.15625 3.773438 721.796875 3.84375 734.625 3.71875 Z M 734.625 3.71875 "/>
<path style=" stroke:none;fill-rule:nonzero;fill:rgb(32.941176%,13.333333%,14.509804%);fill-opacity:1;" d="M 600.890625 13.59375 C 601.472656 13.96875 596.515625 14.0625 593.964844 14.0625 L 592.507812 7.324219 L 596.152344 7.324219 C 597.730469 7.742188 601.105469 8.640625 601.980469 8.890625 C 603.074219 9.207031 599.796875 10.300781 597.972656 11.710938 C 596.152344 13.121094 600.160156 13.121094 600.890625 13.59375 Z M 600.890625 13.59375 "/>
<path style=" stroke:none;fill-rule:nonzero;fill:rgb(0%,0%,0%);fill-opacity:1;" d="M 670.855469 11.242188 C 671.730469 11.742188 667.578125 12.285156 665.390625 12.496094 C 662.839844 11.710938 605.625 13.121094 601.980469 12.496094 C 599.0625 11.996094 603.195312 10.824219 605.625 10.300781 C 615.949219 10.199219 639.003906 9.957031 648.625 9.832031 C 660.652344 9.675781 669.761719 10.613281 670.855469 11.242188 Z M 670.855469 11.242188 "/>
<path style=" stroke:none;fill-rule:nonzero;fill:rgb(32.941176%,13.333333%,14.509804%);fill-opacity:1;" d="M 646.070312 4.035156 L 601.609375 4.035156 C 601.609375 4.976562 603.066406 5.445312 604.160156 5.445312 L 676.683594 5.445312 C 676.683594 6.382812 676.464844 8.453125 675.589844 9.203125 C 674.714844 9.957031 673.765625 12.652344 673.402344 13.902344 L 677.410156 14.375 C 681.785156 15 677.121094 9.109375 678.867188 6.855469 C 680.617188 4.597656 678.503906 1.164062 677.410156 0.117188 L 674.496094 0.902344 C 675.953125 1.152344 676.558594 2.46875 676.683594 3.09375 C 670.242188 3.40625 655.109375 4.035156 646.070312 4.035156 Z M 646.070312 4.035156 "/>
<path style=" stroke:none;fill-rule:nonzero;fill:rgb(32.941176%,13.333333%,14.509804%);fill-opacity:1;" d="M 497.390625 13.59375 C 496.222656 14.34375 494.714844 13.90625 494.109375 13.59375 C 491.921875 12.496094 498.480469 7.640625 500.667969 7.328125 C 502.855469 7.015625 512.695312 8.109375 508.683594 8.738281 C 504.675781 9.363281 498.847656 12.652344 497.390625 13.59375 Z M 497.390625 13.59375 "/>
<path style=" stroke:none;fill-rule:nonzero;fill:rgb(0%,0%,0%);fill-opacity:1;" d="M 587.769531 12.027344 L 583.394531 12.808594 C 579.019531 12.183594 503.222656 13.125 501.035156 12.8125 C 498.847656 12.496094 509.417969 9.992188 510.875 9.835938 C 512.332031 9.675781 582.300781 10.144531 583.394531 10.300781 C 584.269531 10.429688 586.675781 11.503906 587.769531 12.027344 Z M 587.769531 12.027344 "/>
<path style=" stroke:none;fill-rule:nonzero;fill:rgb(32.941176%,13.333333%,14.509804%);fill-opacity:1;" d="M 498.480469 3.253906 C 499.355469 2.878906 497.386719 1.164062 497.023438 0.589844 L 502.488281 1.0625 C 502.609375 3.097656 501.394531 7.578125 498.480469 9.207031 C 495.566406 10.835938 494.835938 13.019531 494.835938 13.90625 C 492.648438 14.011719 488.640625 14.15625 490.097656 13.90625 C 491.921875 13.59375 493.378906 9.675781 494.835938 9.207031 C 496.292969 8.738281 499.210938 6.386719 498.480469 5.761719 C 497.75 5.132812 398.628906 4.980469 396.804688 4.980469 C 395.347656 4.980469 396.199219 3.832031 396.804688 3.257812 C 417.335938 3.464844 458.832031 3.882812 460.578125 3.882812 C 462.765625 3.882812 497.386719 3.722656 498.480469 3.253906 Z M 498.480469 3.253906 "/>
<path style=" stroke:none;fill-rule:nonzero;fill:rgb(32.941176%,13.333333%,14.509804%);fill-opacity:1;" d="M 553.875 4.351562 C 548.046875 4.351562 522.050781 3.933594 509.78125 3.722656 C 509.195312 5.351562 510.023438 5.761719 510.507812 5.761719 C 517.070312 6.074219 587.402344 4.820312 589.589844 6.542969 C 591.339844 7.921875 591.292969 12.128906 591.046875 14.0625 C 591.898438 14.21875 593.746094 14.4375 594.328125 14.0625 C 595.058594 13.589844 593.597656 7.953125 593.597656 7.324219 C 593.597656 6.824219 591.898438 2.730469 591.046875 0.746094 L 587.402344 0.746094 C 587.765625 0.902344 588.496094 1.402344 588.496094 2.15625 L 588.496094 4.347656 Z M 553.875 4.351562 "/>
<path style=" stroke:none;fill-rule:nonzero;fill:rgb(0%,0%,0%);fill-opacity:1;" d="M 491.191406 11.871094 C 491.484375 12.121094 487.183594 12.8125 485 13.125 C 480.261719 12.496094 393.890625 13.28125 391.707031 12.96875 C 389.519531 12.65625 391.339844 9.835938 393.164062 9.835938 C 394.984375 9.835938 474.429688 9.992188 476.980469 9.992188 C 479.53125 9.992188 490.828125 11.558594 491.191406 11.871094 Z M 491.191406 11.871094 "/>
<path style=" stroke:none;fill-rule:nonzero;fill:rgb(32.941176%,13.333333%,14.509804%);fill-opacity:1;" d="M 397.902344 6.859375 C 399.359375 6.359375 393.40625 6.652344 390.25 6.859375 C 388.425781 6.972656 384.417969 13.753906 386.96875 13.910156 C 389.519531 14.066406 392.4375 13.597656 392.070312 12.03125 C 391.707031 10.464844 396.078125 7.488281 397.902344 6.859375 Z M 397.902344 6.859375 "/>
<path style=" stroke:none;fill-rule:nonzero;fill:rgb(82.352941%,33.333333%,35.686275%);fill-opacity:1;" d="M 7.585938 0.914062 C 2.339844 0.789062 1.515625 1.28125 1.757812 1.542969 L 1.757812 4.675781 L -0.792969 7.808594 C -2.25 9.425781 -5.238281 12.820312 -5.53125 13.445312 C -5.894531 14.230469 -2.25 14.074219 -0.792969 13.917969 C 0.664062 13.761719 11.597656 13.445312 21.4375 13.445312 C 31.277344 13.445312 85.210938 13.132812 87.761719 13.445312 C 89.804688 13.695312 93.472656 13.96875 95.050781 14.070312 C 94.6875 11.566406 93.8125 6.332031 93.226562 5.457031 C 92.644531 4.578125 91.527344 3.417969 91.042969 2.949219 L 92.132812 0.757812 C 91.164062 0.757812 88.417969 0.851562 85.210938 1.226562 C 81.203125 1.695312 76.828125 1.539062 73.914062 1.539062 C 70.996094 1.539062 14.148438 1.070312 7.585938 0.914062 Z M 7.585938 0.914062 "/>
<path style=" stroke:none;fill-rule:nonzero;fill:rgb(82.352941%,33.333333%,35.686275%);fill-opacity:1;" d="M 95.78125 0.914062 C 91.988281 0.664062 91.285156 1.015625 91.40625 1.226562 L 93.230469 8.589844 C 93.59375 10.15625 92.9375 12.660156 93.230469 13.289062 C 93.59375 14.070312 99.789062 14.070312 100.882812 14.070312 C 101.976562 14.070312 115.460938 13.289062 118.011719 13.289062 L 170.851562 13.289062 C 172.894531 13.285156 176.5625 13.808594 178.140625 14.070312 L 177.046875 9.996094 L 178.871094 6.863281 L 179.960938 3.574219 L 178.140625 0.910156 C 176.316406 0.597656 172.308594 1.222656 169.757812 1.222656 L 132.585938 1.226562 C 128.578125 1.226562 100.515625 1.226562 95.78125 0.914062 Z M 95.78125 0.914062 "/>
<path style=" stroke:none;fill-rule:nonzero;fill:rgb(82.352941%,33.333333%,35.686275%);fill-opacity:1;" d="M 177.40625 0.753906 C 177.894531 0.597656 180.179688 0.378906 185.425781 0.753906 C 190.671875 1.128906 220.894531 1.328125 235.351562 1.378906 C 252.234375 1.171875 286.371094 0.75 287.828125 0.75 L 291.882812 0.75 C 292.347656 0.667969 292.917969 0.699219 293.292969 0.75 L 291.882812 0.75 C 291.449219 0.832031 291.109375 1.015625 291.109375 1.378906 C 291.109375 2.316406 290.015625 5.292969 289.652344 5.609375 C 289.359375 5.859375 288.316406 8.21875 287.828125 9.367188 C 287.953125 10.933594 287.902344 14.066406 286.734375 14.066406 C 285.277344 14.066406 272.523438 13.441406 268.878906 13.441406 C 265.234375 13.441406 187.613281 13.128906 185.425781 13.441406 C 183.242188 13.757812 178.503906 14.382812 177.410156 13.914062 C 176.535156 13.539062 177.042969 12.085938 177.410156 11.40625 L 178.5 7.804688 L 180.324219 4.515625 L 178.5 2.632812 Z M 177.40625 0.753906 "/>
<path style=" stroke:none;fill-rule:nonzero;fill:rgb(0%,0%,0%);fill-opacity:1;" d="M 281.632812 11.5625 C 283.089844 11.8125 279.082031 12.605469 276.894531 12.972656 C 275.074219 12.5 192.347656 13.128906 189.070312 13.128906 C 185.789062 13.128906 183.601562 11.5625 183.238281 10.9375 C 182.875 10.308594 220.773438 9.371094 234.984375 9.683594 C 249.199219 9.996094 279.8125 11.246094 281.632812 11.5625 Z M 281.632812 11.5625 "/>
<path style=" stroke:none;fill-rule:nonzero;fill:rgb(32.941176%,13.333333%,14.509804%);fill-opacity:1;" d="M 189.804688 7.175781 L 180.328125 7.175781 C 176.683594 7.804688 177.414062 12.660156 177.414062 13.441406 C 177.414062 14.226562 180.328125 13.757812 182.152344 13.757812 C 183.609375 13.757812 187.496094 12.972656 189.804688 12.972656 C 186.769531 12.347656 182.152344 10.9375 183.609375 10.308594 C 187.617188 8.585938 190.898438 7.175781 189.804688 7.175781 Z M 189.804688 7.175781 "/>
<path style=" stroke:none;fill-rule:nonzero;fill:rgb(82.352941%,33.333333%,35.686275%);fill-opacity:1;" d="M 381.492188 4.617188 C 380.035156 3.238281 380.152344 1.429688 380.398438 0.699219 C 378.574219 0.386719 376.390625 1.484375 374.566406 1.640625 C 372.746094 1.796875 304.234375 1.484375 299.128906 1.015625 C 295.046875 0.636719 292.328125 0.859375 291.476562 1.015625 L 291.476562 4.304688 L 290.019531 6.652344 L 287.105469 10.726562 C 286.011719 11.824219 284.117188 14.015625 285.285156 14.015625 C 286.742188 14.015625 290.75 13.703125 293.300781 13.546875 C 295.851562 13.390625 375.660156 13.386719 379.304688 13.859375 C 382.222656 14.234375 383.921875 14.015625 384.40625 13.859375 C 384.042969 11.351562 382.949219 5.992188 381.492188 4.617188 Z M 381.492188 4.617188 "/>
<path style=" stroke:none;fill-rule:nonzero;fill:rgb(32.941176%,13.333333%,14.509804%);fill-opacity:1;" d="M 300.585938 7.488281 C 300.292969 6.988281 294.390625 7.28125 291.476562 7.488281 C 288.558594 7.660156 285.644531 12.5 285.28125 13.597656 C 284.992188 14.476562 287.101562 14.382812 288.195312 14.226562 C 289.652344 10.464844 300.953125 8.113281 300.585938 7.488281 Z M 300.585938 7.488281 "/>
<path style=" stroke:none;fill-rule:nonzero;fill:rgb(0%,0%,0%);fill-opacity:1;" d="M 362.902344 9.679688 C 373.398438 9.429688 378.210938 11.140625 379.304688 12.03125 C 380.761719 12.726562 378.695312 12.949219 377.480469 12.96875 C 364.121094 12.8125 335.207031 12.5 326.460938 12.5 C 317.714844 12.5 297.792969 13.230469 288.925781 13.597656 C 289.414062 13.335938 290.894531 12.59375 292.933594 11.71875 C 295.484375 10.621094 349.785156 9.992188 362.902344 9.679688 Z M 362.902344 9.679688 "/>
<path style=" stroke:none;fill-rule:nonzero;fill:rgb(32.941176%,13.333333%,14.509804%);fill-opacity:1;" d="M 298.761719 6.078125 C 305.757812 5.449219 358.285156 6.335938 383.671875 6.859375 L 380.753906 3.257812 C 365.816406 5.605469 296.210938 2.160156 298.761719 3.257812 C 300.800781 4.136719 299.609375 5.503906 298.761719 6.078125 Z M 298.761719 6.078125 "/>
<path style=" stroke:none;fill-rule:nonzero;fill:rgb(32.941176%,13.333333%,14.509804%);fill-opacity:1;" d="M 236.082031 3.730469 C 248.910156 3.601562 276.652344 3.152344 288.921875 2.945312 C 290.089844 2.925781 289.410156 1.109375 288.921875 0.4375 L 292.566406 0.4375 C 293.660156 2.476562 291.472656 6.390625 289.652344 7.800781 C 288.195312 8.929688 287.101562 12.867188 286.371094 14.378906 L 283.457031 13.910156 C 284.0625 12.554688 285.714844 9.429688 287.464844 7.800781 C 289.214844 6.171875 287.464844 5.972656 286.371094 6.078125 C 280.832031 5.324219 218.464844 5.035156 187.976562 4.984375 L 190.890625 3.730469 C 200.609375 3.78125 223.253906 3.855469 236.082031 3.730469 Z M 236.082031 3.730469 "/>
<path style=" stroke:none;fill-rule:nonzero;fill:rgb(32.941176%,13.333333%,14.509804%);fill-opacity:1;" d="M 102.339844 13.601562 C 102.921875 13.976562 97.964844 14.070312 95.414062 14.070312 L 93.957031 7.335938 L 97.601562 7.335938 C 99.179688 7.753906 102.554688 8.652344 103.429688 8.902344 C 104.523438 9.214844 101.246094 10.3125 99.421875 11.722656 C 97.601562 13.132812 101.609375 13.132812 102.339844 13.601562 Z M 102.339844 13.601562 "/>
<path style=" stroke:none;fill-rule:nonzero;fill:rgb(0%,0%,0%);fill-opacity:1;" d="M 172.316406 11.25 C 173.191406 11.753906 169.035156 12.296875 166.847656 12.503906 C 164.296875 11.722656 107.082031 13.132812 103.4375 12.503906 C 100.523438 12.003906 104.652344 10.835938 107.082031 10.3125 C 117.40625 10.207031 140.464844 9.96875 150.085938 9.839844 C 162.109375 9.683594 171.222656 10.625 172.316406 11.25 Z M 172.316406 11.25 "/>
<path style=" stroke:none;fill-rule:nonzero;fill:rgb(32.941176%,13.333333%,14.509804%);fill-opacity:1;" d="M 147.527344 4.046875 L 103.070312 4.046875 C 103.070312 4.984375 104.527344 5.457031 105.621094 5.457031 L 178.140625 5.453125 C 178.140625 6.394531 177.921875 8.460938 177.046875 9.214844 C 176.171875 9.964844 175.226562 12.660156 174.863281 13.914062 L 178.871094 14.382812 C 183.246094 15.011719 178.578125 9.121094 180.328125 6.863281 C 182.078125 4.609375 179.960938 1.171875 178.871094 0.128906 L 175.953125 0.910156 C 177.414062 1.164062 178.019531 2.476562 178.140625 3.105469 C 171.703125 3.417969 156.566406 4.046875 147.527344 4.046875 Z M 147.527344 4.046875 "/>
<path style=" stroke:none;fill-rule:nonzero;fill:rgb(32.941176%,13.333333%,14.509804%);fill-opacity:1;" d="M -1.164062 13.601562 C -2.328125 14.355469 -3.835938 13.917969 -4.441406 13.605469 C -6.628906 12.507812 -0.0703125 7.652344 2.117188 7.335938 C 4.304688 7.023438 14.140625 8.121094 10.132812 8.746094 C 6.125 9.375 0.292969 12.664062 -1.164062 13.601562 Z M -1.164062 13.601562 "/>
<path style=" stroke:none;fill-rule:nonzero;fill:rgb(0%,0%,0%);fill-opacity:1;" d="M 89.214844 12.035156 L 84.84375 12.820312 C 80.46875 12.191406 4.667969 13.132812 2.484375 12.820312 C 0.296875 12.507812 10.863281 10 12.320312 9.84375 C 13.78125 9.6875 83.75 10.15625 84.84375 10.3125 C 85.71875 10.4375 88.121094 11.511719 89.214844 12.035156 Z M 89.214844 12.035156 "/>
<path style=" stroke:none;fill-rule:nonzero;fill:rgb(32.941176%,13.333333%,14.509804%);fill-opacity:1;" d="M 55.324219 4.359375 C 49.492188 4.359375 23.5 3.941406 11.230469 3.734375 C 10.644531 5.363281 11.472656 5.769531 11.957031 5.769531 C 18.519531 6.085938 88.851562 4.828125 91.039062 6.550781 C 92.789062 7.929688 92.738281 12.140625 92.496094 14.070312 C 93.347656 14.230469 95.195312 14.449219 95.777344 14.070312 C 96.503906 13.601562 95.046875 7.960938 95.046875 7.335938 C 95.046875 6.835938 93.347656 2.742188 92.496094 0.757812 L 88.851562 0.757812 C 89.214844 0.914062 89.945312 1.414062 89.945312 2.167969 L 89.945312 4.359375 Z M 55.324219 4.359375 "/>
</g>
</svg>
