<svg width="522" height="352" viewBox="0 0 522 352" fill="none" xmlns="http://www.w3.org/2000/svg">
<path fill-rule="evenodd" clip-rule="evenodd" d="M447.875 87.8202C447.875 87.8202 457.295 50.0546 468.096 40.6131C478.898 31.1717 504.143 37.1828 506.278 40.6131C508.413 44.0435 453.496 87.8202 453.496 87.8202H447.875Z" fill="url(#paint0_radial_0_1)"/>
<g style="mix-blend-mode:multiply" opacity="0.5">
<path fill-rule="evenodd" clip-rule="evenodd" d="M506.339 40.8302C506.339 40.8302 472.235 32.5286 447.875 87.82C447.875 87.6947 465.666 31.2129 506.339 40.8302Z" fill="url(#paint1_linear_0_1)"/>
</g>
<path fill-rule="evenodd" clip-rule="evenodd" d="M426.996 89.7067C426.996 89.7067 426.772 4.43837 471.277 0.00280154C477.188 -0.586539 438.242 92.002 438.242 92.002L426.996 89.7067Z" fill="url(#paint2_radial_0_1)"/>
<g style="mix-blend-mode:multiply" opacity="0.5">
<path fill-rule="evenodd" clip-rule="evenodd" d="M432.215 91.2817C432.215 91.2817 437.989 21.2939 471.887 0C471.887 0 441.993 14.937 435.723 92.002L432.215 91.2817Z" fill="url(#paint3_linear_0_1)"/>
</g>
<path d="M200.969 349.188C199.409 349.199 197.85 349.115 196.301 348.938C133.642 342.205 106.479 239.618 105.445 235.234L109.988 234.075C110.27 235.109 137.589 337.884 196.896 344.272C256.203 350.66 307.239 217.76 307.771 216.414L312.157 218.073C310.058 223.553 261.498 349.188 200.969 349.188Z" fill="url(#paint4_radial_0_1)"/>
<path d="M389.688 316.78C356.425 316.78 337.998 225.236 337.211 221.348L341.873 220.477C346.881 245.922 365.308 312.052 389.688 312.114C415.075 312.114 430.1 230.213 433.786 198.641L438.479 199.17C437.062 211.208 423.864 316.78 389.688 316.78Z" fill="url(#paint5_radial_0_1)"/>
<path fill-rule="evenodd" clip-rule="evenodd" d="M478.653 115.002C478.653 115.002 497.028 137.256 495.846 147.466C495.477 153.114 492.238 158.169 487.281 160.831V137.901C487.281 137.901 480.57 169.881 447.847 172.425C415.123 174.969 478.653 115.002 478.653 115.002Z" fill="url(#paint6_radial_0_1)"/>
<path fill-rule="evenodd" clip-rule="evenodd" d="M482.33 96.1841V110.269L405.628 246.425L398.584 249.555L327.361 255.032L325.013 262.858L339.884 291.028L328.144 319.198L279.619 351.281H263.183L203.7 308.243L161.436 294.158L153.609 287.898L86.2993 258.162L80.4449 234.687L54.5229 206.173L37.5859 103.915L482.33 96.1841Z" fill="url(#paint7_linear_0_1)"/>
<g style="mix-blend-mode:multiply" opacity="0.5">
<path fill-rule="evenodd" clip-rule="evenodd" d="M327.816 255.682L325.467 263.454L340.344 291.434L328.599 319.415L280.053 351.281H263.61L204.102 308.533L161.82 294.543L264.143 262.677H275.105L318.044 240.137L331.731 233.142L381.843 247.132H406.116L399.069 250.241L327.816 255.682Z" fill="url(#paint8_linear_0_1)"/>
</g>
<path opacity="0.4" fill-rule="evenodd" clip-rule="evenodd" d="M315.069 229.525C313.509 227.258 286.994 227.5 281.816 229.525C276.638 231.551 266.219 253.952 266.219 256.219C266.219 258.486 276.544 256.824 288.554 250.687C300.564 244.55 312.23 239.592 315.069 237.083C317.908 234.574 315.069 229.525 315.069 229.525Z" fill="#FFD8B3"/>
<path opacity="0.4" fill-rule="evenodd" clip-rule="evenodd" d="M287.898 219.575C288.681 222.157 317.45 228.91 319.798 227.79C322.146 226.67 331.538 224.678 334.073 221.162C336.609 217.645 363.312 137.392 364.345 130.92C365.378 124.447 283.735 112.778 276.691 114.054C269.648 115.329 265.735 126.501 266.267 130.92C266.799 135.338 287.898 219.575 287.898 219.575Z" fill="#FF5E31"/>
<path opacity="0.4" fill-rule="evenodd" clip-rule="evenodd" d="M278.288 224.141C272.299 236.293 265.682 248.121 258.465 259.577C256.81 261.054 166.469 294.134 160.226 294.825L152.422 288.542C152.422 288.542 155.169 133.225 160.226 126.942C165.283 120.659 251.941 109.067 255.437 111.046C258.933 113.025 282.283 212.203 278.288 224.141Z" fill="#FF5E31"/>
<path opacity="0.4" fill-rule="evenodd" clip-rule="evenodd" d="M54.91 206.351C54.91 206.351 109.789 224.482 120.422 223.708C131.056 222.935 145.856 215.942 149.96 204.619C154.064 193.295 155.899 130.118 153.318 126.25C150.738 122.383 58.3613 114.896 41.7578 126.25L54.91 206.351Z" fill="#FF5E31"/>
<g style="mix-blend-mode:multiply" opacity="0.8">
<path fill-rule="evenodd" clip-rule="evenodd" d="M79.4687 234.187L76.6847 223.342L118.983 227.246L136.762 231.863L118.445 223.342C118.445 223.342 81.8415 215.286 53.2422 205.959L79.4687 234.187Z" fill="url(#paint9_linear_0_1)"/>
</g>
<g style="mix-blend-mode:multiply" opacity="0.5">
<path fill-rule="evenodd" clip-rule="evenodd" d="M39.947 119.288L40.9513 124.378C78.1455 116.631 116.52 116.631 153.714 124.378L158.893 144.134C158.893 144.134 159.489 129.751 161.56 126.148C163.632 122.544 252.072 107.498 257.282 110.153C262.492 112.808 272.974 165.186 272.974 165.186L273.507 160.792L266.195 129.372C266.195 129.372 266.697 114.357 276.646 112.239C286.595 110.122 359.876 120.11 363.392 133.829L357.115 154.596C357.115 154.596 394.776 116.191 460.243 150.708L483.373 109.363V95.1387L38.6289 106.202L39.947 119.288Z" fill="url(#paint10_linear_0_1)"/>
</g>
<g style="mix-blend-mode:multiply" opacity="0.5">
<path fill-rule="evenodd" clip-rule="evenodd" d="M381.769 246.403H406.113L399.045 249.533L327.583 255.012L325.227 262.839L340.148 291.015L328.368 319.191L279.68 351.28L283.606 348.682C283.606 348.682 317.563 326.298 316.306 311.114C315.05 295.93 303.239 275.518 303.239 275.518H291.051L280.34 267.003L259.953 263.089L274.717 261.931L317.783 239.234L315.018 229.059C321.501 226.744 327.8 223.949 333.866 220.7C337.289 218.101 355.854 157.867 355.854 157.867L339.143 226.304L342.504 232.565L381.769 246.403Z" fill="url(#paint11_linear_0_1)"/>
</g>
<g style="mix-blend-mode:multiply" opacity="0.5">
<path fill-rule="evenodd" clip-rule="evenodd" d="M203.578 308.633C203.578 308.633 233.951 302.838 288.142 278.097C288.142 278.097 224.908 304.844 213.345 315.734L203.578 308.633Z" fill="url(#paint12_linear_0_1)"/>
</g>
<g style="mix-blend-mode:multiply" opacity="0.2">
<path fill-rule="evenodd" clip-rule="evenodd" d="M154.551 205.924L271.407 165.186L274.57 185.555L152.422 242.551L154.551 205.924Z" fill="url(#paint13_linear_0_1)"/>
</g>
<path opacity="0.2" fill-rule="evenodd" clip-rule="evenodd" d="M156.602 190.277L270.398 156.446V151.595L156.602 180.04V190.277Z" fill="#FF862F"/>
<path opacity="0.2" fill-rule="evenodd" clip-rule="evenodd" d="M48.0234 161.594L155.555 158.913L154.21 184.004L51.2782 180.983L48.0234 161.594Z" fill="#FF862F"/>
<g style="mix-blend-mode:multiply" opacity="0.2">
<path fill-rule="evenodd" clip-rule="evenodd" d="M281.883 195.504L341.391 201.44L335.978 215.368L284.212 205.453L281.883 195.504Z" fill="url(#paint14_linear_0_1)"/>
</g>
<path fill-rule="evenodd" clip-rule="evenodd" d="M37.0311 97.3955C37.0311 97.3955 10.2324 77.0881 0.0263092 87.8084C-1.03813 88.9417 30.5506 103.889 30.5506 103.889C30.5506 103.889 5.50502 131.088 5.50502 134.917C5.50502 138.745 51.3071 111.179 73.6289 111.424C73.6289 111.424 78.7006 118.499 115.486 120.429C152.272 122.359 155.027 110.842 234.453 107.013C313.878 103.184 364.783 129.985 374.176 128.852C383.568 127.719 362.811 111.424 362.811 111.424C378.947 115.197 395.625 116.233 412.12 114.487C441.078 111.822 437.165 101.469 437.165 101.469L476.706 103.001C476.706 103.001 507.199 137.214 510.736 138.991C514.274 140.767 517.78 101.469 488.039 93.4443C488.039 93.4443 518.97 100.703 521.694 99.5702C524.418 98.4369 508.795 81.805 481.777 88.8498L37.0311 97.3955Z" fill="url(#paint15_radial_0_1)"/>
<g style="mix-blend-mode:soft-light" opacity="0.8">
<path fill-rule="evenodd" clip-rule="evenodd" d="M37.5859 95.2912C37.5859 95.2912 100.794 104.548 246.371 104.548C386.594 104.548 482.33 86.7749 482.33 86.7749L37.5859 95.2912Z" fill="#FFFF70"/>
</g>
<path fill-rule="evenodd" clip-rule="evenodd" d="M246.383 104.59C246.383 104.59 334.268 78.1709 371.397 98.8848C395.838 112.467 385.212 130.39 374.523 129.614C363.834 128.839 300.358 100.776 246.383 104.59Z" fill="url(#paint16_radial_0_1)"/>
<path fill-rule="evenodd" clip-rule="evenodd" d="M92.9405 101.755C92.9405 101.755 81.2174 120.104 87.4201 123.066C93.6227 126.028 104.912 106.165 164.953 104.556C164.829 104.556 125.38 97.441 92.9405 101.755Z" fill="url(#paint17_radial_0_1)"/>
<path fill-rule="evenodd" clip-rule="evenodd" d="M205.653 254.051H197.973C197.973 254.051 159.261 244.807 156.597 243.424C153.932 242.04 132.586 208.05 132.586 208.05L151.393 164.533L161.769 162.049L218.912 183.431L221.326 194.153C221.326 194.153 213.866 236.38 205.653 254.051Z" fill="url(#paint18_linear_0_1)"/>
<g style="mix-blend-mode:soft-light" opacity="0.8">
<path fill-rule="evenodd" clip-rule="evenodd" d="M132.586 207.598L146.556 214.323H173.3L219.238 183.22L161.879 162.049L151.464 164.509L132.586 207.598Z" fill="#E0E7FF"/>
</g>
<g style="mix-blend-mode:multiply" opacity="0.5">
<path fill-rule="evenodd" clip-rule="evenodd" d="M156.602 244.507L190.768 248.4L173.121 216.196L218.885 185.05L221.33 195.702C221.33 195.702 213.775 238.247 205.657 255.097H197.977L156.602 244.507Z" fill="url(#paint19_linear_0_1)"/>
</g>
<path fill-rule="evenodd" clip-rule="evenodd" d="M162.863 215.114L177.479 210.141L173.355 219.55L162.863 215.114Z" fill="#B4ABB0"/>
<g style="mix-blend-mode:multiply" opacity="0.5">
<path fill-rule="evenodd" clip-rule="evenodd" d="M155.555 244.519L198.738 258.233H220.884L238.031 235.169L220.884 195.616L218.448 185.05L178.681 211.855L174.378 220.052L197.283 255.054L155.555 244.519Z" fill="url(#paint20_linear_0_1)"/>
</g>
<path fill-rule="evenodd" clip-rule="evenodd" d="M301.719 159.41L303.428 164.734L318.081 174.595L322.721 172.043L327.819 159.441C327.819 159.441 317.562 147.533 312.037 146.367C307.228 149.34 303.579 153.953 301.719 159.41Z" fill="url(#paint21_radial_0_1)"/>
<g style="mix-blend-mode:multiply" opacity="0.5">
<path fill-rule="evenodd" clip-rule="evenodd" d="M327.814 159.958H314.392V169.676L302.758 165.09L317.81 174.595L322.577 172.135L327.814 159.958Z" fill="url(#paint22_linear_0_1)"/>
</g>
<g style="mix-blend-mode:soft-light" opacity="0.8">
<path fill-rule="evenodd" clip-rule="evenodd" d="M301.719 159.958H327.819C323.634 154.153 318.225 149.495 312.037 146.367C312.037 146.367 306.695 149.053 301.719 159.958Z" fill="#E0E7FF"/>
</g>
<g style="mix-blend-mode:multiply" opacity="0.5">
<path fill-rule="evenodd" clip-rule="evenodd" d="M328.774 159.958L331.993 167.783L329.743 179.147L323.993 180.868L303.805 165.446L315.399 173.303V170.348V159.958H321.211H328.774Z" fill="url(#paint23_linear_0_1)"/>
</g>
<path fill-rule="evenodd" clip-rule="evenodd" d="M412.758 234.187C412.758 234.187 395.922 221.496 395.701 216.769C395.481 212.042 396.71 191.609 398.665 188.024C400.62 184.439 441.733 175.333 444.823 176.856C447.913 178.379 453.651 205.411 453.052 208.266C452.453 211.122 412.758 234.187 412.758 234.187Z" fill="url(#paint24_linear_0_1)"/>
<g style="mix-blend-mode:multiply" opacity="0.5">
<path fill-rule="evenodd" clip-rule="evenodd" d="M397.865 188.186L435.02 198.411L451.009 208.509L411.636 234.533L404.982 246.733L386.281 220.263L397.865 188.186Z" fill="url(#paint25_linear_0_1)"/>
</g>
<defs>
<radialGradient id="paint0_radial_0_1" cx="0" cy="0" r="1" gradientUnits="userSpaceOnUse" gradientTransform="translate(477.108 61.7934) rotate(180) scale(27.6631 24.7341)">
<stop stop-color="#8B8300"/>
<stop offset="1" stop-color="#6D6400"/>
</radialGradient>
<linearGradient id="paint1_linear_0_1" x1="506.259" y1="87.6947" x2="506.259" y2="39.7337" gradientUnits="userSpaceOnUse">
<stop stop-color="#C79774"/>
<stop offset="1" stop-color="#977277"/>
</linearGradient>
<radialGradient id="paint2_radial_0_1" cx="0" cy="0" r="1" gradientUnits="userSpaceOnUse" gradientTransform="translate(453.423 -15.3511) rotate(11.2071) scale(51.0061 101.524)">
<stop stop-color="#DBC000"/>
<stop offset="1" stop-color="#B5A700"/>
</radialGradient>
<linearGradient id="paint3_linear_0_1" x1="462.752" y1="107.648" x2="520.863" y2="54.2381" gradientUnits="userSpaceOnUse">
<stop stop-color="#C79774"/>
<stop offset="1" stop-color="#977277"/>
</linearGradient>
<radialGradient id="paint4_radial_0_1" cx="0" cy="0" r="1" gradientUnits="userSpaceOnUse" gradientTransform="translate(208.707 282.801) scale(86.8767 55.8028)">
<stop stop-color="#9F9500"/>
<stop offset="1" stop-color="#7F7F00"/>
</radialGradient>
<radialGradient id="paint5_radial_0_1" cx="0" cy="0" r="1" gradientUnits="userSpaceOnUse" gradientTransform="translate(387.798 257.711) scale(55.4375 64.6732)">
<stop stop-color="#9F9500"/>
<stop offset="1" stop-color="#7F7F00"/>
</radialGradient>
<radialGradient id="paint6_radial_0_1" cx="0" cy="0" r="1" gradientUnits="userSpaceOnUse" gradientTransform="translate(467.213 143.762) scale(28.6331 28.6737)">
<stop stop-color="#9F9500"/>
<stop offset="1" stop-color="#7F7F00"/>
</radialGradient>
<linearGradient id="paint7_linear_0_1" x1="482.33" y1="351.281" x2="482.33" y2="96.1841" gradientUnits="userSpaceOnUse">
<stop stop-color="#8F2726"/>
<stop offset="1" stop-color="#AB401D"/>
</linearGradient>
<linearGradient id="paint8_linear_0_1" x1="161.82" y1="351.281" x2="406.116" y2="351.281" gradientUnits="userSpaceOnUse">
<stop stop-color="#C77CBD"/>
<stop offset="1" stop-color="#974577"/>
</linearGradient>
<linearGradient id="paint9_linear_0_1" x1="53.2738" y1="234.171" x2="136.794" y2="234.171" gradientUnits="userSpaceOnUse">
<stop stop-color="#C77CBD"/>
<stop offset="1" stop-color="#974577"/>
</linearGradient>
<linearGradient id="paint10_linear_0_1" x1="38.6289" y1="165.163" x2="483.09" y2="165.163" gradientUnits="userSpaceOnUse">
<stop stop-color="#C77CBD"/>
<stop offset="1" stop-color="#974577"/>
</linearGradient>
<linearGradient id="paint11_linear_0_1" x1="406.082" y1="351.28" x2="406.082" y2="157.992" gradientUnits="userSpaceOnUse">
<stop stop-color="#C77CBD"/>
<stop offset="1" stop-color="#974577"/>
</linearGradient>
<linearGradient id="paint12_linear_0_1" x1="288.142" y1="315.734" x2="288.142" y2="278.097" gradientUnits="userSpaceOnUse">
<stop stop-color="#C77CBD"/>
<stop offset="1" stop-color="#974577"/>
</linearGradient>
<linearGradient id="paint13_linear_0_1" x1="152.422" y1="242.567" x2="274.57" y2="242.567" gradientUnits="userSpaceOnUse">
<stop stop-color="#C77CBD"/>
<stop offset="1" stop-color="#974577"/>
</linearGradient>
<linearGradient id="paint14_linear_0_1" x1="281.883" y1="215.385" x2="341.391" y2="215.385" gradientUnits="userSpaceOnUse">
<stop stop-color="#C77CBD"/>
<stop offset="1" stop-color="#974577"/>
</linearGradient>
<radialGradient id="paint15_radial_0_1" cx="0" cy="0" r="1" gradientUnits="userSpaceOnUse" gradientTransform="translate(261.032 111.945) scale(185.588 19.3284)">
<stop stop-color="#9F9500"/>
<stop offset="1" stop-color="#7F7F00"/>
</radialGradient>
<radialGradient id="paint16_radial_0_1" cx="0" cy="0" r="1" gradientUnits="userSpaceOnUse" gradientTransform="translate(316.391 110.296) scale(51.381 14.2074)">
<stop stop-color="#DBC000"/>
<stop offset="1" stop-color="#B5A700"/>
</radialGradient>
<radialGradient id="paint17_radial_0_1" cx="0" cy="0" r="1" gradientUnits="userSpaceOnUse" gradientTransform="translate(91.2967 106.487) scale(28.9975 8.40588)">
<stop stop-color="#DBC000"/>
<stop offset="1" stop-color="#B5A700"/>
</radialGradient>
<linearGradient id="paint18_linear_0_1" x1="221.342" y1="254.051" x2="221.342" y2="162.049" gradientUnits="userSpaceOnUse">
<stop stop-color="#906361"/>
<stop offset="1" stop-color="#B5888D"/>
</linearGradient>
<linearGradient id="paint19_linear_0_1" x1="156.602" y1="255.081" x2="221.33" y2="255.081" gradientUnits="userSpaceOnUse">
<stop stop-color="#C77CBD"/>
<stop offset="1" stop-color="#974577"/>
</linearGradient>
<linearGradient id="paint20_linear_0_1" x1="155.555" y1="258.233" x2="238.031" y2="258.233" gradientUnits="userSpaceOnUse">
<stop stop-color="#C77CBD"/>
<stop offset="1" stop-color="#974577"/>
</linearGradient>
<radialGradient id="paint21_radial_0_1" cx="0" cy="0" r="1" gradientUnits="userSpaceOnUse" gradientTransform="translate(308.526 155.157) scale(13.3705 14.4606)">
<stop stop-color="#B5888D"/>
<stop offset="1" stop-color="#906354"/>
</radialGradient>
<linearGradient id="paint22_linear_0_1" x1="302.758" y1="174.595" x2="327.814" y2="174.595" gradientUnits="userSpaceOnUse">
<stop stop-color="#C77CBD"/>
<stop offset="1" stop-color="#974577"/>
</linearGradient>
<linearGradient id="paint23_linear_0_1" x1="303.805" y1="180.868" x2="331.993" y2="180.868" gradientUnits="userSpaceOnUse">
<stop stop-color="#C77CBD"/>
<stop offset="1" stop-color="#974577"/>
</linearGradient>
<linearGradient id="paint24_linear_0_1" x1="453.081" y1="234.187" x2="453.081" y2="176.729" gradientUnits="userSpaceOnUse">
<stop stop-color="#906361"/>
<stop offset="1" stop-color="#B5888D"/>
</linearGradient>
<linearGradient id="paint25_linear_0_1" x1="386.25" y1="246.747" x2="451.009" y2="246.747" gradientUnits="userSpaceOnUse">
<stop stop-color="#C77CBD"/>
<stop offset="1" stop-color="#974577"/>
</linearGradient>
</defs>
</svg>
