<svg width="448" height="299" viewBox="0 0 448 299" fill="none" xmlns="http://www.w3.org/2000/svg">
<path d="M65.9667 46.2667C55.8016 52.2905 53.363 63.5851 53.7395 65.4675C54.116 67.3499 54.4925 69.6088 56.3749 71.4913C58.2573 73.3737 61.6457 75.6327 61.6457 75.6327L77.8346 71.8678L91.9614 59.0672C91.9614 59.0672 88.5731 44.3842 84.2349 42.8783C79.8967 41.3723 76.1318 40.243 65.9667 46.2667Z" fill="#737478" stroke="black" stroke-width="0.627929"/>
<path d="M68.4203 66.5965C67.818 67.8013 63.1495 72.3693 60.8906 74.5027L62.0201 75.6322L77.8325 71.8673L91.7624 59.4433C91.7624 59.4433 90.633 53.043 88.3741 48.5252C86.1152 44.0074 83.8562 43.2544 83.8562 43.2544V50.4076C75.95 55.6784 69.1733 65.0906 68.4203 66.5965Z" fill="#0C1F2E"/>
<path d="M55.9984 64.7141C55.6223 69.232 59.3868 72.2439 59.3868 72.2439C59.3868 72.2439 54.8687 71.1144 54.1157 65.8436C53.3628 60.5728 59.0099 52.6666 60.1394 51.5371C61.2689 50.4077 63.5279 47.3958 70.6811 44.0074C77.8342 40.619 79.717 42.125 79.717 42.125C79.717 42.125 73.3165 44.7604 70.6813 46.2663C68.0462 47.7723 64.6576 50.7842 64.6576 50.7842C64.6576 50.7842 66.1632 50.4077 65.7867 51.9136C65.4103 53.4195 62.3981 57.1844 61.2689 57.5609C60.1397 57.9374 59.0103 57.1844 59.0103 57.1844C59.0103 57.1844 56.3745 60.1963 55.9984 64.7141Z" fill="#F7FBFE"/>
<path d="M158.727 47.5228C153.833 52.0406 155.715 57.3113 155.715 57.3113L164.751 71.2415L184.705 79.5241L191.481 69.1807C191.481 69.1807 193.74 58.2626 181.693 49.9799C169.645 41.6973 163.621 43.0049 158.727 47.5228Z" fill="#6D7278" stroke="black" stroke-width="0.627929"/>
<path d="M157.976 52.0404C156.771 52.0404 156.219 53.0444 156.094 53.5464V56.5583L185.083 79.1474L188.848 72.7471L184.707 68.9823C184.707 68.9823 188.095 65.9706 186.213 62.2056C184.33 58.4407 180.189 53.9229 172.659 50.5345C165.129 47.1461 162.118 53.5464 162.118 53.5464C161.239 53.0444 159.181 52.0404 157.976 52.0404Z" fill="#0D1F2D"/>
<path d="M166.632 46.0169C160.609 46.3934 156.844 50.9112 156.844 50.9112C156.844 50.9112 157.597 47.1463 163.997 44.5109C170.397 41.8755 181.692 50.1582 181.692 50.1582C181.692 50.1582 188.469 54.676 190.727 61.4528C192.986 68.2295 189.974 70.8649 189.974 70.8649C189.974 70.8649 190.727 65.2176 188.845 59.9468C186.963 54.676 179.433 50.1582 179.433 50.1582C179.433 50.1582 172.656 45.6404 166.632 46.0169Z" fill="#F9FFFF"/>
<path d="M69.5156 297.693C69.609 293.245 69.921 290.845 71.0216 286.774L72.5275 286.021C71.046 290.819 70.7027 293.618 71.0216 298.822L69.5156 297.693Z" fill="white"/>
<path d="M59.7305 174.959C69.1231 167.437 74.553 163.344 86.8374 158.017L157.24 156.511L179.453 251.762C181.56 262.883 179.766 268.562 173.429 274.727C173.429 274.727 182.088 276.986 182.465 281.88C182.841 286.775 176.064 292.799 159.123 289.41C142.181 286.022 141.804 282.633 141.804 282.633L139.545 257.032L101.52 264.186L95.8731 289.41H74.0369C74.0369 289.41 63.4953 288.657 65.0013 282.257C66.5072 275.857 73.2839 273.974 73.2839 273.974C65.536 266.485 66.0104 261.095 68.7661 251.009L59.7305 174.959Z" fill="#76777C" stroke="#0B1E2C" stroke-width="0.627929"/>
<path d="M82.3161 162.535C77.9958 165.343 75.6104 167.058 71.3981 170.441L69.5156 168.183C73.5345 165 75.9475 163.468 80.4337 161.029L82.3161 162.535Z" fill="white"/>
<path d="M112.437 195.665C82.318 196.042 63.1172 205.078 63.1172 205.078L66.5056 234.067C66.5056 234.067 97.0009 243.479 120.719 243.479C144.438 243.479 176.816 240.091 176.816 240.091L163.639 201.689C163.639 201.689 142.556 195.289 112.437 195.665Z" fill="#FEFDFB"/>
<path d="M124.11 176.841C103.531 175.559 95.7593 173.498 80.4375 161.029L87.2142 157.264L155.735 143.334L169.288 173.076L162.888 196.795L162.511 217.125L152.723 199.43C152.723 199.43 152.723 194.913 148.958 192.654C145.193 190.395 139.922 196.795 139.922 196.795C139.922 196.795 139.922 192.654 136.534 188.889C133.145 185.124 124.11 176.841 124.11 176.841Z" fill="#0C1F2E"/>
<path d="M150.463 167.805L163.264 179.476C163.264 179.476 139.169 193.406 120.721 208.466C102.273 223.525 83.0723 244.608 83.0723 244.608L73.6602 231.431C73.6602 231.431 91.355 211.854 108.297 197.171C125.239 182.488 150.463 167.805 150.463 167.805Z" fill="#A2662F" stroke="#0B1E2C" stroke-width="0.627929"/>
<path d="M94.7431 259.292L92.8607 280.751L125.238 261.551V250.256L102.273 247.997L69.5186 245.362L68.7656 252.515C77.8325 256.264 83.4628 257.808 94.7431 259.292Z" fill="#071927"/>
<path d="M66.509 251.385C63.4972 250.256 65.3794 232.561 69.1443 232.185C72.9092 231.808 101.522 236.703 119.593 236.703C137.665 236.703 165.148 233.691 165.148 233.691L171.925 252.138C171.925 252.138 125.241 257.786 104.534 256.28C83.8272 254.774 69.5209 252.515 66.509 251.385Z" fill="#A2672C" stroke="#0B1E2C" stroke-width="0.627929"/>
<path d="M141.801 282.634L140.672 267.198L172.297 243.856C172.297 243.856 177.567 255.151 177.567 261.174C177.567 267.198 171.167 275.104 171.167 275.104C171.167 275.104 178.32 278.869 178.697 281.505C179.073 284.14 177.071 285.582 175.309 286.775C177.704 286.838 178.922 286.444 180.956 285.269C180.956 285.269 178.697 290.917 167.402 290.164C156.108 289.411 152.343 287.528 152.343 287.528C152.343 287.528 161.755 288.281 165.143 287.905C168.532 287.528 177.191 285.269 172.297 281.505C167.402 277.74 160.249 278.116 160.249 278.116C160.249 278.116 163.261 276.61 163.261 273.222C163.261 269.833 161.002 267.424 157.99 266.822C154.978 266.219 145.19 273.975 145.19 273.975C145.19 273.975 142.855 275.556 142.554 277.363C142.253 279.17 144.186 279.622 145.19 279.622C143.383 279.622 142.178 281.63 141.801 282.634Z" fill="#0C1F2D"/>
<path d="M92.4861 213.737L96.2509 223.526L146.7 183.242L142.182 172.324L153.477 165.17L164.018 183.242C164.018 183.242 141.429 194.197 127.123 206.245C119.933 212.299 108.876 222.665 102.651 228.42L105.663 235.573L95.1215 235.234L96.2509 235.573L91.3566 243.856L70.2734 239.715V231.055L92.4861 213.737Z" fill="#0B0B0B" fill-opacity="0.47"/>
<path d="M73.2836 274.727C65.0009 280.751 66.8833 286.774 66.8833 286.774C66.8833 286.774 63.8714 283.386 66.5068 279.245C69.1422 275.103 73.2836 274.727 73.2836 274.727Z" fill="#FEFDFB"/>
<path d="M69.5187 264.185C70.2717 268.703 73.2836 272.468 73.2836 272.468C73.2836 272.468 68.3893 269.08 67.2598 264.562C66.1304 260.044 69.1422 252.138 69.1422 252.138C69.1422 252.138 68.7658 259.667 69.5187 264.185Z" fill="#FEFDFB"/>
<path d="M110.18 196.795C119.216 189.265 139.169 176.465 139.169 176.465C139.169 176.465 118.463 192.654 112.062 198.301C105.662 203.948 91.3556 217.502 90.9791 217.878C90.6027 218.255 88.3438 217.502 89.4732 215.996C90.6027 214.49 101.144 204.325 110.18 196.795Z" fill="white"/>
<path d="M133.899 236.326L134.651 239.714C134.651 239.714 112.815 239.338 106.415 238.961C100.015 238.585 89.4732 237.079 89.4732 237.079L88.3438 234.82C88.3438 234.82 102.65 236.326 110.556 236.703C118.463 237.079 133.899 236.326 133.899 236.326Z" fill="white"/>
<path d="M65.7539 251.385V247.997C87.98 251.927 100.632 252.905 123.356 253.644L120.344 261.174L65.7539 251.385Z" fill="black" fill-opacity="0.46"/>
<path d="M215.223 211.528C213.717 212.658 200.917 212.282 200.164 211.528C199.411 210.775 201.293 198.351 202.799 196.469C204.305 194.587 216.729 195.34 217.482 196.093C218.235 196.846 216.729 210.399 215.223 211.528Z" fill="#837061" stroke="#0B1E2C" stroke-width="0.627929"/>
<path d="M202.801 197.222C201.672 198.728 201.672 204.752 201.672 205.128C201.672 205.505 202.425 205.881 202.801 205.128C203.178 204.375 202.425 199.857 204.684 198.728C206.943 197.598 215.225 197.975 215.225 197.975C215.603 201.351 215.677 203.416 215.602 207.387C216.567 203.826 216.844 201.532 216.731 196.469C216.731 196.469 203.931 195.716 202.801 197.222Z" fill="#F9FEFF"/>
<path d="M210.704 206.258C207.692 207.764 202.045 206.635 202.045 206.635L200.539 211.905C200.539 211.905 203.71 212.158 207.316 212.282C210.355 212.386 213.812 212.045 214.846 211.529C217.104 210.399 218.234 196.469 217.104 196.093C215.975 195.716 213.716 204.752 210.704 206.258Z" fill="black" fill-opacity="0.48"/>
<path d="M200.915 205.881L205.433 211.529C204.026 212.804 202.652 214.018 201.292 215.196C199.78 216.506 198.284 217.773 196.774 219.032C195.066 220.414 193.368 221.818 191.622 223.276C186.78 227.233 181.502 231.501 174.938 237.13L168.914 228.47C175.463 223.394 180.503 219.595 185.856 215.845C187.715 214.543 189.611 213.247 191.622 211.905C193.081 210.932 194.6 209.934 196.208 208.893C197.693 207.932 199.255 206.933 200.915 205.881Z" fill="url(#paint0_linear_231_32874)"/>
<path d="M196.208 208.893C197.693 207.932 199.255 206.933 200.915 205.881L205.433 211.529C204.026 212.804 202.652 214.018 201.292 215.196M196.208 208.893C197.523 212.178 198.611 213.592 201.292 215.196M196.208 208.893C194.6 209.934 193.081 210.932 191.622 211.905M201.292 215.196C199.78 216.506 198.284 217.773 196.774 219.032M191.622 211.905C192.716 215.22 193.898 216.748 196.774 219.032M191.622 211.905C189.611 213.247 187.715 214.543 185.856 215.845M196.774 219.032C195.066 220.414 193.368 221.818 191.622 223.276M185.856 215.845C180.503 219.595 175.463 223.394 168.914 228.47L174.938 237.13C181.502 231.501 186.78 227.233 191.622 223.276M185.856 215.845C186.81 219.583 188.231 221.108 191.622 223.276" stroke="#0B1E2C" stroke-width="0.627929"/>
<path d="M196.4 211.152C196.4 211.529 193.388 213.411 193.388 213.411C192.647 213.073 192.621 212.794 192.635 212.282C192.635 212.282 194.518 211.152 194.894 210.776C195.271 210.399 196.4 210.105 196.4 210.399C196.4 210.693 196.4 210.776 196.4 211.152Z" fill="#FCFDFB"/>
<path d="M197.906 208.893L200.165 207.011C200.165 207.011 200.71 206.803 200.918 207.011C201.126 207.219 200.918 207.764 200.918 207.764L199.035 209.27C199.035 209.27 198.185 210.018 197.906 209.646C197.73 209.411 197.906 208.893 197.906 208.893Z" fill="#FCFDFB"/>
<path d="M100.396 261.601C103.784 257.46 147.456 228.471 147.456 228.471L163.645 236L165.904 253.319C165.904 253.319 124.867 283.438 120.349 285.697C115.832 287.955 79.3125 294.356 79.3125 294.356C79.3125 294.356 97.0073 265.743 100.396 261.601Z" fill="#F5F5FD" stroke="#0B1E2C" stroke-width="0.627929"/>
<path d="M163.268 238.259L86.4648 290.214L121.102 285.32L163.268 255.201V238.259Z" fill="#BABBBD"/>
<path d="M101.901 263.808L86.4648 290.162L112.066 272.844L115.078 254.396L101.901 263.808Z" fill="#E4E3E3"/>
<path d="M121.854 266.444L122.984 248.372L125.619 246.113L124.866 264.185L121.854 266.444Z" fill="#E4E3E3"/>
<path d="M153.103 212.281C152.35 212.281 136.914 223.952 136.914 223.952C136.914 223.952 156.115 239.388 158.374 241.647C160.633 243.906 165.903 268.378 165.903 268.378L182.845 257.46C182.845 257.46 179.833 233.364 177.951 229.223C176.069 225.082 153.856 212.281 153.103 212.281Z" fill="#847264" stroke="#0B1E2C" stroke-width="0.627929"/>
<path d="M152.347 213.035L154.606 214.164C154.606 214.164 141.052 223.953 141.052 224.329C141.052 224.706 160.63 238.636 161.383 240.142C162.136 241.648 167.03 264.99 167.03 264.99L180.207 256.331L180.583 248.048L182.089 257.46L166.277 267.625C166.277 267.625 161.006 244.659 159.124 242.024C157.241 239.389 137.664 224.329 137.664 224.329L152.347 213.035Z" fill="#FFFCF6"/>
<path d="M167.032 234.87C163.893 225.539 160.306 220.829 153.102 212.658C163.142 217.467 169.609 221.75 177.95 229.223C180.303 240.016 181.339 246.18 182.467 257.459L165.902 268.001C165.902 268.001 165.526 265.366 165.526 264.989C165.526 264.613 166.279 262.73 166.279 262.354C166.279 261.977 163.82 248.972 161.761 240.141L167.032 234.87Z" fill="#36404A" fill-opacity="0.76"/>
<path d="M165.901 227.666L152.348 184.37L166.654 173.452L185.102 185.123C185.102 185.123 192.632 214.489 192.632 220.513C192.632 226.537 190.749 239.714 180.584 239.714C170.419 239.714 165.901 227.666 165.901 227.666Z" fill="#74787B" stroke="#0B1E2C" stroke-width="0.627929"/>
<path d="M188.868 222.396C188.491 232.561 184.35 234.443 184.35 234.443C184.35 234.443 185.479 227.29 182.844 217.125C180.209 206.96 180.209 205.454 178.326 203.195C176.444 200.936 170.176 199.43 168.161 198.677C166.146 197.924 160.255 197.548 159.878 200.183C159.502 202.818 162.89 216.014 166.279 225.408C169.667 234.801 175.691 238.585 175.691 238.585C175.691 238.585 168.537 234.443 166.279 228.419C164.02 222.396 153.102 186.63 153.102 186.63L167.032 175.711L185.103 185.5L187.362 194.912L187.738 200.559C187.738 200.559 189.244 212.231 188.868 222.396Z" fill="#0B1E2C"/>
<path d="M138.793 170.064C138.793 168.559 142.558 163.288 147.452 159.523C152.346 155.758 153.476 155.382 153.476 155.382L162.135 151.617C162.135 151.617 178.324 151.617 183.971 157.64C189.619 163.664 189.242 176.465 189.242 176.465C189.242 176.465 191.124 176.841 191.877 177.218C192.63 177.594 197.148 184.747 193.76 190.771C190.371 196.795 174.936 197.548 160.629 189.642C146.323 181.736 138.793 171.57 138.793 170.064Z" fill="#5D6268"/>
<path d="M189.242 176.465C189.242 176.465 191.124 176.841 191.877 177.218C192.63 177.594 197.148 184.747 193.76 190.771C190.371 196.795 174.936 197.548 160.629 189.642C146.323 181.736 138.793 171.57 138.793 170.064C138.793 168.559 142.558 163.288 147.452 159.523C152.346 155.758 153.476 155.382 153.476 155.382M189.242 176.465C189.242 176.465 189.619 163.664 183.971 157.64C178.324 151.617 162.135 151.617 162.135 151.617L153.476 155.382M189.242 176.465C189.242 176.465 189.995 178.724 189.995 179.853C189.995 180.983 185.101 184.747 182.842 184.747C180.583 184.747 170.418 182.112 158.747 173.076C147.076 164.041 153.476 155.382 153.476 155.382" stroke="#0B1E2C" stroke-width="0.627929"/>
<path d="M143.312 165.17C144.065 164.793 146.7 164.417 147.077 165.17C147.454 165.923 144.442 169.688 144.442 170.441C144.441 171.194 150.089 178.347 154.983 182.488C159.877 186.63 167.407 191.454 176.443 193.03C185.478 194.606 192.255 188.136 192.255 188.136L190.749 183.618C190.749 183.618 187.737 187.006 183.596 187.383C179.455 187.759 175.313 183.618 175.313 183.618C175.313 183.618 180.208 185.5 183.22 185.124C186.231 184.747 188.114 182.865 189.243 181.735C190.373 180.606 191.126 177.594 191.126 177.594C191.126 177.594 193.008 179.853 193.761 182.488C194.514 185.124 194.138 187.006 193.761 188.136C193.385 189.265 190.373 196.418 178.325 194.912C166.278 193.406 161.383 189.642 154.23 185.124C147.077 180.606 139.547 171.57 139.924 169.688C140.3 167.805 142.559 165.546 143.312 165.17Z" fill="#FFFFFD"/>
<path d="M183.596 165.17C185.855 172.323 186.231 179.476 186.608 180.229C186.984 180.982 188.114 180.982 188.49 179.476C188.867 177.97 187.737 165.923 185.479 161.405C183.22 156.887 176.066 156.134 176.066 156.134C176.066 156.134 181.337 158.017 183.596 165.17Z" fill="#FFFFFD"/>
<path d="M71.0234 148.228C68.388 132.792 63.1172 98.1552 63.1172 95.1433L111.684 55.2358L181.334 94.0139L169.663 152.746C169.663 152.746 142.556 168.558 117.331 166.676C92.1066 164.793 71.0234 148.228 71.0234 148.228Z" fill="white" stroke="black" stroke-width="0.627929"/>
<ellipse cx="84.9891" cy="124.466" rx="25.0737" ry="20.4907" transform="rotate(132.347 84.9891 124.466)" fill="#787677"/>
<ellipse cx="90.6049" cy="123.757" rx="6.77674" ry="12.0475" fill="#0E1E2D"/>
<ellipse cx="89.4713" cy="130.91" rx="2.6354" ry="3.38837" fill="#F7FFFF"/>
<path d="M115.825 129.404C115.825 129.404 110.555 129.78 110.555 131.663C110.555 133.545 116.202 136.934 116.202 136.934C116.202 136.934 122.979 132.792 122.602 130.91C122.226 129.027 115.825 129.404 115.825 129.404Z" fill="#0F2030"/>
<path d="M116.577 143.333C115.071 143.333 112.812 144.086 112.812 144.463C112.812 144.839 115.448 144.463 116.577 144.463C117.707 144.463 121.095 144.463 121.095 144.086C121.095 143.71 118.083 143.333 116.577 143.333Z" fill="#0F1F2E"/>
<ellipse cx="153.668" cy="123.193" rx="25.0737" ry="21.3943" transform="rotate(38.99 153.668 123.193)" fill="#777578"/>
<ellipse cx="146.701" cy="123.003" rx="6.40025" ry="12.0475" fill="#0D202E"/>
<ellipse cx="145.948" cy="130.156" rx="2.6354" ry="3.38837" fill="#F8FFFF"/>
<path d="M155.736 147.851C144.277 159.366 135.727 161.711 115.829 165.169C138.978 165.807 150.546 162.726 170.419 155.381L181.337 93.2606L146.7 73.6834L94.7453 68.4126L64.25 95.5196V146.345L91.7334 159.522C91.7334 159.522 91.7334 148.228 91.357 147.098C90.9805 145.969 75.5446 141.074 74.4151 138.815C73.2857 136.556 71.4032 106.814 73.2857 100.037C75.1681 93.2606 92.8629 83.0955 92.8629 83.0955L130.511 88.3663L130.888 113.591C130.888 113.591 143.312 106.438 144.441 103.426C145.571 100.414 146.7 88.3663 146.7 88.3663L154.23 94.0136C160.317 115.584 160.367 126.797 155.736 147.851Z" fill="#0D0D0D" fill-opacity="0.5"/>
<path d="M55.3369 150.145C53.008 136.66 52.7269 127.406 53.078 109.485L55.7134 104.591C55.2403 95.2259 55.6036 89.7104 58.3488 78.9896C58.3488 78.9896 71.5257 63.5537 85.8322 54.518C100.139 45.4824 120.092 40.9645 120.092 40.9645C122.728 40.5881 140.046 43.2234 153.223 50.7532C166.4 58.2829 188.236 75.2247 188.236 75.2247C188.236 75.2247 192.754 107.979 192.378 115.885C192.124 121.204 191.53 131.977 190.825 139.604C190.481 143.313 190.112 146.278 189.742 147.51C188.613 151.275 164.485 163.421 152.094 164.828L153.6 145.628C153.6 145.628 169.036 140.357 169.412 139.604C169.788 138.851 170.165 104.967 170.165 104.967C158.786 92.3861 141.552 79.3661 140.423 81.625C139.293 83.8839 138.613 94.2229 139.293 103.085C139.293 103.085 118.586 120.027 112.563 120.403C112.217 120.425 111.839 120.403 111.433 120.342C104.772 119.346 90.6617 107.871 89.5971 106.097C88.4676 104.214 88.1216 91.8008 88.4676 82.378C81.126 86.954 72.2787 94.802 69.6433 102.332C67.0079 109.861 67.3844 135.839 69.6433 139.227C71.9022 142.616 84.3263 147.886 84.3263 147.886V164.075L55.3369 150.145Z" fill="url(#paint1_linear_231_32874)"/>
<path d="M120.092 40.9645C120.092 40.9645 100.139 45.4824 85.8322 54.518C71.5257 63.5537 58.3488 78.9896 58.3488 78.9896C55.6036 89.7103 55.2403 95.2259 55.7134 104.591M120.092 40.9645C122.728 40.5881 140.046 43.2234 153.223 50.7532C166.4 58.2829 188.236 75.2247 188.236 75.2247C188.236 75.2247 192.754 107.979 192.378 115.885C192.124 121.204 191.53 131.977 190.825 139.604M120.092 40.9645C120.092 40.9645 110.68 50.7532 109.551 67.3185C108.421 83.8839 110.68 101.579 110.68 101.579M55.7134 104.591L53.078 109.485C52.7269 127.406 53.008 136.66 55.3369 150.145L84.3263 164.075V147.886C84.3263 147.886 71.9022 142.616 69.6433 139.227C67.3844 135.839 67.0079 109.861 69.6433 102.332C72.2787 94.802 81.126 86.954 88.4676 82.378C88.1216 91.8008 88.4676 104.214 89.5971 106.097C90.6617 107.871 104.772 119.346 111.433 120.342M55.7134 104.591C55.7134 104.591 55.7134 97.8139 69.6433 82.378C83.5733 66.942 100.139 64.3066 100.139 64.3066C100.139 64.3066 101.645 94.802 102.398 96.3079C103.151 97.8139 110.68 101.579 110.68 101.579M111.433 120.342C111.839 120.403 112.217 120.425 112.563 120.403C118.586 120.027 139.293 103.085 139.293 103.085C138.613 94.2229 139.293 83.8839 140.423 81.625C141.552 79.3661 158.786 92.3861 170.165 104.967C170.165 104.967 169.788 138.851 169.412 139.604C169.036 140.357 153.6 145.628 153.6 145.628L152.094 164.828C164.485 163.421 188.613 151.275 189.742 147.51C190.112 146.278 190.481 143.313 190.825 139.604M111.433 120.342L110.68 101.579M110.68 101.579L122.728 97.0609C122.229 81.9751 122.709 74.2301 126.116 62.8007C140.642 63.7225 152.847 70.7069 162.259 77.4836C171.671 84.2604 184.471 98.9433 184.471 98.9433V138.851L190.825 139.604" stroke="#0B1E2C" stroke-width="0.627929"/>
<path d="M56.8415 147.133C57.971 150.522 60.2299 151.651 60.2299 151.651L55.712 149.769C55.712 149.769 54.5826 143.369 54.2061 139.227C53.8296 135.086 53.4531 109.861 53.4531 109.861C53.4531 109.861 57.218 97.4373 71.1479 81.6249C85.0779 65.8125 99.3844 65.0596 99.3844 65.0596L100.514 88.4017L97.8784 68.0715C97.8784 68.0715 86.9603 71.0833 79.0541 77.8601C71.1479 84.6368 61.3593 99.3198 61.3593 99.3198C61.3593 99.3198 63.6182 100.073 63.9947 103.461C64.3712 106.849 63.9947 109.861 62.1123 113.25C60.2299 116.638 56.8415 117.015 56.8415 117.015C56.8415 117.015 55.712 143.745 56.8415 147.133Z" fill="white"/>
<path d="M59.1041 79.3659L56.4688 99.6961L57.9747 97.4372C57.9747 97.4372 59.1041 84.2602 62.116 79.3659C65.1279 74.4715 71.1517 69.2008 71.1517 69.2008L67.0103 84.6367L77.9284 73.7186C77.9284 73.7186 79.4344 68.0713 80.9403 63.93C82.4463 59.7886 88.0935 56.4002 88.0935 56.4002L82.8227 70.7067L86.9641 68.4478C89.2951 62.4087 90.6526 59.4017 93.7408 53.3884C102.854 48.5599 107.807 46.5359 116.33 44.3527L118.965 41.3408C118.965 41.3408 97.1292 47.3646 83.5757 56.7767C70.0222 66.1889 59.1041 79.3659 59.1041 79.3659Z" fill="#FBFAF8"/>
<path d="M153.599 164.075L155.105 147.51L169.788 139.98L170.541 105.343L155.105 87.6484V75.6008L137.41 63.1768L158.493 71.4595C158.391 63.4969 157.084 59.7132 153.976 53.3882L187.106 76.3538C192.362 103.987 192.346 119.485 189.742 147.133C189.742 147.133 184.094 152.027 173.553 157.298C163.011 162.569 153.599 164.075 153.599 164.075Z" fill="#202122" fill-opacity="0.5"/>
<path d="M156.99 148.262C156.237 150.145 153.978 164.451 153.978 164.451L154.355 146.38L169.414 139.603L170.92 108.732C170.92 108.732 172.05 139.227 171.673 140.356C171.296 141.486 157.743 146.38 156.99 148.262Z" fill="#F8FFFF"/>
<path d="M185.98 147.51C185.603 148.262 170.167 158.428 170.167 158.428C170.167 158.428 188.238 148.262 188.615 147.886C188.992 147.51 189.368 141.862 188.992 141.109C188.615 140.356 184.097 139.227 184.097 139.227L183.344 103.461L182.591 140.356L187.109 142.239C187.109 142.239 186.356 146.757 185.98 147.51Z" fill="#F8FFFF"/>
<path d="M144.566 80.8716C155.24 89.0337 160.767 93.8511 169.414 103.084C169.414 103.084 164.896 96.3075 160.378 91.7897C155.861 87.2718 144.566 80.8716 144.566 80.8716Z" fill="#F8FFFF"/>
<path d="M113.318 104.59C112.941 105.72 112.565 119.65 112.565 119.65C112.565 119.65 111.059 103.461 111.435 102.708C111.812 101.955 123.106 97.4369 123.106 97.4369C123.106 97.4369 123.483 83.8835 123.859 77.4832C124.236 71.083 126.495 63.1768 126.495 63.1768C126.495 63.1768 135.154 63.1768 149.837 70.7065C164.52 78.2362 176.944 92.1661 176.944 92.1661C176.944 92.1661 161.131 79.7421 149.46 72.5889C137.789 65.4357 127.624 65.8122 127.624 65.8122C125.415 78.2567 124.81 85.4827 124.236 98.5664C124.236 98.5664 113.694 103.461 113.318 104.59Z" fill="#F8FFFF"/>
<path d="M112.561 56.0238C110.679 62.424 109.926 80.1188 109.926 80.1188C109.926 80.1188 112.561 60.5416 114.444 54.8943C116.326 49.247 121.22 43.2232 121.22 43.2232C121.22 43.2232 137.033 45.1057 153.222 54.1413C169.411 63.177 184.846 75.601 185.976 77.4834C187.105 79.3659 189.208 111.437 190.117 133.203C190.117 133.203 192.051 108.732 190.87 100.073C189.689 91.4134 187.482 75.9775 187.482 75.9775C187.482 75.9775 162.257 54.5178 146.068 48.1176C129.88 41.7173 120.091 41.3408 120.091 41.3408C120.091 41.3408 114.444 49.6235 112.561 56.0238Z" fill="#FEFFFF"/>
<path d="M7.11048 179.191C-2.30171 177.685 0.333904 159.237 7.11064 158.484C13.8874 157.731 27.8177 161.872 34.2175 162.625C40.6173 163.378 62.4544 161.872 62.4544 161.872C62.4544 161.872 72.6195 164.131 83.1611 196.509C93.7027 228.887 85.42 240.934 85.42 240.934C85.42 240.934 60.1955 236.04 54.5482 234.911C48.9009 233.781 29.7001 233.781 29.7001 233.781C29.7001 233.781 31.9591 222.863 31.2061 209.31C30.4531 195.756 23.6764 180.697 23.6764 180.697C23.6764 180.697 16.5227 180.697 7.11048 179.191Z" fill="#E2D1C1"/>
<path d="M23.6764 180.697C23.6764 180.697 16.5227 180.697 7.11048 179.191C-2.30171 177.685 0.333904 159.237 7.11064 158.484C13.8874 157.731 27.8177 161.872 34.2175 162.625C40.6173 163.378 62.4544 161.872 62.4544 161.872M23.6764 180.697C23.6764 180.697 30.4531 195.756 31.2061 209.31C31.9591 222.863 29.7001 233.781 29.7001 233.781C29.7001 233.781 48.9009 233.781 54.5482 234.911C60.1955 236.04 85.42 240.934 85.42 240.934C85.42 240.934 93.7027 228.887 83.1611 196.509C72.6195 164.131 62.4544 161.872 62.4544 161.872M23.6764 180.697L57.5596 184.838M62.4544 161.872C53.7947 164.131 50.0299 181.45 57.5596 184.838M57.5596 184.838C61.8701 184.688 66.2188 180.697 63.9599 177.308C61.7009 173.92 53.6436 174.673 53.6436 174.673" stroke="#0B1E2C" stroke-width="0.627929"/>
<path d="M4.47282 169.779C4.47282 175.05 8.99094 178.062 8.99094 178.062C8.99094 178.062 1.46094 178.815 1.46094 169.402C1.46094 159.99 7.10852 158.484 7.10852 158.484C7.10852 158.484 24.0507 161.873 28.9447 162.626C33.8387 163.379 58.6867 163.379 58.6867 163.379C57.2986 164.326 56.8812 164.811 56.4278 165.638C56.4278 165.638 32.3328 163.755 28.1917 163.379C24.0507 163.002 9.74362 160.743 8.23768 160.743C6.73174 160.743 4.47282 164.508 4.47282 169.779Z" fill="#FDFDFF"/>
<path d="M25.9371 184.461L24.0547 179.943C24.0547 179.943 31.8359 181.445 36.8552 182.202C44.754 183.394 57.1854 184.461 57.1854 184.461C57.1854 184.461 54.9265 182.202 54.1735 179.943C53.4206 177.684 54.1735 172.037 54.55 170.908C54.9265 169.778 58.3149 161.872 62.8327 162.625C67.3505 163.378 69.6094 169.402 70.7389 172.414C71.8684 175.426 72.6213 184.085 66.2211 186.72C59.8208 189.356 48.5263 185.967 44.3849 185.591C40.2436 185.214 25.9371 184.461 25.9371 184.461Z" fill="#050505" fill-opacity="0.49"/>
<path d="M19.9893 203.014C19.1415 196.757 21.496 189.46 26.7666 187.954C32.0373 186.448 37.6841 193.978 39.5665 200.002C41.4489 206.025 38.7769 214.338 32.414 214.308C26.2722 214.279 20.8141 209.1 19.9893 203.014Z" fill="#717880" stroke="#0B1E2C" stroke-width="0.627929"/>
<path d="M24.1282 195.107C25.6342 190.589 30.5285 189.836 30.5285 189.836C30.5285 189.836 26.7636 187.954 23.7518 190.589C20.7399 193.225 20.7398 198.872 21.1163 202.26C21.4928 205.649 24.1282 208.661 24.1282 208.661C24.1282 208.661 22.6223 199.625 24.1282 195.107Z" fill="#FCFFFF"/>
<path d="M393.258 46.0788C387.023 50.2441 386.228 59.9973 391.483 67.8631C396.738 75.7289 408.761 78.8948 414.996 74.7294C421.231 70.5641 422.025 60.811 416.77 52.9452C411.516 45.0794 399.493 41.9135 393.258 46.0788Z" fill="#626368"/>
<path fill-rule="evenodd" clip-rule="evenodd" d="M392.119 67.4387C387.002 59.7784 387.929 50.5592 393.682 46.7153C396.548 44.8012 400.856 44.5181 405.174 45.7369C409.474 46.9508 413.626 49.6153 416.134 53.3705C421.252 61.0308 420.325 70.2501 414.571 74.094C411.706 76.0081 407.397 76.2912 403.08 75.0724C398.78 73.8585 394.628 71.1939 392.119 67.4387ZM391.483 67.8636C386.228 59.9978 387.023 50.2446 393.258 46.0793C399.493 41.914 411.516 45.0799 416.77 52.9457C422.025 60.8115 421.231 70.5646 414.996 74.7299C408.761 78.8952 396.738 75.7294 391.483 67.8636Z" fill="black"/>
<path d="M397.729 44.9349C386.664 47.425 387.983 57.978 389.998 63.3816C392.31 71.6193 398.503 74.3505 406.474 73.5189L400.463 67.949L396.559 61.612C395.359 53.4136 403.567 46.1916 407.201 46.5361C400 45.0942 400.833 44.5384 397.729 44.9349Z" fill="black"/>
<path d="M325.722 51.8684C319.488 56.0337 318.693 65.7868 323.948 73.6527C329.203 81.5185 341.226 84.6843 347.461 80.519C353.696 76.3537 354.49 66.6005 349.235 58.7347C343.98 50.8689 331.957 47.7031 325.722 51.8684Z" fill="#626368"/>
<path fill-rule="evenodd" clip-rule="evenodd" d="M324.584 73.2283C319.466 65.568 320.394 56.3488 326.147 52.5048C329.013 50.5907 333.321 50.3076 337.639 51.5264C341.938 52.7403 346.091 55.4049 348.599 59.1601C353.717 66.8204 352.79 76.0396 347.036 79.8835C344.171 81.7976 339.862 82.0807 335.545 80.8619C331.245 79.648 327.093 76.9835 324.584 73.2283ZM323.948 73.6531C318.693 65.7873 319.488 56.0342 325.722 51.8689C331.957 47.7036 343.98 50.8694 349.235 58.7352C354.49 66.601 353.696 76.3542 347.461 80.5195C341.226 84.6848 329.203 81.519 323.948 73.6531Z" fill="black"/>
<path d="M330.194 50.7244C319.129 53.2145 320.448 63.7675 322.463 69.1711C324.775 77.4089 330.968 80.14 338.939 79.3084L332.928 73.7386L329.023 67.4015C327.824 59.2032 336.032 51.9811 339.666 52.3256C332.465 50.8838 333.298 50.328 330.194 50.7244Z" fill="black"/>
<path d="M417.137 275.522C417.743 270.883 418.953 261.242 418.953 259.79L384.463 141.606H300.568C300.703 141.477 300.835 141.34 300.962 141.194C305.02 136.557 300.58 141.56 300.546 141.627C297.095 144.888 291.378 142.744 288.861 141.194C281.115 143.614 279.179 156.321 279.179 162.372C282.084 176.41 295.718 187.18 302.172 190.811C303.14 197.104 289.667 233.771 282.81 251.319C278.453 260.516 278.171 271.69 278.574 276.127C269.861 282.904 273.33 289.842 276.154 292.464H307.618L330.611 271.892L372.362 270.681L389.909 289.439H415.927C426.093 288.955 420.97 279.959 417.137 275.522Z" fill="#737E84"/>
<path fill-rule="evenodd" clip-rule="evenodd" d="M300.805 142.212H384.01L418.347 259.873C418.327 260.669 418.039 263.31 417.672 266.39C417.294 269.559 416.84 273.126 416.538 275.444L416.503 275.713L416.68 275.918C418.579 278.117 420.726 281.371 421.186 284.065C421.412 285.392 421.216 286.485 420.496 287.278C419.826 288.018 418.603 288.608 416.512 288.794C416.463 287.987 416.32 286.969 416.023 285.995C415.647 284.765 414.978 283.447 413.778 282.847L413.237 283.93C413.974 284.298 414.515 285.199 414.865 286.349C415.127 287.206 415.256 288.114 415.302 288.834H390.172L372.618 270.069L330.373 271.294L307.388 291.86H276.397C275.117 290.598 273.76 288.425 273.643 285.827C273.522 283.155 274.709 279.901 278.946 276.605L279.207 276.402L279.177 276.073C278.78 271.697 279.063 260.643 283.357 251.578L283.366 251.559L283.374 251.54C286.805 242.76 291.891 229.197 296 217.039C298.053 210.96 299.866 205.225 301.105 200.61C301.724 198.303 302.203 196.267 302.496 194.603C302.786 192.962 302.909 191.614 302.771 190.719L302.726 190.428L302.47 190.284C299.294 188.498 294.321 184.935 289.787 180.082C285.264 175.24 281.218 169.156 279.785 162.311C279.792 159.332 280.273 154.747 281.689 150.618C283.089 146.533 285.344 143.062 288.788 141.856C290.112 142.63 292.128 143.497 294.266 143.814C296.477 144.141 298.913 143.889 300.805 142.212ZM300.1 141.217C298.565 142.645 296.506 142.922 294.443 142.617C292.366 142.309 290.384 141.421 289.178 140.679L288.944 140.535L288.681 140.617C284.523 141.916 282.013 145.94 280.544 150.226C279.065 154.54 278.575 159.298 278.575 162.373V162.434L278.587 162.495C280.07 169.663 284.283 175.961 288.903 180.908C293.4 185.722 298.323 189.296 301.605 191.185C301.654 191.887 301.557 192.963 301.304 194.393C301.02 196.008 300.551 198.006 299.936 200.296C298.707 204.875 296.904 210.583 294.853 216.651C290.756 228.778 285.681 242.311 282.254 251.08C277.947 260.186 277.579 271.157 277.945 275.854C273.672 279.272 272.295 282.796 272.434 285.882C272.574 288.988 274.246 291.518 275.743 292.908L275.917 293.07H307.85L330.85 272.49L372.107 271.295L389.647 290.044H415.942L415.957 290.044C418.57 289.919 420.348 289.243 421.393 288.091C422.452 286.923 422.641 285.399 422.379 283.862C421.876 280.92 419.669 277.575 417.773 275.334C418.075 273.012 418.509 269.588 418.873 266.533C419.249 263.387 419.558 260.563 419.558 259.79V259.704L384.918 141.001H301.936C302.603 140.238 302.948 139.839 303.076 139.687C303.096 139.664 303.114 139.643 303.127 139.627C303.133 139.62 303.141 139.609 303.15 139.597C303.154 139.592 303.163 139.58 303.173 139.565C303.178 139.558 303.188 139.542 303.2 139.522C303.202 139.518 303.245 139.445 303.265 139.343C303.275 139.264 303.244 139.032 303.176 138.893C303.034 138.742 302.719 138.623 302.586 138.628C302.52 138.641 302.423 138.675 302.39 138.691C302.37 138.701 302.338 138.721 302.326 138.73C302.289 138.755 302.261 138.781 302.258 138.784C302.243 138.798 302.229 138.812 302.224 138.817C302.211 138.831 302.195 138.848 302.178 138.866C302.112 138.938 301.989 139.075 301.838 139.244C301.533 139.585 301.101 140.073 300.743 140.479C300.564 140.683 300.402 140.867 300.285 141.002C300.226 141.07 300.177 141.126 300.141 141.168C300.126 141.186 300.112 141.203 300.1 141.217Z" fill="black"/>
<path d="M329.397 228.325C343.919 238.491 364.089 238.208 372.358 236.797L376.594 199.282C366.912 206.059 353.197 202.105 347.55 199.282C329.64 188.148 308.22 197.87 299.749 204.122L294.908 218.644C308.825 216.829 328.187 228.325 329.397 228.325Z" fill="white"/>
<path d="M409.178 270.117L412.679 268.616C415.751 267.3 417.742 264.279 417.742 260.937C417.742 258.659 416.811 256.479 415.165 254.903L392.614 233.311C390.481 231.268 389.168 228.517 388.923 225.574L384.019 166.731C383.569 161.326 379.494 156.922 374.14 156.054C367.103 154.913 360.63 160.221 360.6 167.35C360.584 170.9 360.647 173.651 360.865 173.869C361.236 174.241 356.873 171.067 353.092 168.295C351.664 167.248 351.852 165.063 353.436 164.271C354.274 163.852 354.786 162.979 354.744 162.044L354.209 150.271L333.212 159.961C327.351 162.667 320.398 160.295 317.412 154.571L313.657 147.375C310.769 141.839 303.687 140.077 298.541 143.615L302.172 150.876L313.82 171.843C314.122 172.386 314.458 172.913 314.871 173.378C319.769 178.894 326.909 178.075 332.155 176.229C335.363 175.101 339.727 175.789 342.331 177.975C345.213 180.394 344.383 183.544 341.047 185.284C332.854 189.559 321.854 190.978 313.018 191.166C307.101 191.291 301.635 194.997 300.078 200.707L299.146 204.123L282.204 253.739C277.364 264.631 278.977 273.505 279.179 276.732C273.377 279.219 272.684 284.733 273.601 288.609C274.253 291.364 277.099 292.465 279.93 292.465H302.389C305.366 292.465 308.239 291.367 310.458 289.382L330.006 271.892L329.4 268.866L310.101 287.123C308.139 288.979 305.47 289.897 302.78 289.641L294.92 288.893C294.572 288.859 294.306 288.567 294.306 288.217C294.306 287.69 293.731 287.364 293.278 287.635L291.981 288.413C291.543 288.676 290.983 288.697 290.525 288.471C276.296 281.459 291.036 278.131 300.357 277.338L298.438 273.501C296.958 270.541 296.755 267.105 297.875 263.991L319.114 204.968C332.91 203.975 344.204 199.617 351.175 195.732C353.977 194.17 357.621 194.622 359.625 197.127C360.429 198.133 360.884 199.374 360.92 200.661L361.965 238.306C362.037 240.864 362.892 243.357 364.572 245.288C370.154 251.711 376.808 257.007 383.253 261.176L371.245 262.591C369.98 262.74 368.76 263.103 367.548 263.495C359.546 266.081 339.663 268.124 330.006 268.866V271.287L372.966 270.077L390.514 288.834H403.825L393.539 267.06C396.191 268.392 398.653 269.489 400.802 270.352C403.499 271.436 406.506 271.262 409.178 270.117Z" fill="#051C2C" fill-opacity="0.9"/>
<path d="M289.465 153.901C288.013 163.582 302.172 180.928 309.433 188.391C299.638 190.431 288.296 176.846 281.714 166.488C279.63 163.21 279.574 159.09 281.262 155.593L285.483 146.85C286.438 144.872 288.441 143.615 290.637 143.615C292.551 143.615 294.007 144.78 293.337 146.573C292.444 148.963 290.63 152.089 289.465 153.901Z" fill="#051C2C" fill-opacity="0.9"/>
<path d="M351.789 162.501V151.074L329.864 133.933L310.444 136.472L307.939 133.933L298.542 140.281L301.048 144.725L302.927 143.456L317.962 170.754L331.743 172.658L351.789 162.501Z" fill="#3DB5E7"/>
<path fill-rule="evenodd" clip-rule="evenodd" d="M308.013 133.15L297.737 140.093L300.839 145.594L302.713 144.328L317.574 171.312L331.844 173.284L352.391 162.873V150.779L330.033 133.3L310.66 135.834L308.013 133.15ZM329.687 134.566L351.18 151.369V162.129L331.635 172.033L318.342 170.196L303.134 142.583L301.249 143.857L299.34 140.47L307.857 134.716L310.221 137.111L329.687 134.566Z" fill="black"/>
<path d="M342.109 156.321L337.874 146.64L326.377 136.959L308.83 135.144C312.218 137.08 320.326 151.682 323.957 158.742L331.823 161.767L342.109 156.321Z" fill="#9EDAF2"/>
<path fill-rule="evenodd" clip-rule="evenodd" d="M308.894 134.542L308.532 135.669C308.874 135.865 309.321 136.251 309.861 136.835C310.394 137.411 310.988 138.149 311.628 139.015C312.906 140.745 314.34 142.956 315.788 145.336C318.682 150.096 321.61 155.498 323.421 159.019L323.526 159.224L331.865 162.431L342.891 156.594L338.373 146.269L326.626 136.376L308.894 134.542ZM326.132 137.542L337.378 147.012L341.332 156.05L331.785 161.104L324.391 158.26C322.565 154.719 319.68 149.406 316.821 144.707C315.365 142.313 313.91 140.068 312.601 138.296C311.947 137.41 311.324 136.634 310.75 136.014C310.728 135.99 310.707 135.967 310.685 135.944L326.132 137.542Z" fill="black"/>
<path d="M380.228 50.382C410.724 57.643 419.155 82.4513 419.559 93.9478V98.1834L399.591 77.0056L378.413 91.5275L359.656 80.6361L331.217 95.158L329.402 130.253L325.771 141.749L317.3 138.724C301.326 83.5405 314.275 67.3243 322.746 66.1141C342.592 47.7197 369.337 47.9617 380.228 50.382Z" fill="#8CD3F1"/>
<path fill-rule="evenodd" clip-rule="evenodd" d="M380.093 50.9722C410.24 58.1522 418.552 82.6493 418.954 93.9589V96.6601L399.676 76.2141L378.387 90.8127L359.675 79.9476L330.631 94.7784L328.802 130.145L325.384 140.969L317.796 138.259C309.902 110.88 309.186 93.228 311.449 82.3022C313.721 71.3285 318.952 67.2679 322.832 66.7136L323.019 66.6868L323.157 66.5584C342.805 48.3485 369.314 48.5783 380.093 50.9722ZM322.471 65.5448C342.5 47.0954 369.379 47.3515 380.36 49.7918L380.369 49.7939C411.201 57.1349 419.754 82.2396 420.164 93.9271L420.164 93.9377V99.7076L399.506 77.798L378.44 92.2433L359.637 81.3254L331.804 95.5385L330.002 130.362L326.159 142.531L316.805 139.19L316.719 138.893C308.72 111.258 307.936 93.2979 310.264 82.0568C312.558 70.9781 317.92 66.3003 322.471 65.5448Z" fill="black"/>
<path d="M342.715 148.456C365.95 161.525 389.104 155.515 397.777 150.876L413.509 136.354L415.93 104.89L393.542 80.6865L373.574 100.654L350.581 80.6865L326.983 98.8389V126.673L342.715 148.456Z" fill="white"/>
<path fill-rule="evenodd" clip-rule="evenodd" d="M393.556 79.814L373.543 99.8277L350.602 79.9054L326.375 98.5411V126.868L342.3 148.918L342.416 148.983C365.874 162.178 389.253 156.12 398.06 151.41L398.128 151.373L414.092 136.637L416.551 104.673L393.556 79.814ZM350.555 81.4679L373.601 101.481L393.522 81.5594L415.304 105.107L412.922 136.071L397.422 150.379C388.844 154.933 366.037 160.819 343.125 147.993L327.586 126.477V99.137L350.555 81.4679Z" fill="black"/>
<path d="M382.044 107.31C382.044 122.682 390.442 135.143 400.801 135.143C411.161 135.143 419.559 122.682 419.559 107.31C419.559 91.9376 406.852 92.7878 400.801 79.4761C390.442 79.4761 382.044 91.9376 382.044 107.31Z" fill="#737E84"/>
<path d="M322.745 104.89C322.745 120.262 340.824 132.724 351.184 132.724C361.543 132.724 369.941 120.262 369.941 104.89C369.941 89.5177 357.235 90.3679 351.184 77.0562C340.824 77.0562 322.745 89.5177 322.745 104.89Z" fill="#737E84"/>
<path d="M390.516 114.571C390.516 119.249 393.225 123.042 396.566 123.042C399.908 123.042 402.617 119.249 402.617 114.571C402.617 109.892 399.908 106.1 396.566 106.1C393.225 106.1 390.516 109.892 390.516 114.571Z" fill="#051C2C"/>
<path d="M345.742 113.361C345.742 118.039 348.451 121.832 351.793 121.832C355.135 121.832 357.844 118.039 357.844 113.361C357.844 108.682 355.135 104.89 351.793 104.89C348.451 104.89 345.742 108.682 345.742 113.361Z" fill="#051C2C"/>
<path d="M393.428 119.65C394.071 120.822 395.305 121.381 396.184 120.898C397.063 120.415 397.254 119.074 396.61 117.903C395.967 116.731 394.733 116.172 393.854 116.655C392.975 117.137 392.785 118.479 393.428 119.65Z" fill="#FEFFFF"/>
<path d="M348.655 118.44C349.298 119.611 350.532 120.17 351.411 119.688C352.289 119.205 352.48 117.864 351.837 116.692C351.193 115.521 349.959 114.962 349.081 115.445C348.202 115.927 348.011 117.268 348.655 118.44Z" fill="#FEFFFF"/>
<path d="M372.877 121.655C375.585 119.956 378.142 120.645 379.739 121.636C380.365 122.024 380.308 122.888 379.719 123.33L375.995 126.123L372.82 123.402C372.261 122.922 372.253 122.047 372.877 121.655Z" fill="#051C2C"/>
<path fill-rule="evenodd" clip-rule="evenodd" d="M378.808 122.497L376.041 124.572L373.702 122.568C375.683 121.416 377.521 121.795 378.808 122.497ZM380.372 120.608C378.508 119.451 375.44 118.615 372.229 120.63C370.789 121.534 370.965 123.41 372.028 124.321L375.94 127.674L380.441 124.298C381.023 123.861 381.369 123.195 381.39 122.498C381.411 121.779 381.077 121.045 380.372 120.608ZM371.216 131.915C375.019 129.38 378.336 130.882 379.438 131.827L381.013 129.989C379.292 128.513 374.784 126.627 369.873 129.901L371.216 131.915Z" fill="#051C2C"/>
<path d="M396.566 135.144L395.355 147.245V152.086L417.743 138.169L419.559 97.0236L392.935 69.1899L375.388 87.3423L354.21 69.1899L317.905 88.5525L320.931 132.118H313.67L315.485 139.984C320.325 144.825 338.881 148.455 347.554 149.666V132.118L332.427 124.857L330.007 97.0236L353 83.1068L375.388 102.469L392.935 83.1068L409.877 98.8389V126.067L396.566 135.144Z" fill="#3DB5E7"/>
<path fill-rule="evenodd" clip-rule="evenodd" d="M392.935 68.3174L375.346 86.5124L354.287 68.462L317.272 88.2036L320.279 131.514H312.906L314.932 140.29L315.054 140.413C316.354 141.712 318.516 142.883 321.087 143.93C323.676 144.983 326.748 145.936 329.926 146.772C336.282 148.443 343.114 149.658 347.468 150.265L348.157 150.361V131.738L332.997 124.462L330.64 97.3467L352.934 83.8526L375.436 103.314L392.97 83.9673L409.27 99.1031V125.748L395.989 134.803L394.748 147.216V153.175L418.331 138.515L420.172 96.7925L392.935 68.3174ZM354.127 69.9188L375.424 88.1731L392.93 70.0633L418.94 97.2555L417.15 137.824L395.958 150.998V147.276L397.137 135.485L410.48 126.388V98.5754L392.895 82.2471L375.334 101.625L353.06 82.3617L329.369 96.7014L331.852 125.254L346.946 132.499V148.969C342.617 148.338 336.208 147.173 330.234 145.602C327.083 144.773 324.066 143.835 321.544 142.809C319.093 141.812 317.171 140.755 316.032 139.675L314.428 132.724H321.576L318.533 88.9023L354.127 69.9188Z" fill="black"/>
<path d="M446.284 155.203L447.391 240.428C434.82 251.562 419.945 259.589 414.078 262.211C393.462 256.402 376.157 245.269 370.081 240.428L366.802 154.143C366.536 147.14 372.256 141.375 379.262 141.588L434.55 143.264C441.027 143.461 446.2 148.724 446.284 155.203Z" fill="#3DB5E7"/>
<path fill-rule="evenodd" clip-rule="evenodd" d="M367.407 154.12C367.154 147.467 372.589 141.99 379.244 142.192L434.533 143.869C440.686 144.055 445.6 149.055 445.68 155.211L446.783 240.158C434.454 251.022 419.956 258.89 414.032 261.569C393.842 255.838 376.868 244.998 370.676 240.126L367.407 154.12ZM379.281 140.983C371.925 140.76 365.919 146.812 366.198 154.166L369.488 240.728L369.705 240.901C375.831 245.782 393.207 256.958 413.915 262.793L414.126 262.853L414.326 262.763C420.234 260.123 435.165 252.064 447.793 240.881L448 240.697L446.89 155.195C446.801 148.392 441.37 142.865 434.569 142.659L379.281 140.983Z" fill="black"/>
<path d="M441.105 238.008L439.478 164.912C439.334 158.421 434.094 153.201 427.604 153.081L386.826 152.326C379.812 152.196 374.157 158.039 374.516 165.045L378.252 238.008C391.326 248.173 408.003 254.345 414.707 256.16C420.741 254.224 434.82 243.252 441.105 238.008Z" fill="#9EDAF2"/>
<path fill-rule="evenodd" clip-rule="evenodd" d="M386.839 151.721C379.474 151.585 373.537 157.719 373.914 165.076L377.664 238.315L377.883 238.485C391.039 248.715 407.798 254.916 414.551 256.744L414.723 256.791L414.894 256.736C416.474 256.229 418.536 255.148 420.811 253.761C423.095 252.367 425.63 250.641 428.167 248.815C433.241 245.165 438.344 241.101 441.495 238.472L441.719 238.286L440.085 164.898C439.934 158.084 434.432 152.603 427.617 152.476L386.839 151.721ZM375.122 165.014C374.781 158.358 380.153 152.808 386.816 152.931L427.594 153.686C433.761 153.801 438.738 158.76 438.875 164.925L440.496 237.729C437.347 240.348 432.388 244.288 427.46 247.833C424.938 249.648 422.429 251.356 420.18 252.728C418.008 254.053 416.112 255.044 414.692 255.528C407.963 253.678 391.689 247.612 378.844 237.699L375.122 165.014Z" fill="black"/>
<path d="M395.222 222.54L390.822 143.88C376.24 142.427 368.823 144.825 368.823 155.717L371.337 238.877C386.422 250.495 405.488 258.379 412.821 260.396C418.352 260.396 437.752 246.68 446.133 239.823V231.352C441.105 237.645 428.115 240.289 421.62 241.298L395.222 222.54Z" fill="#2C80A4" fill-opacity="0.5"/>
<path d="M346.947 149.06V141.799L331.215 134.538L326.375 92.7875L354.208 72.8199L375.386 88.552L392.934 69.1894L375.386 82.5012L354.208 69.1894L339.687 74.0301C336.298 62.8966 352.393 54.4658 360.864 51.6421C328.916 51.6421 318.509 79.4758 318.509 92.7875L321.534 135.748H316.693L318.509 140.589L346.947 149.06Z" fill="#2A7FA4" fill-opacity="0.5"/>
<path d="M349.973 152.691L343.317 149.543C328.504 146.859 317.941 144.104 314.878 140.248C314.878 138.774 314.273 138.169 314.273 136.354L308.222 134.539C304.592 136.836 301.566 138.774 299.146 140.589L300.961 143.615L302.776 142.405L319.719 167.695L329.4 170.721L340.291 165.88L331.215 167.695L325.164 164.065L322.139 161.039C331.82 165.88 337.064 161.443 338.476 158.619C330.731 162.008 323.954 153.98 321.534 149.543C323.954 150.511 342.107 152.489 349.973 152.691Z" fill="#2A7FA4" fill-opacity="0.5"/>
<path d="M279.18 174.473L278.575 164.792L265.263 159.346L259.212 164.792C259.212 168.664 264.053 173.263 266.473 175.078C269.377 176.53 276.154 175.28 279.18 174.473Z" fill="white"/>
<path fill-rule="evenodd" clip-rule="evenodd" d="M265.138 158.643L258.605 164.523V164.792C258.605 166.949 259.934 169.208 261.463 171.089C263.013 172.994 264.866 174.631 266.108 175.563L266.152 175.595L266.2 175.62C267.03 176.034 268.09 176.237 269.215 176.314C270.35 176.391 271.599 176.343 272.836 176.225C275.311 175.99 277.795 175.468 279.334 175.058L279.812 174.93L279.153 164.376L265.138 158.643ZM277.992 165.209L278.543 174.012C277.046 174.385 274.875 174.816 272.722 175.021C271.524 175.135 270.345 175.178 269.297 175.106C268.267 175.036 267.408 174.858 266.789 174.561C265.611 173.671 263.86 172.118 262.402 170.325C260.982 168.578 259.926 166.707 259.823 165.054L265.383 160.05L277.992 165.209Z" fill="black"/>
<path d="M265.867 171.448L271.312 164.792C269.497 164.187 266.472 158.741 265.262 159.951L260.421 164.187C261.873 167.575 264.858 170.843 265.867 171.448Z" fill="#8ED3F2"/>
<path d="M307.619 114.571L353 18.9678L348.159 0.81543L333.032 6.86623L285.231 103.679L294.912 112.15L307.619 114.571Z" fill="white"/>
<path fill-rule="evenodd" clip-rule="evenodd" d="M348.567 0L332.591 6.39031L284.481 103.828L294.636 112.714L307.964 115.252L353.641 19.0264L348.567 0ZM347.749 1.63045L352.357 18.9089L307.604 113.189L301.031 100.044L341.442 16.205L340.352 15.6795L299.936 99.527L286.344 102.789L333.471 7.34175L347.749 1.63045ZM286.509 103.994L300.031 100.749L306.53 113.747L295.186 111.586L286.509 103.994Z" fill="black"/>
<path d="M340.894 14.7322L345.734 4.4458L334.843 9.28644L287.647 102.469L300.353 99.4434L340.894 14.7322Z" fill="#8CD3F1"/>
<path d="M321.539 125.461H311.253C309.801 117.232 303.79 118.402 300.966 120.015L282.814 111.544C282.33 106.219 274.343 103.073 270.712 106.703L266.477 97.6272L277.368 90.3662L279.789 99.4424L313.068 115.78L320.329 111.544L321.539 125.461Z" fill="white"/>
<path fill-rule="evenodd" clip-rule="evenodd" d="M277.735 89.3945L265.709 97.4123L270.529 107.742L271.14 107.131C272.722 105.55 275.337 105.381 277.72 106.328C280.097 107.273 281.997 109.237 282.212 111.599L282.243 111.945L300.995 120.696L301.267 120.541C302.605 119.776 304.645 119.154 306.47 119.633C308.215 120.09 309.959 121.611 310.657 125.566L310.745 126.066H322.199L320.849 110.54L313.043 115.094L280.302 99.0208L277.735 89.3945ZM277.001 91.3384L279.275 99.8645L313.093 116.466L319.809 112.548L320.879 124.856H311.753C310.936 120.924 309.014 119.049 306.778 118.462C304.664 117.907 302.438 118.553 300.945 119.338L283.375 111.138C282.96 108.348 280.706 106.213 278.167 105.203C275.788 104.258 272.959 104.224 270.924 105.726L267.245 97.8425L277.001 91.3384Z" fill="black"/>
<path d="M305.805 111.545L300.359 100.653L288.862 103.679L305.805 111.545Z" fill="#8CD3F1"/>
<path fill-rule="evenodd" clip-rule="evenodd" d="M300.685 99.9424L287.09 103.52L307.125 112.822L300.685 99.9424ZM300.042 101.363L304.494 110.266L290.645 103.836L300.042 101.363Z" fill="black"/>
<path d="M278.577 164.791C280.029 159.95 294.511 132.923 301.57 120.015L282.813 111.544C282.329 119.289 271.72 146.639 265.265 158.74C266.718 164.549 274.745 165.194 278.577 164.791Z" fill="#9EDAF2"/>
<path fill-rule="evenodd" clip-rule="evenodd" d="M282.263 110.632L282.208 111.507C282.092 113.365 281.359 116.466 280.195 120.309C279.036 124.134 277.468 128.644 275.711 133.295C272.196 142.601 267.941 152.437 264.731 158.456L264.622 158.661L264.678 158.887C265.477 162.082 268.082 163.805 270.847 164.673C273.614 165.541 276.666 165.601 278.64 165.393L279.041 165.351L279.156 164.965C279.502 163.813 280.654 161.265 282.333 157.834C284.002 154.425 286.166 150.195 288.507 145.709C293.189 136.738 298.572 126.758 302.101 120.306L302.414 119.733L282.263 110.632ZM300.726 120.298C297.195 126.763 291.984 136.431 287.434 145.149C285.091 149.638 282.921 153.879 281.246 157.302C279.737 160.385 278.607 162.847 278.125 164.225C276.27 164.374 273.605 164.27 271.21 163.518C268.713 162.735 266.627 161.292 265.911 158.814C269.142 152.715 273.36 142.945 276.844 133.723C278.606 129.055 280.184 124.519 281.353 120.66C282.362 117.326 283.079 114.459 283.333 112.443L300.726 120.298Z" fill="black"/>
<path d="M271.923 163.581L274.949 155.11C276.966 156.32 280.637 158.377 281.605 156.925L283.42 152.085L277.369 149.664L292.496 116.385L285.84 113.359L273.134 147.97L271.318 147.244L265.873 158.74C265.873 159.951 267.688 162.976 271.923 163.581Z" fill="#4285A2"/>
<path d="M314.278 123.041L320.934 124.856H311.857C309.437 116.627 303.991 118.2 300.966 119.41L283.419 111.544C280.998 103.799 274.342 103.678 270.712 106.099L267.687 98.8377L275.553 93.9971L273.132 102.468C280.877 101.016 285.234 106.704 286.444 109.729L300.361 116.385C308.106 113.481 312.866 119.612 314.278 123.041Z" fill="#9EDAF2"/>
<path d="M290.068 138.774C290.068 142.116 291.964 144.825 294.304 144.825C296.643 144.825 298.539 142.116 298.539 138.774C298.539 135.432 296.643 132.723 294.304 132.723C291.964 132.723 290.068 135.432 290.068 138.774Z" fill="#737E84"/>
<path fill-rule="evenodd" clip-rule="evenodd" d="M292.3 142.359C291.692 141.491 291.278 140.227 291.278 138.774C291.278 137.321 291.692 136.057 292.3 135.189C292.91 134.318 293.637 133.933 294.304 133.933C294.97 133.933 295.697 134.318 296.307 135.189C296.915 136.057 297.329 137.321 297.329 138.774C297.329 140.227 296.915 141.491 296.307 142.359C295.697 143.23 294.97 143.615 294.304 143.615C293.637 143.615 292.91 143.23 292.3 142.359ZM294.304 144.825C291.964 144.825 290.068 142.116 290.068 138.774C290.068 135.432 291.964 132.723 294.304 132.723C296.643 132.723 298.539 135.432 298.539 138.774C298.539 142.116 296.643 144.825 294.304 144.825Z" fill="black"/>
<path d="M263.449 137.564C263.449 146.921 270.222 154.506 278.576 154.506C286.931 154.506 293.703 146.921 293.703 137.564C293.703 128.207 286.931 120.622 278.576 120.622C270.222 120.622 263.449 128.207 263.449 137.564Z" fill="#737E84"/>
<path fill-rule="evenodd" clip-rule="evenodd" d="M278.576 153.296C271.015 153.296 264.659 146.385 264.659 137.564C264.659 128.743 271.015 121.832 278.576 121.832C286.137 121.832 292.493 128.743 292.493 137.564C292.493 146.385 286.137 153.296 278.576 153.296ZM278.576 154.506C270.222 154.506 263.449 146.921 263.449 137.564C263.449 128.207 270.222 120.622 278.576 120.622C286.931 120.622 293.703 128.207 293.703 137.564C293.703 146.921 286.931 154.506 278.576 154.506Z" fill="black"/>
<path d="M275.03 144.3C278.753 147.342 283.572 149.399 286.438 150.271C278.208 156.564 270.504 151.683 267.68 148.456C263.323 139.258 267.478 130.908 270.1 127.883V129.089C270.1 134.712 270.676 140.742 275.03 144.3Z" fill="#041B2B"/>
<path fill-rule="evenodd" clip-rule="evenodd" d="M270.706 126.26L269.644 127.486C266.923 130.625 262.641 139.229 267.134 148.714L267.17 148.79L267.225 148.853C268.702 150.541 271.435 152.647 274.884 153.519C278.363 154.4 282.538 154.014 286.806 150.751L287.742 150.035L286.614 149.691C283.798 148.834 279.057 146.808 275.413 143.831C271.304 140.473 270.706 134.731 270.706 129.089V126.26ZM269.498 129.699C269.541 135.145 270.216 141.146 274.648 144.768C277.986 147.496 282.17 149.438 285.114 150.472C281.501 152.863 278.064 153.076 275.181 152.346C272.056 151.555 269.552 149.649 268.191 148.119C264.583 140.42 267.12 133.339 269.498 129.699Z" fill="black"/>
<g filter="url(#filter0_ii_231_32874)">
<path d="M313.42 115.364L337.483 135.628C341.916 143.86 327.352 145.127 327.352 138.161L310.887 125.496L308.988 128.029L292.523 115.364L295.056 111.565C279.859 96.3673 290.624 95.7341 300.755 107.132C303.251 103.415 305.547 99.9474 307.721 96.6845C309.572 93.9068 311.335 91.2773 313.059 88.7683C314.569 86.5714 316.049 84.4669 317.531 82.436C319.629 79.5621 321.733 76.8357 323.935 74.2039C324.83 73.134 325.741 72.0798 326.675 71.0377C329.044 68.3944 331.557 65.8287 334.317 63.2825C337.007 60.801 339.93 58.3381 343.182 55.8401C340.649 22.2783 378.011 57.7397 350.148 62.1724C348.059 65.8079 346.101 69.1624 344.226 72.3041C342.205 75.6887 340.281 78.8264 338.392 81.8027C337.848 82.6597 337.306 83.5034 336.767 84.3357C334.69 87.5393 332.634 90.5749 330.518 93.559C329.264 95.3266 327.989 97.0761 326.675 98.8318C324.488 101.756 322.193 104.696 319.712 107.765C317.745 110.199 315.661 112.713 313.42 115.364Z" fill="#578A9D"/>
</g>
<path d="M350.148 62.1724C378.011 57.7397 340.649 22.2783 343.182 55.8401M350.148 62.1724C346.404 60.2183 345.112 58.714 343.182 55.8401M350.148 62.1724C348.059 65.8079 346.101 69.1624 344.226 72.3041M313.42 115.364L337.483 135.628C341.916 143.86 327.352 145.127 327.352 138.161L310.887 125.496M313.42 115.364C315.661 112.713 317.745 110.199 319.712 107.765M313.42 115.364C308.394 112.294 305.937 110.17 302.022 105.866M310.887 125.496L308.988 128.029L292.523 115.364L295.056 111.565M310.887 125.496L295.056 111.565M295.056 111.565C279.859 96.3673 290.624 95.7341 300.755 107.132C303.251 103.415 305.547 99.9474 307.721 96.6845M343.182 55.8401C339.93 58.3381 337.007 60.801 334.317 63.2825M334.317 63.2825C337.71 68.7899 339.815 71.0331 344.226 72.3041M334.317 63.2825C331.557 65.8287 329.044 68.3944 326.675 71.0377M344.226 72.3041C342.205 75.6887 340.281 78.8264 338.392 81.8027M326.675 71.0377C330.646 75.5613 332.828 78.1209 338.392 81.8027M326.675 71.0377C325.741 72.0798 324.83 73.134 323.935 74.2039M338.392 81.8027C337.848 82.6597 337.306 83.5034 336.767 84.3357M323.935 74.2039C328.649 79.1253 331.267 81.9648 336.767 84.3357M323.935 74.2039C321.733 76.8357 319.629 79.5621 317.531 82.436M336.767 84.3357C334.69 87.5393 332.634 90.5749 330.518 93.559M317.531 82.436C321.997 88.2072 324.693 90.9879 330.518 93.559M317.531 82.436C316.049 84.4669 314.569 86.5714 313.059 88.7683M330.518 93.559C329.264 95.3266 327.989 97.0761 326.675 98.8318M313.059 88.7683C317.749 92.9213 320.408 95.2388 326.675 98.8318M313.059 88.7683C311.335 91.2773 309.572 93.9068 307.721 96.6845M326.675 98.8318C324.488 101.756 322.193 104.696 319.712 107.765M307.721 96.6845C311.473 101.696 313.808 104.336 319.712 107.765" stroke="black" stroke-width="0.590351"/>
<mask id="mask0_231_32874" style="mask-type:alpha" maskUnits="userSpaceOnUse" x="125" y="117" width="218" height="164">
<path d="M136.595 213.784C115.735 208.455 127.73 166.924 142.294 154.893L174.589 117.532H294.271L325.3 154.893C343.185 178.123 346.197 206.185 337.964 211.884C327.199 220.75 312.002 208.085 305.669 198.586C305.499 204.005 305.757 206.923 306.936 211.884C319.601 244.813 309.066 267.609 299.97 270.142C249.944 284.073 197.386 281.54 170.156 272.675L166.357 270.142C148.569 258.801 150.977 239.458 162.558 197.32C154.959 202.386 149.259 214.417 136.595 213.784Z" fill="white" stroke="black" stroke-width="0.590351"/>
</mask>
<g mask="url(#mask0_231_32874)">
<g filter="url(#filter1_i_231_32874)">
<path d="M136.595 213.784C115.735 208.455 127.73 166.924 142.294 154.893L174.589 117.532H294.271L325.3 154.893C343.185 178.123 346.197 206.185 337.964 211.884C327.199 220.75 312.002 208.085 305.669 198.586C305.499 204.005 305.757 206.923 306.936 211.884C319.601 244.813 309.066 267.609 299.97 270.142C249.944 284.073 197.386 281.54 170.156 272.675L166.357 270.142C148.569 258.801 150.977 239.458 162.558 197.32C154.959 202.386 149.259 214.417 136.595 213.784Z" fill="white"/>
</g>
<path d="M136.595 213.784C115.735 208.455 127.73 166.924 142.294 154.893L174.589 117.532H294.271L325.3 154.893C343.185 178.123 346.197 206.185 337.964 211.884C327.199 220.75 312.002 208.085 305.669 198.586C305.499 204.005 305.757 206.923 306.936 211.884C319.601 244.813 309.066 267.609 299.97 270.142C249.944 284.073 197.386 281.54 170.156 272.675L166.357 270.142C148.569 258.801 150.977 239.458 162.558 197.32C154.959 202.386 149.259 214.417 136.595 213.784Z" stroke="black" stroke-width="0.590351"/>
<g filter="url(#filter2_i_231_32874)">
<path d="M312.821 209.984C251.491 151.782 216.121 157.769 151.978 209.984C131.233 224.505 122.986 219.606 114.617 186.555L173.508 116.265H295.723C311.765 137.373 343.85 180.096 343.85 182.122C358.837 212.554 333.45 227.78 312.821 209.984Z" fill="#364650"/>
</g>
<path d="M312.821 209.984C251.491 151.782 216.121 157.769 151.978 209.984C131.233 224.505 122.986 219.606 114.617 186.555L173.508 116.265H295.723C311.765 137.373 343.85 180.096 343.85 182.122C358.837 212.554 333.45 227.78 312.821 209.984Z" stroke="black" stroke-width="0.590351"/>
<path d="M165.279 183.388C172.245 176.423 177.944 181.489 172.245 187.821C150.268 210.062 137.275 224.771 127.918 204.918C134.721 216.818 144.5 207.935 165.279 183.388Z" fill="#C4C4C4"/>
<path d="M165.279 183.388C172.245 176.423 177.944 181.489 172.245 187.821C150.268 210.062 137.275 224.771 127.918 204.918C134.721 216.818 144.5 207.935 165.279 183.388Z" fill="#001222"/>
<path d="M304.388 184.844C297.422 177.879 291.723 182.944 297.422 189.277C319.399 211.518 332.392 226.227 341.749 206.374C345.118 199.226 336.398 176.178 326.121 159.325L322.321 166.291C343.851 206.374 336.253 225.182 304.388 184.844Z" fill="#C4C4C4"/>
<path d="M304.388 184.844C297.422 177.879 291.723 182.944 297.422 189.277C319.399 211.518 332.392 226.227 341.749 206.374C345.118 199.226 336.398 176.178 326.121 159.325L322.321 166.291C343.851 206.374 336.253 225.182 304.388 184.844Z" fill="#001222"/>
</g>
<path d="M248.868 244.815C271.665 227.718 282.596 211.643 305.226 211.887C312.825 246.715 309.026 258.225 298.261 261.913C229.871 285.343 159.582 274.578 154.516 249.248C155.314 235.393 157.16 227.151 162.114 211.887C186.178 211.887 188.077 224.552 215.94 244.815C221.006 249.881 239.37 251.939 248.868 244.815Z" fill="#334551" stroke="#324651" stroke-width="0.590351"/>
<g filter="url(#filter3_d_231_32874)">
<path d="M159.594 209.985C159.579 199.287 161.581 196.339 165.926 192.254L207.087 173.257L192.522 163.758L205.82 139.695L231.15 159.326L257.746 142.228L270.411 163.758L255.213 172.624L303.339 195.42L305.239 211.884C305.239 211.884 260.032 199.966 231.15 184.655C202.68 201.342 186.843 209.08 159.594 209.985Z" fill="#041B29" stroke="black" stroke-width="0.590351"/>
<path d="M162.759 206.819C160.859 194.154 169.725 191.621 181.756 189.088C162.759 190.354 159.318 198.858 159.593 209.985L172.258 208.085L162.759 206.819Z" fill="white"/>
<path d="M243.811 153.756C237.603 160.53 232.838 163.408 222.281 167.054C230.135 161.349 234.83 158.42 243.811 153.756Z" fill="white"/>
<path d="M230.514 161.263C224.681 159.093 221.639 156.826 216.583 151.094C222.192 154.582 225.248 156.792 230.514 161.263Z" fill="white"/>
<path d="M272.529 183.753C264.827 181.986 260.622 179.636 253.31 173.258C260.948 176.72 265.16 178.996 272.529 183.753Z" fill="white"/>
</g>
<g filter="url(#filter4_i_231_32874)">
<path d="M162.793 74.4714C203.32 -26.8466 287.541 12.4142 300.206 74.4714C307.172 80.8039 302.47 85.9656 293.874 98.5346V108.033C264.745 143.495 207.12 151.093 169.126 108.033V97.9013L166.592 93.4687C158.704 85.5034 159.239 81.4606 162.793 74.4714Z" fill="#8DB4BE"/>
</g>
<path d="M162.793 74.4714C203.32 -26.8466 287.541 12.4142 300.206 74.4714C307.172 80.8039 302.47 85.9656 293.874 98.5346V108.033C264.745 143.495 207.12 151.093 169.126 108.033V97.9013L166.592 93.4687C158.704 85.5034 159.239 81.4606 162.793 74.4714Z" stroke="black" stroke-width="1.1807"/>
<g filter="url(#filter5_i_231_32874)">
<path d="M233.034 40.2769L205.172 52.9416L170.344 107.4C198.839 146.028 262.163 144.761 293.192 107.4L258.997 54.2081L246.332 47.2425L233.034 40.2769Z" fill="white"/>
</g>
<g filter="url(#filter6_ii_231_32874)">
<path d="M178.628 6.7152C191.4 1.25615 200.158 8.61485 203.958 16.847C203.958 16.847 206.491 21.4028 206.491 25.079C206.491 30.7782 178.628 56.1077 167.23 47.2424C152.37 30.3591 167.23 13.6808 178.628 6.7152Z" fill="#364955"/>
</g>
<path d="M178.628 6.7152C191.4 1.25615 200.158 8.61485 203.958 16.847C203.958 16.847 206.491 21.4028 206.491 25.079C206.491 30.7782 178.628 56.1077 167.23 47.2424C152.37 30.3591 167.23 13.6808 178.628 6.7152Z" stroke="black" stroke-width="0.590351"/>
<g filter="url(#filter7_ii_231_32874)">
<path d="M285.645 6.69567C272.873 1.23662 264.115 8.59532 260.316 16.8275C260.316 16.8275 257.783 21.3832 257.783 25.0595C257.783 30.7587 285.645 56.0882 297.044 47.2229C311.903 30.3396 297.044 13.6612 285.645 6.69567Z" fill="#364955"/>
</g>
<path d="M285.645 6.69567C272.873 1.23662 264.115 8.59532 260.316 16.8275C260.316 16.8275 257.783 21.3832 257.783 25.0595C257.783 30.7587 285.645 56.0882 297.044 47.2229C311.903 30.3396 297.044 13.6612 285.645 6.69567Z" stroke="black" stroke-width="0.590351"/>
<ellipse cx="203.423" cy="80.2788" rx="21.019" ry="27.5826" transform="rotate(16.4346 203.423 80.2788)" fill="#2C4349"/>
<ellipse cx="204.591" cy="79.5386" rx="7.59886" ry="10.1318" fill="#001422"/>
<ellipse cx="207.759" cy="80.8049" rx="1.89972" ry="2.53295" fill="#FFFEF9"/>
<ellipse rx="21.019" ry="27.5826" transform="matrix(-0.959143 0.282922 0.282922 0.959143 260.421 81.5449)" fill="#2C4349"/>
<ellipse rx="7.59886" ry="10.1318" transform="matrix(-1 0 0 1 259.253 80.8047)" fill="#001422"/>
<ellipse rx="1.89972" ry="2.53295" transform="matrix(-1 0 0 1 256.085 82.071)" fill="#FFFEF9"/>
<path d="M233.403 94.7071C232.931 95.3492 231.971 95.3492 231.5 94.7071L226.155 87.4334C225.582 86.6536 226.139 85.5535 227.106 85.5535H237.796C238.764 85.5535 239.32 86.6536 238.747 87.4334L233.403 94.7071Z" fill="black"/>
<path d="M226.754 97.2686C229.106 101.575 234.659 101.1 236.715 97.5846C236.771 97.4808 236.828 97.3755 236.886 97.2686C236.832 97.3765 236.775 97.4818 236.715 97.5846C232.863 104.635 230.656 104.415 226.754 97.2686Z" fill="black" stroke="black" stroke-width="0.590351"/>
<g filter="url(#filter8_d_231_32874)">
<path d="M221.05 30.7778L231.815 39.0099L243.847 30.7778L276.142 45.9756L293.239 77.6375L283.741 88.4025L286.274 91.5687L300.838 75.1045C310.952 84.244 296.01 93.6948 284.374 107.4L267.91 88.4025L281.208 73.838L269.81 52.3079L246.38 41.5429L231.815 52.3079L217.884 40.9096L191.921 52.3079L180.523 75.1045L194.454 90.9355L179.89 108.033L177.99 106.133C161.515 89.4792 154.145 80.9931 164.059 76.371L177.357 91.5687L179.89 88.4025L170.391 77.0042L184.322 47.242L221.05 30.7778Z" fill="#7ABACD"/>
<path d="M221.05 30.7778L231.815 39.0099L243.847 30.7778L276.142 45.9756L293.239 77.6375L283.741 88.4025L286.274 91.5687L300.838 75.1045C310.952 84.244 296.01 93.6948 284.374 107.4L267.91 88.4025L281.208 73.838L269.81 52.3079L246.38 41.5429L231.815 52.3079L217.884 40.9096L191.921 52.3079L180.523 75.1045L194.454 90.9355L179.89 108.033L177.99 106.133C161.515 89.4792 154.145 80.9931 164.059 76.371L177.357 91.5687L179.89 88.4025L170.391 77.0042L184.322 47.242L221.05 30.7778Z" stroke="black" stroke-width="0.856009"/>
</g>
<ellipse cx="214.037" cy="21.2795" rx="3.79943" ry="6.33238" transform="rotate(62.4201 214.037 21.2795)" fill="#FEFFFB"/>
<g filter="url(#filter9_i_231_32874)">
<path d="M140.05 151.727C136.251 138.429 148.283 127.664 151.449 135.896L193.876 129.563L209.073 135.896L187.543 163.125H152.082L140.05 151.727Z" fill="#53A3C4"/>
</g>
<path d="M140.05 151.727C136.251 138.429 148.283 127.664 151.449 135.896L193.876 129.563L209.073 135.896L187.543 163.125H152.082L140.05 151.727Z" stroke="black" stroke-width="0.590351"/>
<g filter="url(#filter10_i_231_32874)">
<path d="M323.692 152.36C327.491 139.062 315.459 128.297 312.293 136.529L269.867 130.197L254.669 136.529L276.199 163.758H311.66L323.692 152.36Z" fill="#53A3C4"/>
</g>
<path d="M323.692 152.36C327.491 139.062 315.459 128.297 312.293 136.529L269.867 130.197L254.669 136.529L276.199 163.758H311.66L323.692 152.36Z" stroke="black" stroke-width="0.590351"/>
<g filter="url(#filter11_i_231_32874)">
<path d="M152.078 135.262C152.078 127.663 164.743 116.265 172.975 114.365C179.604 119.839 184.083 122.888 193.239 128.296C192.736 138.658 190.738 143.288 183.74 149.193H157.144L152.078 135.262Z" fill="#8DB0B6"/>
</g>
<path d="M152.078 135.262C152.078 127.663 164.743 116.265 172.975 114.365C179.604 119.839 184.083 122.888 193.239 128.296C192.736 138.658 190.738 143.288 183.74 149.193H157.144L152.078 135.262Z" stroke="black" stroke-width="0.590351"/>
<ellipse cx="165.985" cy="123.744" rx="3.79943" ry="5.06591" transform="rotate(48.0296 165.985 123.744)" fill="#FFFEFB"/>
<path d="M153.978 138.428C154.611 126.396 164.11 120.697 171.075 118.798L169.176 116.265C159.677 120.064 152.711 129.563 152.078 135.262L153.978 138.428Z" fill="#FFFEFB"/>
<g filter="url(#filter12_i_231_32874)">
<path d="M311.656 134.629C311.656 127.03 298.991 115.632 290.759 113.732C284.13 119.206 279.651 122.255 270.496 127.664C270.998 138.025 272.996 142.655 279.994 148.561H306.59L311.656 134.629Z" fill="#8DB0B6"/>
</g>
<path d="M311.656 134.629C311.656 127.03 298.991 115.632 290.759 113.732C284.13 119.206 279.651 122.255 270.496 127.664C270.998 138.025 272.996 142.655 279.994 148.561H306.59L311.656 134.629Z" stroke="black" stroke-width="0.590351"/>
<g filter="url(#filter13_i_231_32874)">
<path d="M182.146 290.406C174.568 289.845 159.983 282.174 171.381 273.309L220.141 278.375C215.075 288.506 199.244 291.673 182.146 290.406Z" fill="#0A202D" stroke="#061B2C" stroke-width="1.1807"/>
<path d="M284.729 290.406C292.307 289.845 306.892 282.174 295.494 273.309L246.734 278.375C251.8 288.506 267.631 291.673 284.729 290.406Z" fill="#0A202D" stroke="#061B2C" stroke-width="1.1807"/>
</g>
<g filter="url(#filter14_ii_231_32874)">
<ellipse cx="187.586" cy="283.036" rx="17.6455" ry="5.06591" transform="rotate(2.81899 187.586 283.036)" fill="#2A6988"/>
</g>
<g filter="url(#filter15_ii_231_32874)">
<ellipse rx="17.6455" ry="5.06591" transform="matrix(-0.99879 0.0491808 0.0491808 0.99879 276.242 283.036)" fill="#2A6988"/>
</g>
<defs>
<filter id="filter0_ii_231_32874" x="287.199" y="41.2485" width="74.2114" height="102.319" filterUnits="userSpaceOnUse" color-interpolation-filters="sRGB">
<feFlood flood-opacity="0" result="BackgroundImageFix"/>
<feBlend mode="normal" in="SourceGraphic" in2="BackgroundImageFix" result="shape"/>
<feColorMatrix in="SourceAlpha" type="matrix" values="0 0 0 0 0 0 0 0 0 0 0 0 0 0 0 0 0 0 127 0" result="hardAlpha"/>
<feOffset dx="-2.95176" dy="-2.3614"/>
<feComposite in2="hardAlpha" operator="arithmetic" k2="-1" k3="1"/>
<feColorMatrix type="matrix" values="0 0 0 0 0.2 0 0 0 0 0.270588 0 0 0 0 0.317647 0 0 0 1 0"/>
<feBlend mode="normal" in2="shape" result="effect1_innerShadow_231_32874"/>
<feColorMatrix in="SourceAlpha" type="matrix" values="0 0 0 0 0 0 0 0 0 0 0 0 0 0 0 0 0 0 127 0" result="hardAlpha"/>
<feOffset dx="1.1807" dy="2.3614"/>
<feGaussianBlur stdDeviation="0.295176"/>
<feComposite in2="hardAlpha" operator="arithmetic" k2="-1" k3="1"/>
<feColorMatrix type="matrix" values="0 0 0 0 1 0 0 0 0 1 0 0 0 0 1 0 0 0 1 0"/>
<feBlend mode="normal" in2="effect1_innerShadow_231_32874" result="effect2_innerShadow_231_32874"/>
</filter>
<filter id="filter1_i_231_32874" x="125.086" y="116.646" width="217.531" height="163.606" filterUnits="userSpaceOnUse" color-interpolation-filters="sRGB">
<feFlood flood-opacity="0" result="BackgroundImageFix"/>
<feBlend mode="normal" in="SourceGraphic" in2="BackgroundImageFix" result="shape"/>
<feColorMatrix in="SourceAlpha" type="matrix" values="0 0 0 0 0 0 0 0 0 0 0 0 0 0 0 0 0 0 127 0" result="hardAlpha"/>
<feOffset dy="-7.67456"/>
<feGaussianBlur stdDeviation="0.295176"/>
<feComposite in2="hardAlpha" operator="arithmetic" k2="-1" k3="1"/>
<feColorMatrix type="matrix" values="0 0 0 0 0.0156863 0 0 0 0 0.105882 0 0 0 0 0.160784 0 0 0 1 0"/>
<feBlend mode="normal" in2="shape" result="effect1_innerShadow_231_32874"/>
</filter>
<filter id="filter2_i_231_32874" x="114.293" y="115.379" width="234.371" height="102.636" filterUnits="userSpaceOnUse" color-interpolation-filters="sRGB">
<feFlood flood-opacity="0" result="BackgroundImageFix"/>
<feBlend mode="normal" in="SourceGraphic" in2="BackgroundImageFix" result="shape"/>
<feColorMatrix in="SourceAlpha" type="matrix" values="0 0 0 0 0 0 0 0 0 0 0 0 0 0 0 0 0 0 127 0" result="hardAlpha"/>
<feOffset dy="-5.90351"/>
<feGaussianBlur stdDeviation="0.295176"/>
<feComposite in2="hardAlpha" operator="arithmetic" k2="-1" k3="1"/>
<feColorMatrix type="matrix" values="0 0 0 0 0 0 0 0 0 0 0 0 0 0 0 0 0 0 0.25 0"/>
<feBlend mode="normal" in2="shape" result="effect1_innerShadow_231_32874"/>
</filter>
<filter id="filter3_d_231_32874" x="158.707" y="139.251" width="147.466" height="75.3907" filterUnits="userSpaceOnUse" color-interpolation-filters="sRGB">
<feFlood flood-opacity="0" result="BackgroundImageFix"/>
<feColorMatrix in="SourceAlpha" type="matrix" values="0 0 0 0 0 0 0 0 0 0 0 0 0 0 0 0 0 0 127 0" result="hardAlpha"/>
<feOffset dy="1.77105"/>
<feGaussianBlur stdDeviation="0.295176"/>
<feComposite in2="hardAlpha" operator="out"/>
<feColorMatrix type="matrix" values="0 0 0 0 0.290196 0 0 0 0 0.682353 0 0 0 0 0.788235 0 0 0 1 0"/>
<feBlend mode="normal" in2="BackgroundImageFix" result="effect1_dropShadow_231_32874"/>
<feBlend mode="normal" in="SourceGraphic" in2="effect1_dropShadow_231_32874" result="shape"/>
</filter>
<filter id="filter4_i_231_32874" x="159.723" y="11.7549" width="144.438" height="126.383" filterUnits="userSpaceOnUse" color-interpolation-filters="sRGB">
<feFlood flood-opacity="0" result="BackgroundImageFix"/>
<feBlend mode="normal" in="SourceGraphic" in2="BackgroundImageFix" result="shape"/>
<feColorMatrix in="SourceAlpha" type="matrix" values="0 0 0 0 0 0 0 0 0 0 0 0 0 0 0 0 0 0 127 0" result="hardAlpha"/>
<feOffset dx="-7.67456" dy="-1.1807"/>
<feComposite in2="hardAlpha" operator="arithmetic" k2="-1" k3="1"/>
<feColorMatrix type="matrix" values="0 0 0 0 0.305882 0 0 0 0 0.662745 0 0 0 0 0.776471 0 0 0 1 0"/>
<feBlend mode="normal" in2="shape" result="effect1_innerShadow_231_32874"/>
</filter>
<filter id="filter5_i_231_32874" x="170.344" y="40.2769" width="122.848" height="95.6211" filterUnits="userSpaceOnUse" color-interpolation-filters="sRGB">
<feFlood flood-opacity="0" result="BackgroundImageFix"/>
<feBlend mode="normal" in="SourceGraphic" in2="BackgroundImageFix" result="shape"/>
<feColorMatrix in="SourceAlpha" type="matrix" values="0 0 0 0 0 0 0 0 0 0 0 0 0 0 0 0 0 0 127 0" result="hardAlpha"/>
<feOffset dx="-2.95176" dy="-0.737939"/>
<feComposite in2="hardAlpha" operator="arithmetic" k2="-1" k3="1"/>
<feColorMatrix type="matrix" values="0 0 0 0 0.505882 0 0 0 0 0.701961 0 0 0 0 0.788235 0 0 0 1 0"/>
<feBlend mode="normal" in2="shape" result="effect1_innerShadow_231_32874"/>
</filter>
<filter id="filter6_ii_231_32874" x="160.688" y="4.53906" width="46.0977" height="44.8623" filterUnits="userSpaceOnUse" color-interpolation-filters="sRGB">
<feFlood flood-opacity="0" result="BackgroundImageFix"/>
<feBlend mode="normal" in="SourceGraphic" in2="BackgroundImageFix" result="shape"/>
<feColorMatrix in="SourceAlpha" type="matrix" values="0 0 0 0 0 0 0 0 0 0 0 0 0 0 0 0 0 0 127 0" result="hardAlpha"/>
<feOffset dx="-2.3614" dy="2.95176"/>
<feComposite in2="hardAlpha" operator="arithmetic" k2="-1" k3="1"/>
<feColorMatrix type="matrix" values="0 0 0 0 0.0196078 0 0 0 0 0.109804 0 0 0 0 0.172549 0 0 0 1 0"/>
<feBlend mode="normal" in2="shape" result="effect1_innerShadow_231_32874"/>
<feColorMatrix in="SourceAlpha" type="matrix" values="0 0 0 0 0 0 0 0 0 0 0 0 0 0 0 0 0 0 127 0" result="hardAlpha"/>
<feOffset dx="-0.265658" dy="1.1807"/>
<feComposite in2="hardAlpha" operator="arithmetic" k2="-1" k3="1"/>
<feColorMatrix type="matrix" values="0 0 0 0 1 0 0 0 0 1 0 0 0 0 1 0 0 0 1 0"/>
<feBlend mode="normal" in2="effect1_innerShadow_231_32874" result="effect2_innerShadow_231_32874"/>
</filter>
<filter id="filter7_ii_231_32874" x="257.488" y="4.51953" width="46.0977" height="44.8623" filterUnits="userSpaceOnUse" color-interpolation-filters="sRGB">
<feFlood flood-opacity="0" result="BackgroundImageFix"/>
<feBlend mode="normal" in="SourceGraphic" in2="BackgroundImageFix" result="shape"/>
<feColorMatrix in="SourceAlpha" type="matrix" values="0 0 0 0 0 0 0 0 0 0 0 0 0 0 0 0 0 0 127 0" result="hardAlpha"/>
<feOffset dx="-2.3614" dy="2.95176"/>
<feComposite in2="hardAlpha" operator="arithmetic" k2="-1" k3="1"/>
<feColorMatrix type="matrix" values="0 0 0 0 0.0196078 0 0 0 0 0.109804 0 0 0 0 0.172549 0 0 0 1 0"/>
<feBlend mode="normal" in2="shape" result="effect1_innerShadow_231_32874"/>
<feColorMatrix in="SourceAlpha" type="matrix" values="0 0 0 0 0 0 0 0 0 0 0 0 0 0 0 0 0 0 127 0" result="hardAlpha"/>
<feOffset dx="0.265658" dy="1.1807"/>
<feComposite in2="hardAlpha" operator="arithmetic" k2="-1" k3="1"/>
<feColorMatrix type="matrix" values="0 0 0 0 1 0 0 0 0 1 0 0 0 0 1 0 0 0 1 0"/>
<feBlend mode="normal" in2="effect1_innerShadow_231_32874" result="effect2_innerShadow_231_32874"/>
</filter>
<filter id="filter8_d_231_32874" x="158.883" y="30.2832" width="145.731" height="80.7418" filterUnits="userSpaceOnUse" color-interpolation-filters="sRGB">
<feFlood flood-opacity="0" result="BackgroundImageFix"/>
<feColorMatrix in="SourceAlpha" type="matrix" values="0 0 0 0 0 0 0 0 0 0 0 0 0 0 0 0 0 0 127 0" result="hardAlpha"/>
<feOffset dx="-0.265658" dy="2.3614"/>
<feComposite in2="hardAlpha" operator="out"/>
<feColorMatrix type="matrix" values="0 0 0 0 0.52549 0 0 0 0 0.698039 0 0 0 0 0.796078 0 0 0 1 0"/>
<feBlend mode="normal" in2="BackgroundImageFix" result="effect1_dropShadow_231_32874"/>
<feBlend mode="normal" in="SourceGraphic" in2="effect1_dropShadow_231_32874" result="shape"/>
</filter>
<filter id="filter9_i_231_32874" x="139.02" y="129.259" width="70.5273" height="34.1611" filterUnits="userSpaceOnUse" color-interpolation-filters="sRGB">
<feFlood flood-opacity="0" result="BackgroundImageFix"/>
<feBlend mode="normal" in="SourceGraphic" in2="BackgroundImageFix" result="shape"/>
<feColorMatrix in="SourceAlpha" type="matrix" values="0 0 0 0 0 0 0 0 0 0 0 0 0 0 0 0 0 0 127 0" result="hardAlpha"/>
<feOffset dy="-2.3614"/>
<feComposite in2="hardAlpha" operator="arithmetic" k2="-1" k3="1"/>
<feColorMatrix type="matrix" values="0 0 0 0 0 0 0 0 0 0 0 0 0 0 0 0 0 0 0.75 0"/>
<feBlend mode="normal" in2="shape" result="effect1_innerShadow_231_32874"/>
</filter>
<filter id="filter10_i_231_32874" x="254.195" y="129.893" width="70.5273" height="34.1611" filterUnits="userSpaceOnUse" color-interpolation-filters="sRGB">
<feFlood flood-opacity="0" result="BackgroundImageFix"/>
<feBlend mode="normal" in="SourceGraphic" in2="BackgroundImageFix" result="shape"/>
<feColorMatrix in="SourceAlpha" type="matrix" values="0 0 0 0 0 0 0 0 0 0 0 0 0 0 0 0 0 0 127 0" result="hardAlpha"/>
<feOffset dy="-2.3614"/>
<feComposite in2="hardAlpha" operator="arithmetic" k2="-1" k3="1"/>
<feColorMatrix type="matrix" values="0 0 0 0 0 0 0 0 0 0 0 0 0 0 0 0 0 0 0.75 0"/>
<feBlend mode="normal" in2="shape" result="effect1_innerShadow_231_32874"/>
</filter>
<filter id="filter11_i_231_32874" x="151.781" y="114.045" width="41.7617" height="35.4434" filterUnits="userSpaceOnUse" color-interpolation-filters="sRGB">
<feFlood flood-opacity="0" result="BackgroundImageFix"/>
<feBlend mode="normal" in="SourceGraphic" in2="BackgroundImageFix" result="shape"/>
<feColorMatrix in="SourceAlpha" type="matrix" values="0 0 0 0 0 0 0 0 0 0 0 0 0 0 0 0 0 0 127 0" result="hardAlpha"/>
<feOffset dx="-2.3614" dy="1.1807"/>
<feComposite in2="hardAlpha" operator="arithmetic" k2="-1" k3="1"/>
<feColorMatrix type="matrix" values="0 0 0 0 0.164706 0 0 0 0 0.411765 0 0 0 0 0.533333 0 0 0 1 0"/>
<feBlend mode="normal" in2="shape" result="effect1_innerShadow_231_32874"/>
</filter>
<filter id="filter12_i_231_32874" x="270.191" y="113.412" width="41.7617" height="35.4434" filterUnits="userSpaceOnUse" color-interpolation-filters="sRGB">
<feFlood flood-opacity="0" result="BackgroundImageFix"/>
<feBlend mode="normal" in="SourceGraphic" in2="BackgroundImageFix" result="shape"/>
<feColorMatrix in="SourceAlpha" type="matrix" values="0 0 0 0 0 0 0 0 0 0 0 0 0 0 0 0 0 0 127 0" result="hardAlpha"/>
<feOffset dx="-1.77105" dy="7.08421"/>
<feComposite in2="hardAlpha" operator="arithmetic" k2="-1" k3="1"/>
<feColorMatrix type="matrix" values="0 0 0 0 0.164706 0 0 0 0 0.411765 0 0 0 0 0.533333 0 0 0 1 0"/>
<feBlend mode="normal" in2="shape" result="effect1_innerShadow_231_32874"/>
</filter>
<filter id="filter13_i_231_32874" x="166.59" y="272.697" width="133.695" height="18.564" filterUnits="userSpaceOnUse" color-interpolation-filters="sRGB">
<feFlood flood-opacity="0" result="BackgroundImageFix"/>
<feBlend mode="normal" in="SourceGraphic" in2="BackgroundImageFix" result="shape"/>
<feColorMatrix in="SourceAlpha" type="matrix" values="0 0 0 0 0 0 0 0 0 0 0 0 0 0 0 0 0 0 127 0" result="hardAlpha"/>
<feOffset dy="-1.1807"/>
<feComposite in2="hardAlpha" operator="arithmetic" k2="-1" k3="1"/>
<feColorMatrix type="matrix" values="0 0 0 0 0.196078 0 0 0 0 0.270588 0 0 0 0 0.337255 0 0 0 1 0"/>
<feBlend mode="normal" in2="shape" result="effect1_innerShadow_231_32874"/>
</filter>
<filter id="filter14_ii_231_32874" x="169.961" y="277.901" width="35.25" height="10.269" filterUnits="userSpaceOnUse" color-interpolation-filters="sRGB">
<feFlood flood-opacity="0" result="BackgroundImageFix"/>
<feBlend mode="normal" in="SourceGraphic" in2="BackgroundImageFix" result="shape"/>
<feColorMatrix in="SourceAlpha" type="matrix" values="0 0 0 0 0 0 0 0 0 0 0 0 0 0 0 0 0 0 127 0" result="hardAlpha"/>
<feOffset dy="-0.590351"/>
<feComposite in2="hardAlpha" operator="arithmetic" k2="-1" k3="1"/>
<feColorMatrix type="matrix" values="0 0 0 0 0.552941 0 0 0 0 0.690196 0 0 0 0 0.713726 0 0 0 1 0"/>
<feBlend mode="normal" in2="shape" result="effect1_innerShadow_231_32874"/>
<feColorMatrix in="SourceAlpha" type="matrix" values="0 0 0 0 0 0 0 0 0 0 0 0 0 0 0 0 0 0 127 0" result="hardAlpha"/>
<feOffset dy="2.3614"/>
<feComposite in2="hardAlpha" operator="arithmetic" k2="-1" k3="1"/>
<feColorMatrix type="matrix" values="0 0 0 0 0 0 0 0 0 0 0 0 0 0 0 0 0 0 0.5 0"/>
<feBlend mode="normal" in2="effect1_innerShadow_231_32874" result="effect2_innerShadow_231_32874"/>
</filter>
<filter id="filter15_ii_231_32874" x="258.617" y="277.901" width="35.25" height="10.269" filterUnits="userSpaceOnUse" color-interpolation-filters="sRGB">
<feFlood flood-opacity="0" result="BackgroundImageFix"/>
<feBlend mode="normal" in="SourceGraphic" in2="BackgroundImageFix" result="shape"/>
<feColorMatrix in="SourceAlpha" type="matrix" values="0 0 0 0 0 0 0 0 0 0 0 0 0 0 0 0 0 0 127 0" result="hardAlpha"/>
<feOffset dy="-0.590351"/>
<feComposite in2="hardAlpha" operator="arithmetic" k2="-1" k3="1"/>
<feColorMatrix type="matrix" values="0 0 0 0 0.552941 0 0 0 0 0.690196 0 0 0 0 0.713726 0 0 0 1 0"/>
<feBlend mode="normal" in2="shape" result="effect1_innerShadow_231_32874"/>
<feColorMatrix in="SourceAlpha" type="matrix" values="0 0 0 0 0 0 0 0 0 0 0 0 0 0 0 0 0 0 127 0" result="hardAlpha"/>
<feOffset dy="2.3614"/>
<feComposite in2="hardAlpha" operator="arithmetic" k2="-1" k3="1"/>
<feColorMatrix type="matrix" values="0 0 0 0 0 0 0 0 0 0 0 0 0 0 0 0 0 0 0.5 0"/>
<feBlend mode="normal" in2="effect1_innerShadow_231_32874" result="effect2_innerShadow_231_32874"/>
</filter>
<linearGradient id="paint0_linear_231_32874" x1="187.174" y1="205.881" x2="199.786" y2="225.082" gradientUnits="userSpaceOnUse">
<stop stop-color="#946F42"/>
<stop offset="1"/>
</linearGradient>
<linearGradient id="paint1_linear_231_32874" x1="51.0707" y1="107.191" x2="192.253" y2="110.956" gradientUnits="userSpaceOnUse">
<stop stop-color="#7E7E82"/>
<stop offset="1" stop-color="#B9B9B9"/>
</linearGradient>
</defs>
</svg>
