<svg width="626" height="396" viewBox="0 0 626 396" fill="none" xmlns="http://www.w3.org/2000/svg">
<path fill-rule="evenodd" clip-rule="evenodd" d="M537.109 332.848C537.109 332.848 548.406 287.559 561.36 276.236C574.313 264.914 604.588 272.122 607.149 276.236C609.709 280.35 543.85 332.848 543.85 332.848H537.109Z" fill="url(#paint0_radial_0_1)"/>
<g style="mix-blend-mode:multiply" opacity="0.5">
<path fill-rule="evenodd" clip-rule="evenodd" d="M607.221 276.496C607.221 276.496 566.323 266.541 537.109 332.848C537.109 332.698 558.445 264.963 607.221 276.496Z" fill="url(#paint1_linear_0_1)"/>
</g>
<path fill-rule="evenodd" clip-rule="evenodd" d="M512.07 335.111C512.07 335.111 511.802 232.854 565.174 227.535C572.262 226.828 525.557 337.863 525.557 337.863L512.07 335.111Z" fill="url(#paint2_radial_0_1)"/>
<g style="mix-blend-mode:multiply" opacity="0.5">
<path fill-rule="evenodd" clip-rule="evenodd" d="M518.328 337C518.328 337 525.252 253.068 565.904 227.531C565.904 227.531 530.055 245.444 522.535 337.863L518.328 337Z" fill="url(#paint3_linear_0_1)"/>
</g>
<path d="M569.854 124.569C578.555 129.725 580.643 139.392 580.32 141.004C579.998 142.615 579.676 144.549 578.065 146.16C576.453 147.771 573.553 149.705 573.553 149.705L559.696 146.482L547.604 135.525C547.604 135.525 550.504 122.957 554.218 121.668C557.931 120.379 561.153 119.412 569.854 124.569Z" fill="#737478" stroke="black" stroke-width="0.971047"/>
<path d="M567.75 141.97C568.266 143.002 572.262 146.912 574.195 148.738L573.229 149.705L559.694 146.482L547.77 135.848C547.77 135.848 548.737 130.369 550.67 126.502C552.604 122.635 554.538 121.99 554.538 121.99V128.113C561.305 132.625 567.106 140.681 567.75 141.97Z" fill="#0C1F2E"/>
<path d="M578.384 140.359C578.706 144.226 575.484 146.804 575.484 146.804C575.484 146.804 579.351 145.838 579.996 141.326C580.64 136.814 575.806 130.047 574.84 129.08C573.873 128.113 571.939 125.535 565.816 122.635C559.694 119.735 558.082 121.024 558.082 121.024C558.082 121.024 563.561 123.279 565.816 124.568C568.072 125.858 570.972 128.436 570.972 128.436C570.972 128.436 569.684 128.113 570.006 129.402C570.328 130.691 572.906 133.914 573.873 134.236C574.839 134.558 575.806 133.914 575.806 133.914C575.806 133.914 578.062 136.492 578.384 140.359Z" fill="#F7FBFE"/>
<path d="M490.457 125.644C494.647 129.511 493.035 134.022 493.035 134.022L485.301 145.946L468.221 153.036L462.421 144.182C462.421 144.182 460.487 134.837 470.799 127.747C481.112 120.657 486.268 121.777 490.457 125.644Z" fill="#6D7278" stroke="black" stroke-width="0.971047"/>
<path d="M491.104 129.511C492.135 129.511 492.607 130.37 492.715 130.8V133.378L467.901 152.713L464.678 147.235L468.223 144.012C468.223 144.012 465.323 141.434 466.934 138.212C468.545 134.989 472.09 131.122 478.535 128.222C484.981 125.321 487.559 130.8 487.559 130.8C488.311 130.37 490.072 129.511 491.104 129.511Z" fill="#0D1F2D"/>
<path d="M483.692 124.355C488.848 124.677 492.07 128.544 492.07 128.544C492.07 128.544 491.426 125.322 485.947 123.066C480.469 120.81 470.801 127.9 470.801 127.9C470.801 127.9 465.001 131.767 463.067 137.567C461.134 143.368 463.712 145.624 463.712 145.624C463.712 145.624 463.067 140.79 464.678 136.278C466.29 131.767 472.735 127.9 472.735 127.9C472.735 127.9 478.535 124.033 483.692 124.355Z" fill="#F9FFFF"/>
<path d="M575.195 234.724C567.156 228.286 562.508 224.782 551.993 220.222L491.73 218.933L472.717 300.465C470.913 309.984 472.449 314.845 477.873 320.122C477.873 320.122 470.461 322.056 470.139 326.245C469.817 330.435 475.618 335.591 490.119 332.691C504.621 329.79 504.943 326.89 504.943 326.89L506.877 304.976L539.425 311.099L544.259 332.691H562.95C562.95 332.691 571.973 332.046 570.684 326.568C569.395 321.089 563.594 319.478 563.594 319.478C570.226 313.067 569.82 308.453 567.461 299.82L575.195 234.724Z" fill="#76777C" stroke="#0B1E2C" stroke-width="0.971047"/>
<path d="M555.86 224.089C559.558 226.493 561.6 227.961 565.205 230.857L566.816 228.923C563.376 226.199 561.311 224.888 557.471 222.8L555.86 224.089Z" fill="white"/>
<path d="M530.081 252.448C555.862 252.77 572.297 260.505 572.297 260.505L569.397 285.318C569.397 285.318 543.294 293.375 522.991 293.375C502.689 293.375 474.975 290.475 474.975 290.475L486.254 257.604C486.254 257.604 504.3 252.126 530.081 252.448Z" fill="#FEFDFB"/>
<path d="M520.091 236.335C537.705 235.238 544.358 233.473 557.473 222.8L551.672 219.578L493.021 207.654L481.42 233.113L486.898 253.415L487.22 270.817L495.599 255.671C495.599 255.671 495.599 251.804 498.822 249.87C502.044 247.936 506.556 253.415 506.556 253.415C506.556 253.415 506.556 249.87 509.456 246.647C512.357 243.425 520.091 236.335 520.091 236.335Z" fill="#0C1F2E"/>
<path d="M497.529 228.601L486.572 238.591C486.572 238.591 507.197 250.514 522.987 263.405C538.778 276.295 555.213 294.341 555.213 294.341L563.27 283.062C563.27 283.062 548.123 266.305 533.622 253.737C519.12 241.169 497.529 228.601 497.529 228.601Z" fill="#A2662F" stroke="#0B1E2C" stroke-width="0.971047"/>
<path d="M545.225 306.91L546.836 325.279L519.122 308.843V299.176L538.78 297.242L566.816 294.986L567.461 301.109C559.7 304.319 554.881 305.64 545.225 306.91Z" fill="#071927"/>
<path d="M569.394 300.142C571.972 299.176 570.361 284.029 567.138 283.707C563.915 283.385 539.424 287.574 523.955 287.574C508.487 287.574 484.962 284.996 484.962 284.996L479.161 300.787C479.161 300.787 519.121 305.621 536.846 304.332C554.57 303.043 566.816 301.109 569.394 300.142Z" fill="#A2672C" stroke="#0B1E2C" stroke-width="0.971047"/>
<path d="M504.943 326.89L505.91 313.677L478.84 293.697C478.84 293.697 474.329 303.365 474.329 308.521C474.329 313.677 479.807 320.445 479.807 320.445C479.807 320.445 473.684 323.667 473.362 325.923C473.04 328.179 474.754 329.413 476.262 330.435C474.212 330.488 473.169 330.151 471.429 329.146C471.429 329.146 473.362 333.979 483.03 333.335C492.698 332.69 495.92 331.079 495.92 331.079C495.92 331.079 487.864 331.724 484.963 331.401C482.063 331.079 474.651 329.146 478.84 325.923C483.03 322.7 489.153 323.023 489.153 323.023C489.153 323.023 486.575 321.734 486.575 318.833C486.575 315.933 488.508 313.871 491.086 313.355C493.664 312.839 502.043 319.478 502.043 319.478C502.043 319.478 504.041 320.831 504.299 322.378C504.557 323.925 502.902 324.312 502.043 324.312C503.59 324.312 504.621 326.03 504.943 326.89Z" fill="#0C1F2D"/>
<path d="M547.159 267.917L543.936 276.295L500.753 241.814L504.621 232.468L494.953 226.345L485.93 241.814C485.93 241.814 505.265 251.191 517.511 261.504C523.665 266.686 533.129 275.559 538.458 280.485L535.88 286.608L544.903 286.318L543.936 286.608L548.125 293.697L566.172 290.152V282.74L547.159 267.917Z" fill="#0B0B0B" fill-opacity="0.47"/>
<path d="M563.59 320.122C570.68 325.278 569.069 330.434 569.069 330.434C569.069 330.434 571.647 327.534 569.391 323.989C567.135 320.444 563.59 320.122 563.59 320.122Z" fill="#FEFDFB"/>
<path d="M566.813 311.099C566.168 314.966 563.59 318.189 563.59 318.189C563.59 318.189 567.78 315.288 568.747 311.421C569.713 307.554 567.135 300.787 567.135 300.787C567.135 300.787 567.458 307.232 566.813 311.099Z" fill="#FEFDFB"/>
<path d="M532.012 253.415C524.278 246.97 507.198 236.013 507.198 236.013C507.198 236.013 524.922 249.87 530.401 254.704C535.879 259.538 548.125 271.139 548.447 271.461C548.77 271.784 550.703 271.139 549.736 269.85C548.77 268.561 539.746 259.86 532.012 253.415Z" fill="white"/>
<path d="M511.71 287.252L511.065 290.152C511.065 290.152 529.756 289.83 535.235 289.508C540.713 289.185 549.736 287.896 549.736 287.896L550.703 285.963C550.703 285.963 538.457 287.252 531.69 287.574C524.922 287.896 511.71 287.252 511.71 287.252Z" fill="white"/>
<path d="M570.039 300.142V297.242C551.014 300.606 540.184 301.443 520.734 302.076L523.312 308.521L570.039 300.142Z" fill="black" fill-opacity="0.46"/>
<path d="M442.104 266.027C443.393 266.994 454.349 266.672 454.994 266.027C455.638 265.383 454.027 254.748 452.738 253.137C451.449 251.526 440.814 252.17 440.17 252.815C439.525 253.459 440.815 265.061 442.104 266.027Z" fill="#837061" stroke="#0B1E2C" stroke-width="0.971047"/>
<path d="M452.74 253.781C453.707 255.071 453.707 260.227 453.707 260.549C453.707 260.871 453.063 261.193 452.74 260.549C452.418 259.904 453.063 256.037 451.129 255.071C449.195 254.104 442.106 254.426 442.106 254.426C441.783 257.316 441.719 259.083 441.783 262.482C440.957 259.434 440.721 257.471 440.817 253.137C440.817 253.137 451.773 252.492 452.74 253.781Z" fill="#F9FEFF"/>
<path d="M445.967 261.516C448.545 262.805 453.379 261.838 453.379 261.838L454.668 266.35C454.668 266.35 451.954 266.566 448.867 266.672C446.266 266.761 443.307 266.47 442.422 266.027C440.489 265.061 439.522 253.137 440.489 252.815C441.455 252.493 443.389 260.227 445.967 261.516Z" fill="black" fill-opacity="0.48"/>
<path d="M454.35 261.194L450.483 266.028C451.688 267.119 452.863 268.158 454.028 269.167C455.322 270.288 456.603 271.373 457.895 272.45C459.357 273.634 460.811 274.835 462.305 276.083C466.45 279.47 470.967 283.124 476.586 287.941L481.742 280.529C476.137 276.184 471.822 272.932 467.241 269.722C465.649 268.608 464.026 267.498 462.305 266.35C461.056 265.517 459.756 264.663 458.38 263.772C457.108 262.949 455.772 262.094 454.35 261.194Z" fill="url(#paint4_linear_0_1)"/>
<path d="M458.38 263.772C457.108 262.949 455.772 262.094 454.35 261.194L450.483 266.028C451.688 267.119 452.863 268.158 454.028 269.167M458.38 263.772C457.254 266.584 456.323 267.794 454.028 269.167M458.38 263.772C459.756 264.663 461.056 265.517 462.305 266.35M454.028 269.167C455.322 270.288 456.603 271.373 457.895 272.45M462.305 266.35C461.368 269.187 460.357 270.496 457.895 272.45M462.305 266.35C464.026 267.498 465.649 268.608 467.241 269.722M457.895 272.45C459.357 273.634 460.811 274.835 462.305 276.083M467.241 269.722C471.822 272.932 476.137 276.184 481.742 280.529L476.586 287.941C470.967 283.124 466.45 279.47 462.305 276.083M467.241 269.722C466.424 272.922 465.208 274.228 462.305 276.083" stroke="#0B1E2C" stroke-width="0.971047"/>
<path d="M458.217 265.706C458.217 266.028 460.795 267.639 460.795 267.639C461.429 267.35 461.451 267.111 461.439 266.672C461.439 266.672 459.828 265.706 459.506 265.383C459.183 265.061 458.217 264.809 458.217 265.061C458.217 265.313 458.217 265.383 458.217 265.706Z" fill="#FCFDFB"/>
<path d="M456.928 263.772L454.994 262.161C454.994 262.161 454.528 261.983 454.35 262.161C454.172 262.339 454.35 262.805 454.35 262.805L455.961 264.094C455.961 264.094 456.689 264.735 456.928 264.416C457.079 264.215 456.928 263.772 456.928 263.772Z" fill="#FCFDFB"/>
<path d="M540.391 308.888C537.491 305.343 500.109 280.529 500.109 280.529L486.252 286.974L484.318 301.798C484.318 301.798 519.444 327.579 523.311 329.512C527.178 331.446 558.438 336.924 558.438 336.924C558.438 336.924 543.291 312.433 540.391 308.888Z" fill="#F5F5FD" stroke="#0B1E2C" stroke-width="0.971047"/>
<path d="M486.572 288.908L552.312 333.379L522.665 329.19L486.572 303.409V288.908Z" fill="#BABBBD"/>
<path d="M539.1 310.777L552.312 333.335L530.399 318.511L527.821 302.72L539.1 310.777Z" fill="#E4E3E3"/>
<path d="M522.02 313.033L521.053 297.564L518.798 295.631L519.442 311.099L522.02 313.033Z" fill="#E4E3E3"/>
<path d="M495.276 266.672C495.92 266.672 509.133 276.662 509.133 276.662C509.133 276.662 492.698 289.874 490.764 291.808C488.831 293.742 484.319 314.688 484.319 314.688L469.817 305.343C469.817 305.343 472.395 284.718 474.007 281.174C475.618 277.629 494.631 266.672 495.276 266.672Z" fill="#847264" stroke="#0B1E2C" stroke-width="0.971047"/>
<path d="M495.924 267.316L493.991 268.283C493.991 268.283 505.592 276.662 505.592 276.984C505.592 277.306 488.834 289.23 488.19 290.519C487.545 291.808 483.356 311.788 483.356 311.788L472.077 304.376L471.755 297.286L470.466 305.343L484.001 314.044C484.001 314.044 488.512 294.386 490.123 292.13C491.735 289.875 508.492 276.984 508.492 276.984L495.924 267.316Z" fill="#FFFCF6"/>
<path d="M483.35 286.007C486.037 278.02 489.107 273.988 495.273 266.994C486.679 271.111 481.144 274.777 474.004 281.173C471.99 290.412 471.103 295.688 470.137 305.343L484.317 314.366C484.317 314.366 484.639 312.11 484.639 311.788C484.639 311.466 483.994 309.854 483.994 309.532C483.994 309.21 486.098 298.078 487.862 290.519L483.35 286.007Z" fill="#36404A" fill-opacity="0.76"/>
<path d="M484.321 279.84L495.922 242.78L483.676 233.435L467.885 243.425C467.885 243.425 461.44 268.561 461.44 273.717C461.44 278.873 463.052 290.152 471.753 290.152C480.453 290.152 484.321 279.84 484.321 279.84Z" fill="#74787B" stroke="#0B1E2C" stroke-width="0.971047"/>
<path d="M464.667 275.328C464.989 284.029 468.534 285.64 468.534 285.64C468.534 285.64 467.567 279.517 469.823 270.816C472.079 262.115 472.079 260.826 473.69 258.893C475.301 256.959 480.666 255.67 482.391 255.026C484.116 254.381 489.158 254.059 489.481 256.315C489.803 258.571 486.903 269.866 484.002 277.906C481.102 285.947 475.946 289.185 475.946 289.185C475.946 289.185 482.069 285.64 484.002 280.484C485.936 275.328 495.281 244.714 495.281 244.714L483.358 235.368L467.889 243.747L465.956 251.803L465.634 256.637C465.634 256.637 464.344 266.627 464.667 275.328Z" fill="#0B1E2C"/>
<path d="M507.527 230.534C507.527 229.245 504.305 224.734 500.115 221.511C495.926 218.288 494.959 217.966 494.959 217.966L487.547 214.744C487.547 214.744 473.69 214.744 468.856 219.9C464.022 225.056 464.345 236.013 464.345 236.013C464.345 236.013 462.733 236.335 462.089 236.657C461.444 236.979 457.577 243.102 460.478 248.258C463.378 253.415 476.591 254.059 488.836 247.292C501.082 240.524 507.527 231.823 507.527 230.534Z" fill="#5D6268"/>
<path d="M464.345 236.013C464.345 236.013 462.733 236.335 462.089 236.657C461.444 236.979 457.577 243.102 460.478 248.258C463.378 253.415 476.591 254.059 488.836 247.292C501.082 240.524 507.527 231.823 507.527 230.534C507.527 229.245 504.305 224.734 500.115 221.511C495.926 218.288 494.959 217.966 494.959 217.966M464.345 236.013C464.345 236.013 464.022 225.056 468.856 219.9C473.69 214.744 487.547 214.744 487.547 214.744L494.959 217.966M464.345 236.013C464.345 236.013 463.7 237.946 463.7 238.913C463.7 239.88 467.89 243.102 469.823 243.102C471.757 243.102 480.458 240.846 490.448 233.112C500.438 225.378 494.959 217.966 494.959 217.966" stroke="#0B1E2C" stroke-width="0.971047"/>
<path d="M503.662 226.345C503.018 226.023 500.762 225.701 500.44 226.345C500.117 226.99 502.695 230.212 502.696 230.857C502.696 231.501 497.862 237.624 493.672 241.169C489.483 244.714 483.038 248.843 475.304 250.192C467.569 251.541 461.769 246.003 461.769 246.003L463.058 242.136C463.058 242.136 465.636 245.036 469.181 245.358C472.725 245.68 476.27 242.136 476.27 242.136C476.27 242.136 472.081 243.747 469.503 243.425C466.925 243.102 465.314 241.491 464.347 240.524C463.38 239.558 462.736 236.98 462.736 236.98C462.736 236.98 461.124 238.913 460.48 241.169C459.835 243.425 460.157 245.036 460.48 246.003C460.802 246.969 463.38 253.092 473.692 251.803C484.005 250.514 488.194 247.292 494.317 243.425C500.44 239.558 506.885 231.823 506.563 230.212C506.24 228.601 504.307 226.667 503.662 226.345Z" fill="#FFFFFD"/>
<path d="M469.181 226.345C467.247 232.468 466.925 238.591 466.603 239.235C466.28 239.88 465.314 239.88 464.991 238.591C464.669 237.302 465.636 226.989 467.569 223.122C469.503 219.255 475.626 218.611 475.626 218.611C475.626 218.611 471.114 220.222 469.181 226.345Z" fill="#FFFFFD"/>
<path d="M565.526 211.844C567.781 198.631 572.293 168.983 572.293 166.405L530.722 132.246L471.104 165.438L481.094 215.711C481.094 215.711 504.297 229.245 525.888 227.634C547.479 226.023 565.526 211.844 565.526 211.844Z" fill="white" stroke="black" stroke-width="0.971047"/>
<ellipse rx="21.4622" ry="17.5393" transform="matrix(0.673623 0.739075 0.739075 -0.673623 553.577 191.504)" fill="#787677"/>
<ellipse rx="5.80065" ry="10.3123" transform="matrix(-1 0 0 1 548.77 190.897)" fill="#0E1E2D"/>
<ellipse rx="2.25581" ry="2.90032" transform="matrix(-1 0 0 1 549.74 197.02)" fill="#F7FFFF"/>
<path d="M527.18 195.731C527.18 195.731 531.691 196.053 531.691 197.664C531.691 199.275 526.858 202.176 526.858 202.176C526.858 202.176 521.057 198.631 521.379 197.02C521.701 195.408 527.18 195.731 527.18 195.731Z" fill="#0F2030"/>
<path d="M526.531 207.654C527.82 207.654 529.754 208.299 529.754 208.621C529.754 208.943 527.498 208.621 526.531 208.621C525.565 208.621 522.664 208.621 522.664 208.299C522.664 207.976 525.242 207.654 526.531 207.654Z" fill="#0F1F2E"/>
<ellipse rx="21.4622" ry="18.3127" transform="matrix(-0.777256 0.629185 0.629185 0.777256 494.786 190.415)" fill="#777578"/>
<ellipse rx="5.47839" ry="10.3123" transform="matrix(-1 0 0 1 500.756 190.252)" fill="#0D202E"/>
<ellipse rx="2.25581" ry="2.90032" transform="matrix(-1 0 0 1 501.4 196.375)" fill="#F8FFFF"/>
<path d="M493.023 211.521C502.832 221.378 510.151 223.385 527.183 226.345C507.367 226.891 497.465 224.253 480.455 217.966L471.11 164.794L500.758 148.036L545.229 143.525L571.332 166.727V210.232L547.807 221.511C547.807 221.511 547.807 211.843 548.129 210.877C548.452 209.91 561.664 205.721 562.631 203.787C563.598 201.853 565.209 176.395 563.598 170.594C561.987 164.794 546.84 156.093 546.84 156.093L514.615 160.604L514.292 182.196C514.292 182.196 503.658 176.073 502.691 173.495C501.724 170.917 500.758 160.604 500.758 160.604L494.312 165.438C489.102 183.902 489.059 193.5 493.023 211.521Z" fill="#0D0D0D" fill-opacity="0.5"/>
<path d="M578.96 213.485C580.953 201.942 581.194 194.02 580.893 178.681L578.637 174.491C579.042 166.476 578.731 161.754 576.382 152.578C576.382 152.578 565.103 139.365 552.857 131.631C540.611 123.897 523.531 120.03 523.531 120.03C521.275 119.708 506.452 121.963 495.172 128.409C483.893 134.854 465.202 149.355 465.202 149.355C465.202 149.355 461.335 177.392 461.658 184.159C461.874 188.712 462.383 197.933 462.987 204.461C463.281 207.636 463.597 210.174 463.913 211.229C464.88 214.451 485.533 224.848 496.139 226.053L494.85 209.618C494.85 209.618 481.638 205.106 481.315 204.461C480.993 203.817 480.671 174.814 480.671 174.814C490.411 164.045 505.162 152.9 506.129 154.834C507.096 156.767 507.678 165.617 507.096 173.202C507.096 173.202 524.82 187.704 529.976 188.026C530.272 188.045 530.596 188.026 530.943 187.974C536.645 187.121 548.723 177.299 549.634 175.78C550.601 174.169 550.897 163.544 550.601 155.478C556.885 159.395 564.458 166.113 566.714 172.558C568.97 179.003 568.647 201.239 566.714 204.139C564.78 207.039 554.146 211.551 554.146 211.551V225.408L578.96 213.485Z" fill="#D4DB0C"/>
<path d="M523.531 120.03C523.531 120.03 540.611 123.897 552.857 131.631C565.103 139.365 576.382 152.578 576.382 152.578C578.731 161.754 579.042 166.476 578.637 174.491M523.531 120.03C521.275 119.708 506.452 121.963 495.172 128.409C483.893 134.854 465.202 149.355 465.202 149.355C465.202 149.355 461.335 177.392 461.658 184.159C461.874 188.712 462.383 197.933 462.987 204.461M523.531 120.03C523.531 120.03 531.588 128.409 532.554 142.588C533.521 156.767 531.588 171.913 531.588 171.913M578.637 174.491L580.893 178.681C581.194 194.02 580.953 201.942 578.96 213.485L554.146 225.408V211.551C554.146 211.551 564.78 207.039 566.714 204.139C568.647 201.239 568.97 179.003 566.714 172.558C564.458 166.113 556.885 159.395 550.601 155.478C550.897 163.544 550.601 174.169 549.634 175.78C548.723 177.299 536.645 187.121 530.943 187.974M578.637 174.491C578.637 174.491 578.637 168.691 566.714 155.478C554.79 142.266 540.611 140.01 540.611 140.01C540.611 140.01 539.322 166.113 538.677 167.402C538.033 168.691 531.588 171.913 531.588 171.913M530.943 187.974C530.596 188.026 530.272 188.045 529.976 188.026C524.82 187.704 507.096 173.202 507.096 173.202C507.678 165.617 507.096 156.767 506.129 154.834C505.162 152.9 490.411 164.045 480.671 174.814C480.671 174.814 480.993 203.817 481.315 204.461C481.638 205.106 494.85 209.618 494.85 209.618L496.139 226.053C485.533 224.848 464.88 214.451 463.913 211.229C463.597 210.174 463.281 207.636 462.987 204.461M530.943 187.974L531.588 171.913M531.588 171.913L521.275 168.046C521.703 155.133 521.291 148.504 518.375 138.721C505.941 139.51 495.495 145.488 487.438 151.289C479.382 157.089 468.425 169.658 468.425 169.658V203.817L462.987 204.461" stroke="#0B1E2C" stroke-width="0.971047"/>
<path d="M577.67 210.907C576.703 213.807 574.77 214.774 574.77 214.774L578.637 213.162C578.637 213.162 579.604 207.684 579.926 204.139C580.248 200.594 580.57 179.003 580.57 179.003C580.57 179.003 577.348 168.369 565.424 154.834C553.501 141.299 541.255 140.654 541.255 140.654L540.288 160.634L542.544 143.232C542.544 143.232 551.889 145.81 558.657 151.611C565.424 157.412 573.803 169.98 573.803 169.98C573.803 169.98 571.869 170.624 571.547 173.525C571.225 176.425 571.547 179.003 573.158 181.903C574.77 184.804 577.67 185.126 577.67 185.126C577.67 185.126 578.637 208.006 577.67 210.907Z" fill="white"/>
<path d="M575.736 152.9L577.992 170.302L576.703 168.369C576.703 168.369 575.736 157.089 573.158 152.9C570.58 148.711 565.424 144.199 565.424 144.199L568.969 157.412L559.623 148.066C559.623 148.066 558.334 143.232 557.045 139.688C555.756 136.143 550.923 133.242 550.923 133.242L555.434 145.488L551.889 143.555C549.894 138.385 548.732 135.812 546.089 130.664C538.288 126.531 534.049 124.799 526.753 122.93L524.497 120.352C524.497 120.352 543.188 125.508 554.79 133.565C566.391 141.621 575.736 152.9 575.736 152.9Z" fill="#FBFAF8"/>
<path d="M494.85 225.408L493.561 211.229L480.993 204.784L480.348 175.136L493.561 159.99V149.677L508.707 139.043L490.661 146.133C490.748 139.317 491.867 136.078 494.528 130.664L466.169 150.322C461.67 173.975 461.684 187.24 463.913 210.906C463.913 210.906 468.747 215.096 477.77 219.607C486.793 224.119 494.85 225.408 494.85 225.408Z" fill="#202122" fill-opacity="0.5"/>
<path d="M491.951 211.873C492.596 213.484 494.529 225.73 494.529 225.73L494.207 210.262L481.317 204.461L480.028 178.036C480.028 178.036 479.061 204.139 479.383 205.106C479.705 206.073 491.307 210.262 491.951 211.873Z" fill="#F8FFFF"/>
<path d="M467.137 211.229C467.46 211.873 480.672 220.574 480.672 220.574C480.672 220.574 465.204 211.873 464.882 211.551C464.559 211.229 464.237 206.395 464.559 205.75C464.882 205.106 468.749 204.139 468.749 204.139L469.393 173.524L470.038 205.106L466.171 206.717C466.171 206.717 466.815 210.584 467.137 211.229Z" fill="#F8FFFF"/>
<path d="M502.586 154.189C493.45 161.175 488.718 165.299 481.317 173.202C481.317 173.202 485.184 167.402 489.051 163.534C492.918 159.667 502.586 154.189 502.586 154.189Z" fill="#F8FFFF"/>
<path d="M529.333 174.491C529.655 175.458 529.978 187.382 529.978 187.382C529.978 187.382 531.267 173.524 530.944 172.88C530.622 172.235 520.954 168.368 520.954 168.368C520.954 168.368 520.632 156.767 520.31 151.289C519.988 145.81 518.054 139.043 518.054 139.043C518.054 139.043 510.642 139.043 498.074 145.488C485.506 151.933 474.872 163.857 474.872 163.857C474.872 163.857 488.406 153.222 498.396 147.099C508.386 140.976 517.087 141.299 517.087 141.299C518.979 151.951 519.497 158.136 519.988 169.335C519.988 169.335 529.011 173.524 529.333 174.491Z" fill="#F8FFFF"/>
<path d="M529.979 132.92C531.59 138.399 532.234 153.545 532.234 153.545C532.234 153.545 529.979 136.787 528.367 131.953C526.756 127.119 522.567 121.963 522.567 121.963C522.567 121.963 509.032 123.575 495.175 131.309C481.318 139.043 468.105 149.678 467.138 151.289C466.171 152.9 464.372 180.352 463.593 198.983C463.593 198.983 461.938 178.036 462.949 170.624C463.96 163.212 465.849 150 465.849 150C465.849 150 487.441 131.631 501.298 126.153C515.155 120.674 523.533 120.352 523.533 120.352C523.533 120.352 528.367 127.442 529.979 132.92Z" fill="#FEFFFF"/>
<path d="M620.238 238.346C628.295 237.057 626.039 221.267 620.238 220.622C614.438 219.978 602.514 223.522 597.036 224.167C591.558 224.812 572.866 223.522 572.866 223.522C572.866 223.522 564.165 225.456 555.142 253.17C546.119 280.884 553.208 291.197 553.208 291.197C553.208 291.197 574.8 287.007 579.633 286.041C584.467 285.074 600.902 285.074 600.902 285.074C600.902 285.074 598.969 275.728 599.613 264.127C600.258 252.526 606.059 239.635 606.059 239.635C606.059 239.635 612.182 239.635 620.238 238.346Z" fill="#E2D1C1"/>
<path d="M606.059 239.635C606.059 239.635 612.182 239.635 620.238 238.346C628.295 237.057 626.039 221.267 620.238 220.622C614.438 219.978 602.514 223.522 597.036 224.167C591.558 224.812 572.866 223.522 572.866 223.522M606.059 239.635C606.059 239.635 600.258 252.526 599.613 264.127C598.969 275.728 600.902 285.074 600.902 285.074C600.902 285.074 584.467 285.074 579.633 286.041C574.8 287.007 553.208 291.197 553.208 291.197C553.208 291.197 546.119 280.884 555.142 253.17C564.165 225.456 572.866 223.522 572.866 223.522M606.059 239.635L577.056 243.18M572.866 223.522C580.278 225.456 583.501 240.28 577.056 243.18M577.056 243.18C573.366 243.052 569.644 239.635 571.577 236.735C573.511 233.835 580.408 234.479 580.408 234.479" stroke="#0B1E2C" stroke-width="0.971047"/>
<path d="M622.496 230.29C622.496 234.802 618.629 237.38 618.629 237.38C618.629 237.38 625.074 238.024 625.074 229.968C625.074 221.911 620.24 220.622 620.24 220.622C620.24 220.622 605.738 223.523 601.549 224.167C597.36 224.812 576.091 224.812 576.091 224.812C577.279 225.623 577.636 226.038 578.025 226.745C578.025 226.745 598.649 225.134 602.194 224.812C605.738 224.49 617.985 222.556 619.274 222.556C620.563 222.556 622.496 225.778 622.496 230.29Z" fill="#FDFDFF"/>
<path d="M604.123 242.858L605.734 238.991C605.734 238.991 599.074 240.276 594.778 240.924C588.016 241.945 577.376 242.858 577.376 242.858C577.376 242.858 579.309 240.924 579.954 238.991C580.598 237.057 579.954 232.223 579.631 231.256C579.309 230.29 576.409 223.522 572.542 224.167C568.675 224.811 566.741 229.967 565.774 232.545C564.808 235.123 564.163 242.535 569.641 244.791C575.12 247.047 584.788 244.147 588.332 243.824C591.877 243.502 604.123 242.858 604.123 242.858Z" fill="#050505" fill-opacity="0.49"/>
<path d="M609.211 258.738C609.936 253.382 607.921 247.136 603.41 245.847C598.898 244.558 594.065 251.003 592.453 256.16C590.842 261.316 593.129 268.431 598.576 268.405C603.833 268.381 608.505 263.947 609.211 258.738Z" fill="#717880" stroke="#0B1E2C" stroke-width="0.971047"/>
<path d="M605.666 251.97C604.377 248.103 600.188 247.459 600.188 247.459C600.188 247.459 603.41 245.847 605.988 248.103C608.566 250.359 608.567 255.193 608.244 258.093C607.922 260.993 605.666 263.571 605.666 263.571C605.666 263.571 606.955 255.837 605.666 251.97Z" fill="#FCFFFF"/>
<path fill-rule="evenodd" clip-rule="evenodd" d="M574.016 365.446C574.016 365.446 596.052 392.134 594.634 404.377C594.192 411.151 590.308 417.213 584.364 420.405V392.907C584.364 392.907 576.316 431.258 537.072 434.309C497.829 437.36 574.016 365.446 574.016 365.446Z" fill="url(#paint5_radial_0_1)"/>
<path fill-rule="evenodd" clip-rule="evenodd" d="M578.426 342.879V359.77L486.443 523.053L477.996 526.806L392.583 533.375L389.767 542.759L407.6 576.542L393.521 610.324L335.328 648.799H315.617L244.283 597.187L193.599 580.295L184.213 572.788L103.493 537.129L96.4721 508.976L65.3856 474.781L45.0742 352.15L578.426 342.879Z" fill="url(#paint6_linear_0_1)"/>
<path opacity="0.4" fill-rule="evenodd" clip-rule="evenodd" d="M345.261 490.853C346.199 493.95 380.7 502.048 383.516 500.705C386.332 499.361 397.594 496.973 400.635 492.756C403.676 488.539 435.699 392.297 436.938 384.535C438.177 376.773 340.268 362.778 331.821 364.308C323.374 365.838 318.681 379.235 319.319 384.535C319.958 389.834 345.261 490.853 345.261 490.853Z" fill="#FF5E31"/>
<path opacity="0.4" fill-rule="evenodd" clip-rule="evenodd" d="M333.735 496.329C326.553 510.902 318.618 525.087 309.963 538.825C307.979 540.596 199.639 580.267 192.152 581.096L182.793 573.561C182.793 573.561 186.087 387.299 192.152 379.764C198.217 372.23 302.139 358.328 306.332 360.701C310.525 363.075 338.527 482.012 333.735 496.329Z" fill="#FF5E31"/>
<path opacity="0.4" fill-rule="evenodd" clip-rule="evenodd" d="M65.8546 474.995C65.8546 474.995 131.667 496.738 144.419 495.81C157.171 494.882 174.92 486.497 179.842 472.917C184.764 459.338 186.964 383.573 183.869 378.935C180.774 374.297 69.9935 365.318 50.082 378.935L65.8546 474.995Z" fill="#FF5E31"/>
<g style="mix-blend-mode:multiply" opacity="0.5">
<path fill-rule="evenodd" clip-rule="evenodd" d="M47.905 370.586L49.1093 376.689C93.7139 367.399 139.734 367.399 184.339 376.689L190.549 400.381C190.549 400.381 191.264 383.133 193.748 378.812C196.232 374.491 302.293 356.447 308.54 359.631C314.788 362.815 327.359 425.628 327.359 425.628L327.999 420.358L319.229 382.679C319.229 382.679 319.831 364.673 331.762 362.133C343.693 359.593 431.575 371.572 435.79 388.024L428.263 412.929C428.263 412.929 473.427 366.871 551.938 408.266L579.676 358.683V341.625L46.3242 354.893L47.905 370.586Z" fill="url(#paint7_linear_0_1)"/>
</g>
<path fill-rule="evenodd" clip-rule="evenodd" d="M44.409 344.331C44.409 344.331 12.271 319.978 0.0315508 332.834C-1.24496 334.193 36.6373 352.119 36.6373 352.119C36.6373 352.119 6.60181 384.737 6.60181 389.328C6.60181 393.92 61.5292 360.861 88.2983 361.155C88.2983 361.155 94.3805 369.64 138.495 371.954C182.61 374.268 185.914 360.457 281.164 355.865C376.414 351.274 437.461 383.414 448.724 382.055C459.987 380.696 435.095 361.155 435.095 361.155C454.446 365.679 474.447 366.922 494.228 364.828C528.956 361.632 524.263 349.217 524.263 349.217L571.682 351.053C571.682 351.053 608.25 392.083 612.492 394.214C616.735 396.344 620.94 349.217 585.273 339.593C585.273 339.593 622.366 348.298 625.633 346.939C628.899 345.58 610.165 325.635 577.764 334.083L44.409 344.331Z" fill="url(#paint8_radial_0_1)"/>
<g style="mix-blend-mode:soft-light" opacity="0.8">
<path fill-rule="evenodd" clip-rule="evenodd" d="M45.0742 341.808C45.0742 341.808 120.876 352.909 295.456 352.909C463.616 352.909 578.426 331.595 578.426 331.595L45.0742 341.808Z" fill="#FFFF70"/>
</g>
<path fill-rule="evenodd" clip-rule="evenodd" d="M295.473 352.96C295.473 352.96 400.868 321.277 445.394 346.117C474.704 362.405 461.961 383.899 449.143 382.969C436.324 382.04 360.201 348.386 295.473 352.96Z" fill="url(#paint9_radial_0_1)"/>
<path fill-rule="evenodd" clip-rule="evenodd" d="M111.456 349.559C111.456 349.559 97.3971 371.565 104.836 375.117C112.274 378.668 125.812 354.848 197.816 352.918C197.667 352.918 150.359 344.386 111.456 349.559Z" fill="url(#paint10_radial_0_1)"/>
<path d="M85.605 115.279C91.5964 119.282 92.3599 128.654 87.3102 136.212C82.2605 143.771 70.707 146.813 64.7156 142.811C58.7242 138.808 57.9608 129.436 63.0104 121.877C68.0601 114.318 79.6136 111.276 85.605 115.279Z" fill="#626368"/>
<path fill-rule="evenodd" clip-rule="evenodd" d="M86.6991 135.805C91.6168 128.443 90.7259 119.584 85.1967 115.89C82.4435 114.051 78.3029 113.779 74.1542 114.95C70.0223 116.117 66.0323 118.677 63.6216 122.286C58.7038 129.647 59.5948 138.506 65.1239 142.2C67.8772 144.039 72.0177 144.311 76.1664 143.14C80.2983 141.974 84.2883 139.413 86.6991 135.805ZM87.3102 136.213C92.3599 128.654 91.5964 119.282 85.605 115.279C79.6136 111.277 68.0601 114.319 63.0104 121.878C57.9608 129.436 58.7242 138.808 64.7156 142.811C70.707 146.814 82.2605 143.772 87.3102 136.213Z" fill="black"/>
<path d="M81.3094 114.179C91.9421 116.572 90.6748 126.713 88.7379 131.905C86.5169 139.821 80.5654 142.446 72.9056 141.647L78.6818 136.294L82.434 130.205C83.5869 122.327 75.6987 115.387 72.2067 115.718C79.1272 114.332 78.3263 113.798 81.3094 114.179Z" fill="black"/>
<path d="M150.5 120.842C156.491 124.845 157.254 134.217 152.205 141.775C147.155 149.334 135.602 152.376 129.61 148.374C123.619 144.371 122.855 134.999 127.905 127.44C132.955 119.881 144.508 116.839 150.5 120.842Z" fill="#626368"/>
<path fill-rule="evenodd" clip-rule="evenodd" d="M151.594 141.368C156.511 134.006 155.62 125.147 150.091 121.453C147.338 119.614 143.197 119.342 139.049 120.513C134.917 121.68 130.927 124.24 128.516 127.849C123.598 135.21 124.489 144.069 130.018 147.763C132.772 149.602 136.912 149.874 141.061 148.703C145.193 147.537 149.183 144.976 151.594 141.368ZM152.205 141.776C157.254 134.217 156.491 124.845 150.5 120.842C144.508 116.84 132.955 119.882 127.905 127.441C122.855 134.999 123.619 144.371 129.61 148.374C135.602 152.377 147.155 149.335 152.205 141.776Z" fill="black"/>
<path d="M146.204 119.742C156.837 122.135 155.569 132.276 153.632 137.468C151.411 145.384 145.46 148.009 137.8 147.21L143.576 141.857L147.329 135.768C148.481 127.89 140.593 120.95 137.101 121.281C144.022 119.895 143.221 119.361 146.204 119.742Z" fill="black"/>
<path d="M62.6579 335.762C62.0764 331.304 60.9135 322.04 60.9135 320.644L94.0562 207.075H174.675C174.546 206.952 174.419 206.82 174.297 206.68C170.398 202.224 174.664 207.031 174.696 207.096C178.012 210.23 183.506 208.169 185.926 206.68C193.368 209.006 195.229 221.216 195.229 227.031C192.438 240.52 179.336 250.87 173.134 254.359C172.203 260.406 185.15 295.642 191.74 312.504C195.927 321.342 196.198 332.08 195.81 336.344C204.183 342.856 200.85 349.523 198.136 352.043H167.901L145.805 332.274L105.685 331.111L88.8232 349.136H63.8208C54.0524 348.671 58.9754 340.026 62.6579 335.762Z" fill="#737E84"/>
<path fill-rule="evenodd" clip-rule="evenodd" d="M174.448 207.657H94.4913L61.4952 320.724C61.5149 321.489 61.7912 324.026 62.1441 326.986C62.5072 330.031 62.943 333.459 63.2336 335.687L63.2672 335.945L63.0971 336.142C61.272 338.256 59.2097 341.382 58.7675 343.971C58.5497 345.246 58.7386 346.296 59.43 347.059C60.0746 347.77 61.2494 348.336 63.2585 348.515C63.306 347.74 63.4433 346.762 63.7289 345.826C64.0896 344.644 64.7333 343.377 65.8856 342.801L66.4056 343.841C65.6973 344.195 65.1781 345.061 64.8411 346.165C64.5899 346.989 64.4658 347.862 64.4212 348.554H88.57L105.439 330.522L146.034 331.698L168.122 351.461H197.902C199.132 350.249 200.436 348.161 200.549 345.664C200.665 343.097 199.524 339.97 195.453 336.803L195.202 336.607L195.23 336.291C195.613 332.086 195.34 321.464 191.214 312.753L191.205 312.735L191.198 312.716C187.901 304.279 183.013 291.246 179.065 279.562C177.092 273.721 175.35 268.209 174.159 263.775C173.564 261.558 173.104 259.602 172.822 258.003C172.544 256.425 172.426 255.13 172.558 254.27L172.601 253.991L172.848 253.852C175.899 252.135 180.678 248.712 185.035 244.048C189.381 239.395 193.27 233.549 194.647 226.971C194.64 224.109 194.178 219.703 192.817 215.735C191.471 211.81 189.305 208.474 185.995 207.315C184.723 208.059 182.786 208.892 180.731 209.196C178.606 209.511 176.265 209.269 174.448 207.657ZM175.125 206.701C176.6 208.074 178.578 208.34 180.561 208.046C182.557 207.751 184.461 206.898 185.62 206.185L185.846 206.046L186.098 206.125C190.093 207.373 192.505 211.239 193.917 215.358C195.339 219.504 195.81 224.076 195.81 227.031V227.09L195.797 227.148C194.372 234.036 190.325 240.089 185.885 244.842C181.563 249.468 176.833 252.903 173.678 254.717C173.631 255.392 173.725 256.427 173.968 257.801C174.241 259.352 174.692 261.273 175.283 263.473C176.464 267.873 178.196 273.358 180.167 279.19C184.104 290.843 188.981 303.847 192.274 312.274C196.412 321.025 196.766 331.567 196.415 336.081C200.521 339.365 201.844 342.752 201.711 345.717C201.576 348.702 199.969 351.133 198.531 352.469L198.364 352.624H167.678L145.575 332.849L105.93 331.699L89.0745 349.717H63.8061L63.7922 349.716C61.2806 349.597 59.5727 348.947 58.5686 347.84C57.5507 346.718 57.369 345.253 57.6212 343.776C58.1039 340.949 60.2253 337.734 62.047 335.581C61.7568 333.35 61.3395 330.06 60.9894 327.124C60.6289 324.1 60.3312 321.387 60.3312 320.644V320.561L93.6193 206.494H173.361C172.72 205.76 172.388 205.377 172.265 205.231C172.246 205.208 172.229 205.189 172.216 205.173C172.211 205.166 172.202 205.156 172.194 205.144C172.19 205.14 172.181 205.128 172.172 205.114C172.167 205.107 172.157 205.092 172.146 205.072C172.144 205.069 172.103 204.998 172.083 204.9C172.074 204.825 172.103 204.602 172.169 204.467C172.306 204.323 172.608 204.209 172.736 204.213C172.799 204.225 172.893 204.258 172.924 204.273C172.943 204.284 172.974 204.303 172.986 204.311C173.022 204.336 173.048 204.36 173.052 204.364C173.066 204.377 173.079 204.39 173.083 204.395C173.096 204.408 173.112 204.425 173.128 204.442C173.191 204.511 173.309 204.642 173.455 204.805C173.748 205.133 174.163 205.602 174.507 205.992C174.679 206.188 174.834 206.365 174.948 206.495C175.004 206.56 175.051 206.614 175.085 206.654C175.1 206.671 175.113 206.687 175.125 206.701Z" fill="black"/>
<path d="M146.97 290.409C133.016 300.177 113.634 299.906 105.687 298.549L101.617 262.499C110.92 269.011 124.1 265.213 129.527 262.499C146.738 251.8 167.321 261.142 175.462 267.151L180.113 281.106C166.74 279.361 148.133 290.409 146.97 290.409Z" fill="white"/>
<path d="M70.3044 330.568L66.9399 329.126C63.9881 327.861 62.0742 324.958 62.0742 321.747C62.0742 319.557 62.9687 317.462 64.5503 315.948L86.2216 295.199C88.2712 293.237 89.5325 290.593 89.7682 287.765L94.4803 231.22C94.9132 226.025 98.8286 221.793 103.974 220.959C110.736 219.863 116.956 224.964 116.986 231.814C117 235.225 116.94 237.869 116.731 238.078C116.373 238.436 120.567 235.386 124.2 232.722C125.572 231.716 125.391 229.617 123.869 228.856C123.064 228.453 122.572 227.614 122.612 226.715L123.127 215.402L143.303 224.714C148.936 227.314 155.617 225.034 158.487 219.535L162.095 212.619C164.871 207.299 171.675 205.606 176.62 209.006L173.132 215.983L161.938 236.131C161.648 236.653 161.325 237.16 160.928 237.606C156.221 242.907 149.361 242.12 144.319 240.347C141.237 239.263 137.043 239.924 134.541 242.024C131.772 244.348 132.569 247.376 135.774 249.048C143.647 253.155 154.218 254.519 162.709 254.7C168.395 254.821 173.647 258.382 175.144 263.869L176.039 267.151L192.32 314.83C196.971 325.296 195.421 333.824 195.227 336.925C200.802 339.315 201.468 344.613 200.587 348.338C199.96 350.986 197.226 352.043 194.505 352.043H172.923C170.062 352.043 167.301 350.988 165.169 349.08L146.385 332.274L146.966 329.366L165.512 346.91C167.398 348.694 169.963 349.576 172.547 349.33L180.1 348.611C180.435 348.579 180.691 348.298 180.691 347.962C180.691 347.455 181.243 347.142 181.678 347.402L182.924 348.15C183.345 348.403 183.883 348.423 184.324 348.205C197.997 341.467 183.832 338.269 174.876 337.507L176.72 333.82C178.142 330.976 178.337 327.673 177.26 324.682L156.851 267.963C143.594 267.009 132.74 262.821 126.042 259.088C123.349 257.587 119.848 258.021 117.922 260.428C117.149 261.395 116.712 262.587 116.678 263.825L115.673 299.999C115.605 302.458 114.782 304.853 113.169 306.709C107.804 312.881 101.41 317.97 95.217 321.976L106.755 323.336C107.971 323.479 109.143 323.828 110.308 324.204C117.998 326.69 137.105 328.653 146.385 329.366V331.692L105.102 330.529L88.2396 348.554H75.4476L85.3323 327.631C82.7834 328.91 80.4181 329.965 78.3528 330.794C75.7608 331.835 72.8718 331.668 70.3044 330.568Z" fill="#051C2C" fill-opacity="0.9"/>
<path d="M185.342 218.89C186.738 228.194 173.132 244.862 166.154 252.033C175.566 253.994 186.466 240.939 192.791 230.986C194.793 227.836 194.847 223.877 193.225 220.516L189.169 212.115C188.251 210.214 186.326 209.006 184.216 209.006C182.377 209.006 180.978 210.126 181.622 211.849C182.48 214.145 184.222 217.149 185.342 218.89Z" fill="#051C2C" fill-opacity="0.9"/>
<path d="M125.453 227.155V216.174L146.522 199.702L165.183 202.143L167.591 199.702L176.621 205.803L174.213 210.073L172.407 208.853L157.96 235.085L144.716 236.915L125.453 227.155Z" fill="#3DB5E7"/>
<path fill-rule="evenodd" clip-rule="evenodd" d="M167.52 198.95L177.394 205.621L174.413 210.908L172.613 209.691L158.332 235.621L144.619 237.516L124.875 227.512V215.89L146.359 199.094L164.976 201.529L167.52 198.95ZM146.692 200.311L126.038 216.457V226.797L144.82 236.315L157.594 234.549L172.208 208.015L174.02 209.239L175.854 205.985L167.669 200.455L165.398 202.757L146.692 200.311Z" fill="black"/>
<path d="M134.758 221.216L138.828 211.913L149.876 202.609L166.738 200.865C163.482 202.726 155.69 216.758 152.201 223.542L144.643 226.449L134.758 221.216Z" fill="#9EDAF2"/>
<path fill-rule="evenodd" clip-rule="evenodd" d="M166.677 200.287L167.025 201.37C166.696 201.558 166.266 201.929 165.747 202.49C165.235 203.044 164.664 203.753 164.05 204.585C162.822 206.248 161.444 208.372 160.053 210.66C157.271 215.233 154.458 220.424 152.717 223.808L152.616 224.005L144.603 227.087L134.008 221.477L138.349 211.555L149.637 202.05L166.677 200.287ZM150.112 203.17L139.305 212.27L135.506 220.955L144.68 225.811L151.785 223.079C153.54 219.676 156.312 214.571 159.059 210.055C160.459 207.754 161.857 205.597 163.115 203.894C163.743 203.043 164.342 202.297 164.893 201.701C164.914 201.678 164.935 201.656 164.956 201.634L150.112 203.17Z" fill="black"/>
<path d="M98.1264 119.414C68.8212 126.391 60.7197 150.231 60.332 161.279V165.349L79.52 144.998L99.8708 158.953L117.896 148.487L145.224 162.441L146.968 196.166L150.457 207.213L158.598 204.306C173.948 151.278 161.505 135.695 153.364 134.532C134.293 116.856 108.593 117.088 98.1264 119.414Z" fill="#8CD3F1"/>
<path fill-rule="evenodd" clip-rule="evenodd" d="M98.2562 119.98C69.2868 126.88 61.2987 150.421 60.9129 161.289V163.884L79.4378 144.237L99.896 158.265L117.877 147.824L145.787 162.076L147.545 196.061L150.829 206.463L158.121 203.858C165.707 177.549 166.394 160.586 164.22 150.087C162.036 139.542 157.01 135.64 153.282 135.107L153.102 135.081L152.969 134.958C134.088 117.459 108.615 117.68 98.2562 119.98ZM153.628 133.984C134.381 116.255 108.552 116.501 97.9997 118.846L97.9912 118.848C68.3628 125.903 60.1444 150.027 59.7504 161.258L59.75 161.268V166.813L79.601 145.759L99.8444 159.64L117.913 149.148L144.66 162.806L146.391 196.27L150.084 207.964L159.073 204.753L159.155 204.468C166.843 177.912 167.596 160.653 165.359 149.851C163.154 139.205 158.002 134.71 153.628 133.984Z" fill="black"/>
<path d="M134.176 213.657C111.848 226.217 89.598 220.441 81.2639 215.983L66.1461 202.028L63.8203 171.793L85.3341 148.535L104.522 167.723L126.617 148.535L149.294 165.978V192.725L134.176 213.657Z" fill="white"/>
<path fill-rule="evenodd" clip-rule="evenodd" d="M85.3154 147.696L104.548 166.928L126.593 147.784L149.873 165.692V192.913L134.57 214.101L134.459 214.164C111.917 226.844 89.4504 221.023 80.9873 216.496L80.9218 216.461L65.5815 202.301L63.2188 171.584L85.3154 147.696ZM126.637 149.285L104.492 168.517L85.348 149.373L64.4172 172.001L66.706 201.756L81.601 215.505C89.8434 219.882 111.76 225.537 133.777 213.213L148.71 192.537V166.265L126.637 149.285Z" fill="black"/>
<path d="M96.3821 174.118C96.3821 188.89 88.312 200.865 78.3571 200.865C68.4021 200.865 60.332 188.89 60.332 174.118C60.332 159.347 72.5425 160.164 78.3571 147.372C88.312 147.372 96.3821 159.347 96.3821 174.118Z" fill="#737E84"/>
<path d="M153.361 171.793C153.361 186.565 135.988 198.54 126.033 198.54C116.078 198.54 108.008 186.565 108.008 171.793C108.008 157.021 120.218 157.838 126.033 145.046C135.988 145.046 153.361 157.021 153.361 171.793Z" fill="#737E84"/>
<path d="M88.2423 181.096C88.2423 185.592 85.6391 189.236 82.4278 189.236C79.2165 189.236 76.6133 185.592 76.6133 181.096C76.6133 176.6 79.2165 172.956 82.4278 172.956C85.6391 172.956 88.2423 176.6 88.2423 181.096Z" fill="#051C2C"/>
<path d="M131.274 179.933C131.274 184.429 128.67 188.073 125.459 188.073C122.248 188.073 119.645 184.429 119.645 179.933C119.645 175.437 122.248 171.793 125.459 171.793C128.67 171.793 131.274 175.437 131.274 179.933Z" fill="#051C2C"/>
<path d="M85.4425 185.977C84.8242 187.103 83.6385 187.639 82.794 187.176C81.9496 186.712 81.7662 185.423 82.3845 184.297C83.0027 183.172 84.1885 182.635 85.0329 183.098C85.8774 183.562 86.0607 184.851 85.4425 185.977Z" fill="#FEFFFF"/>
<path d="M128.47 184.814C127.852 185.94 126.666 186.476 125.821 186.013C124.977 185.549 124.794 184.26 125.412 183.135C126.03 182.009 127.216 181.472 128.06 181.935C128.905 182.399 129.088 183.688 128.47 184.814Z" fill="#FEFFFF"/>
<path d="M105.195 187.904C102.593 186.271 100.136 186.933 98.6014 187.885C98.0001 188.258 98.054 189.088 98.6201 189.513L102.199 192.197L105.25 189.582C105.788 189.121 105.795 188.28 105.195 187.904Z" fill="#051C2C"/>
<path fill-rule="evenodd" clip-rule="evenodd" d="M99.4891 188.712L102.149 190.707L104.396 188.781C102.492 187.674 100.726 188.038 99.4891 188.712ZM97.9863 186.897C99.7775 185.786 102.726 184.983 105.811 186.919C107.195 187.787 107.026 189.59 106.005 190.465L102.246 193.687L97.9206 190.443C97.3614 190.024 97.0285 189.384 97.0087 188.714C96.9883 188.022 97.3088 187.318 97.9863 186.897ZM106.785 197.763C103.131 195.327 99.943 196.77 98.8839 197.678L97.3703 195.912C99.0246 194.494 103.357 192.682 108.075 195.828L106.785 197.763Z" fill="#051C2C"/>
<path d="M82.4272 200.865L83.5901 212.494V217.146L62.0764 203.773L60.332 164.234L85.9159 137.487L102.778 154.931L123.129 137.487L158.016 156.093L155.109 197.958H162.086L160.342 205.517C155.69 210.169 137.859 213.657 129.525 214.82V197.958L144.061 190.981L146.387 164.234L124.292 150.86L102.778 169.467L85.9159 150.86L69.6353 165.978V192.144L82.4272 200.865Z" fill="#3DB5E7"/>
<path fill-rule="evenodd" clip-rule="evenodd" d="M85.9157 136.648L102.817 154.133L123.054 136.787L158.624 155.758L155.734 197.377H162.819L160.873 205.81L160.755 205.928C159.506 207.177 157.429 208.302 154.957 209.308C152.47 210.32 149.518 211.236 146.464 212.039C140.356 213.645 133.791 214.812 129.607 215.396L128.945 215.488V197.592L143.513 190.6L145.778 164.544L124.354 151.577L102.731 170.278L85.8823 151.687L70.2187 166.232V191.836L82.9808 200.538L84.1736 212.465V218.192L61.511 204.105L59.7422 164.011L85.9157 136.648ZM123.208 138.187L102.743 155.729L85.9201 138.326L60.9259 164.456L62.6458 203.441L83.0107 216.1V212.523L81.8776 201.193L69.0558 192.451V165.725L85.9536 150.034L102.829 168.656L124.233 150.144L147 163.924L144.614 191.361L130.108 198.324V214.15C134.269 213.544 140.427 212.424 146.168 210.915C149.196 210.119 152.095 209.217 154.519 208.231C156.874 207.273 158.721 206.257 159.816 205.22L161.357 198.54H154.488L157.412 156.429L123.208 138.187Z" fill="black"/>
<path d="M34.6454 220.141L33.582 302.038C45.6618 312.737 59.9562 320.451 65.5935 322.97C85.4043 317.388 102.034 306.69 107.873 302.038L111.024 219.123C111.28 212.392 105.783 206.853 99.0507 207.057L45.9211 208.668C39.6971 208.857 34.7263 213.915 34.6454 220.141Z" fill="#3DB5E7"/>
<path fill-rule="evenodd" clip-rule="evenodd" d="M110.446 219.1C110.689 212.707 105.466 207.444 99.0712 207.638L45.9415 209.249C40.0288 209.428 35.3065 214.233 35.2297 220.148L34.1697 301.779C46.0173 312.219 59.9486 319.779 65.6417 322.353C85.0433 316.846 101.354 306.43 107.305 301.748L110.446 219.1ZM99.0359 206.476C106.104 206.262 111.876 212.078 111.608 219.144L108.446 302.327L108.238 302.493C102.351 307.183 85.6532 317.923 65.754 323.53L65.5513 323.587L65.359 323.501C59.6819 320.964 45.3337 313.22 33.1993 302.473L33 302.297L34.0669 220.133C34.1517 213.596 39.3711 208.285 45.9063 208.087L99.0359 206.476Z" fill="black"/>
<path d="M39.625 299.712L41.1885 229.47C41.3273 223.234 46.3623 218.217 52.5994 218.102L91.7851 217.377C98.5253 217.252 103.959 222.866 103.614 229.598L100.024 299.712C87.461 309.48 71.4351 315.411 64.9926 317.156C59.1943 315.295 45.6649 304.751 39.625 299.712Z" fill="#9EDAF2"/>
<path fill-rule="evenodd" clip-rule="evenodd" d="M91.776 216.795C98.8531 216.664 104.558 222.559 104.197 229.628L100.593 300.008L100.382 300.171C87.7395 310.002 71.6355 315.96 65.1461 317.717L64.9802 317.762L64.8165 317.709C63.2978 317.222 61.3161 316.184 59.1309 314.85C56.9356 313.511 54.4991 311.852 52.0614 310.098C47.1857 306.59 42.2822 302.685 39.2541 300.159L39.0391 299.979L40.6088 229.458C40.7546 222.909 46.0413 217.642 52.5903 217.521L91.776 216.795ZM103.035 229.569C103.363 223.173 98.2006 217.84 91.7975 217.958L52.6118 218.684C46.6865 218.793 41.9033 223.559 41.7714 229.483L40.2142 299.445C43.2399 301.961 48.0058 305.747 52.7406 309.154C55.165 310.898 57.5755 312.539 59.7365 313.858C61.824 315.131 63.6461 316.084 65.0103 316.549C71.4768 314.771 87.1155 308.942 99.4585 299.416L103.035 229.569Z" fill="black"/>
<path d="M83.7161 284.849L87.944 209.26C101.957 207.864 109.084 210.168 109.084 220.635L106.668 300.548C92.172 311.712 73.851 319.288 66.8044 321.226C61.4893 321.226 42.8462 308.046 34.793 301.457V293.316C39.6249 299.363 52.1073 301.905 58.3486 302.874L83.7161 284.849Z" fill="#2C80A4" fill-opacity="0.5"/>
<path d="M130.104 214.239V207.261L145.222 200.284L149.874 160.164L123.127 140.976L102.776 156.094L85.9141 137.487L102.776 150.279L123.127 137.487L137.082 142.139C140.338 131.44 124.871 123.338 116.731 120.625C147.432 120.625 157.433 147.372 157.433 160.164L154.525 201.447H159.177L157.433 206.098L130.104 214.239Z" fill="#2A7FA4" fill-opacity="0.5"/>
<path d="M127.199 217.727L133.595 214.702C147.83 212.123 157.98 209.476 160.923 205.77C160.923 204.354 161.505 203.772 161.505 202.028L167.319 200.284C170.808 202.492 173.715 204.354 176.041 206.098L174.297 209.006L172.553 207.843L156.272 232.146L146.969 235.053L136.502 230.402L145.224 232.146L151.039 228.657L153.946 225.75C144.643 230.402 139.604 226.138 138.247 223.424C145.689 226.68 152.202 218.966 154.527 214.702C152.202 215.633 134.758 217.533 127.199 217.727Z" fill="#2A7FA4" fill-opacity="0.5"/>
<path d="M195.23 238.66L195.812 229.357L208.604 224.124L214.418 229.357C214.418 233.078 209.767 237.497 207.441 239.241C204.65 240.637 198.138 239.435 195.23 238.66Z" fill="white"/>
<path fill-rule="evenodd" clip-rule="evenodd" d="M208.726 223.447L215.004 229.098V229.357C215.004 231.43 213.727 233.6 212.258 235.407C210.769 237.239 208.988 238.812 207.794 239.707L207.752 239.738L207.706 239.762C206.908 240.16 205.89 240.355 204.809 240.429C203.718 240.503 202.518 240.457 201.329 240.344C198.95 240.117 196.564 239.616 195.085 239.222L194.625 239.099L195.259 228.957L208.726 223.447ZM196.374 229.757L195.845 238.217C197.284 238.575 199.37 238.989 201.439 239.186C202.59 239.296 203.723 239.337 204.729 239.268C205.719 239.201 206.545 239.03 207.14 238.744C208.272 237.889 209.955 236.396 211.355 234.674C212.72 232.995 213.735 231.197 213.834 229.609L208.491 224.8L196.374 229.757Z" fill="black"/>
<path d="M208.026 235.753L202.793 229.357C204.537 228.775 207.445 223.542 208.607 224.705L213.259 228.775C211.864 232.031 208.995 235.171 208.026 235.753Z" fill="#8ED3F2"/>
<path d="M167.906 181.096L124.297 89.2269L128.948 71.7833L143.485 77.5978L189.42 170.63L180.116 178.771L167.906 181.096Z" fill="white"/>
<path fill-rule="evenodd" clip-rule="evenodd" d="M128.555 70.9999L143.907 77.1407L190.138 170.774L180.38 179.312L167.573 181.752L123.68 89.2833L128.555 70.9999ZM129.341 72.5667L124.913 89.1704L167.919 179.769L174.235 167.137L135.402 86.5721L136.449 86.0671L175.287 166.641L188.349 169.775L143.062 78.055L129.341 72.5667ZM188.19 170.933L175.196 167.815L168.951 180.305L179.852 178.229L188.19 170.933Z" fill="black"/>
<path d="M135.925 85.1569L131.273 75.2722L141.74 79.9239L187.093 169.468L174.882 166.56L135.925 85.1569Z" fill="#8CD3F1"/>
<path d="M154.531 191.562H164.416C165.811 183.655 171.587 184.779 174.301 186.329L191.744 178.189C192.209 173.072 199.885 170.049 203.373 173.537L207.443 164.816L196.977 157.838L194.651 166.56L162.672 182.259L155.694 178.189L154.531 191.562Z" fill="white"/>
<path fill-rule="evenodd" clip-rule="evenodd" d="M196.626 156.904L208.183 164.609L203.55 174.536L202.963 173.949C201.443 172.429 198.93 172.266 196.641 173.177C194.357 174.085 192.531 175.972 192.325 178.242L192.294 178.575L174.275 186.984L174.014 186.834C172.728 186.099 170.767 185.501 169.013 185.962C167.337 186.401 165.661 187.863 164.99 191.664L164.905 192.144H153.898L155.196 177.224L162.697 181.6L194.159 166.155L196.626 156.904ZM197.331 158.772L195.147 166.965L162.649 182.919L156.195 179.154L155.167 190.981H163.937C164.722 187.203 166.568 185.401 168.718 184.837C170.749 184.304 172.888 184.924 174.323 185.678L191.207 177.799C191.605 175.117 193.771 173.066 196.211 172.096C198.498 171.187 201.216 171.154 203.172 172.598L206.707 165.022L197.331 158.772Z" fill="black"/>
<path d="M169.648 178.189L174.882 167.723L185.929 170.63L169.648 178.189Z" fill="#8CD3F1"/>
<path fill-rule="evenodd" clip-rule="evenodd" d="M174.575 167.04L187.639 170.478L168.387 179.417L174.575 167.04ZM175.193 168.405L170.915 176.961L184.224 170.782L175.193 168.405Z" fill="black"/>
<path d="M195.818 229.357C194.422 224.705 180.506 198.734 173.723 186.33L191.748 178.189C192.213 185.632 202.408 211.913 208.61 223.543C207.214 229.124 199.5 229.745 195.818 229.357Z" fill="#9EDAF2"/>
<path fill-rule="evenodd" clip-rule="evenodd" d="M192.274 177.313L192.327 178.153C192.438 179.939 193.143 182.918 194.262 186.611C195.375 190.288 196.882 194.621 198.57 199.09C201.948 208.033 206.037 217.485 209.122 223.269L209.227 223.466L209.173 223.683C208.405 226.754 205.902 228.409 203.244 229.243C200.586 230.077 197.653 230.135 195.756 229.935L195.371 229.895L195.26 229.524C194.927 228.416 193.821 225.968 192.207 222.671C190.604 219.395 188.524 215.33 186.274 211.019C181.775 202.399 176.602 192.808 173.211 186.608L172.91 186.058L192.274 177.313ZM174.533 186.601C177.926 192.813 182.933 202.103 187.305 210.481C189.557 214.796 191.642 218.871 193.252 222.16C194.702 225.123 195.788 227.489 196.25 228.813C198.033 228.955 200.594 228.856 202.896 228.133C205.295 227.381 207.3 225.994 207.988 223.613C204.883 217.752 200.83 208.364 197.482 199.501C195.788 195.016 194.272 190.657 193.149 186.948C192.179 183.745 191.49 180.99 191.246 179.053L174.533 186.601Z" fill="black"/>
<path d="M202.211 228.194L199.304 220.054C197.365 221.217 193.838 223.193 192.908 221.798L191.163 217.146L196.978 214.821L182.441 182.841L188.837 179.933L201.048 213.192L202.792 212.495L208.025 223.542C208.025 224.705 206.281 227.613 202.211 228.194Z" fill="#4285A2"/>
<path d="M161.509 189.237L155.113 190.981H163.835C166.161 183.073 171.394 184.585 174.301 185.748L191.163 178.189C193.489 170.747 199.885 170.63 203.374 172.956L206.281 165.979L198.722 161.327L201.048 169.467C193.605 168.072 189.419 173.538 188.256 176.445L174.883 182.841C167.44 180.05 162.866 185.942 161.509 189.237Z" fill="#9EDAF2"/>
<path d="M184.765 204.354C184.765 207.565 182.943 210.168 180.695 210.168C178.447 210.168 176.625 207.565 176.625 204.354C176.625 201.143 178.447 198.539 180.695 198.539C182.943 198.539 184.765 201.143 184.765 204.354Z" fill="#737E84"/>
<path fill-rule="evenodd" clip-rule="evenodd" d="M182.621 207.799C183.204 206.964 183.602 205.75 183.602 204.354C183.602 202.958 183.204 201.743 182.621 200.909C182.034 200.072 181.335 199.702 180.695 199.702C180.055 199.702 179.356 200.072 178.77 200.909C178.186 201.743 177.788 202.958 177.788 204.354C177.788 205.75 178.186 206.964 178.77 207.799C179.356 208.636 180.055 209.006 180.695 209.006C181.335 209.006 182.034 208.636 182.621 207.799ZM180.695 210.168C182.943 210.168 184.765 207.565 184.765 204.354C184.765 201.143 182.943 198.539 180.695 198.539C178.447 198.539 176.625 201.143 176.625 204.354C176.625 207.565 178.447 210.168 180.695 210.168Z" fill="black"/>
<path d="M210.35 203.191C210.35 212.183 203.842 219.472 195.814 219.472C187.785 219.472 181.277 212.183 181.277 203.191C181.277 194.2 187.785 186.911 195.814 186.911C203.842 186.911 210.35 194.2 210.35 203.191Z" fill="#737E84"/>
<path fill-rule="evenodd" clip-rule="evenodd" d="M195.814 218.309C203.079 218.309 209.187 211.668 209.187 203.191C209.187 194.714 203.079 188.073 195.814 188.073C188.548 188.073 182.44 194.714 182.44 203.191C182.44 211.668 188.548 218.309 195.814 218.309ZM195.814 219.472C203.842 219.472 210.35 212.183 210.35 203.191C210.35 194.2 203.842 186.911 195.814 186.911C187.785 186.911 181.277 194.2 181.277 203.191C181.277 212.183 187.785 219.472 195.814 219.472Z" fill="black"/>
<path d="M199.22 209.664C195.642 212.587 191.011 214.564 188.258 215.402C196.166 221.449 203.569 216.758 206.283 213.657C210.469 204.819 206.477 196.795 203.957 193.888V195.047C203.957 200.45 203.404 206.245 199.22 209.664Z" fill="#041B2B"/>
<path fill-rule="evenodd" clip-rule="evenodd" d="M203.375 192.329L204.396 193.507C207.01 196.523 211.125 204.791 206.808 213.906L206.773 213.979L206.72 214.04C205.301 215.662 202.674 217.685 199.36 218.524C196.017 219.37 192.005 219 187.904 215.864L187.004 215.175L188.088 214.845C190.794 214.022 195.35 212.075 198.851 209.213C202.8 205.987 203.375 200.469 203.375 195.047V192.329ZM204.536 195.634C204.494 200.867 203.846 206.634 199.587 210.114C196.379 212.736 192.358 214.602 189.53 215.595C193.002 217.894 196.304 218.098 199.075 217.396C202.077 216.637 204.484 214.804 205.791 213.335C209.258 205.937 206.821 199.132 204.536 195.634Z" fill="black"/>
<path fill-rule="evenodd" clip-rule="evenodd" d="M279.546 74.2399C279.546 74.2399 268.049 68.4915 261.48 71.7763C258.734 73.1492 255.702 77.6777 252.322 82.7242C247.616 89.7524 242.237 97.7852 236.023 99.6971C230.393 101.429 220.423 101.106 210.209 100.775C201.056 100.478 191.706 100.175 185.108 101.34C171.148 103.803 148.154 116.121 144.87 122.691C141.585 129.26 151.439 144.042 151.439 144.042L159.651 139.936L155.545 148.969C158.761 157.291 162.196 160.744 165.4 163.751C167.985 159.651 169.768 158.002 173.612 156.36L171.969 163.751L181.002 162.929L175.254 170.32L199.89 195.777L295.97 119.406L279.546 74.2399ZM174.439 137.473C176.707 137.473 178.545 135.634 178.545 133.367C178.545 131.099 176.707 129.261 174.439 129.261C172.172 129.261 170.333 131.099 170.333 133.367C170.333 135.634 172.172 137.473 174.439 137.473ZM226.176 118.585C226.176 119.946 225.073 121.049 223.713 121.049C222.352 121.049 221.249 119.946 221.249 118.585C221.249 117.224 222.352 116.121 223.713 116.121C225.073 116.121 226.176 117.224 226.176 118.585ZM185.482 125.671C187.47 124.579 188.55 122.727 187.895 121.535C187.239 120.342 185.097 120.261 183.11 121.353C181.122 122.445 180.042 124.296 180.697 125.489C181.353 126.681 183.495 126.763 185.482 125.671Z" fill="#C34428"/>
<path d="M261.48 71.7763L261.171 71.158V71.158L261.48 71.7763ZM279.546 74.2399L280.196 74.0037L280.102 73.7448L279.855 73.6216L279.546 74.2399ZM252.322 82.7242L252.897 83.1089L252.322 82.7242ZM236.023 99.6971L235.819 99.0363L236.023 99.6971ZM210.209 100.775L210.187 101.466L210.209 100.775ZM185.108 101.34L185.228 102.02L185.108 101.34ZM151.439 144.042L150.864 144.425L151.202 144.933L151.748 144.66L151.439 144.042ZM159.651 139.936L160.281 140.222L161.089 138.444L159.342 139.318L159.651 139.936ZM155.545 148.969L154.916 148.683L154.796 148.947L154.9 149.218L155.545 148.969ZM165.4 163.751L164.927 164.255L165.537 164.828L165.984 164.119L165.4 163.751ZM173.612 156.36L174.286 156.51L174.579 155.195L173.34 155.724L173.612 156.36ZM171.969 163.751L171.294 163.601L171.089 164.525L172.032 164.439L171.969 163.751ZM181.002 162.929L181.548 163.354L182.526 162.097L180.94 162.241L181.002 162.929ZM175.254 170.32L174.708 169.896L174.34 170.37L174.757 170.801L175.254 170.32ZM199.89 195.777L199.393 196.258L199.829 196.709L200.32 196.319L199.89 195.777ZM295.97 119.406L296.4 119.947L296.79 119.637L296.62 119.17L295.97 119.406ZM187.895 121.535L188.501 121.202L187.895 121.535ZM185.482 125.671L185.149 125.065L185.482 125.671ZM183.11 121.353L183.443 121.959L183.11 121.353ZM180.697 125.489L181.303 125.156L180.697 125.489ZM261.789 72.3947C263.291 71.6438 265.113 71.3919 267.048 71.4663C268.978 71.5406 270.975 71.9379 272.792 72.4425C274.605 72.9463 276.221 73.5518 277.383 74.0321C277.964 74.2719 278.43 74.4799 278.75 74.6272C278.91 74.7009 279.033 74.7594 279.116 74.7991C279.157 74.819 279.188 74.8341 279.208 74.8442C279.219 74.8492 279.226 74.8529 279.231 74.8553C279.233 74.8564 279.235 74.8573 279.236 74.8578C279.237 74.8581 279.237 74.8582 279.237 74.8583C279.237 74.8583 279.237 74.8583 279.237 74.8584C279.237 74.8583 279.237 74.8583 279.546 74.2399C279.855 73.6216 279.855 73.6215 279.855 73.6214C279.855 73.6213 279.855 73.6212 279.854 73.621C279.854 73.6208 279.853 73.6204 279.852 73.62C279.85 73.6191 279.848 73.6179 279.845 73.6163C279.839 73.6132 279.829 73.6087 279.818 73.6029C279.794 73.5914 279.76 73.5747 279.715 73.5532C279.626 73.5104 279.496 73.4486 279.329 73.3715C278.994 73.2173 278.511 73.0018 277.911 72.7541C276.713 72.2591 275.043 71.6329 273.162 71.1102C271.283 70.5883 269.174 70.1644 267.101 70.0847C265.032 70.0051 262.954 70.2664 261.171 71.158L261.789 72.3947ZM252.897 83.1089C254.591 80.5791 256.178 78.2097 257.682 76.3004C259.2 74.373 260.564 73.0071 261.789 72.3947L261.171 71.158C259.65 71.9184 258.125 73.5032 256.596 75.4449C255.052 77.4047 253.433 79.8228 251.748 82.3395L252.897 83.1089ZM236.226 100.358C239.523 99.3435 242.526 96.7353 245.26 93.5821C248.003 90.418 250.549 86.6151 252.897 83.1089L251.748 82.3395C249.389 85.8615 246.892 89.5891 244.215 92.6764C241.529 95.7746 238.737 98.1388 235.819 99.0363L236.226 100.358ZM210.187 101.466C215.289 101.631 220.355 101.796 224.85 101.701C229.332 101.607 233.313 101.254 236.226 100.358L235.819 99.0363C233.102 99.8724 229.284 100.225 224.82 100.319C220.37 100.413 215.343 100.25 210.232 100.084L210.187 101.466ZM185.228 102.02C191.739 100.871 201.005 101.168 210.187 101.466L210.232 100.084C201.107 99.7883 191.674 99.479 184.988 100.659L185.228 102.02ZM145.488 123C146.23 121.515 148.164 119.596 150.993 117.483C153.793 115.393 157.38 113.178 161.311 111.086C169.183 106.894 178.349 103.234 185.228 102.02L184.988 100.659C177.908 101.908 168.597 105.639 160.661 109.865C156.687 111.981 153.037 114.232 150.166 116.376C147.324 118.497 145.151 120.582 144.251 122.382L145.488 123ZM151.439 144.042C152.014 143.658 152.014 143.658 152.014 143.658C152.014 143.658 152.014 143.658 152.014 143.658C152.014 143.658 152.014 143.657 152.013 143.657C152.012 143.655 152.011 143.653 152.008 143.649C152.004 143.643 151.997 143.633 151.988 143.619C151.971 143.592 151.944 143.551 151.909 143.498C151.839 143.39 151.737 143.231 151.607 143.025C151.347 142.614 150.979 142.017 150.547 141.28C149.682 139.805 148.566 137.774 147.552 135.544C146.536 133.309 145.636 130.9 145.188 128.663C144.737 126.407 144.769 124.437 145.488 123L144.251 122.382C143.327 124.229 143.36 126.57 143.832 128.934C144.309 131.316 145.256 133.834 146.293 136.116C147.333 138.403 148.474 140.477 149.354 141.979C149.795 142.731 150.171 143.34 150.437 143.763C150.571 143.974 150.677 144.139 150.75 144.251C150.786 144.307 150.814 144.35 150.834 144.379C150.843 144.394 150.851 144.405 150.856 144.413C150.858 144.417 150.86 144.42 150.862 144.422C150.862 144.423 150.863 144.424 150.863 144.424C150.863 144.425 150.864 144.425 150.864 144.425C150.864 144.425 150.864 144.425 151.439 144.042ZM159.342 139.318L151.13 143.424L151.748 144.66L159.96 140.554L159.342 139.318ZM156.175 149.255L160.281 140.222L159.022 139.65L154.916 148.683L156.175 149.255ZM165.873 163.247C162.717 160.285 159.357 156.915 156.19 148.72L154.9 149.218C158.165 157.666 161.675 161.203 164.927 164.255L165.873 163.247ZM173.34 155.724C171.374 156.564 169.894 157.423 168.57 158.621C167.252 159.813 166.121 161.311 164.815 163.382L165.984 164.119C167.264 162.09 168.316 160.714 169.497 159.646C170.672 158.584 172.005 157.798 173.883 156.996L173.34 155.724ZM172.644 163.901L174.286 156.51L172.937 156.21L171.294 163.601L172.644 163.901ZM180.94 162.241L171.907 163.062L172.032 164.439L181.065 163.618L180.94 162.241ZM175.8 170.745L181.548 163.354L180.457 162.505L174.708 169.896L175.8 170.745ZM200.387 195.297L175.751 169.839L174.757 170.801L199.393 196.258L200.387 195.297ZM295.54 118.865L199.46 195.236L200.32 196.319L296.4 119.947L295.54 118.865ZM278.897 74.4762L295.321 119.642L296.62 119.17L280.196 74.0037L278.897 74.4762ZM177.854 133.367C177.854 135.252 176.325 136.781 174.439 136.781V138.164C177.089 138.164 179.237 136.016 179.237 133.367H177.854ZM174.439 129.952C176.325 129.952 177.854 131.481 177.854 133.367H179.237C179.237 130.717 177.089 128.569 174.439 128.569V129.952ZM171.025 133.367C171.025 131.481 172.554 129.952 174.439 129.952V128.569C171.79 128.569 169.642 130.717 169.642 133.367H171.025ZM174.439 136.781C172.554 136.781 171.025 135.252 171.025 133.367H169.642C169.642 136.016 171.79 138.164 174.439 138.164V136.781ZM223.713 121.74C225.455 121.74 226.868 120.327 226.868 118.585H225.485C225.485 119.564 224.691 120.357 223.713 120.357V121.74ZM220.558 118.585C220.558 120.327 221.97 121.74 223.713 121.74V120.357C222.734 120.357 221.94 119.564 221.94 118.585H220.558ZM223.713 115.43C221.97 115.43 220.558 116.842 220.558 118.585H221.94C221.94 117.606 222.734 116.813 223.713 116.813V115.43ZM226.868 118.585C226.868 116.842 225.455 115.43 223.713 115.43V116.813C224.691 116.813 225.485 117.606 225.485 118.585H226.868ZM187.289 121.868C187.453 122.167 187.454 122.655 187.082 123.292C186.719 123.915 186.052 124.569 185.149 125.065L185.815 126.277C186.9 125.681 187.767 124.863 188.277 123.989C188.778 123.129 188.991 122.094 188.501 121.202L187.289 121.868ZM183.443 121.959C184.345 121.463 185.255 121.25 185.975 121.278C186.712 121.306 187.124 121.568 187.289 121.868L188.501 121.202C188.01 120.309 187.023 119.934 186.028 119.896C185.017 119.858 183.861 120.151 182.777 120.747L183.443 121.959ZM181.303 125.156C181.139 124.856 181.138 124.368 181.51 123.731C181.873 123.108 182.54 122.455 183.443 121.959L182.777 120.747C181.692 121.343 180.825 122.161 180.315 123.035C179.814 123.895 179.601 124.929 180.091 125.822L181.303 125.156ZM185.149 125.065C184.247 125.561 183.337 125.773 182.616 125.746C181.88 125.718 181.468 125.456 181.303 125.156L180.091 125.822C180.582 126.715 181.569 127.09 182.564 127.127C183.575 127.166 184.73 126.873 185.815 126.277L185.149 125.065Z" fill="black"/>
<path d="M246.026 120.034C242.084 132.516 199.217 161.642 178.688 174.233L200.86 198.048L297.761 120.034L283.801 83.0802L277.231 84.7226C272.852 86.6387 263.271 90.7995 259.986 92.1134C255.88 93.7558 250.953 104.431 246.026 120.034Z" fill="#652315"/>
<path d="M457.893 77.6551C459.535 76.0127 466.105 75.6021 471.032 80.9399C475.959 86.2777 473.496 89.973 472.675 90.7942C471.853 91.6155 468.934 94.0791 468.934 94.0791L460.357 101.798L440.648 119.536L428.33 117.073L433.257 99.8275L437.819 95.7214L449.404 85.295L453.787 81.3505C453.787 81.3505 456.251 79.2975 457.893 77.6551Z" fill="#CBB601"/>
<path d="M436.542 94.0791L426.688 91.6155L430.911 76.8339L431.615 75.1915L432.436 73.5491L437.774 64.5159L442.393 57.1251L445.575 52.1979L448.039 48.0919C452.363 42.7346 455.863 41.2677 465.284 43.1647C465.203 48.7252 465.38 51.9826 461.999 55.4827L459.833 58.7675L454.416 66.9795L450.625 72.7279L446.833 78.4763L441.688 86.2777L436.542 94.0791Z" fill="#CBB601"/>
<path d="M459.833 58.7675L461.999 55.4827C465.38 51.9826 465.203 48.7252 465.284 43.1647C455.863 41.2677 452.363 42.7346 448.039 48.0919L445.575 52.1979M459.833 58.7675C455.173 52.9111 452.001 51.9327 445.575 52.1979M459.833 58.7675L454.416 66.9795M445.575 52.1979L442.393 57.1251M454.416 66.9795C451.408 59.9955 449.04 57.3447 442.393 57.1251M454.416 66.9795L450.625 72.7279M442.393 57.1251L437.774 64.5159M450.625 72.7279C446.736 68.1442 444.043 66.1998 437.774 64.5159M450.625 72.7279L446.833 78.4763M437.774 64.5159L432.436 73.5491M446.833 78.4763C444.243 72.8978 436.542 70.2643 432.436 73.5491M446.833 78.4763L441.688 86.2777M432.436 73.5491L431.615 75.1915L430.911 76.8339M441.688 86.2777L436.542 94.0791L426.688 91.6155L430.911 76.8339M441.688 86.2777C437.42 80.3107 435.047 77.6557 430.911 76.8339M453.787 81.3505C453.787 81.3505 456.251 79.2975 457.893 77.6551C459.535 76.0127 466.105 75.6021 471.032 80.9399C475.959 86.2777 473.496 89.973 472.675 90.7942C471.853 91.6155 468.934 94.0791 468.934 94.0791M453.787 81.3505C459.575 87.833 462.86 90.6481 468.934 94.0791M453.787 81.3505L449.404 85.295M468.934 94.0791L460.357 101.798M449.404 85.295C453.385 92.3621 455.651 96.2504 460.357 101.798M449.404 85.295L437.819 95.7214M460.357 101.798L440.648 119.536L428.33 117.073L433.257 99.8275L437.819 95.7214M437.819 95.7214C443.231 102.286 446.202 105.397 451.323 109.682" stroke="black" stroke-width="1.38269"/>
<path d="M429.152 77.6551L441.47 60.4099L448.861 69.4431L434.901 91.6155L429.152 77.6551Z" fill="#020202" fill-opacity="0.58"/>
<path d="M448.861 101.47C446.886 98.2822 444.258 90.9342 444.755 89.9731L431.616 101.47L439.007 120.357C439.007 120.357 473.497 94.0791 473.497 88.3307C473.497 82.5823 468.57 80.1187 468.57 80.1187C468.57 80.1187 466.106 86.6883 458.716 93.2579C451.325 99.8275 448.861 101.47 448.861 101.47Z" fill="#020202" fill-opacity="0.58"/>
<path d="M469.393 30.8468C471.857 32.4892 475.963 47.2708 474.321 52.198C472.678 57.1252 462.824 55.4828 462.824 55.4828C462.824 55.4828 464.466 46.4495 457.075 44.8072C449.685 43.1648 448.042 47.2708 448.042 47.2708C448.042 47.2708 441.472 44.8071 442.294 41.5223C443.115 38.2376 446.4 34.1316 453.791 31.668C461.181 29.2044 466.93 29.2044 469.393 30.8468Z" fill="#CBB601" stroke="black" stroke-width="1.38269"/>
<path d="M449.682 38.2375C443.934 42.3435 448.861 44.9714 448.861 45.6284C446.253 44.9576 443.934 42.3435 443.934 41.5223C443.934 40.7011 446.397 37.4164 452.967 34.1316C459.536 30.8468 467.748 31.668 467.748 31.668C458.871 33.7686 455.43 34.1315 449.682 38.2375Z" fill="#F7F3F2"/>
<path d="M469.385 53.0193C471.849 50.5557 467.743 33.3105 467.743 33.3105C466.568 40.9456 465.892 45.2056 463.637 51.3769C463.843 54.6423 466.922 55.4829 469.385 53.0193Z" fill="#5A4226"/>
<path d="M406.981 9.17217C401.232 12.4569 399.59 22.3114 399.59 22.3114L402.053 39.5565L420.941 51.8746C420.941 51.8746 423.405 51.8746 429.974 50.2322C436.544 48.5898 445.577 37.9141 436.544 21.4901C427.511 5.06612 412.729 5.88741 406.981 9.17217Z" fill="#575757" stroke="black" stroke-width="1.38269"/>
<path d="M414.373 11.6359C406.982 11.6359 402.055 19.0267 402.055 19.0267L408.624 36.2719L422.585 48.5899C422.585 48.5899 429.975 47.7687 432.439 44.4839C434.903 41.1991 437.265 31.2715 433.26 23.1327C429.448 15.3848 421.763 11.6359 414.373 11.6359Z" fill="black"/>
<path d="M269.836 40.3778C272.047 47.7779 283.796 51.8746 283.796 51.8746L310.895 23.9538C310.895 23.9538 308.608 12.4479 301.041 8.35098C291.586 3.23209 280.51 11.6358 277.226 14.9206C273.941 18.2054 266.96 30.7537 269.836 40.3778Z" fill="black"/>
<path d="M280.508 14.9206C276.567 16.8915 273.391 25.0487 272.296 28.881C272.296 28.881 270.654 35.4506 272.296 40.3778C273.939 45.305 280.508 48.5897 280.508 48.5897C284.66 40.6671 287.11 36.5368 292.005 30.5234C292.005 30.5234 292.826 23.9538 291.184 20.669C289.542 17.3842 284.45 12.9497 280.508 14.9206Z" fill="#535353"/>
<path d="M303.502 18.2054C299.945 11.5977 296.745 9.94576 288.72 10.8146C288.72 10.8146 292.005 7.52978 298.575 9.17218C305.144 10.8146 306.787 16.563 306.787 16.563L303.502 18.2054Z" fill="#535353"/>
<path d="M273.94 37.9142C272.298 32.987 275.583 22.3114 275.583 22.3114C275.583 22.3114 271.477 29.7022 271.477 33.8082C271.477 37.9142 271.477 39.5566 273.94 42.8414C276.404 46.1262 280.51 47.7686 280.51 47.7686C280.51 47.7686 275.583 42.8414 273.94 37.9142Z" fill="white"/>
<path d="M301.954 20.1112C289.636 31.608 267.464 61.9924 269.106 93.1979C270.748 124.404 291.278 138.364 291.278 138.364C291.278 138.364 316.735 150.682 336.444 153.145C356.153 155.609 371.756 153.145 384.074 150.682C396.392 148.218 413.637 141.649 422.67 135.079C431.703 128.509 443.738 106.206 439.915 86.6283C435.12 62.0672 423.629 32.0701 403.783 16.8264C393.546 8.96365 374.219 2.04481 374.219 2.04481C374.219 2.04481 379.968 -3.70365 372.577 -5.34605C365.186 -6.98844 356.974 -2.88245 356.974 -2.88245C356.974 -2.88245 365.186 -10.2732 361.08 -12.7368C356.974 -15.2004 340.55 0.402411 337.265 2.04481C333.981 3.68721 314.272 8.61441 301.954 20.1112Z" fill="white"/>
<path d="M375.862 27.502C373.615 20.6569 371.57 17.6748 366.829 13.5416C366.829 13.5416 375.041 19.29 377.504 15.1839C379.967 11.0779 362.723 6.15081 362.723 6.15081L374.219 2.04481M374.219 2.04481C374.219 2.04481 379.968 -3.70365 372.577 -5.34605C365.186 -6.98844 356.974 -2.88245 356.974 -2.88245C356.974 -2.88245 365.186 -10.2732 361.08 -12.7368C356.974 -15.2004 340.55 0.402411 337.265 2.04481C333.981 3.68721 314.272 8.61441 301.954 20.1112C289.636 31.608 267.464 61.9924 269.106 93.1979C270.748 124.404 291.278 138.364 291.278 138.364C291.278 138.364 316.735 150.682 336.444 153.145C356.153 155.609 371.756 153.145 384.074 150.682C396.392 148.218 413.637 141.649 422.67 135.079C431.703 128.509 443.738 106.206 439.915 86.6283C435.12 62.0672 423.629 32.0701 403.783 16.8264C393.546 8.96365 374.219 2.04481 374.219 2.04481Z" stroke="black" stroke-width="1.38269"/>
<path d="M410.966 67.7408C393.57 72.0007 384.402 75.4526 369.085 83.3436C369.085 83.3436 364.942 100.291 370.728 109.622C377.758 120.958 388.736 127.164 401.933 125.225C415.172 123.279 432.523 105.516 425.954 86.6284C419.384 67.7408 410.966 67.7408 410.966 67.7408Z" fill="#515151"/>
<path d="M379.765 92.377C378.123 92.377 378.123 90.7346 378.123 89.9134C378.123 89.9134 377.302 93.1982 378.123 95.6618C378.944 98.1254 382.229 96.483 382.229 96.483C382.229 96.483 381.471 102.345 383.05 105.516C384.88 109.193 387.155 112.131 391.262 112.086C395.797 112.036 399.474 105.516 400.295 100.589C401.116 95.6618 397.832 87.4498 397.832 87.4498C397.832 87.4498 399.474 85.8074 401.116 83.3438C402.759 80.8802 400.295 80.059 399.474 80.8802C398.653 81.7014 390.441 87.4498 390.441 87.4498C390.441 87.4498 381.407 92.377 379.765 92.377Z" fill="#010101"/>
<ellipse cx="387.971" cy="98.1249" rx="2.4636" ry="3.2848" fill="white"/>
<path d="M297.898 67.7408C314.948 72.1641 324.187 75.5296 339.926 83.3436C339.926 83.3436 344.083 100.291 338.277 109.622C331.223 120.958 320.206 127.164 306.962 125.225C293.677 123.279 278.518 102.465 283.064 84.986C285.7 74.8502 297.898 67.7408 297.898 67.7408Z" fill="#515151"/>
<path d="M329.212 92.377C330.86 92.377 330.86 90.7346 330.86 89.9134C330.86 89.9134 331.684 93.1982 330.86 95.6618C330.036 98.1254 326.74 96.483 326.74 96.483C326.74 96.483 327.5 102.345 325.916 105.516C324.079 109.193 321.796 112.131 317.675 112.086C313.124 112.036 309.434 105.516 308.61 100.589C307.786 95.6618 311.082 87.4498 311.082 87.4498C311.082 87.4498 309.434 85.8074 307.786 83.3438C306.138 80.8802 308.61 80.059 309.434 80.8802C310.258 81.7014 318.499 87.4498 318.499 87.4498C318.499 87.4498 327.564 92.377 329.212 92.377Z" fill="#010101"/>
<ellipse rx="2.47224" ry="3.2848" transform="matrix(-1 0 0 1 320.969 98.1249)" fill="white"/>
<path d="M321.656 84.986V59.5289L315.908 86.6284M310.159 104.695L303.59 107.98V112.086C294.854 115.733 291.496 119.138 285.523 125.225C290.177 122.214 300.305 116.192 303.59 116.192" stroke="black" stroke-width="0.691344"/>
<path d="M404.601 61.1711C387.356 26.6807 368.468 16.0052 368.468 16.0052C368.468 16.0052 381.608 19.29 378.323 14.3628C375.038 9.43556 365.184 6.97196 365.184 6.97196C369.067 5.82053 371.085 4.974 374.217 2.86597C374.217 2.86597 393.104 13.5416 399.674 19.29C406.244 25.0383 425.131 37.3563 434.164 76.7739C443.198 116.191 411.992 140.827 411.992 140.827L398.032 131.794C398.032 131.794 421.846 95.6615 404.601 61.1711Z" fill="black" fill-opacity="0.43"/>
<path d="M360.257 102.231C357.793 100.589 350.403 101.41 348.76 102.231C347.118 103.052 345.475 104.695 347.118 107.158C348.76 109.622 352.866 112.086 354.509 112.086C356.151 112.086 360.257 108.801 361.078 107.98C361.9 107.158 362.721 103.874 360.257 102.231Z" fill="black"/>
<path d="M286.658 157.809L293.228 153.703L294.87 152.827L305.546 147.134L287.479 106.895C287.479 106.895 271.877 109.358 265.307 113.464C258.737 117.57 261.201 125.782 261.201 125.782C261.201 125.782 257.095 123.319 249.704 125.782C242.313 128.246 244.777 138.922 244.777 138.922C244.777 138.922 249.704 134.816 250.525 136.458C251.347 138.1 286.658 157.809 286.658 157.809Z" fill="#C34428"/>
<path d="M294.87 152.827L305.546 147.134L287.479 106.895C287.479 106.895 271.877 109.358 265.307 113.464C258.737 117.57 261.201 125.782 261.201 125.782C261.201 125.782 257.095 123.319 249.704 125.782C242.313 128.246 244.777 138.922 244.777 138.922C244.777 138.922 249.704 134.816 250.525 136.458C251.347 138.1 286.658 157.809 286.658 157.809L293.228 153.703L294.87 152.827ZM294.87 152.827L271.055 133.994" stroke="black" stroke-width="1.38269"/>
<path d="M264.485 128.246C252.415 126.737 248.302 128.537 246.418 137.279C245.22 127.902 247.618 125.329 260.379 125.782C262.959 115.569 264.297 113.37 273.518 114.286C264.77 117.151 263.807 118.945 264.485 128.246Z" fill="white"/>
<path d="M280.911 142.207C275.809 144.321 274.225 145.898 274.342 149.597L286.66 156.988L304.726 147.134L294.872 126.604C294.872 126.604 285.839 129.889 282.554 133.173C279.269 136.458 280.911 142.207 280.911 142.207Z" fill="black" fill-opacity="0.49"/>
<path d="M268.192 326.977C269.835 319.586 278.047 317.944 278.047 317.944C278.047 317.944 265.729 313.838 261.623 300.698C257.517 287.559 259.98 272.778 259.98 272.778L263.265 255.532C263.265 255.532 252.589 237.466 252.589 233.36C252.589 229.254 263.265 221.042 263.265 221.042V217.757C242.915 211.048 232.924 206.746 215.635 198.87L213.172 144.671C213.172 144.671 266.55 138.101 273.941 138.101C281.331 138.101 328.14 152.883 328.14 152.883L351.955 330.262C351.955 330.262 319.928 345.043 293.649 344.222C267.371 343.401 266.55 334.368 268.192 326.977Z" fill="black" stroke="black" stroke-width="1.38269"/>
<path d="M286.254 340.937C285.301 339.776 285.41 335.025 289.539 332.725L269.83 326.156C269.83 326.156 269.009 329.44 269.83 331.904C270.651 334.368 275.578 337.652 275.578 337.652C276.882 333.536 278.419 332.383 279.684 331.904C279.684 331.904 278.042 337.652 278.042 338.474C278.042 339.295 287.207 342.099 286.254 340.937Z" fill="#535353"/>
<path d="M279.684 280.169C280.132 300.888 284.021 308.865 293.645 320.407C293.645 320.407 273.937 318.765 266.546 304.805C259.155 290.844 261.618 276.063 261.618 276.063C266.167 276.026 268.357 275.358 271.472 272.778C273.008 279.416 274.75 281.169 279.684 280.169Z" fill="#535353"/>
<path d="M273.116 194.764C273.116 194.764 268.188 193.943 267.367 192.3C266.546 190.658 266.546 183.267 261.619 179.982C256.692 176.697 246.837 181.625 243.552 175.876C240.268 170.128 236.983 156.989 235.34 152.061C233.698 147.134 231.234 143.028 231.234 143.028L261.619 138.922L294.467 157.81L273.116 194.764Z" fill="#535353"/>
<path d="M253.41 257.996C250.947 247.32 251.768 234.181 253.41 230.896C255.052 227.612 260.801 225.148 260.801 225.148L258.338 233.36L282.152 221.042L286.258 263.744L260.801 273.599C260.801 273.599 255.874 268.671 253.41 257.996Z" fill="#553F2A" stroke="black" stroke-width="1.38269"/>
<path d="M256.692 253.069C255.05 242.393 255.871 233.36 255.049 233.36C254.228 233.36 254.228 244.036 255.049 251.426C255.871 258.817 257.513 263.744 258.334 267.029C259.155 270.314 262.44 269.493 262.44 269.493C262.44 269.493 258.334 263.744 256.692 253.069Z" fill="white"/>
<path d="M228.776 150.419C230.09 156.988 226.586 161.916 224.67 163.558L223.055 151.445L225.491 143.849C226.038 143.302 227.462 143.849 228.776 150.419Z" fill="#535353"/>
<path d="M152.837 179.161L260.414 180.803C271.911 193.942 262.878 201.333 260.414 204.618C258.443 207.246 251.928 201.333 248.917 198.048H161.87C157.928 202.647 151.468 204.344 148.731 204.618C138.877 191.479 147.362 182.172 152.837 179.161Z" fill="#C5B201" stroke="black" stroke-width="2.07403"/>
<path d="M222.636 183.267C199.095 182.993 151.849 182.938 151.192 184.909L151.192 184.909C150.371 187.373 147.086 197.227 147.086 198.869C147.086 200.512 143.254 191.479 147.086 185.73C148.082 184.236 151.098 182.176 151.612 181.624H151.192C151.685 181.425 151.776 181.448 151.612 181.624H222.636V183.267Z" fill="#FEFDF8"/>
<path d="M260.412 193.942C260.412 190 257.674 184.088 256.306 181.624H260.412L262.876 186.551C265.339 196.406 264.092 198.869 260.412 203.797C259.533 204.974 253.69 198.869 250.132 195.585H162.689L149.55 203.797C146.922 202.483 147.36 197.774 147.907 195.585C152.835 200.512 155.298 197.227 156.119 195.585C156.776 194.271 160.773 191.752 162.689 190.657H237.418C249.736 190.657 254.663 192.3 256.306 193.121C257.948 193.942 260.412 198.869 260.412 193.942Z" fill="#554231"/>
<circle cx="205.392" cy="188.194" r="4.23585" fill="#B7BDBD" stroke="black" stroke-width="1.38269"/>
<path d="M157.337 257.996L165.549 198.869H245.206L257.524 306.446C254.239 316.301 221.665 342.853 205.788 354.897C183.451 341.758 160.896 317.122 152.41 306.446L154.874 271.135L163.086 264.565L157.337 257.996Z" fill="#FBFBFB" stroke="black" stroke-width="2.07403"/>
<path d="M162.263 249.784L172.118 199.69H203.323L204.145 237.466L162.263 249.784Z" fill="#BCBEBD"/>
<path d="M206.608 236.644L207.429 199.69H244.075L246.847 224.326L206.608 236.644Z" fill="#BCBEBD"/>
<path d="M206.608 253.068V248.141L248.489 235.823V239.929L206.608 253.068Z" fill="#BCBEBD"/>
<path d="M204.145 253.89V248.962L162.263 261.28L164.727 264.565L204.145 253.89Z" fill="#BCBEBD"/>
<path d="M256.701 305.625L252.595 276.883L204.145 292.486L160.621 306.446C165.22 318.272 192.648 342.032 205.787 352.434C220.24 342.579 246.026 322.87 256.701 305.625Z" fill="#BCBEBD"/>
<path d="M205.784 332.725L207.426 199.69H203.32L205.784 332.725Z" fill="black"/>
<path d="M186.906 180.803C179.023 140.729 191.012 130.984 197.582 131.531C229.609 127.425 228.514 141.112 224.681 148.776C227.966 151.404 225.229 170.949 224.681 180.803H186.906Z" fill="#535353" stroke="black" stroke-width="2.07403"/>
<path d="M191.005 177.518C183.122 150.583 193.195 137.827 199.217 134.816C187.72 134.816 186.899 144.67 186.078 151.24C185.406 156.615 185.257 167.664 187.72 177.518H191.005Z" fill="#FEFDF8"/>
<path d="M209.894 143.849C210.551 141.221 207.978 135.637 206.609 133.173C217.285 130.71 217.285 136.458 220.57 138.922C223.855 141.385 218.927 146.313 219.749 147.955C220.406 149.269 219.475 168.759 218.927 178.339H209.073C211.537 176.697 209.894 164.379 209.073 161.094C208.252 157.809 209.073 147.134 209.894 143.849Z" fill="black"/>
<rect x="208.254" y="106.895" width="6.56959" height="24.636" fill="#58252C"/>
<rect x="200.039" y="105.252" width="8.21199" height="26.2784" fill="#C5B201"/>
<rect x="196.75" y="105.252" width="3.2848" height="26.2784" fill="white"/>
<path d="M215.646 130.71H203.328L195.938 131.531V124.961M215.646 130.71V113.465M215.646 130.71C210.993 126.877 200.536 120.363 195.938 124.961M215.646 113.465V106.895L201.686 97.0405L195.938 108.537V120.034M215.646 113.465C210.172 113.191 198.565 114.121 195.938 120.034M195.938 120.034V124.961" stroke="black" stroke-width="2.07403"/>
<path d="M219.748 103.61C221.062 93.0989 214.821 88.8286 204.966 88.8286C195.112 88.8286 187.721 95.3982 190.185 103.61C192.155 110.18 198.123 107.99 200.86 106.074C201.681 104.705 204.638 102.789 209.893 106.074C215.149 109.359 218.379 105.8 219.748 103.61Z" fill="#CBB601" stroke="black" stroke-width="2.07403"/>
<path d="M208.254 103.61C211.539 100.325 210.444 93.2083 208.254 90.4709C222.214 92.1133 219.751 103.61 217.287 105.253C215.316 106.566 211.539 106.895 208.254 103.61Z" fill="#5D4430"/>
<path d="M195.932 94.5768C192.647 101.146 196.753 104.431 199.217 105.252C195.932 106.566 194.016 105.8 193.468 105.252C190.183 101.311 193.742 96.493 195.932 94.5768Z" fill="white"/>
<path d="M485.222 269.493L463.05 210.366L440.056 214.472L435.129 314.659C435.129 314.659 458.944 318.765 472.083 309.732C485.222 300.698 478.652 281.811 478.652 281.811C478.652 281.811 483.58 280.99 485.222 277.705C486.864 274.42 485.222 269.493 485.222 269.493Z" fill="#332616"/>
<path d="M478.652 281.811L473.725 257.175M478.652 281.811C478.652 281.811 485.222 300.698 472.083 309.732C458.944 318.765 435.129 314.659 435.129 314.659L440.056 214.472L463.05 210.366L485.222 269.493C485.222 269.493 486.864 274.42 485.222 277.705C483.58 280.99 478.652 281.811 478.652 281.811Z" stroke="black" stroke-width="1.38269"/>
<path d="M467.157 276.884L471.263 271.135M466.336 272.778L471.263 276.063" stroke="black" stroke-width="1.38269"/>
<path d="M458.18 273.599C453.253 303.983 431.902 314.659 431.902 314.659C431.902 314.659 439.293 315.48 440.935 324.513C442.578 333.546 427.796 339.295 427.796 339.295L399.875 340.937L372.776 314.659C370.312 300.972 365.549 273.106 366.206 271.135C366.863 269.164 371.954 184.909 374.418 143.028L445.862 167.664C445.862 167.664 463.108 243.214 458.18 273.599Z" fill="black" stroke="black" stroke-width="1.38269"/>
<path d="M436.832 304.804C430.262 312.688 410.006 317.669 400.699 318.764C400.699 318.764 413.017 319.586 426.156 314.658C439.296 309.731 441.759 303.162 441.759 303.162C442.854 300.698 443.402 296.921 436.832 304.804Z" fill="#C4C4C4"/>
<path d="M435.185 325.334C434.364 320.407 430.258 317.122 430.258 317.122C430.258 317.122 436.827 319.586 437.649 324.513C438.47 329.44 432.721 332.725 432.721 332.725C432.721 332.725 436.006 330.261 435.185 325.334Z" fill="#C4C4C4"/>
<path d="M421.986 247.32C408.026 239.929 402.277 235.823 402.277 235.823L405.562 218.578C418.891 227.49 426.248 231.02 439.231 235.002L453.192 254.711C453.192 254.711 435.947 254.711 421.986 247.32Z" fill="#34281A" stroke="black" stroke-width="1.38269"/>
<path d="M449.087 262.923C449.087 255.258 443.175 256.025 442.518 254.711C425.588 250.604 416.548 245.466 400.637 235.002V277.704C400.637 277.704 412.134 265.386 423.63 262.923C435.127 260.459 449.087 262.923 449.087 262.923Z" fill="#8E8E8E" stroke="black" stroke-width="1.38269"/>
<path d="M438.152 276.883C441.436 272.777 450.47 266.208 450.47 266.208V261.28V255.532L459.503 244.856L464.43 253.068L464.122 260.459L463.609 272.777C463.609 272.777 457.039 276.883 453.754 280.168C450.47 283.453 452.112 294.128 460.324 294.128C468.536 294.128 472.642 283.453 472.642 283.453C472.642 283.453 473.463 290.022 471.821 293.307C470.178 296.592 463.609 304.804 456.218 304.804C448.827 304.804 443.079 298.234 440.615 294.128C438.151 290.022 434.867 280.989 438.152 276.883Z" fill="white"/>
<path d="M450.47 261.28V255.532L459.503 244.856L464.43 253.068L464.122 260.459M450.47 261.28V266.208C450.47 266.208 441.436 272.777 438.152 276.883C434.867 280.989 438.151 290.022 440.615 294.128C443.079 298.234 448.827 304.804 456.218 304.804C463.609 304.804 470.178 296.592 471.821 293.307C473.463 290.022 472.642 283.453 472.642 283.453C472.642 283.453 468.536 294.128 460.324 294.128C452.112 294.128 450.47 283.453 453.754 280.168C457.039 276.883 463.609 272.777 463.609 272.777L464.122 260.459M450.47 261.28C455.345 263.979 458.375 263.563 464.122 260.459" stroke="black" stroke-width="1.38269"/>
<path d="M428.56 215.293C426.918 208.723 423.633 182.445 423.633 182.445L477.011 172.591C480.534 185.829 481.516 193.706 481.117 208.723C481.117 208.723 484.402 225.969 463.05 232.538C441.699 239.108 430.202 221.863 428.56 215.293Z" fill="#535353" stroke="black" stroke-width="1.38269"/>
<path d="M480.296 213.651C479.285 195.123 478.889 191.39 474.547 177.518L423.633 182.445L425.275 194.763C439.154 198.625 447.507 199.26 463.872 196.406V225.148L480.296 213.651Z" fill="#090909"/>
<path d="M457.301 222.684C437.593 224.326 427.738 212.829 427.738 212.829C427.738 212.829 431.023 231.717 432.665 235.002C434.308 238.287 443.341 260.459 461.407 254.711C479.474 248.962 485.222 220.22 485.222 212.008C485.222 203.796 481.937 202.154 481.937 202.154C481.937 202.154 477.01 221.041 457.301 222.684Z" fill="#C34428" stroke="black" stroke-width="1.38269"/>
<path d="M463.87 239.108C464.692 231.717 463.87 221.863 463.87 221.863C468.22 220.467 470.551 219.362 474.546 215.293C474.546 215.293 474.546 225.969 472.904 235.002C471.261 244.035 465.513 252.247 465.513 252.247C462.037 253.909 460.229 254.49 457.301 254.711C457.301 254.711 463.049 246.499 463.87 239.108Z" fill="#612214"/>
<path d="M438.418 105.252C444.44 107.99 456.812 114.285 458.126 117.57C458.366 118.168 458.553 118.714 458.715 119.213C459.669 122.137 459.785 123.438 464.696 124.14C469.295 124.797 477.835 143.027 478.656 149.597C479.478 156.167 479.478 164.379 479.478 164.379C484.321 165.819 487.008 167.917 491.796 173.412C491.796 173.412 472.908 185.73 449.914 187.372C426.921 189.015 421.172 187.372 415.424 179.981C409.676 172.591 399 150.418 399 150.418L399.717 149.597L438.418 105.252Z" fill="#612214"/>
<path d="M479.478 164.379C479.478 164.379 479.478 156.167 478.656 149.597C477.835 143.027 469.295 124.797 464.696 124.14C459.785 123.438 459.669 122.137 458.715 119.213C458.553 118.714 458.366 118.168 458.126 117.57C456.812 114.285 444.44 107.99 438.418 105.252L399.717 149.597M479.478 164.379C484.321 165.819 487.008 167.917 491.796 173.412C491.796 173.412 472.908 185.73 449.914 187.372C426.921 189.015 421.172 187.372 415.424 179.981C409.676 172.591 399 150.418 399 150.418L399.717 149.597M479.478 164.379C479.478 164.379 474.55 169.306 462.232 171.769C449.914 174.233 434.312 173.412 434.312 173.412C434.312 173.412 436.775 161.915 426.921 154.524C417.066 147.133 399.717 149.597 399.717 149.597" stroke="black" stroke-width="1.38269"/>
<path d="M442.525 175.875L475.373 167.663C475.373 167.663 470.446 156.167 461.412 145.491C452.379 134.815 443.346 129.067 443.346 129.067C443.346 129.067 439.24 138.921 431.849 147.955C424.458 156.988 417.068 163.557 417.068 163.557L401.465 148.776L438.419 105.252L454.843 114.285L459.77 124.961C459.77 124.961 465.518 124.14 472.909 136.458C480.3 148.776 477.836 166.842 477.836 166.842L484.406 172.591C484.406 172.591 471.267 179.981 461.412 182.445C451.558 184.908 437.598 187.372 437.598 187.372L460.591 178.339L442.525 175.875Z" fill="#612214"/>
<path d="M454.841 120.855C453.199 117.57 439.895 110.179 439.238 110.179L440.059 106.895C440.059 106.895 452.377 113.464 455.662 117.57C458.947 121.676 459.768 124.961 459.768 124.961C459.768 124.961 462.232 124.14 464.695 125.782C467.159 127.424 472.086 135.636 474.55 142.206C477.013 148.776 477.835 161.915 477.835 161.915C477.835 161.915 475.371 148.776 472.907 143.848L472.907 143.848C470.444 138.921 466.338 130.709 464.695 129.067C463.053 127.424 458.947 128.246 457.305 127.424C455.662 126.603 456.483 124.14 454.841 120.855Z" fill="#FFFBFB"/>
<path d="M480.651 167.951C479.83 167.13 479.009 166.309 479.83 166.309C480.651 166.309 481.941 166.842 481.941 166.842C483.583 167.663 489.331 173.412 489.331 173.412C489.331 173.412 481.473 168.772 480.651 167.951L480.651 167.951Z" fill="#FFFBFB"/>
<path d="M443.323 129.118C438.332 140.063 435.741 145.745 426.922 153.703C434.053 159.376 435.289 163.409 435.134 172.591C453.289 173.225 462.242 172.015 475.373 166.842C465.808 149.346 459.075 140.817 443.346 129.067L443.323 129.118Z" fill="#C34428"/>
<path d="M458.948 118.391C453.233 124.36 450.482 129.542 445.809 139.743L458.948 128.246" stroke="black" stroke-width="1.38269"/>
<path d="M329.667 117.524C328.212 117.302 322.618 116.216 322.618 112.643C322.619 108.537 339.672 109.276 355.466 112.643C373.701 109.315 382.86 108.119 383.387 115.928C383.387 115.928 398.168 117.571 404.738 123.319C411.308 129.067 402.274 129.067 402.274 129.067C418.23 148.538 421.983 181.624 419.52 181.624C417.056 181.624 412.95 175.876 412.95 175.876C412.95 175.876 424.447 198.869 421.983 200.512C419.52 202.154 412.95 194.763 412.95 194.763C418.628 221.552 418.959 232.974 411.308 242.393C409.23 269.001 407.777 282.963 399.811 290.023C396.892 286.778 397.361 282.239 397.347 275.241C397.347 275.241 390.778 291.665 393.241 309.731C395.705 327.798 404.738 336.831 407.202 339.294C408.67 340.763 413.64 342.231 417.589 344.222C420.265 345.57 422.473 347.159 422.804 349.149C423.626 354.076 414.193 357.352 391.599 355.718C369.566 360.118 356.065 354.647 330.83 336.831C330.683 345.329 320.976 333.546 315.227 326.976C309.479 320.407 302.909 302.341 302.909 302.341C304.59 310.143 305.069 314.263 303.731 320.407C298.386 321.592 282.555 285.441 287.307 260.459C278.132 278.219 275.81 262.923 277.452 247.32C279.095 231.717 285.664 220.221 285.664 220.221C285.664 220.221 278.273 232.539 279.095 216.115C279.916 199.69 285.664 187.373 285.664 187.373C285.664 187.373 271.704 202.975 276.631 182.445C281.559 161.915 293.876 152.882 293.876 152.882C293.876 152.882 275.81 165.2 286.486 148.776C297.161 132.352 306.194 130.71 306.194 130.71C306.194 130.71 297.161 127.425 308.658 121.677C318.899 116.557 327.836 117.3 329.667 117.524Z" fill="#C34428"/>
<path d="M391.599 355.718C414.194 357.352 423.626 354.076 422.804 349.149C422.473 347.159 420.265 345.57 417.589 344.222M391.599 355.718C369.566 360.118 356.065 354.647 330.83 336.831M391.599 355.718C384.208 353.529 367.785 348.163 361.215 344.222M330.83 336.831C330.683 345.329 320.976 333.546 315.227 326.976C309.479 320.407 302.909 302.341 302.909 302.341C304.59 310.143 305.069 314.263 303.731 320.407C298.386 321.592 282.555 285.441 287.307 260.459C278.132 278.219 275.81 262.923 277.452 247.32C279.095 231.717 285.664 220.221 285.664 220.221C285.664 220.221 278.273 232.539 279.095 216.115C279.916 199.69 285.664 187.373 285.664 187.373C285.664 187.373 271.704 202.975 276.631 182.445C281.559 161.915 293.876 152.882 293.876 152.882C293.876 152.882 275.81 165.2 286.486 148.776C297.161 132.352 306.194 130.71 306.194 130.71C306.194 130.71 297.161 127.425 308.658 121.677C320.155 115.928 330.009 117.571 330.009 117.571C330.009 117.571 322.618 116.75 322.618 112.643C322.619 108.537 339.672 109.276 355.466 112.643C373.701 109.315 382.86 108.119 383.387 115.928C383.387 115.928 398.168 117.571 404.738 123.319C411.308 129.067 402.274 129.067 402.274 129.067C418.231 148.538 421.983 181.624 419.52 181.624C417.056 181.624 412.95 175.876 412.95 175.876C412.95 175.876 424.447 198.869 421.983 200.512C419.52 202.154 412.95 194.763 412.95 194.763C418.628 221.552 418.959 232.974 411.308 242.393C409.23 269.001 407.777 282.963 399.811 290.023C396.892 286.778 397.361 282.239 397.347 275.241C397.347 275.241 390.778 291.665 393.241 309.731C395.705 327.798 404.738 336.831 407.202 339.294C408.67 340.763 413.64 342.231 417.589 344.222M330.83 336.831L321.797 325.334M417.589 344.222C412.484 343.948 400.467 341.101 393.241 331.904" stroke="black" stroke-width="1.38269"/>
<path d="M376.82 116.749C379.448 112.151 370.251 111.001 365.324 111.001C365.324 111.001 375.999 107.716 379.284 110.18C382.569 112.643 383.39 115.928 383.39 115.928C383.39 115.928 394.065 116.749 398.171 120.855C402.277 124.961 407.205 137.279 407.205 137.279C412.795 152.109 419.523 174.233 418.701 175.876C417.88 177.518 411.311 174.233 411.311 174.233C415.133 187.98 418.755 194.481 417.88 197.227L412.953 193.942V198.869C413.544 222.348 412.5 233.815 409.668 253.069C404.292 273.894 402.255 284.975 398.171 287.559V273.599C398.171 273.599 394.065 287.559 393.244 294.95C392.423 302.34 392.423 313.016 394.887 320.407C397.35 327.798 403.92 334.367 404.741 336.831C405.562 339.294 403.92 339.294 403.92 339.294C403.92 339.294 421.165 345.043 421.986 348.328C422.807 351.612 416.238 354.897 409.668 355.718C403.099 356.54 388.317 356.54 388.317 356.54C388.317 356.54 375.178 357.361 357.933 352.434C340.687 347.506 320.979 323.692 320.979 323.692C320.979 323.692 330.833 336.831 329.191 339.294C327.548 341.758 316.873 329.44 313.588 323.692C310.303 317.943 305.923 306.994 302.091 299.056V315.48L288.952 285.917C288.405 279.073 287.638 267.357 288.952 275.241C290.266 283.124 296.617 297.14 299.628 303.162V287.559C300.285 290.187 309.756 307.268 314.409 315.48V311.374L331.654 327.798C343.48 340.28 350.816 341.758 353.006 340.937C356.29 339.623 346.162 328.345 340.688 322.87C343.315 325.498 365.324 337.652 375.999 343.4C387.824 348.656 386.948 343.948 385.032 340.937C389.631 344.222 394.613 343.948 396.529 343.4C393.244 341.43 390.233 337.652 389.138 336.01C381.912 325.498 380.105 317.943 380.105 315.48C384.704 321.392 387.496 323.965 388.317 324.513C385.032 318.6 382.569 303.983 381.748 297.413C385.032 300.698 386.948 298.782 387.496 297.413C387.77 296.045 387.989 291.829 386.675 285.917C385.361 280.004 388.317 268.124 389.96 262.923C397.186 278.033 399.54 246.773 399.814 229.254C406.384 238.451 403.646 221.042 401.456 211.187C406.712 198.048 400.909 177.792 397.35 169.306C399.978 171.934 402.278 173.138 403.099 173.412C407.697 172.098 397.898 151.514 392.423 141.385C397.679 149.269 402.825 151.787 404.741 152.061C411.968 150.09 396.255 132.626 387.496 124.14C389.467 124.797 393.244 124.961 394.887 124.961C394.23 121.02 382.569 117.844 376.82 116.749Z" fill="black" fill-opacity="0.48"/>
<ellipse cx="378.869" cy="281.199" rx="2.02963" ry="6.56959" transform="rotate(7.53849 378.869 281.199)" fill="#652315"/>
<ellipse rx="1.08686" ry="3.51798" transform="matrix(-0.991357 -0.131192 -0.131192 0.991357 373.941 279.556)" fill="#652315"/>
<ellipse rx="1.38711" ry="4.08846" transform="matrix(-0.802769 0.59629 0.59629 0.802769 366.41 325.8)" fill="#652315"/>
<ellipse rx="1.28071" ry="3.77484" transform="matrix(-0.802769 0.59629 0.59629 0.802769 367.781 319.274)" fill="#652315"/>
<ellipse rx="1.88176" ry="5.19752" transform="matrix(-0.996188 -0.0872353 -0.0872353 0.996188 394.656 239.373)" fill="#652315"/>
<path d="M359.571 166.021C356.943 166.678 355.465 163.284 355.465 161.915L357.928 162.737C359.899 164.051 359.845 156.715 359.571 152.882C362.856 154.853 364.772 152.609 365.319 151.24C365.976 156.496 363.951 157.809 362.856 157.809C362.856 160.273 362.199 165.365 359.571 166.021Z" fill="#652315"/>
<path d="M348.895 127.425L355.464 122.498L361.213 128.246M358.749 139.743C361.486 143.028 366.468 150.254 364.497 152.882C362.526 155.51 359.844 152.335 358.749 150.419C360.118 154.251 362.034 162.244 358.749 163.558C357.928 163.01 356.121 161.587 355.464 160.273C355.19 162.463 354.479 166.843 353.822 166.843" stroke="black" stroke-width="1.38269"/>
<defs>
<radialGradient id="paint0_radial_0_1" cx="0" cy="0" r="1" gradientUnits="userSpaceOnUse" gradientTransform="translate(572.167 301.636) rotate(180) scale(33.1745 29.662)">
<stop stop-color="#8B8300"/>
<stop offset="1" stop-color="#6D6400"/>
</radialGradient>
<linearGradient id="paint1_linear_0_1" x1="607.126" y1="332.698" x2="607.126" y2="275.182" gradientUnits="userSpaceOnUse">
<stop stop-color="#C79774"/>
<stop offset="1" stop-color="#977277"/>
</linearGradient>
<radialGradient id="paint2_radial_0_1" cx="0" cy="0" r="1" gradientUnits="userSpaceOnUse" gradientTransform="translate(543.762 209.122) rotate(11.2071) scale(61.1682 121.751)">
<stop stop-color="#DBC000"/>
<stop offset="1" stop-color="#B5A700"/>
</radialGradient>
<linearGradient id="paint3_linear_0_1" x1="554.949" y1="356.626" x2="624.638" y2="292.576" gradientUnits="userSpaceOnUse">
<stop stop-color="#C79774"/>
<stop offset="1" stop-color="#977277"/>
</linearGradient>
<linearGradient id="paint4_linear_0_1" x1="466.113" y1="261.194" x2="455.317" y2="277.629" gradientUnits="userSpaceOnUse">
<stop stop-color="#946F42"/>
<stop offset="1"/>
</linearGradient>
<radialGradient id="paint5_radial_0_1" cx="0" cy="0" r="1" gradientUnits="userSpaceOnUse" gradientTransform="translate(560.296 399.936) scale(34.3378 34.3864)">
<stop stop-color="#9F9500"/>
<stop offset="1" stop-color="#7F7F00"/>
</radialGradient>
<linearGradient id="paint6_linear_0_1" x1="578.426" y1="648.799" x2="578.426" y2="342.879" gradientUnits="userSpaceOnUse">
<stop stop-color="#8F2726"/>
<stop offset="1" stop-color="#AB401D"/>
</linearGradient>
<linearGradient id="paint7_linear_0_1" x1="46.3242" y1="425.601" x2="579.338" y2="425.601" gradientUnits="userSpaceOnUse">
<stop stop-color="#C77CBD"/>
<stop offset="1" stop-color="#974577"/>
</linearGradient>
<radialGradient id="paint8_radial_0_1" cx="0" cy="0" r="1" gradientUnits="userSpaceOnUse" gradientTransform="translate(313.039 361.779) scale(222.563 23.1793)">
<stop stop-color="#9F9500"/>
<stop offset="1" stop-color="#7F7F00"/>
</radialGradient>
<radialGradient id="paint9_radial_0_1" cx="0" cy="0" r="1" gradientUnits="userSpaceOnUse" gradientTransform="translate(379.429 359.802) scale(61.6179 17.038)">
<stop stop-color="#DBC000"/>
<stop offset="1" stop-color="#B5A700"/>
</radialGradient>
<radialGradient id="paint10_radial_0_1" cx="0" cy="0" r="1" gradientUnits="userSpaceOnUse" gradientTransform="translate(109.485 355.234) scale(34.7747 10.0806)">
<stop stop-color="#DBC000"/>
<stop offset="1" stop-color="#B5A700"/>
</radialGradient>
</defs>
</svg>
