<svg width="17" height="234" viewBox="0 0 17 234" fill="none" xmlns="http://www.w3.org/2000/svg">
<path d="M5.99996 3C4.16662 7.16667 1.29996 17.4 4.49996 25C8.49996 34.5 12.5 41 11.5 57.5C10.5 74 4.49996 78 4.49996 83C4.49996 88 16.5 110.5 14 127.5C11.5 144.5 5 141.5 6 151C7 160.5 11 165.5 12.5 177C14 188.5 7.50004 195 6 203C4.49996 211 12.5 219.5 12.5 223.5C12.5 226.7 12.5 230.167 12.5 231.5" stroke="#A4A400" stroke-width="5"/>
<path d="M9 2C9.75462 47.3333 10.8111 157 9 233" stroke="#808001" stroke-width="5"/>
<path d="M3 2C6 4.33333 12.3 12.3 13.5 25.5C15 42 2.5 41.5 5 56C7.5 70.5 13.5 67 13.5 80.5C13.5 94 5 101 5 111C5 121 13.5 132.5 13.5 144C13.5 155.5 5 157.5 5 172C5 186.5 9.5 190 11.5 198.5C13.5 207 5 219.5 5 223.5C5 226.7 5 231.167 5 233" stroke="#565600" stroke-width="5"/>
</svg>
